<svg width="24" height="24" viewBox="0 0 24 24" fill="none" xmlns="http://www.w3.org/2000/svg">
<path d="M12 5.07143C15.5357 5.07143 18.4286 7.96429 18.4286 11.5C18.4286 15.0357 15.5357 17.9286 12 17.9286C8.46429 17.9286 5.57143 15.0357 5.57143 11.5C5.57143 7.96429 8.46429 5.07143 12 5.07143ZM12 4C7.875 4 4.5 7.375 4.5 11.5C4.5 15.625 7.875 19 12 19C16.125 19 19.5 15.625 19.5 11.5C19.5 7.375 16.125 4 12 4Z" fill="white"/>
<path d="M16.5 10.9375H12.5625V7H11.4375V10.9375H7.5V12.0625H11.4375V16H12.5625V12.0625H16.5V10.9375Z" fill="white"/>
</svg>
