<svg width="16" height="16" viewBox="0 0 16 16" fill="none" xmlns="http://www.w3.org/2000/svg">
<path d="M10.0898 4.36994C10.019 4.32888 9.94074 4.30225 9.85957 4.29159C9.7784 4.28093 9.69592 4.28645 9.6169 4.30783C9.53787 4.32921 9.46386 4.36604 9.39914 4.41617C9.33442 4.46631 9.28028 4.52877 9.23982 4.59994L5.66982 10.7799C5.62876 10.8508 5.60213 10.929 5.59147 11.0102C5.58081 11.0914 5.58633 11.1738 5.60771 11.2529C5.6291 11.3319 5.66592 11.4059 5.71605 11.4706C5.76619 11.5353 5.82865 11.5895 5.89982 11.6299C5.99294 11.6868 6.10084 11.7146 6.20982 11.7099C6.31897 11.7095 6.42613 11.6807 6.5208 11.6263C6.61546 11.572 6.69438 11.494 6.74982 11.3999L10.3198 5.21994C10.3623 5.14948 10.39 5.07115 10.4014 4.98969C10.4128 4.90822 10.4076 4.82529 10.3861 4.74589C10.3646 4.66648 10.3273 4.59225 10.2764 4.52764C10.2255 4.46303 10.162 4.40939 10.0898 4.36994ZM7.34982 6.42994C7.37153 5.86029 7.16716 5.30516 6.78128 4.88556C6.3954 4.46596 5.85929 4.21592 5.28982 4.18994C4.7195 4.21593 4.18239 4.46564 3.79491 4.88494C3.40744 5.30423 3.20081 5.85934 3.21982 6.42994C3.19812 7.00224 3.40354 7.55991 3.79129 7.98139C4.17905 8.40286 4.7177 8.65396 5.28982 8.67994C5.86109 8.65399 6.39876 8.40255 6.78493 7.98077C7.17109 7.55899 7.37424 7.00128 7.34982 6.42994ZM5.28982 7.42994C5.05011 7.40221 4.83057 7.28239 4.67756 7.0958C4.52455 6.9092 4.45006 6.67044 4.46982 6.42994C4.44745 6.1889 4.52098 5.94875 4.67448 5.76156C4.82798 5.57437 5.04907 5.45522 5.28982 5.42994C5.52984 5.45514 5.75002 5.57466 5.90192 5.76219C6.05382 5.94973 6.12501 6.18992 6.09982 6.42994C6.12234 6.66943 6.05016 6.90821 5.89876 7.09513C5.74736 7.28205 5.52877 7.40224 5.28982 7.42994ZM10.7098 7.31994C10.1404 7.34592 9.60424 7.59596 9.21836 8.01556C8.83248 8.43516 8.62812 8.99029 8.64982 9.55994C8.6254 10.1313 8.82855 10.689 9.21472 11.1108C9.60088 11.5326 10.1386 11.784 10.7098 11.8099C11.2819 11.784 11.8206 11.5329 12.2084 11.1114C12.5961 10.6899 12.8015 10.1322 12.7798 9.55994C12.7988 8.98934 12.5922 8.43423 12.2047 8.01494C11.8173 7.59564 11.2801 7.34593 10.7098 7.31994ZM10.7098 10.5599C10.4709 10.5322 10.2523 10.4121 10.1009 10.2251C9.94948 10.0382 9.8773 9.79943 9.89982 9.55994C9.8773 9.32045 9.94948 9.08167 10.1009 8.89475C10.2523 8.70783 10.4709 8.58765 10.7098 8.55994C10.9506 8.58522 11.1717 8.70437 11.3252 8.89156C11.4787 9.07875 11.5522 9.3189 11.5298 9.55994C11.5496 9.80044 11.4751 10.0392 11.3221 10.2258C11.1691 10.4124 10.9495 10.5322 10.7098 10.5599Z" fill="#3D4C66"/>
<path d="M8 0.499942C5.94501 0.435234 3.94833 1.1887 2.44839 2.59489C0.94845 4.00108 0.0678685 5.94505 0 7.99994C0.0678685 10.0548 0.94845 11.9988 2.44839 13.405C3.94833 14.8112 5.94501 15.5647 8 15.4999C10.055 15.5647 12.0517 14.8112 13.5516 13.405C15.0515 11.9988 15.9321 10.0548 16 7.99994C15.9321 5.94505 15.0515 4.00108 13.5516 2.59489C12.0517 1.1887 10.055 0.435234 8 0.499942ZM8 14.2499C6.27717 14.3122 4.59981 13.6896 3.33484 12.5183C2.06987 11.347 1.32027 9.72246 1.25 7.99994C1.32027 6.27742 2.06987 4.65284 3.33484 3.48157C4.59981 2.3103 6.27717 1.6877 8 1.74994C9.72283 1.6877 11.4002 2.3103 12.6652 3.48157C13.9301 4.65284 14.6797 6.27742 14.75 7.99994C14.6797 9.72246 13.9301 11.347 12.6652 12.5183C11.4002 13.6896 9.72283 14.3122 8 14.2499Z" fill="#3D4C66"/>
</svg>
