<svg width="13" height="22" viewBox="0 0 13 22" fill="none" xmlns="http://www.w3.org/2000/svg">
<path d="M12.3988 0.658395C12.7034 0.963128 12.8745 1.37638 12.8745 1.80727C12.8745 2.23816 12.7034 2.65141 12.3988 2.95615L4.35502 10.9999L12.3988 19.0436C12.6948 19.3501 12.8586 19.7606 12.8549 20.1867C12.8512 20.6127 12.6803 21.0203 12.379 21.3216C12.0777 21.6229 11.6701 21.7938 11.244 21.7975C10.818 21.8012 10.4075 21.6374 10.101 21.3414L0.908395 12.1488C0.603755 11.844 0.432617 11.4308 0.432617 10.9999C0.432617 10.569 0.603755 10.1558 0.908395 9.85102L10.101 0.658395C10.4058 0.353755 10.819 0.182617 11.2499 0.182617C11.6808 0.182617 12.094 0.353755 12.3988 0.658395Z" fill="#3D4C66"/>
</svg>
