<svg width="50" height="50" viewBox="0 0 50 50" fill="none" xmlns="http://www.w3.org/2000/svg">
<rect width="50" height="50" rx="10" fill="#2797E8"/>
<path d="M20.1763 18H21.3763L18.8863 11.04H17.5663L15.0763 18H16.2663L16.7663 16.58H19.6763L20.1763 18ZM19.3563 15.65H17.0863L18.2263 12.42L19.3563 15.65ZM23.599 13.3V12.49H22.459V20.62H23.599V17.2C23.959 17.63 24.609 18.09 25.519 18.09C26.969 18.09 28.109 16.92 28.109 15.22C28.109 13.52 26.969 12.4 25.519 12.4C24.619 12.4 23.949 12.84 23.599 13.3ZM26.949 15.22C26.949 16.41 26.129 17.1 25.269 17.1C24.419 17.1 23.599 16.43 23.599 15.24C23.599 14.06 24.419 13.39 25.269 13.39C26.129 13.39 26.949 14.03 26.949 15.22ZM30.3763 13.3V12.49H29.2363V20.62H30.3763V17.2C30.7363 17.63 31.3863 18.09 32.2963 18.09C33.7463 18.09 34.8863 16.92 34.8863 15.22C34.8863 13.52 33.7463 12.4 32.2963 12.4C31.3963 12.4 30.7263 12.84 30.3763 13.3ZM33.7263 15.22C33.7263 16.41 32.9063 17.1 32.0463 17.1C31.1963 17.1 30.3763 16.43 30.3763 15.24C30.3763 14.06 31.1963 13.39 32.0463 13.39C32.9063 13.39 33.7263 14.03 33.7263 15.22ZM14.998 29H16.138V22.05H14.998V29ZM17.2548 26.24C17.2548 27.97 18.3748 29.09 19.9548 29.09C21.3048 29.09 22.1848 28.34 22.4948 27.26H21.2648C21.0548 27.83 20.6348 28.13 19.9548 28.13C19.0348 28.13 18.4248 27.45 18.4248 26.24C18.4248 25.04 19.0348 24.36 19.9548 24.36C20.6348 24.36 21.0748 24.7 21.2648 25.23H22.4948C22.1848 24.07 21.3048 23.4 19.9548 23.4C18.3748 23.4 17.2548 24.52 17.2548 26.24ZM28.8809 26.24C28.8809 24.51 27.6409 23.4 26.0709 23.4C24.5009 23.4 23.2609 24.51 23.2609 26.24C23.2609 27.97 24.4509 29.09 26.0209 29.09C27.6009 29.09 28.8809 27.97 28.8809 26.24ZM24.4209 26.24C24.4209 24.99 25.1909 24.39 26.0509 24.39C26.9009 24.39 27.7109 24.99 27.7109 26.24C27.7109 27.49 26.8709 28.1 26.0209 28.1C25.1609 28.1 24.4209 27.49 24.4209 26.24ZM33.9178 29H35.0478V25.75C35.0478 24.21 34.0778 23.4 32.7878 23.4C32.1278 23.4 31.5178 23.67 31.1478 24.12V23.49H30.0078V29H31.1478V25.92C31.1478 24.91 31.6978 24.39 32.5378 24.39C33.3678 24.39 33.9178 24.91 33.9178 25.92V29ZM14.4121 40H15.5521V36.92C15.5521 35.91 16.1021 35.39 16.9421 35.39C17.7721 35.39 18.3221 35.91 18.3221 36.92V40H19.4521V36.75C19.4521 35.21 18.4921 34.4 17.2621 34.4C16.5521 34.4 15.9321 34.67 15.5521 35.13V32.6H14.4121V40ZM23.2263 35.36C24.0763 35.36 24.7463 35.9 24.7663 36.75H21.7163C21.8363 35.88 22.4563 35.36 23.2263 35.36ZM25.8062 38.36H24.5763C24.3663 38.79 23.9763 39.13 23.2763 39.13C22.4363 39.13 21.7863 38.58 21.7063 37.67H25.9163C25.9463 37.48 25.9563 37.3 25.9563 37.11C25.9563 35.49 24.8463 34.4 23.2763 34.4C21.6463 34.4 20.5263 35.51 20.5263 37.24C20.5263 38.97 21.6963 40.09 23.2763 40.09C24.6263 40.09 25.4963 39.32 25.8062 38.36ZM28.2181 37.1C28.2181 35.93 28.7381 35.58 29.5781 35.58H29.8681V34.4C29.0881 34.4 28.5381 34.74 28.2181 35.29V34.49H27.0781V40H28.2181V37.1ZM33.236 35.36C34.086 35.36 34.756 35.9 34.776 36.75H31.726C31.846 35.88 32.466 35.36 33.236 35.36ZM35.816 38.36H34.586C34.376 38.79 33.986 39.13 33.286 39.13C32.446 39.13 31.796 38.58 31.716 37.67H35.926C35.956 37.48 35.966 37.3 35.966 37.11C35.966 35.49 34.856 34.4 33.286 34.4C31.656 34.4 30.536 35.51 30.536 37.24C30.536 38.97 31.706 40.09 33.286 40.09C34.636 40.09 35.506 39.32 35.816 38.36Z" fill="white"/>
</svg>
