<svg width="29" height="29" viewBox="0 0 29 29" fill="none" xmlns="http://www.w3.org/2000/svg">
<circle opacity="0.2" cx="14.5488" cy="14.4531" r="14" fill="#00B998"/>
<g clip-path="url(#clip0_4164_32784)">
<path d="M14.5488 8.45312C13.3621 8.45312 12.2021 8.80502 11.2154 9.46431C10.2287 10.1236 9.45968 11.0607 9.00555 12.157C8.55143 13.2534 8.43261 14.4598 8.66412 15.6237C8.89563 16.7876 9.46708 17.8567 10.3062 18.6958C11.1453 19.5349 12.2144 20.1063 13.3783 20.3378C14.5422 20.5693 15.7486 20.4505 16.8449 19.9964C17.9413 19.5423 18.8784 18.7732 19.5376 17.7865C20.1969 16.7999 20.5488 15.6398 20.5488 14.4531C20.5488 12.8618 19.9167 11.3357 18.7915 10.2105C17.6663 9.08527 16.1401 8.45313 14.5488 8.45312ZM18.4676 12.4394L13.5401 17.3631L10.6301 14.4531C10.5306 14.3537 10.4748 14.2188 10.4748 14.0781C10.4748 13.9375 10.5306 13.8026 10.6301 13.7031C10.7295 13.6037 10.8644 13.5478 11.0051 13.5478C11.1457 13.5478 11.2806 13.6037 11.3801 13.7031L13.5476 15.8706L17.7251 11.6969C17.7743 11.6476 17.8328 11.6086 17.8971 11.5819C17.9615 11.5553 18.0304 11.5415 18.1001 11.5415C18.1697 11.5415 18.2387 11.5553 18.303 11.5819C18.3674 11.6086 18.4258 11.6476 18.4751 11.6969C18.5243 11.7461 18.5634 11.8046 18.59 11.8689C18.6167 11.9333 18.6304 12.0022 18.6304 12.0719C18.6304 12.1415 18.6167 12.2105 18.59 12.2748C18.5634 12.3392 18.5243 12.3976 18.4751 12.4469L18.4676 12.4394Z" fill="#00B998"/>
</g>
<defs>
<clipPath id="clip0_4164_32784">
<rect width="12" height="12" fill="white" transform="translate(8.54883 8.45312)"/>
</clipPath>
</defs>
</svg>
