<svg width="51" height="41" viewBox="0 0 51 41" fill="none" xmlns="http://www.w3.org/2000/svg">
<path fill-rule="evenodd" clip-rule="evenodd" d="M8.57736 30.8663L8.21004 30.5029L7.75437 30.0577L3.15984 25.457C3.09431 25.3919 3.041 25.3381 2.92893 25.2245C2.8205 25.1146 2.77615 25.0698 2.717 25.0111C2.6576 24.9517 2.61806 24.9117 2.52322 24.8154L2.35669 24.6456C1.96926 24.2614 1.60138 23.8581 1.25443 23.437C0.937219 23.0935 0.678842 22.6998 0.48986 22.2717L0.432905 22.1222C0.0965837 21.0793 0.0965837 19.957 0.432905 18.9141L0.485675 18.7741C0.672082 18.3441 0.931897 17.95 1.25327 17.6095C1.5861 17.1938 1.94403 16.7987 2.32505 16.4267C2.43303 16.3073 2.5292 16.2089 2.71678 16.0213C2.76907 15.9694 2.81499 15.923 2.92456 15.8118L2.92495 15.8114L2.92509 15.8113C2.98128 15.7543 2.98147 15.7541 3.04059 15.6946L3.1035 15.6318L3.15323 15.5828L7.72526 11.0145C7.8678 10.865 7.99608 10.7374 8.19756 10.5416L8.33493 10.4053L8.38639 10.3543C8.46215 10.2795 8.52725 10.2159 8.59173 10.154L13.7133 5.04149C13.938 4.81031 14.1417 4.60845 14.4701 4.2887C14.683 4.07064 14.9039 3.85477 15.1505 3.62216C15.3447 3.41458 15.3862 3.37134 15.4105 3.34919C16.1013 2.65981 16.8956 2.08265 17.7678 1.63704C18.6355 1.19622 19.5653 0.8904 20.5166 0.731616C21.4026 0.578491 22.2997 0.498763 23.1657 0.493804C23.3899 0.487605 23.492 0.484893 23.6183 0.481955C23.8827 0.475807 24.1061 0.472656 24.3236 0.472656H38.7708C39.1001 0.472656 39.3591 0.478038 39.8934 0.493244C40.7941 0.498712 41.6929 0.578412 42.5723 0.730149C43.5311 0.890257 44.4597 1.19647 45.3231 1.63681C46.1959 2.07987 46.9929 2.65842 47.6841 3.35045C48.3735 4.04003 48.951 4.833 49.4023 5.71361C49.8353 6.57814 50.139 7.50155 50.3062 8.46911C50.4492 9.34693 50.5266 10.2342 50.5373 11.0972C50.5447 11.3469 50.5479 11.5388 50.5529 11.9676L50.5565 12.2635V28.7728C50.5565 29.1359 50.55 29.5118 50.5379 29.9128C50.5266 30.8021 50.4492 31.6894 50.3037 32.582C50.139 33.5347 49.8353 34.4582 49.3931 35.3407C48.947 36.2031 48.3721 36.9925 47.6846 37.6854C46.9929 38.3779 46.1959 38.9564 45.3257 39.3982C44.4597 39.8398 43.5311 40.146 42.5709 40.3064C41.6889 40.4528 40.7971 40.5319 39.9269 40.5425C39.3591 40.5583 39.1001 40.5636 38.7708 40.5636H37.4499V37.4798H38.7709C39.0622 37.4798 39.302 37.4748 39.8651 37.4594C40.6026 37.4503 41.3383 37.385 42.0644 37.2644C42.7122 37.1563 43.3396 36.9494 43.9272 36.6497C44.5095 36.3541 45.0413 35.9681 45.4992 35.5097C45.9625 35.0428 46.3519 34.508 46.6449 33.9419C46.9427 33.3472 47.1516 32.712 47.2625 32.0715C47.3808 31.3447 47.445 30.6101 47.4548 29.8475C47.4667 29.4488 47.4727 29.1026 47.4727 28.7729V12.9241L47.4728 12.285L47.4693 12.0041C47.4645 11.5936 47.4615 11.4141 47.4543 11.1626C47.445 10.4263 47.3808 9.69177 47.2649 8.97981C47.1516 8.32445 46.9427 7.68928 46.6514 7.10748C46.3531 6.5254 45.9657 5.99347 45.5028 5.53042C45.0413 5.06838 44.5095 4.68238 43.9246 4.38547C43.3396 4.08709 42.7122 3.88021 42.0563 3.77065C41.3357 3.64634 40.606 3.58163 39.8414 3.57663C39.302 3.56165 39.0622 3.55666 38.7709 3.55666H24.3237C24.1331 3.55666 23.9324 3.55949 23.6901 3.56513C23.5791 3.56771 23.4881 3.5701 23.2743 3.57571L23.2178 3.57719C22.4884 3.58167 21.7606 3.64635 21.0332 3.77205C20.3827 3.88064 19.7527 4.08786 19.1679 4.38496C18.585 4.68275 18.0523 5.06982 17.5579 5.56233C17.3938 5.73804 17.3285 5.80682 17.2722 5.86045C17.0492 6.07082 16.8578 6.25778 16.6504 6.46961C16.3138 6.79802 16.1253 6.98473 15.9096 7.20643L10.7083 12.4098C10.6241 12.4791 10.5905 12.5121 10.5536 12.5486L10.4321 12.669C10.172 12.9233 10.0662 13.0285 9.93137 13.1693L5.32199 17.7754L5.32191 17.7755C5.27497 17.8217 5.27494 17.8217 5.22513 17.8716L5.17468 17.9224L5.1204 17.9774C5.00973 18.0897 4.95334 18.1467 4.89364 18.206C4.72907 18.3705 4.66145 18.4402 4.58787 18.5226C4.19337 18.9103 3.89736 19.2376 3.62393 19.5833L3.51136 19.7105C3.44436 19.7784 3.38803 19.8558 3.34416 19.9401C3.23848 20.3171 3.23818 20.7159 3.34324 21.0931C3.39339 21.1895 3.45689 21.2785 3.53195 21.3575C3.89681 21.7964 4.20407 22.1344 4.54195 22.4696L4.63394 22.5633L4.72229 22.6533C4.81103 22.7434 4.8454 22.7781 4.89387 22.8266C4.95939 22.8917 5.0127 22.9455 5.12477 23.0591C5.2332 23.169 5.27755 23.2138 5.33743 23.2733L9.92295 27.8651L10.3718 28.3036L10.6716 28.6C10.7253 28.6444 10.7763 28.692 10.8243 28.7427L15.9267 33.8431C16.1355 34.0571 16.3463 34.2662 16.6811 34.5935C16.849 34.7655 17.0187 34.9314 17.2533 35.1567C17.3182 35.2156 17.3319 35.23 17.4831 35.3899C17.5339 35.4438 17.5729 35.4843 17.5931 35.5043C18.0564 35.9666 18.5891 36.3537 19.1689 36.6499C19.7568 36.9486 20.3869 37.1558 21.0364 37.2643C21.7621 37.385 22.496 37.4502 23.2551 37.4598C23.4771 37.466 23.5739 37.4685 23.6942 37.4713C23.9365 37.477 24.1372 37.4798 24.3278 37.4798H37.4457H37.4458V37.5112V39.0218L37.4498 40.5323L37.4499 40.5636H37.4498H37.4457H24.3277C24.1102 40.5636 23.8868 40.5605 23.6224 40.5543C23.4961 40.5514 23.394 40.5487 23.1932 40.543C22.3009 40.5319 21.4106 40.4528 20.5294 40.3062C19.5694 40.1459 18.6396 39.8401 17.7688 39.3977C16.8997 38.9536 16.1054 38.3765 15.4457 37.7173C15.3909 37.6655 15.3608 37.6342 15.2417 37.5081L15.1804 37.4437L15.1499 37.4116C14.8632 37.1372 14.6721 36.9502 14.5008 36.7742C14.1762 36.4574 13.9496 36.2327 13.733 36.0106L8.74809 31.0277L8.57736 30.8663ZM37.3779 13.5757C36.8587 13.056 36.0165 13.0558 35.4971 13.5752L30.4411 18.632L25.3843 13.5834C24.8649 13.0649 24.0235 13.0654 23.5048 13.5847C22.9857 14.1043 22.9864 14.9464 23.5064 15.4651L28.5633 20.5101L23.5221 25.552C23.0032 26.071 23.003 26.9123 23.5217 27.4316C24.0408 27.9513 24.883 27.9515 25.4024 27.432L30.4457 22.388L35.4986 27.4289C36.0158 27.9449 36.853 27.9453 37.3708 27.4298C37.8909 26.912 37.8914 26.0702 37.3721 25.5516L32.3228 20.5106L37.3774 15.4553C37.8963 14.9362 37.8965 14.0949 37.3779 13.5757Z" fill="#3D4C66"/>
</svg>
