<svg width="82" height="52" viewBox="0 0 82 52" fill="none" xmlns="http://www.w3.org/2000/svg">
<path fill-rule="evenodd" clip-rule="evenodd" d="M0.833008 16.5H3.74967V51.5H0.833008V16.5ZM6.66634 16.5H12.4997V51.5H6.66634V16.5ZM18.333 16.5H21.2497V51.5H18.333V16.5ZM24.1663 16.5H32.9163V51.5H24.1663V16.5ZM35.833 16.5H38.7497V51.5H35.833V16.5ZM44.583 16.5H47.4997V51.5H44.583V16.5ZM50.4163 16.5H53.333V51.5H50.4163V16.5ZM56.2497 16.5H59.1663V51.5H56.2497V16.5Z" fill="#B0BEC9"/>
<path d="M64.4984 32.998C72.5525 32.998 79.0817 26.2823 79.0817 17.998C79.0817 9.71377 72.5525 2.99805 64.4984 2.99805C56.4442 2.99805 49.915 9.71377 49.915 17.998C49.915 26.2823 56.4442 32.998 64.4984 32.998Z" fill="white" stroke="#B0BEC9" stroke-width="3"/>
<path d="M64.499 24.75V25.5M64.499 10.5V19.5V10.5Z" stroke="#B0BEC9" stroke-width="3" stroke-linecap="round"/>
</svg>
