<svg width="145" height="140" viewBox="0 0 145 140" fill="none" xmlns="http://www.w3.org/2000/svg">
<rect width="145" height="140" fill="url(#paint0_linear_5245_69953)"/>
<g opacity="0.1">
<path d="M87 22H56V53H87V22Z" fill="white"/>
<path d="M54 22C37.9487 23.1793 25.1415 36.411 24 53H54V22Z" fill="white"/>
<path d="M54 55H24V86H54V55Z" fill="white"/>
<path d="M120 55H89V86H120V55Z" fill="white"/>
<path d="M89 118C105.592 116.864 118.82 104.057 120 88H89V118Z" fill="white"/>
<path d="M87 88H56V118H87V88Z" fill="white"/>
<path d="M54 88H24C25.136 104.062 37.9377 116.864 54 118V88Z" fill="white"/>
<path d="M94 15V47H126C125.995 29.327 111.668 15 94 15Z" fill="white"/>
</g>
<path d="M36.3609 70.2C36.3609 76.052 40.6449 80.168 46.2729 80.168C50.6129 80.168 54.1409 77.872 55.4569 73.84H50.9489C50.0249 75.744 48.3449 76.668 46.2449 76.668C42.8289 76.668 40.3929 74.148 40.3929 70.2C40.3929 66.224 42.8289 63.732 46.2449 63.732C48.3449 63.732 50.0249 64.656 50.9489 66.532H55.4569C54.1409 62.528 50.6129 60.204 46.2729 60.204C40.6449 60.204 36.3609 64.348 36.3609 70.2ZM57.797 72.188C57.797 77.032 60.933 80.252 64.853 80.252C67.317 80.252 69.081 79.076 70.005 77.732V80H73.953V64.488H70.005V66.7C69.081 65.412 67.373 64.236 64.881 64.236C60.933 64.236 57.797 67.344 57.797 72.188ZM70.005 72.244C70.005 75.184 68.045 76.808 65.889 76.808C63.789 76.808 61.801 75.128 61.801 72.188C61.801 69.248 63.789 67.68 65.889 67.68C68.045 67.68 70.005 69.304 70.005 72.244ZM89.8216 75.576C89.7096 69.892 81.1136 71.656 81.1136 68.828C81.1136 67.932 81.8696 67.344 83.3256 67.344C84.8656 67.344 85.8176 68.156 85.9296 69.36H89.6816C89.4576 66.28 87.1896 64.236 83.4376 64.236C79.6016 64.236 77.3056 66.308 77.3056 68.884C77.3056 74.568 86.0696 72.804 86.0696 75.576C86.0696 76.472 85.2296 77.172 83.6896 77.172C82.1216 77.172 81.0296 76.276 80.8896 75.1H76.9416C77.1096 77.984 79.8256 80.252 83.7176 80.252C87.4976 80.252 89.8216 78.236 89.8216 75.576ZM93.0394 80H96.9594V71.432C96.9594 68.94 98.3314 67.596 100.459 67.596C102.531 67.596 103.903 68.94 103.903 71.432V80H107.823V70.9C107.823 66.616 105.275 64.264 101.775 64.264C99.7034 64.264 97.9674 65.104 96.9594 66.42V59.28H93.0394V80Z" fill="white"/>
<defs>
<linearGradient id="paint0_linear_5245_69953" x1="72.5" y1="0" x2="72.5" y2="140" gradientUnits="userSpaceOnUse">
<stop stop-color="#2797E8"/>
<stop offset="1" stop-color="#0075C9"/>
</linearGradient>
</defs>
</svg>
