<svg width="20" height="20" viewBox="0 0 20 20" fill="none" xmlns="http://www.w3.org/2000/svg">
<path fill-rule="evenodd" clip-rule="evenodd" d="M1 10.0003C1.00031 5.70663 4.0336 2.01108 8.24484 1.17371C12.4561 0.336331 16.6724 2.59035 18.3153 6.5573C19.9582 10.5243 18.57 15.0993 14.9998 17.4845C11.4296 19.8698 6.67168 19.4009 3.63574 16.3647C1.94793 14.6767 0.999828 12.3874 1 10.0003Z" stroke="#2797E8" stroke-width="1.5" stroke-linecap="round" stroke-linejoin="round"/>
<path d="M6.625 9.25052C6.21079 9.25052 5.875 9.5863 5.875 10.0005C5.875 10.4147 6.21079 10.7505 6.625 10.7505V9.25052ZM10 10.7505C10.4142 10.7505 10.75 10.4147 10.75 10.0005C10.75 9.5863 10.4142 9.25052 10 9.25052V10.7505ZM10 9.25052C9.58582 9.25052 9.25003 9.5863 9.25003 10.0005C9.25003 10.4147 9.58582 10.7505 10 10.7505V9.25052ZM13.3751 10.7505C13.7893 10.7505 14.1251 10.4147 14.1251 10.0005C14.1251 9.5863 13.7893 9.25052 13.3751 9.25052V10.7505ZM10.75 10.0005C10.75 9.5863 10.4142 9.25052 10 9.25052C9.58582 9.25052 9.25003 9.5863 9.25003 10.0005H10.75ZM9.25003 13.3755C9.25003 13.7898 9.58582 14.1255 10 14.1255C10.4142 14.1255 10.75 13.7898 10.75 13.3755H9.25003ZM9.25003 10.0005C9.25003 10.4147 9.58582 10.7505 10 10.7505C10.4142 10.7505 10.75 10.4147 10.75 10.0005H9.25003ZM10.75 6.62549C10.75 6.21127 10.4142 5.87549 10 5.87549C9.58582 5.87549 9.25003 6.21127 9.25003 6.62549H10.75ZM6.625 10.7505H10V9.25052H6.625V10.7505ZM10 10.7505H13.3751V9.25052H10V10.7505ZM9.25003 10.0005V13.3755H10.75V10.0005H9.25003ZM10.75 10.0005V6.62549H9.25003V10.0005H10.75Z" fill="#2797E8"/>
</svg>
