<svg width="29" height="29" viewBox="0 0 29 29" fill="none" xmlns="http://www.w3.org/2000/svg">
<path d="M14.5003 2.41699C21.1739 2.41699 26.5837 7.8267 26.5837 14.5003C26.5837 21.1739 21.1739 26.5837 14.5003 26.5837C7.8267 26.5837 2.41699 21.1739 2.41699 14.5003C2.41699 7.8267 7.8267 2.41699 14.5003 2.41699ZM14.5003 4.22949C11.7763 4.22949 9.1639 5.31159 7.23775 7.23775C5.31159 9.1639 4.22949 11.7763 4.22949 14.5003C4.22949 17.2243 5.31159 19.8367 7.23775 21.7629C9.1639 23.6891 11.7763 24.7712 14.5003 24.7712C17.2243 24.7712 19.8367 23.6891 21.7629 21.7629C23.6891 19.8367 24.7712 17.2243 24.7712 14.5003C24.7712 11.7763 23.6891 9.1639 21.7629 7.23775C19.8367 5.31159 17.2243 4.22949 14.5003 4.22949ZM14.5003 8.45866C14.7407 8.45866 14.9712 8.55414 15.1411 8.72409C15.3111 8.89405 15.4066 9.12456 15.4066 9.36491V13.5941H19.6357C19.8761 13.5941 20.1066 13.6896 20.2766 13.8595C20.4465 14.0295 20.542 14.26 20.542 14.5003C20.542 14.7407 20.4465 14.9712 20.2766 15.1411C20.1066 15.3111 19.8761 15.4066 19.6357 15.4066H15.4066V19.6357C15.4066 19.8761 15.3111 20.1066 15.1411 20.2766C14.9712 20.4465 14.7407 20.542 14.5003 20.542C14.26 20.542 14.0295 20.4465 13.8595 20.2766C13.6896 20.1066 13.5941 19.8761 13.5941 19.6357V15.4066H9.36491C9.12456 15.4066 8.89405 15.3111 8.72409 15.1411C8.55414 14.9712 8.45866 14.7407 8.45866 14.5003C8.45866 14.26 8.55414 14.0295 8.72409 13.8595C8.89405 13.6896 9.12456 13.5941 9.36491 13.5941H13.5941V9.36491C13.5941 9.12456 13.6896 8.89405 13.8595 8.72409C14.0295 8.55414 14.26 8.45866 14.5003 8.45866Z" fill="white"/>
</svg>
