<svg width="18" height="18" viewBox="0 0 18 18" fill="none" xmlns="http://www.w3.org/2000/svg">
<path d="M8.99999 0.666504C13.6025 0.666504 17.3333 4.39734 17.3333 8.99984C17.3333 13.6023 13.6025 17.3332 8.99999 17.3332C4.39749 17.3332 0.666656 13.6023 0.666656 8.99984C0.666656 4.39734 4.39749 0.666504 8.99999 0.666504ZM8.99999 1.9165C7.12137 1.9165 5.3197 2.66278 3.99132 3.99116C2.66293 5.31955 1.91666 7.12122 1.91666 8.99984C1.91666 10.8785 2.66293 12.6801 3.99132 14.0085C5.3197 15.3369 7.12137 16.0832 8.99999 16.0832C10.8786 16.0832 12.6803 15.3369 14.0087 14.0085C15.337 12.6801 16.0833 10.8785 16.0833 8.99984C16.0833 7.12122 15.337 5.31955 14.0087 3.99116C12.6803 2.66278 10.8786 1.9165 8.99999 1.9165ZM8.99999 4.83317C9.16575 4.83317 9.32472 4.89902 9.44193 5.01623C9.55914 5.13344 9.62499 5.29241 9.62499 5.45817V8.37484H12.5417C12.7074 8.37484 12.8664 8.44069 12.9836 8.5579C13.1008 8.67511 13.1667 8.83408 13.1667 8.99984C13.1667 9.1656 13.1008 9.32457 12.9836 9.44178C12.8664 9.55899 12.7074 9.62484 12.5417 9.62484H9.62499V12.5415C9.62499 12.7073 9.55914 12.8662 9.44193 12.9834C9.32472 13.1007 9.16575 13.1665 8.99999 13.1665C8.83423 13.1665 8.67526 13.1007 8.55805 12.9834C8.44084 12.8662 8.37499 12.7073 8.37499 12.5415V9.62484H5.45832C5.29256 9.62484 5.13359 9.55899 5.01638 9.44178C4.89917 9.32457 4.83332 9.1656 4.83332 8.99984C4.83332 8.83408 4.89917 8.67511 5.01638 8.5579C5.13359 8.44069 5.29256 8.37484 5.45832 8.37484H8.37499V5.45817C8.37499 5.29241 8.44084 5.13344 8.55805 5.01623C8.67526 4.89902 8.83423 4.83317 8.99999 4.83317Z" fill="#a6aeb6"/>
</svg>
