<svg width="27" height="26" viewBox="0 0 27 26" fill="none" xmlns="http://www.w3.org/2000/svg">
<path fill-rule="evenodd" clip-rule="evenodd" d="M13.5 24.375C16.5168 24.375 19.4101 23.1766 21.5433 21.0433C23.6766 18.9101 24.875 16.0168 24.875 13C24.875 9.98316 23.6766 7.08989 21.5433 4.95666C19.4101 2.82344 16.5168 1.625 13.5 1.625C10.4832 1.625 7.58989 2.82344 5.45666 4.95666C3.32343 7.08989 2.125 9.98316 2.125 13C2.125 16.0168 3.32343 18.9101 5.45666 21.0433C7.58989 23.1766 10.4832 24.375 13.5 24.375ZM13.5 1.3391e-06C16.9478 1.18839e-06 20.2544 1.36964 22.6924 3.80761C25.1304 6.24559 26.5 9.55219 26.5 13C26.5 16.4478 25.1304 19.7544 22.6924 22.1924C20.2544 24.6304 16.9478 26 13.5 26C10.0522 26 6.74559 24.6304 4.30761 22.1924C1.86964 19.7544 0.5 16.4478 0.499999 13C0.499999 9.55219 1.86964 6.24559 4.30761 3.80761C6.74558 1.36964 10.0522 1.48981e-06 13.5 1.3391e-06ZM7.8125 12.1875C7.59701 12.1875 7.39035 12.2731 7.23798 12.4255C7.0856 12.5778 7 12.7845 7 13C7 13.2155 7.0856 13.4222 7.23798 13.5745C7.39035 13.7269 7.59701 13.8125 7.8125 13.8125L17.2261 13.8125L13.7373 17.2997C13.5847 17.4523 13.499 17.6592 13.499 17.875C13.499 18.0908 13.5847 18.2977 13.7373 18.4503C13.8898 18.6028 14.0967 18.6885 14.3125 18.6885C14.5283 18.6885 14.7352 18.6028 14.8878 18.4502L19.7628 13.5752C19.8384 13.4998 19.8984 13.4101 19.9394 13.3114C19.9804 13.2127 20.0015 13.1069 20.0015 13C20.0015 12.8931 19.9804 12.7873 19.9394 12.6886C19.8984 12.5899 19.8384 12.5002 19.7628 12.4248L14.8878 7.54975C14.7352 7.39719 14.5283 7.31148 14.3125 7.31148C14.0967 7.31148 13.8898 7.39719 13.7373 7.54975C13.5847 7.70232 13.499 7.90924 13.499 8.125C13.499 8.34076 13.5847 8.54769 13.7373 8.70025L17.2261 12.1875L7.8125 12.1875Z" fill="white"/>
</svg>
