<svg width="277" height="253" viewBox="0 0 277 253" fill="none" xmlns="http://www.w3.org/2000/svg">
<path fill-rule="evenodd" clip-rule="evenodd" d="M138.143 16.9293C140.387 16.9293 142.206 15.0344 142.206 12.697C142.206 10.3595 140.387 8.46465 138.143 8.46465C135.899 8.46465 134.08 10.3595 134.08 12.697C134.08 15.0344 135.899 16.9293 138.143 16.9293ZM138.143 25.3939C144.875 25.3939 150.332 19.7093 150.332 12.697C150.332 5.68463 144.875 0 138.143 0C131.411 0 125.954 5.68463 125.954 12.697C125.954 19.7093 131.411 25.3939 138.143 25.3939Z" fill="white"/>
<path d="M114.768 13.9733C116.167 12.159 118.772 11.8226 120.586 13.2219C122.401 14.6211 122.737 17.2263 121.338 19.0406L46.0233 116.693C44.6241 118.507 42.0189 118.843 40.2046 117.444C38.3903 116.045 38.0539 113.44 39.4532 111.625L114.768 13.9733Z" fill="white"/>
<path d="M230.321 176.141C232.495 175.759 234.567 177.211 234.949 179.385C235.332 181.558 233.88 183.63 231.706 184.013L55.8461 214.959C53.6724 215.341 51.6002 213.889 51.2177 211.716C50.8352 209.542 52.2873 207.47 54.461 207.087L230.321 176.141Z" fill="white"/>
<path d="M211.643 82.7071C212.979 84.5683 212.554 87.1604 210.692 88.4966C208.831 89.8329 206.239 89.4073 204.903 87.5461L155.617 18.8972C154.281 17.036 154.707 14.4439 156.568 13.1077C158.429 11.7715 161.021 12.197 162.357 14.0583L211.643 82.7071Z" fill="white"/>
<path fill-rule="evenodd" clip-rule="evenodd" d="M242.324 94.9069L15.4729 134.698C12.2428 135.264 10.0836 138.342 10.6502 141.572L27.481 237.527C28.0476 240.757 31.1254 242.916 34.3555 242.35L261.207 202.559C264.437 201.992 266.596 198.914 266.03 195.684L249.199 99.7296C248.632 96.4995 245.555 94.3403 242.324 94.9069ZM14.0367 126.51C6.28443 127.87 1.10232 135.256 2.4621 143.009L19.293 238.963C20.6527 246.715 28.0395 251.898 35.7918 250.538L262.643 210.747C270.396 209.387 275.578 202 274.218 194.248L257.387 98.2934C256.027 90.5411 248.64 85.359 240.888 86.7188L14.0367 126.51Z" fill="white"/>
<path d="M50.9201 183.082C50.4695 180.478 50.6102 178.067 51.3421 175.852C52.095 173.606 53.3813 171.746 55.201 170.271C57.0165 168.77 59.2338 167.793 61.853 167.34C65.1773 166.765 68.1266 167.17 70.7008 168.556C73.2707 169.917 75.1452 172.056 76.3242 174.973L68.3534 176.352C67.7016 175.433 66.902 174.784 65.9548 174.407C65.0327 174.025 64.0176 173.929 62.9095 174.121C61.1969 174.417 59.9306 175.268 59.1103 176.674C58.3109 178.051 58.0867 179.753 58.4376 181.781C58.7929 183.835 59.5804 185.388 60.8001 186.441C62.0406 187.464 63.5172 187.828 65.2297 187.531C66.3378 187.34 67.2619 186.909 68.002 186.239C68.7673 185.565 69.3025 184.686 69.6077 183.601L77.5786 182.222C77.4481 185.366 76.4033 188.023 74.4443 190.193C72.481 192.338 69.8372 193.698 66.5129 194.273C63.8937 194.726 61.4793 194.564 59.2695 193.786C57.0555 192.982 55.2189 191.662 53.7598 189.825C52.3216 187.959 51.375 185.711 50.9201 183.082Z" fill="white"/>
<path d="M95.4175 183.276L103.691 181.844L104.665 187.479L88.9881 190.191L84.4062 163.709L91.8104 162.428L95.4175 183.276Z" fill="white"/>
<path d="M126.592 183.956C124.098 184.387 121.707 184.208 119.417 183.418C117.123 182.602 115.182 181.275 113.592 179.435C112.024 177.565 111.014 175.328 110.564 172.724C110.113 170.119 110.315 167.686 111.168 165.423C112.043 163.131 113.425 161.228 115.316 159.715C117.207 158.201 119.399 157.229 121.893 156.797C124.411 156.362 126.802 156.541 129.067 157.336C131.356 158.126 133.286 159.456 134.854 161.325C136.418 163.17 137.426 165.394 137.876 167.998C138.327 170.603 138.127 173.049 137.278 175.337C136.425 177.599 135.055 179.5 133.168 181.038C131.277 182.552 129.085 183.525 126.592 183.956ZM125.409 177.119C127.297 176.793 128.677 175.922 129.548 174.507C130.444 173.089 130.714 171.352 130.359 169.299C129.995 167.195 129.155 165.638 127.839 164.628C126.543 163.588 124.951 163.232 123.062 163.559C121.148 163.89 119.756 164.763 118.885 166.177C118.011 167.567 117.755 169.313 118.119 171.417C118.479 173.495 119.306 175.054 120.601 176.094C121.892 177.109 123.495 177.451 125.409 177.119Z" fill="white"/>
<path d="M159.839 178.204C156.741 178.739 154.072 178.453 151.831 177.345C149.586 176.212 148.152 174.293 147.528 171.59L155.424 170.224C155.66 171.137 156.054 171.766 156.606 172.109C157.158 172.452 157.812 172.558 158.567 172.427C159.247 172.309 159.773 172.051 160.145 171.651C160.538 171.222 160.682 170.707 160.578 170.106C160.444 169.33 159.974 168.792 159.17 168.492C158.366 168.193 157.1 167.922 155.372 167.679C153.535 167.404 152.029 167.097 150.856 166.759C149.702 166.391 148.634 165.763 147.651 164.876C146.688 163.959 146.061 162.662 145.771 160.984C145.476 159.281 145.653 157.754 146.302 156.404C146.946 155.029 147.969 153.898 149.372 153.01C150.774 152.123 152.433 151.513 154.347 151.182C157.444 150.646 160.038 150.945 162.128 152.08C164.239 153.185 165.582 155.029 166.159 157.611L158.112 159.003C157.948 158.206 157.593 157.649 157.045 157.331C156.522 157.009 155.896 156.911 155.165 157.037C154.611 157.133 154.186 157.374 153.89 157.761C153.594 158.147 153.497 158.641 153.601 159.242C153.688 159.743 153.953 160.149 154.396 160.459C154.859 160.74 155.404 160.968 156.031 161.143C156.654 161.293 157.566 161.471 158.769 161.675C160.556 161.959 162.041 162.296 163.223 162.684C164.427 163.043 165.508 163.669 166.466 164.561C167.445 165.423 168.069 166.63 168.338 168.183C168.611 169.761 168.453 171.245 167.864 172.637C167.299 174.024 166.325 175.211 164.939 176.199C163.579 177.182 161.879 177.851 159.839 178.204Z" fill="white"/>
<path d="M183.247 152.682L183.994 157.001L192.494 155.531L193.462 161.128L184.962 162.598L185.788 167.369L195.421 165.702L196.441 171.6L179.404 174.548L174.822 148.065L191.859 145.117L192.88 151.015L183.247 152.682Z" fill="white"/>
<path d="M212.291 141.582C215.086 141.099 217.627 141.239 219.912 142.005C222.218 142.741 224.111 144.012 225.591 145.819C227.071 147.627 228.034 149.82 228.48 152.4C228.922 154.954 228.737 157.333 227.925 159.537C227.139 161.736 225.787 163.595 223.871 165.113C221.976 166.602 219.643 167.586 216.873 168.065L206.333 169.888L201.751 143.406L212.291 141.582ZM215.182 161.664C217.348 161.29 218.946 160.407 219.976 159.016C221.006 157.626 221.335 155.854 220.963 153.7C220.586 151.521 219.678 149.95 218.241 148.987C216.799 147.998 214.995 147.691 212.829 148.066L210.26 148.511L212.613 162.109L215.182 161.664Z" fill="white"/>
</svg>
