<svg width="14" height="15" viewBox="0 0 14 15" fill="none" xmlns="http://www.w3.org/2000/svg">
<path d="M12.568 5.13139C12.4039 4.96736 12.1814 4.87521 11.9494 4.87521C11.7174 4.87521 11.4949 4.96736 11.3308 5.13139L6.99953 9.46264L2.66828 5.13139C2.50325 4.97201 2.28223 4.88381 2.0528 4.8858C1.82338 4.8878 1.60392 4.97982 1.44169 5.14205C1.27946 5.30429 1.18743 5.52375 1.18544 5.75317C1.18345 5.98259 1.27164 6.20362 1.43103 6.36864L6.38091 11.3185C6.54499 11.4826 6.76751 11.5747 6.99953 11.5747C7.23155 11.5747 7.45407 11.4826 7.61816 11.3185L12.568 6.36864C12.7321 6.20456 12.8242 5.98204 12.8242 5.75002C12.8242 5.518 12.7321 5.29548 12.568 5.13139Z" fill="#758696"/>
</svg>
