<svg width="31" height="31" viewBox="0 0 31 31" fill="none" xmlns="http://www.w3.org/2000/svg">
<path d="M7.71444 17.0236C8.74275 17.0236 9.57635 16.19 9.57635 15.1617C9.57635 14.1334 8.74275 13.2998 7.71444 13.2998C6.68614 13.2998 5.85254 14.1334 5.85254 15.1617C5.85254 16.19 6.68614 17.0236 7.71444 17.0236Z" fill="#243249"/>
<path d="M15.1617 17.0236C16.19 17.0236 17.0236 16.19 17.0236 15.1617C17.0236 14.1334 16.19 13.2998 15.1617 13.2998C14.1334 13.2998 13.2998 14.1334 13.2998 15.1617C13.2998 16.19 14.1334 17.0236 15.1617 17.0236Z" fill="#243249"/>
<path d="M22.609 17.0236C23.6373 17.0236 24.4709 16.19 24.4709 15.1617C24.4709 14.1334 23.6373 13.2998 22.609 13.2998C21.5807 13.2998 20.7471 14.1334 20.7471 15.1617C20.7471 16.19 21.5807 17.0236 22.609 17.0236Z" fill="#243249"/>
</svg>
