<svg width="188" height="138" viewBox="0 0 188 138" fill="none" xmlns="http://www.w3.org/2000/svg">
<g clip-path="url(#clip0_4070_155236)">
<path d="M58.0312 12.0625C57.4925 12.0625 56.9759 12.2765 56.5949 12.6574C56.214 13.0384 56 13.555 56 14.0938C56 14.6325 56.214 15.1491 56.5949 15.5301C56.9759 15.911 57.4925 16.125 58.0312 16.125H62.5406L64.1697 22.6534L70.2553 55.0925C70.3424 55.558 70.5895 55.9784 70.9537 56.281C71.3179 56.5837 71.7764 56.7496 72.25 56.75H76.3125C74.1576 56.75 72.091 57.606 70.5673 59.1298C69.0435 60.6535 68.1875 62.7201 68.1875 64.875C68.1875 67.0299 69.0435 69.0965 70.5673 70.6202C72.091 72.144 74.1576 73 76.3125 73C78.4674 73 80.534 72.144 82.0577 70.6202C83.5815 69.0965 84.4375 67.0299 84.4375 64.875C84.4375 62.7201 83.5815 60.6535 82.0577 59.1298C80.534 57.606 78.4674 56.75 76.3125 56.75H104.75C102.595 56.75 100.528 57.606 99.0048 59.1298C97.481 60.6535 96.625 62.7201 96.625 64.875C96.625 67.0299 97.481 69.0965 99.0048 70.6202C100.528 72.144 102.595 73 104.75 73C106.905 73 108.972 72.144 110.495 70.6202C112.019 69.0965 112.875 67.0299 112.875 64.875C112.875 62.7201 112.019 60.6535 110.495 59.1298C108.972 57.606 106.905 56.75 104.75 56.75H108.812C109.286 56.7496 109.745 56.5837 110.109 56.281C110.473 55.9784 110.72 55.558 110.807 55.0925L116.901 22.5925C116.956 22.2993 116.945 21.9977 116.871 21.709C116.796 21.4203 116.658 21.1516 116.468 20.922C116.277 20.6924 116.039 20.5076 115.769 20.3807C115.499 20.2537 115.205 20.1878 114.906 20.1875H67.7406L66.0953 13.6022C65.9857 13.1626 65.7322 12.7722 65.3752 12.4932C65.0181 12.2142 64.5781 12.0626 64.125 12.0625H58.0312ZM73.9359 52.6875L68.6019 24.25H112.461L107.127 52.6875H73.9359ZM80.375 64.875C80.375 65.9524 79.947 66.9858 79.1851 67.7476C78.4233 68.5095 77.3899 68.9375 76.3125 68.9375C75.2351 68.9375 74.2017 68.5095 73.4399 67.7476C72.678 66.9858 72.25 65.9524 72.25 64.875C72.25 63.7976 72.678 62.7642 73.4399 62.0024C74.2017 61.2405 75.2351 60.8125 76.3125 60.8125C77.3899 60.8125 78.4233 61.2405 79.1851 62.0024C79.947 62.7642 80.375 63.7976 80.375 64.875ZM108.812 64.875C108.812 65.9524 108.384 66.9858 107.623 67.7476C106.861 68.5095 105.827 68.9375 104.75 68.9375C103.673 68.9375 102.639 68.5095 101.877 67.7476C101.116 66.9858 100.688 65.9524 100.688 64.875C100.688 63.7976 101.116 62.7642 101.877 62.0024C102.639 61.2405 103.673 60.8125 104.75 60.8125C105.827 60.8125 106.861 61.2405 107.623 62.0024C108.384 62.7642 108.812 63.7976 108.812 64.875Z" fill="#B0BEC9"/>
</g>
<rect x="102" width="31" height="31" rx="6" fill="#2797E8"/>
<path d="M112.461 15.62C112.461 19.82 113.501 23 117.501 23C121.481 23 122.521 19.82 122.521 15.62C122.521 11.48 121.481 8.32 117.501 8.32C113.501 8.32 112.461 11.48 112.461 15.62ZM120.721 15.62C120.721 18.74 120.341 21.34 117.501 21.34C114.641 21.34 114.261 18.74 114.261 15.62C114.261 12.62 114.641 9.98 117.501 9.98C120.341 9.98 120.721 12.62 120.721 15.62Z" fill="white"/>
<path d="M30.6644 107.598V111H32.6244V107.598L35.9284 101.228H33.7444L31.6584 105.694L29.5584 101.228H27.3464L30.6644 107.598ZM44.5488 107.122C44.5488 104.672 42.7988 103.118 40.5588 103.118C38.3188 103.118 36.5688 104.672 36.5688 107.122C36.5688 109.558 38.2628 111.126 40.5028 111.126C42.7568 111.126 44.5488 109.558 44.5488 107.122ZM38.5568 107.122C38.5568 105.568 39.4948 104.826 40.5308 104.826C41.5668 104.826 42.5328 105.568 42.5328 107.122C42.5328 108.662 41.5388 109.418 40.5028 109.418C39.4528 109.418 38.5568 108.662 38.5568 107.122ZM53.3085 103.244H51.3345V107.514C51.3345 108.76 50.6625 109.432 49.5985 109.432C48.5625 109.432 47.8765 108.76 47.8765 107.514V103.244H45.9165V107.794C45.9165 109.922 47.2185 111.098 49.0245 111.098C49.9905 111.098 50.8445 110.678 51.3345 110.02V111H53.3085V103.244ZM57.2024 107.136C57.2024 105.638 57.9024 105.19 59.0644 105.19H59.5824V103.132C58.5044 103.132 57.6924 103.65 57.2024 104.448V103.244H55.2424V111H57.2024V107.136ZM63.7345 107.122C63.7345 109.558 65.3305 111.126 67.5705 111.126C69.5025 111.126 70.8045 110.034 71.2245 108.382H69.1105C68.8725 109.082 68.3685 109.446 67.5565 109.446C66.4645 109.446 65.7365 108.634 65.7365 107.122C65.7365 105.61 66.4645 104.784 67.5565 104.784C68.3685 104.784 68.8865 105.204 69.1105 105.862H71.2245C70.8045 104.126 69.5025 103.118 67.5705 103.118C65.3305 103.118 63.7345 104.686 63.7345 107.122ZM72.1563 107.094C72.1563 109.516 73.7243 111.126 75.6843 111.126C76.9163 111.126 77.7983 110.538 78.2603 109.866V111H80.2343V103.244H78.2603V104.35C77.7983 103.706 76.9443 103.118 75.6983 103.118C73.7243 103.118 72.1563 104.672 72.1563 107.094ZM78.2603 107.122C78.2603 108.592 77.2803 109.404 76.2023 109.404C75.1523 109.404 74.1583 108.564 74.1583 107.094C74.1583 105.624 75.1523 104.84 76.2023 104.84C77.2803 104.84 78.2603 105.652 78.2603 107.122ZM84.1086 107.136C84.1086 105.638 84.8086 105.19 85.9706 105.19H86.4886V103.132C85.4106 103.132 84.5986 103.65 84.1086 104.448V103.244H82.1486V111H84.1086V107.136ZM88.1168 108.592C88.1168 110.37 89.1108 111 90.5948 111H91.8268V109.348H90.9168C90.3008 109.348 90.0908 109.124 90.0908 108.606V104.854H91.8268V103.244H90.0908V101.326H88.1168V103.244H87.1928V104.854H88.1168V108.592ZM96.5724 111H98.5324V103.244H96.5724V111ZM97.5664 102.32C98.2524 102.32 98.7704 101.816 98.7704 101.172C98.7704 100.528 98.2524 100.024 97.5664 100.024C96.8664 100.024 96.3624 100.528 96.3624 101.172C96.3624 101.816 96.8664 102.32 97.5664 102.32ZM106.489 108.788C106.433 105.946 102.135 106.828 102.135 105.414C102.135 104.966 102.513 104.672 103.241 104.672C104.011 104.672 104.487 105.078 104.543 105.68H106.419C106.307 104.14 105.173 103.118 103.297 103.118C101.379 103.118 100.231 104.154 100.231 105.442C100.231 108.284 104.613 107.402 104.613 108.788C104.613 109.236 104.193 109.586 103.423 109.586C102.639 109.586 102.093 109.138 102.023 108.55H100.049C100.133 109.992 101.491 111.126 103.437 111.126C105.327 111.126 106.489 110.118 106.489 108.788ZM114.766 104.728C115.774 104.728 116.586 105.372 116.614 106.394H112.932C113.086 105.33 113.828 104.728 114.766 104.728ZM118.448 108.564H116.334C116.082 109.082 115.62 109.502 114.78 109.502C113.8 109.502 113.016 108.858 112.918 107.71H118.588C118.63 107.458 118.644 107.206 118.644 106.954C118.644 104.644 117.062 103.118 114.822 103.118C112.526 103.118 110.93 104.672 110.93 107.122C110.93 109.558 112.568 111.126 114.822 111.126C116.74 111.126 118.028 109.992 118.448 108.564ZM130.924 111H132.884V106.45C132.884 104.308 131.568 103.132 129.706 103.132C128.572 103.132 127.55 103.734 127.046 104.616C126.514 103.65 125.52 103.132 124.316 103.132C123.35 103.132 122.524 103.538 122.034 104.182V103.244H120.074V111H122.034V106.716C122.034 105.484 122.72 104.84 123.784 104.84C124.82 104.84 125.506 105.484 125.506 106.716V111H127.466V106.716C127.466 105.484 128.152 104.84 129.202 104.84C130.238 104.84 130.924 105.484 130.924 106.716V111ZM136.704 104.364V103.244H134.744V114.696H136.704V109.894C137.18 110.524 138.048 111.126 139.266 111.126C141.254 111.126 142.808 109.516 142.808 107.094C142.808 104.672 141.254 103.118 139.266 103.118C138.062 103.118 137.166 103.706 136.704 104.364ZM140.806 107.094C140.806 108.564 139.812 109.404 138.748 109.404C137.698 109.404 136.704 108.592 136.704 107.122C136.704 105.652 137.698 104.84 138.748 104.84C139.812 104.84 140.806 105.624 140.806 107.094ZM144.541 108.592C144.541 110.37 145.535 111 147.019 111H148.251V109.348H147.341C146.725 109.348 146.515 109.124 146.515 108.606V104.854H148.251V103.244H146.515V101.326H144.541V103.244H143.617V104.854H144.541V108.592ZM152.964 108.662L150.962 103.244H148.764L151.872 110.804L150.192 114.668H152.278L157.08 103.244H154.994L152.964 108.662ZM160.195 109.95C160.195 109.306 159.691 108.802 159.005 108.802C158.291 108.802 157.787 109.306 157.787 109.95C157.787 110.594 158.291 111.098 159.005 111.098C159.691 111.098 160.195 110.594 160.195 109.95Z" fill="#B0BEC9"/>
<path d="M7.79992 134H9.14392L5.62992 124.298H4.15992L0.631922 134H1.97592L2.75992 131.83H7.01592L7.79992 134ZM6.65192 130.794H3.12392L4.88792 125.866L6.65192 130.794ZM10.2055 130.136C10.2055 132.516 11.7875 134.126 13.8455 134.126C15.2455 134.126 16.2395 133.412 16.7015 132.558V134H17.9895V123.64H16.7015V127.7C16.1695 126.818 15.0635 126.202 13.8595 126.202C11.7875 126.202 10.2055 127.742 10.2055 130.136ZM16.7015 130.15C16.7015 131.956 15.4975 133.006 14.0975 133.006C12.6975 133.006 11.5075 131.942 11.5075 130.136C11.5075 128.33 12.6975 127.308 14.0975 127.308C15.4975 127.308 16.7015 128.372 16.7015 130.15ZM19.6665 130.136C19.6665 132.516 21.2485 134.126 23.3065 134.126C24.7065 134.126 25.7005 133.412 26.1625 132.558V134H27.4505V123.64H26.1625V127.7C25.6305 126.818 24.5245 126.202 23.3205 126.202C21.2485 126.202 19.6665 127.742 19.6665 130.136ZM26.1625 130.15C26.1625 131.956 24.9585 133.006 23.5585 133.006C22.1585 133.006 20.9685 131.942 20.9685 130.136C20.9685 128.33 22.1585 127.308 23.5585 127.308C24.9585 127.308 26.1625 128.372 26.1625 130.15ZM32.8598 130.136C32.8598 132.516 34.4418 134.126 36.4858 134.126C37.8998 134.126 38.8938 133.398 39.3558 132.572V134H40.6438V126.328H39.3558V127.728C38.9078 126.93 37.9278 126.202 36.4998 126.202C34.4418 126.202 32.8598 127.742 32.8598 130.136ZM39.3558 130.15C39.3558 131.956 38.1518 133.006 36.7518 133.006C35.3518 133.006 34.1618 131.942 34.1618 130.136C34.1618 128.33 35.3518 127.308 36.7518 127.308C38.1518 127.308 39.3558 128.372 39.3558 130.15ZM48.4108 134H49.6708V129.478C49.6708 127.28 48.3128 126.188 46.5348 126.188C45.4988 126.188 44.5748 126.622 44.0708 127.42V126.328H42.7968V134H44.0708V129.758C44.0708 128.106 44.9668 127.294 46.2688 127.294C47.5568 127.294 48.4108 128.092 48.4108 129.66V134ZM55.4843 134H56.7583V126.328H55.4843V134ZM56.1423 125.082C56.6043 125.082 56.9823 124.704 56.9823 124.214C56.9823 123.724 56.6043 123.346 56.1423 123.346C55.6523 123.346 55.2743 123.724 55.2743 124.214C55.2743 124.704 55.6523 125.082 56.1423 125.082ZM59.2096 131.9C59.2096 133.44 59.9796 134 61.3376 134H62.4856V132.922H61.5476C60.7636 132.922 60.4836 132.656 60.4836 131.9V127.378H62.4856V126.328H60.4836V124.396H59.2096V126.328H58.2156V127.378H59.2096V131.9ZM67.2912 127.28C68.6072 127.28 69.7272 128.106 69.7132 129.604H64.8692C65.0092 128.106 66.0452 127.28 67.2912 127.28ZM70.8752 131.634H69.5032C69.2232 132.46 68.4952 133.048 67.3472 133.048C66.0452 133.048 64.9532 132.194 64.8552 130.64H70.9872C71.0152 130.374 71.0292 130.15 71.0292 129.87C71.0292 127.77 69.5732 126.202 67.3472 126.202C65.1072 126.202 63.5532 127.728 63.5532 130.15C63.5532 132.586 65.1632 134.126 67.3472 134.126C69.2512 134.126 70.4832 133.034 70.8752 131.634ZM83.7848 134H85.0448V129.478C85.0448 127.28 83.6868 126.188 81.9368 126.188C80.7608 126.188 79.6688 126.79 79.2208 127.896C78.7168 126.748 77.6668 126.188 76.4068 126.188C75.3988 126.188 74.4888 126.622 73.9848 127.434V126.328H72.7108V134H73.9848V129.772C73.9848 128.12 74.8668 127.294 76.1548 127.294C77.4148 127.294 78.2548 128.092 78.2548 129.66V134H79.5148V129.772C79.5148 128.12 80.3968 127.294 81.6848 127.294C82.9448 127.294 83.7848 128.092 83.7848 129.66V134ZM91.1471 131.9C91.1471 133.44 91.9171 134 93.2751 134H94.4231V132.922H93.4851C92.7011 132.922 92.4211 132.656 92.4211 131.9V127.378H94.4231V126.328H92.4211V124.396H91.1471V126.328H90.1531V127.378H91.1471V131.9ZM103.247 130.15C103.247 127.728 101.553 126.202 99.3687 126.202C97.1987 126.202 95.4907 127.728 95.4907 130.15C95.4907 132.586 97.1427 134.126 99.3127 134.126C101.497 134.126 103.247 132.586 103.247 130.15ZM96.7927 130.15C96.7927 128.218 98.0107 127.308 99.3547 127.308C100.671 127.308 101.945 128.218 101.945 130.15C101.945 132.096 100.643 133.006 99.3127 133.006C97.9827 133.006 96.7927 132.096 96.7927 130.15ZM108.178 130.136C108.178 132.516 109.76 134.126 111.818 134.126C113.218 134.126 114.212 133.384 114.674 132.558V134.168C114.674 135.806 113.652 136.674 112.294 136.674C111.034 136.674 110.124 136.044 109.844 135.12H108.584C108.836 136.758 110.278 137.78 112.294 137.78C114.548 137.78 115.962 136.282 115.962 134.168V126.328H114.674V127.728C114.226 126.902 113.218 126.202 111.818 126.202C109.76 126.202 108.178 127.742 108.178 130.136ZM114.674 130.15C114.674 131.956 113.47 133.006 112.07 133.006C110.67 133.006 109.48 131.942 109.48 130.136C109.48 128.33 110.67 127.308 112.07 127.308C113.47 127.308 114.674 128.372 114.674 130.15ZM121.377 127.28C122.693 127.28 123.813 128.106 123.799 129.604H118.955C119.095 128.106 120.131 127.28 121.377 127.28ZM124.961 131.634H123.589C123.309 132.46 122.581 133.048 121.433 133.048C120.131 133.048 119.039 132.194 118.941 130.64H125.073C125.101 130.374 125.115 130.15 125.115 129.87C125.115 127.77 123.659 126.202 121.433 126.202C119.193 126.202 117.639 127.728 117.639 130.15C117.639 132.586 119.249 134.126 121.433 134.126C123.337 134.126 124.569 133.034 124.961 131.634ZM127.077 131.9C127.077 133.44 127.847 134 129.205 134H130.353V132.922H129.415C128.631 132.922 128.351 132.656 128.351 131.9V127.378H130.353V126.328H128.351V124.396H127.077V126.328H126.083V127.378H127.077V131.9ZM141.145 131.914C141.089 129.17 136.637 130.164 136.637 128.344C136.637 127.728 137.197 127.28 138.135 127.28C139.157 127.28 139.745 127.84 139.801 128.61H141.075C140.991 127.112 139.871 126.202 138.177 126.202C136.469 126.202 135.363 127.168 135.363 128.344C135.363 131.2 139.899 130.206 139.899 131.914C139.899 132.544 139.339 133.048 138.331 133.048C137.253 133.048 136.595 132.488 136.525 131.746H135.209C135.293 133.146 136.553 134.126 138.345 134.126C140.039 134.126 141.145 133.174 141.145 131.914ZM143.223 131.9C143.223 133.44 143.993 134 145.351 134H146.499V132.922H145.561C144.777 132.922 144.497 132.656 144.497 131.9V127.378H146.499V126.328H144.497V124.396H143.223V126.328H142.229V127.378H143.223V131.9ZM147.567 130.136C147.567 132.516 149.149 134.126 151.193 134.126C152.607 134.126 153.601 133.398 154.063 132.572V134H155.351V126.328H154.063V127.728C153.615 126.93 152.635 126.202 151.207 126.202C149.149 126.202 147.567 127.742 147.567 130.136ZM154.063 130.15C154.063 131.956 152.859 133.006 151.459 133.006C150.059 133.006 148.869 131.942 148.869 130.136C148.869 128.33 150.059 127.308 151.459 127.308C152.859 127.308 154.063 128.372 154.063 130.15ZM158.778 129.828C158.778 128.05 159.702 127.504 160.92 127.504H161.256V126.188C160.038 126.188 159.212 126.72 158.778 127.574V126.328H157.504V134H158.778V129.828ZM163.006 131.9C163.006 133.44 163.776 134 165.134 134H166.282V132.922H165.344C164.56 132.922 164.28 132.656 164.28 131.9V127.378H166.282V126.328H164.28V124.396H163.006V126.328H162.012V127.378H163.006V131.9ZM171.088 127.28C172.404 127.28 173.524 128.106 173.51 129.604H168.666C168.806 128.106 169.842 127.28 171.088 127.28ZM174.672 131.634H173.3C173.02 132.46 172.292 133.048 171.144 133.048C169.842 133.048 168.75 132.194 168.652 130.64H174.784C174.812 130.374 174.826 130.15 174.826 129.87C174.826 127.77 173.37 126.202 171.144 126.202C168.904 126.202 167.35 127.728 167.35 130.15C167.35 132.586 168.96 134.126 171.144 134.126C173.048 134.126 174.28 133.034 174.672 131.634ZM176.032 130.136C176.032 132.516 177.614 134.126 179.672 134.126C181.072 134.126 182.066 133.412 182.528 132.558V134H183.816V123.64H182.528V127.7C181.996 126.818 180.89 126.202 179.686 126.202C177.614 126.202 176.032 127.742 176.032 130.136ZM182.528 130.15C182.528 131.956 181.324 133.006 179.924 133.006C178.524 133.006 177.334 131.942 177.334 130.136C177.334 128.33 178.524 127.308 179.924 127.308C181.324 127.308 182.528 128.372 182.528 130.15ZM187.215 133.216C187.215 132.726 186.837 132.348 186.375 132.348C185.885 132.348 185.507 132.726 185.507 133.216C185.507 133.706 185.885 134.084 186.375 134.084C186.837 134.084 187.215 133.706 187.215 133.216Z" fill="#B0BEC9"/>
<defs>
<clipPath id="clip0_4070_155236">
<rect width="65" height="65" fill="white" transform="translate(56 8)"/>
</clipPath>
</defs>
</svg>
