<svg width="26" height="26" viewBox="0 0 26 26" fill="none" xmlns="http://www.w3.org/2000/svg">
<path d="M13 3.625C14.2311 3.625 15.4502 3.86749 16.5877 4.33863C17.7251 4.80977 18.7586 5.50032 19.6291 6.37087C20.4997 7.24142 21.1902 8.27492 21.6614 9.41234C22.1325 10.5498 22.375 11.7689 22.375 13C22.375 14.2311 22.1325 15.4502 21.6614 16.5877C21.1902 17.7251 20.4997 18.7586 19.6291 19.6291C18.7586 20.4997 17.7251 21.1902 16.5877 21.6614C15.4502 22.1325 14.2311 22.375 13 22.375C10.5136 22.375 8.12903 21.3873 6.37087 19.6291C4.61272 17.871 3.625 15.4864 3.625 13C3.625 10.5136 4.61272 8.12903 6.37087 6.37087C8.12903 4.61272 10.5136 3.625 13 3.625ZM13 5.1875C10.928 5.1875 8.94086 6.0106 7.47573 7.47573C6.0106 8.94086 5.1875 10.928 5.1875 13C5.1875 15.072 6.0106 17.0591 7.47573 18.5243C8.94086 19.9894 10.928 20.8125 13 20.8125C15.072 20.8125 17.0591 19.9894 18.5243 18.5243C19.9894 17.0591 20.8125 15.072 20.8125 13C20.8125 10.928 19.9894 8.94086 18.5243 7.47573C17.0591 6.0106 15.072 5.1875 13 5.1875ZM13 16.125C13.3108 16.125 13.6089 16.2485 13.8286 16.4682C14.0484 16.688 14.1719 16.9861 14.1719 17.2969C14.1719 17.6077 14.0484 17.9057 13.8286 18.1255C13.6089 18.3453 13.3108 18.4688 13 18.4688C12.6892 18.4688 12.3911 18.3453 12.1714 18.1255C11.9516 17.9057 11.8281 17.6077 11.8281 17.2969C11.8281 16.9861 11.9516 16.688 12.1714 16.4682C12.3911 16.2485 12.6892 16.125 13 16.125ZM13 7.53125C13.1829 7.53119 13.3599 7.59527 13.5004 7.71233C13.6409 7.82939 13.7358 7.99201 13.7687 8.17188L13.7812 8.3125V13.7812C13.7816 13.9765 13.7089 14.1648 13.5773 14.309C13.4458 14.4533 13.265 14.5431 13.0706 14.5607C12.8762 14.5784 12.6822 14.5226 12.5268 14.4043C12.3715 14.2861 12.266 14.114 12.2312 13.9219L12.2188 13.7812V8.3125C12.2188 8.1053 12.3011 7.90659 12.4476 7.76007C12.5941 7.61356 12.7928 7.53125 13 7.53125Z" fill="#FF525F"/>
</svg>
