<svg width="45" height="45" viewBox="0 0 45 45" fill="none" xmlns="http://www.w3.org/2000/svg">
<path d="M2.8125 22.5C2.8125 26.3938 3.96715 30.2002 6.13044 33.4378C8.29373 36.6754 11.3685 39.1988 14.9659 40.6889C18.5633 42.179 22.5218 42.5689 26.3408 41.8092C30.1598 41.0496 33.6678 39.1745 36.4212 36.4212C39.1745 33.6678 41.0496 30.1598 41.8092 26.3408C42.5689 22.5218 42.179 18.5633 40.6889 14.9659C39.1988 11.3685 36.6754 8.29373 33.4378 6.13044C30.2002 3.96715 26.3938 2.8125 22.5 2.8125C17.2786 2.8125 12.271 4.88671 8.57884 8.57884C4.88671 12.271 2.8125 17.2786 2.8125 22.5ZM35.3672 33.3984L11.6016 9.63281C14.8368 6.93984 18.9618 5.55325 23.1668 5.74518C27.3718 5.93711 31.3533 7.69371 34.3298 10.6702C37.3063 13.6467 39.0629 17.6282 39.2548 21.8332C39.4468 26.0382 38.0602 30.1632 35.3672 33.3984ZM11.5875 35.3812C8.18202 32.4893 6.06235 28.3649 5.69329 23.9124C5.32423 19.46 6.7359 15.0429 9.61875 11.6297L33.3703 35.3812C30.3247 37.9547 26.4662 39.3666 22.4789 39.3666C18.4916 39.3666 14.6331 37.9547 11.5875 35.3812Z" fill="#2797E8"/>
</svg>
