<svg width="29" height="29" viewBox="0 0 29 29" fill="none" xmlns="http://www.w3.org/2000/svg">
<circle opacity="0.2" cx="14.5488" cy="14.2148" r="14" fill="#D51A52"/>
<g clip-path="url(#clip0_4164_32825)">
<path fill-rule="evenodd" clip-rule="evenodd" d="M18.7623 10.0127C16.4336 7.68392 12.6603 7.68017 10.3361 10.0044C8.01032 12.3309 8.01257 16.1027 10.3428 18.4314C12.6716 20.7602 16.4456 20.7632 18.7691 18.4389C21.0941 16.1147 21.0918 12.3414 18.7623 10.0127ZM15.7601 16.7282L14.4941 15.4622L13.2281 16.7282C12.7113 17.2449 12.3228 17.6949 11.7063 17.0792C11.0913 16.4634 11.5391 16.0749 12.0581 15.5574L13.3241 14.2922L12.0581 13.0262C11.5406 12.5094 11.0913 12.1209 11.7063 11.5044C12.3228 10.8894 12.7113 11.3387 13.2281 11.8562L14.4941 13.1207L15.7601 11.8562C16.2776 11.3394 16.6638 10.8887 17.2803 11.5044C17.8968 12.1209 17.4476 12.5094 16.9301 13.0262L15.6641 14.2914L16.9301 15.5567C17.4468 16.0749 17.8968 16.4634 17.2803 17.0792C16.6653 17.6949 16.2776 17.2449 15.7601 16.7282Z" fill="#D51A52"/>
</g>
<defs>
<clipPath id="clip0_4164_32825">
<rect width="12" height="12" fill="white" transform="translate(8.54883 8.21484)"/>
</clipPath>
</defs>
</svg>
