<svg width="43" height="39" viewBox="0 0 43 39" fill="none" xmlns="http://www.w3.org/2000/svg">
<path d="M16.7144 20.7188C17.3875 20.7188 17.9332 20.1731 17.9332 19.5C17.9332 18.8269 17.3875 18.2813 16.7144 18.2813L16.7144 20.7188ZM9.75014 18.2813C9.07705 18.2813 8.53139 18.8269 8.53139 19.5C8.53139 20.1731 9.07705 20.7188 9.75014 20.7188L9.75014 18.2813ZM19.5 14.2188C20.1731 14.2188 20.7187 13.6731 20.7187 13C20.7187 12.3269 20.1731 11.7813 19.5 11.7813L19.5 14.2188ZM9.74999 11.7813C9.0769 11.7813 8.53124 12.3269 8.53124 13C8.53124 13.6731 9.0769 14.2188 9.74999 14.2188L9.74999 11.7813ZM19.5 27.2188C20.1731 27.2188 20.7187 26.6731 20.7187 26C20.7187 25.3269 20.1731 24.7813 19.5 24.7813L19.5 27.2188ZM9.74999 24.7813C9.0769 24.7813 8.53124 25.3269 8.53124 26C8.53124 26.6731 9.0769 27.2188 9.74999 27.2188L9.74999 24.7813ZM16.7144 18.2813L9.75014 18.2813L9.75014 20.7188L16.7144 20.7188L16.7144 18.2813ZM19.5 11.7813L9.74999 11.7813L9.74999 14.2188L19.5 14.2188L19.5 11.7813ZM19.5 24.7813L9.74999 24.7813L9.74999 27.2188L19.5 27.2188L19.5 24.7813Z" fill="#0D99FF"/>
<path d="M28.709 26L21.9381 19.2292L28.709 12.4583" stroke="#0D99FF" stroke-width="2.4375" stroke-linecap="round" stroke-linejoin="round"/>
</svg>
