<svg width="22" height="16" viewBox="0 0 22 16" fill="none" xmlns="http://www.w3.org/2000/svg">
<path d="M1 6.83317C0.447715 6.83317 0 7.28089 0 7.83317C0 8.38546 0.447715 8.83317 1 8.83317V6.83317ZM21 8.83317C21.5523 8.83317 22 8.38546 22 7.83317C22 7.28089 21.5523 6.83317 21 6.83317V8.83317ZM1 13.4998C0.447715 13.4998 0 13.9476 0 14.4998C0 15.0521 0.447715 15.4998 1 15.4998V13.4998ZM21 15.4998C21.5523 15.4998 22 15.0521 22 14.4998C22 13.9476 21.5523 13.4998 21 13.4998V15.4998ZM1 0.166504C0.447715 0.166504 0 0.61422 0 1.1665C0 1.71879 0.447715 2.1665 1 2.1665V0.166504ZM21 2.1665C21.5523 2.1665 22 1.71879 22 1.1665C22 0.61422 21.5523 0.166504 21 0.166504V2.1665ZM1 8.83317H21V6.83317H1V8.83317ZM1 15.4998H21V13.4998H1V15.4998ZM1 2.1665H21V0.166504H1V2.1665Z" fill="#243249"/>
</svg>
