<svg width="16" height="15" viewBox="0 0 16 15" fill="none" xmlns="http://www.w3.org/2000/svg">
<path fill-rule="evenodd" clip-rule="evenodd" d="M3.02263 1.5C2.50576 1.5015 2.05281 1.84621 1.91363 2.344L1.07863 4.592C0.826224 5.54118 1.19423 6.54689 1.99963 7.109C2.6169 7.53703 3.40429 7.63667 4.10872 7.37589C4.81316 7.11512 5.34587 6.52679 5.53563 5.8L5.70363 4.6L6.19063 1.5H3.02263Z" stroke="#3D4C66" stroke-width="1.5" stroke-linecap="round" stroke-linejoin="round"/>
<path fill-rule="evenodd" clip-rule="evenodd" d="M12.8176 1.5C13.3345 1.5015 13.7875 1.84621 13.9266 2.344L14.8566 4.449C14.9011 4.54492 14.9347 4.64556 14.9566 4.749C15.1319 5.65565 14.7569 6.5805 13.9996 7.109C13.3824 7.53703 12.595 7.63667 11.8905 7.37589C11.1861 7.11512 10.6534 6.52679 10.4636 5.8L10.2996 4.592L9.65063 1.5H12.8176Z" stroke="#3D4C66" stroke-width="1.5" stroke-linecap="round" stroke-linejoin="round"/>
<path d="M6.1906 0.75C5.77639 0.75 5.4406 1.08579 5.4406 1.5C5.4406 1.91421 5.77639 2.25 6.1906 2.25V0.75ZM9.6506 2.25C10.0648 2.25 10.4006 1.91421 10.4006 1.5C10.4006 1.08579 10.0648 0.75 9.6506 0.75V2.25ZM6.44949 4.60488C6.45661 4.19073 6.12664 3.84923 5.71249 3.84211C5.29833 3.83499 4.95683 4.16496 4.94971 4.57912L6.44949 4.60488ZM5.6896 5.174L4.9396 5.16111V5.174H5.6896ZM10.3036 5.174H11.0536L11.0536 5.16885L10.3036 5.174ZM11.0496 4.58685C11.0467 4.17264 10.7087 3.83917 10.2944 3.84202C9.88024 3.84486 9.54677 4.18295 9.54962 4.59715L11.0496 4.58685ZM2.74954 7.11845C2.75476 6.70426 2.42323 6.36428 2.00905 6.35906C1.59487 6.35384 1.25488 6.68537 1.24966 7.09956L2.74954 7.11845ZM1.9446 11.476L1.19466 11.4666L1.19466 11.467L1.9446 11.476ZM2.52184 12.9058L3.05532 12.3786H3.05532L2.52184 12.9058ZM3.9446 13.5V12.75H3.94455L3.9446 13.5ZM5.9206 14.25C6.33482 14.25 6.6706 13.9142 6.6706 13.5C6.6706 13.0858 6.33482 12.75 5.9206 12.75V14.25ZM14.7495 7.12232C14.7568 6.70817 14.4271 6.36648 14.0129 6.35912C13.5988 6.35176 13.2571 6.68153 13.2497 7.09568L14.7495 7.12232ZM13.9216 11.5L13.1716 11.4867V11.5H13.9216ZM9.9216 12.75C9.50739 12.75 9.1716 13.0858 9.1716 13.5C9.1716 13.9142 9.50739 14.25 9.9216 14.25V12.75ZM5.1716 13.5C5.1716 13.9142 5.50739 14.25 5.9216 14.25C6.33582 14.25 6.6716 13.9142 6.6716 13.5H5.1716ZM9.1716 13.5C9.1716 13.9142 9.50739 14.25 9.9216 14.25C10.3358 14.25 10.6716 13.9142 10.6716 13.5H9.1716ZM5.9216 12.75C5.50739 12.75 5.1716 13.0858 5.1716 13.5C5.1716 13.9142 5.50739 14.25 5.9216 14.25V12.75ZM9.9216 14.25C10.3358 14.25 10.6716 13.9142 10.6716 13.5C10.6716 13.0858 10.3358 12.75 9.9216 12.75V14.25ZM6.1906 2.25H9.6506V0.75H6.1906V2.25ZM4.94971 4.57912L4.93971 5.16112L6.43949 5.18688L6.44949 4.60488L4.94971 4.57912ZM4.9396 5.174C4.9396 6.86233 6.30827 8.231 7.9966 8.231V6.731C7.13669 6.731 6.4396 6.03391 6.4396 5.174H4.9396ZM7.9966 8.231C9.68494 8.231 11.0536 6.86233 11.0536 5.174H9.5536C9.5536 6.03391 8.85651 6.731 7.9966 6.731V8.231ZM11.0536 5.16885L11.0496 4.58685L9.54962 4.59715L9.55362 5.17915L11.0536 5.16885ZM1.24966 7.09956L1.19466 11.4666L2.69454 11.4854L2.74954 7.11845L1.24966 7.09956ZM1.19466 11.467C1.18584 12.202 1.47167 12.91 1.98835 13.4329L3.05532 12.3786C2.82046 12.1409 2.69054 11.8191 2.69455 11.485L1.19466 11.467ZM1.98835 13.4329C2.50504 13.9558 3.20956 14.2501 3.94466 14.25L3.94455 12.75C3.61041 12.75 3.29018 12.6163 3.05532 12.3786L1.98835 13.4329ZM3.9446 14.25H5.9206V12.75H3.9446V14.25ZM13.2497 7.09568L13.1717 11.4867L14.6715 11.5133L14.7495 7.12232L13.2497 7.09568ZM13.1716 11.5C13.1716 12.1904 12.612 12.75 11.9216 12.75V14.25C13.4404 14.25 14.6716 13.0188 14.6716 11.5H13.1716ZM11.9216 12.75H9.9216V14.25H11.9216V12.75ZM6.6716 13.5V12.5H5.1716V13.5H6.6716ZM6.6716 12.5C6.6716 11.8096 7.23125 11.25 7.9216 11.25V9.75C6.40282 9.75 5.1716 10.9812 5.1716 12.5H6.6716ZM7.9216 11.25C8.61196 11.25 9.1716 11.8096 9.1716 12.5H10.6716C10.6716 10.9812 9.44039 9.75 7.9216 9.75V11.25ZM9.1716 12.5V13.5H10.6716V12.5H9.1716ZM5.9216 14.25H9.9216V12.75H5.9216V14.25Z" fill="#3D4C66"/>
</svg>
