<svg width="25" height="25" viewBox="0 0 25 25" fill="none" xmlns="http://www.w3.org/2000/svg">
<path d="M6.55078 22.6451C6.00078 22.6451 5.53011 22.4495 5.13878 22.0581C4.74678 21.6661 4.55078 21.1951 4.55078 20.6451V10.6451C4.55078 10.0951 4.74678 9.62414 5.13878 9.23214C5.53011 8.84081 6.00078 8.64514 6.55078 8.64514H7.55078V6.64514C7.55078 5.26181 8.03845 4.08247 9.01378 3.10714C9.98845 2.13247 11.1674 1.64514 12.5508 1.64514C13.9341 1.64514 15.1134 2.13247 16.0888 3.10714C17.0634 4.08247 17.5508 5.26181 17.5508 6.64514V8.64514H18.5508C19.1008 8.64514 19.5718 8.84081 19.9638 9.23214C20.3551 9.62414 20.5508 10.0951 20.5508 10.6451V20.6451C20.5508 21.1951 20.3551 21.6661 19.9638 22.0581C19.5718 22.4495 19.1008 22.6451 18.5508 22.6451H6.55078ZM12.5508 17.6451C13.1008 17.6451 13.5718 17.4495 13.9638 17.0581C14.3551 16.6661 14.5508 16.1951 14.5508 15.6451C14.5508 15.0951 14.3551 14.6241 13.9638 14.2321C13.5718 13.8408 13.1008 13.6451 12.5508 13.6451C12.0008 13.6451 11.5301 13.8408 11.1388 14.2321C10.7468 14.6241 10.5508 15.0951 10.5508 15.6451C10.5508 16.1951 10.7468 16.6661 11.1388 17.0581C11.5301 17.4495 12.0008 17.6451 12.5508 17.6451ZM9.55078 8.64514H15.5508V6.64514C15.5508 5.81181 15.2591 5.10347 14.6758 4.52014C14.0924 3.93681 13.3841 3.64514 12.5508 3.64514C11.7174 3.64514 11.0091 3.93681 10.4258 4.52014C9.84245 5.10347 9.55078 5.81181 9.55078 6.64514V8.64514Z" fill="#B0BEC9"/>
</svg>
