<svg width="59" height="59" viewBox="0 0 59 59" fill="none" xmlns="http://www.w3.org/2000/svg">
<path d="M25.8125 7.375C18.7067 7.375 12.9062 13.1754 12.9062 20.2812C12.9062 24.7247 15.1741 28.674 18.6108 30.999C12.0342 33.8199 7.375 40.3413 7.375 47.9375H11.0625C11.0625 39.7697 17.6447 33.1875 25.8125 33.1875C28.3495 33.1875 30.7058 33.8476 32.7819 34.9759C30.6579 37.6001 29.4994 40.874 29.5 44.25C29.5 52.3736 36.1264 59 44.25 59C52.3736 59 59 52.3736 59 44.25C59 36.1264 52.3736 29.5 44.25 29.5C41.1433 29.5042 38.1176 30.4917 35.6065 32.3209C34.7916 31.8102 33.9102 31.3806 33.0142 30.9971C34.7689 29.8137 36.2066 28.218 37.2011 26.3497C38.1957 24.4814 38.7168 22.3977 38.7188 20.2812C38.7188 13.1754 32.9183 7.375 25.8125 7.375ZM25.8125 11.0625C30.9252 11.0625 35.0312 15.1685 35.0312 20.2812C35.0312 25.394 30.9252 29.5 25.8125 29.5C20.6998 29.5 16.5938 25.394 16.5938 20.2812C16.5938 15.1685 20.6998 11.0625 25.8125 11.0625ZM44.25 33.1875C50.3823 33.1875 55.3125 38.1177 55.3125 44.25C55.3125 50.3823 50.3823 55.3125 44.25 55.3125C38.1177 55.3125 33.1875 50.3823 33.1875 44.25C33.1875 38.1177 38.1177 33.1875 44.25 33.1875ZM40.0462 37.3913L37.3913 40.0462L41.6005 44.25L37.3968 48.4538L40.0462 51.1087L44.25 46.8995L48.4538 51.1032L51.1087 48.4538L46.8995 44.25L51.1032 40.0462L48.4538 37.3913L44.25 41.6005L40.0462 37.3968V37.3913Z" fill="#B0BEC9"/>
</svg>
