<svg width="27" height="20" viewBox="0 0 27 20" fill="none" xmlns="http://www.w3.org/2000/svg">
<path fill-rule="evenodd" clip-rule="evenodd" d="M3.45072 15.017C1.8787 14.922 0.684831 13.6656 0.779424 12.2059V7.85534C0.684831 6.39555 1.8787 5.1392 3.45072 5.04422H5.44429C6.04189 5.04073 6.61801 4.83691 7.06653 4.47029L9.84778 2.24315C10.6933 1.62467 11.8568 1.5397 12.7961 2.02786C13.7354 2.51601 14.2655 3.48122 14.1395 4.47364V15.5876C14.2655 16.58 13.7354 17.5452 12.7961 18.0333C11.8568 18.5215 10.6933 18.4365 9.84778 17.818L7.06293 15.5909C6.6144 15.2243 6.03828 15.0205 5.44068 15.017H3.45072Z" stroke="#3D4C66" stroke-width="1.5" stroke-linecap="round" stroke-linejoin="round"/>
<path d="M23.8265 1.88888C23.5655 1.56718 23.0932 1.51792 22.7715 1.77884C22.4498 2.03977 22.4006 2.51208 22.6615 2.83378L23.8265 1.88888ZM22.6615 17.2278C22.4006 17.5495 22.4498 18.0218 22.7715 18.2828C23.0932 18.5437 23.5655 18.4944 23.8265 18.1727L22.6615 17.2278ZM19.3072 3.76858C19.0253 3.46504 18.5508 3.44746 18.2472 3.7293C17.9437 4.01115 17.9261 4.4857 18.208 4.78923L19.3072 3.76858ZM18.208 15.2724C17.9261 15.5759 17.9437 16.0505 18.2472 16.3323C18.5508 16.6142 19.0253 16.5966 19.3072 16.293L18.208 15.2724ZM22.6615 2.83378C26.1216 7.0997 26.1216 12.9619 22.6615 17.2278L23.8265 18.1727C27.7333 13.3561 27.7333 6.70554 23.8265 1.88888L22.6615 2.83378ZM18.208 4.78923C21.0099 7.80685 21.0099 12.2548 18.208 15.2724L19.3072 16.293C22.6435 12.6999 22.6435 7.36171 19.3072 3.76858L18.208 4.78923Z" fill="#3D4C66"/>
</svg>
