<svg width="19" height="20" viewBox="0 0 19 20" fill="none" xmlns="http://www.w3.org/2000/svg">
<path d="M11.6592 2.17773H6.16211V7.62699H11.6592V2.17773Z" fill="#243249"/>
<path d="M5.80801 2.17773C2.96172 2.38503 0.690688 4.71093 0.488281 7.62699H5.80801V2.17773Z" fill="#243249"/>
<path d="M5.80801 7.97852H0.488281V13.4278H5.80801V7.97852Z" fill="#243249"/>
<path d="M17.5107 7.97852H12.0137V13.4278H17.5107V7.97852Z" fill="#243249"/>
<path d="M12.0137 19.0528C14.9558 18.8531 17.3016 16.6018 17.5107 13.7793H12.0137V19.0528Z" fill="#243249"/>
<path d="M11.6592 13.7793H6.16211V19.0528H11.6592V13.7793Z" fill="#243249"/>
<path d="M5.80801 13.7793H0.488281C0.68972 16.6028 2.95978 18.8531 5.80801 19.0528V13.7793Z" fill="#243249"/>
<path d="M12.9004 0.947266V6.5723H18.5748C18.5738 3.4657 16.0333 0.947266 12.9004 0.947266Z" fill="#243249"/>
</svg>
