<svg width="131" height="95" viewBox="0 0 131 95" fill="none" xmlns="http://www.w3.org/2000/svg">
<g opacity="0.5">
<path d="M76.8026 6.25H52.5919V30.4607H76.8026V6.25Z" fill="#B0BEC9"/>
<path d="M51.0299 6.25C38.494 7.17101 28.4917 17.5048 27.6002 30.4607H51.0299V6.25Z" fill="#B0BEC9"/>
<path d="M51.0299 32.0195H27.6002V56.2302H51.0299V32.0195Z" fill="#B0BEC9"/>
<path d="M102.575 32.0195H78.3646V56.2302H102.575V32.0195Z" fill="#B0BEC9"/>
<path d="M78.3646 81.2227C91.3228 80.3355 101.654 70.3332 102.575 57.793H78.3646V81.2227Z" fill="#B0BEC9"/>
<path d="M76.8026 57.793H52.5919V81.2227H76.8026V57.793Z" fill="#B0BEC9"/>
<path d="M51.0299 57.793H27.6002C28.4874 70.3374 38.4854 80.3355 51.0299 81.2227V57.793Z" fill="#B0BEC9"/>
</g>
<path d="M97.6591 74.1077C104.725 84.5037 118.675 87.999 130.341 82.2931L118.626 62.0024L97.6591 74.1077Z" fill="#D8DFE4"/>
</svg>
