<svg width="37" height="36" viewBox="0 0 37 36" fill="none" xmlns="http://www.w3.org/2000/svg">
<path d="M22.0632 2.7439H11.4209V13.3725H22.0632V2.7439Z" fill="white"/>
<path d="M10.7341 2.7439C5.22365 3.14822 0.826921 7.68481 0.435059 13.3725H10.7341V2.7439Z" fill="white"/>
<path d="M10.7341 14.0581H0.435059V24.6867H10.7341V14.0581Z" fill="white"/>
<path d="M33.3919 14.0581H22.7495V24.6867H33.3919V14.0581Z" fill="white"/>
<path d="M22.7495 35.658C28.4456 35.2685 32.9869 30.8775 33.3919 25.3723H22.7495V35.658Z" fill="white"/>
<path d="M22.0632 25.3723H11.4209V35.658H22.0632V25.3723Z" fill="white"/>
<path d="M10.7341 25.3723H0.435059C0.825046 30.8794 5.2199 35.2685 10.7341 35.658V25.3723Z" fill="white"/>
<path d="M24.4663 0.34375V11.3152H35.452C35.4501 5.25586 30.5316 0.34375 24.4663 0.34375Z" fill="white"/>
</svg>
