<svg width="130" height="95" viewBox="0 0 130 95" fill="none" xmlns="http://www.w3.org/2000/svg">
<path d="M76.3026 6.25H52.0919V30.4607H76.3026V6.25Z" fill="#2797E8"/>
<path d="M50.5299 6.25C37.994 7.17101 27.9917 17.5048 27.1002 30.4607H50.5299V6.25Z" fill="#2797E8"/>
<path d="M50.5299 32.0195H27.1002V56.2302H50.5299V32.0195Z" fill="#2797E8"/>
<path d="M102.075 32.0195H77.8646V56.2302H102.075V32.0195Z" fill="#2797E8"/>
<path d="M77.8646 81.2227C90.8228 80.3355 101.154 70.3332 102.075 57.793H77.8646V81.2227V81.2227Z" fill="#2797E8"/>
<path d="M76.3026 57.793H52.0919V81.2227H76.3026V57.793Z" fill="#2797E8"/>
<path d="M50.5299 57.793H27.1002C27.9874 70.3374 37.9854 80.3355 50.5299 81.2227V57.793Z" fill="#2797E8"/>
<path d="M97.1591 74.1077C104.225 84.5037 118.175 87.999 129.841 82.2931L118.126 62.0024L97.1591 74.1077Z" fill="#2797E8"/>
</svg>
