<svg width="19" height="19" viewBox="0 0 19 19" fill="none" xmlns="http://www.w3.org/2000/svg">
<path d="M11.581 1.44775H5.97144V7.05728H11.581V1.44775Z" fill="#3D4C66"/>
<path d="M5.60953 1.44775C2.705 1.66115 0.387503 4.05546 0.180954 7.05728H5.60953V1.44775Z" fill="#3D4C66"/>
<path d="M5.60953 7.41895H0.180954V13.0285H5.60953V7.41895Z" fill="#3D4C66"/>
<path d="M17.5524 7.41895H11.9429V13.0285H17.5524V7.41895Z" fill="#3D4C66"/>
<path d="M11.9429 18.8192C14.9452 18.6136 17.3389 16.2961 17.5524 13.3906H11.9429V18.8192Z" fill="#3D4C66"/>
<path d="M11.581 13.3906H5.97144V18.8192H11.581V13.3906Z" fill="#3D4C66"/>
<path d="M5.60953 13.3906H0.180954C0.386514 16.2971 2.70302 18.6136 5.60953 18.8192V13.3906Z" fill="#3D4C66"/>
<path d="M12.8476 0.181152V5.97163H18.6381C18.6371 2.77366 16.0446 0.181152 12.8476 0.181152Z" fill="#3D4C66"/>
</svg>
