<svg width="136" height="48" viewBox="0 0 136 48" fill="none" xmlns="http://www.w3.org/2000/svg">
<path d="M13.7467 17.8594H0V31.4666H13.7467V17.8594Z" fill="#A568BC"/>
<path d="M41.2401 17.8594H27.4934V31.4666H41.2401V17.8594Z" fill="#A1E663"/>
<path d="M27.4934 4.25195H13.7467V17.8592H27.4934V4.25195Z" fill="#FF8552"/>
<path d="M27.4934 31.4658H13.7467V45.073H27.4934V31.4658Z" fill="#1DB9CA"/>
<path d="M30.9301 14.4568V0.849609C38.5236 0.849609 44.6768 6.94287 44.6768 14.4568H30.9301Z" fill="#FFD026"/>
<path d="M27.4934 45.073V31.4658H41.2401C41.2401 38.9798 35.0869 45.073 27.4934 45.073Z" fill="#47D2A5"/>
<path d="M0 17.8592C0 10.3428 6.15573 4.25195 13.7467 4.25195V17.8592H0Z" fill="#FF525F"/>
<path d="M0 31.4658H13.7467V45.073C6.15573 45.0755 0 38.9822 0 31.4658Z" fill="#2797E8"/>
<path d="M60.108 33.5396C58.5069 32.6539 57.2525 31.4336 56.3472 29.8765C55.4419 28.3218 54.9869 26.5715 54.9869 24.6304C54.9869 22.6893 55.4395 20.939 56.3472 19.3843C57.2525 17.8295 58.5069 16.6093 60.108 15.7212C61.7091 14.8354 63.5077 14.3926 65.5036 14.3926C67.4996 14.3926 69.2933 14.8354 70.8848 15.7212C72.4763 16.6069 73.7307 17.8272 74.6456 19.3843C75.5605 20.939 76.018 22.6893 76.018 24.6304C76.018 26.5715 75.5605 28.3218 74.6456 29.8765C73.7307 31.4313 72.4763 32.6539 70.8848 33.5396C69.2933 34.4254 67.4972 34.8682 65.5036 34.8682C63.5101 34.8682 61.7115 34.4254 60.108 33.5396ZM68.6746 30.3288C69.6184 29.7752 70.3575 29.0026 70.8969 28.0108C71.4338 27.0191 71.7034 25.8931 71.7034 24.6304C71.7034 23.3678 71.4338 22.2394 70.8969 21.25C70.3599 20.2582 69.6184 19.4856 68.6746 18.932C67.7307 18.3784 66.6738 18.1004 65.5036 18.1004C64.3335 18.1004 63.2765 18.3784 62.3351 18.932C61.3913 19.4856 60.6522 20.2582 60.1128 21.25C59.5735 22.2417 59.3063 23.3678 59.3063 24.6304C59.3063 25.8931 59.5759 27.0214 60.1128 28.0108C60.6497 29.0026 61.3913 29.7752 62.3351 30.3288C63.2789 30.8824 64.3359 31.1604 65.5036 31.1604C66.6738 31.158 67.7307 30.8824 68.6746 30.3288Z" fill="#3D4C66"/>
<path d="M78.4329 13.4717H82.5597V34.541H78.4329V13.4717Z" fill="#3D4C66"/>
<path d="M86.3975 19.8789H90.5243V34.5407H86.3975V19.8789ZM90.9553 15.5609C90.9288 17.2711 88.4272 18.9342 88.4272 18.9342C88.4272 18.9342 85.8799 17.2264 85.8992 15.5609C85.9136 14.2817 87.0308 13.1816 88.4272 13.1816C89.8237 13.1816 90.9746 14.2817 90.9553 15.5609Z" fill="#3D4C66"/>
<path d="M108.49 19.8789L102.483 34.5407H98.224L92.2433 19.8789H96.5025L100.444 29.8529L104.518 19.8789H108.49Z" fill="#3D4C66"/>
<path d="M123.652 28.4088H112.884C113.079 29.3181 113.537 30.0342 114.259 30.5619C114.982 31.0896 115.882 31.3534 116.958 31.3534C117.7 31.3534 118.357 31.2403 118.93 31.0118C119.503 30.7857 120.038 30.4253 120.531 29.9353L122.727 32.3875C121.386 33.9682 119.429 34.7574 116.852 34.7574C115.246 34.7574 113.826 34.4346 112.593 33.7892C111.358 33.1437 110.405 32.2486 109.735 31.1061C109.063 29.9612 108.729 28.6632 108.729 27.2097C108.729 25.7751 109.059 24.4795 109.721 23.3276C110.383 22.1733 111.291 21.2758 112.446 20.6303C113.602 19.9848 114.895 19.6621 116.323 19.6621C117.717 19.6621 118.978 19.9707 120.107 20.5879C121.237 21.2051 122.123 22.0908 122.766 23.2451C123.408 24.3994 123.731 25.7374 123.731 27.2639C123.731 27.3181 123.705 27.6997 123.652 28.4088ZM113.994 23.6951C113.359 24.2392 112.971 24.986 112.829 25.9306H119.84C119.698 25.0048 119.311 24.2628 118.675 23.7092C118.039 23.1556 117.264 22.8776 116.347 22.8776C115.415 22.8776 114.63 23.1509 113.994 23.6951Z" fill="#3D4C66"/>
<path d="M132.423 20.2063C133.261 19.8435 134.226 19.6621 135.319 19.6621V23.5867C134.859 23.5514 134.551 23.5325 134.392 23.5325C133.21 23.5325 132.283 23.8741 131.614 24.5549C130.942 25.2357 130.607 26.258 130.607 27.6196V34.5406H126.481V19.8788H130.422V21.8129C130.92 21.1061 131.585 20.5714 132.423 20.2063Z" fill="#3D4C66"/>
</svg>
