<svg width="41" height="40" viewBox="0 0 41 40" fill="none" xmlns="http://www.w3.org/2000/svg">
<path d="M12.9841 15.7734H0.935547V27.7053H12.9841V15.7734Z" fill="#A568BC"/>
<path d="M37.081 15.7734H25.0325V27.7053H37.081V15.7734Z" fill="#A1E663"/>
<path d="M25.0326 3.84375H12.9841V15.7756H25.0326V3.84375Z" fill="#FF8552"/>
<path d="M25.0326 27.7051H12.9841V39.6369H25.0326V27.7051Z" fill="#1DB9CA"/>
<path d="M28.0447 12.7912V0.859375C34.7001 0.859375 40.0932 6.20241 40.0932 12.7912H28.0447Z" fill="#FFD026"/>
<path d="M25.0325 39.6369V27.7051H37.081C37.081 34.2939 31.6879 39.6369 25.0325 39.6369Z" fill="#47D2A5"/>
<path d="M0.935547 15.7756C0.935547 9.18463 6.33082 3.84375 12.9841 3.84375V15.7756H0.935547Z" fill="#FF525F"/>
<path d="M0.935547 27.7051H12.9841V39.6369C6.33082 39.6391 0.935547 34.296 0.935547 27.7051Z" fill="#2797E8"/>
</svg>
