<svg width="64" height="18" viewBox="0 0 64 18" fill="none" xmlns="http://www.w3.org/2000/svg">
<path d="M4.07996 16.8971C2.80438 16.162 1.805 15.1491 1.08377 13.8567C0.362534 12.5663 0 11.1135 0 9.50238C0 7.89126 0.360616 6.43851 1.08377 5.14805C1.805 3.85759 2.80438 2.84477 4.07996 2.10764C5.35555 1.37247 6.78843 1.00488 8.3786 1.00488C9.96877 1.00488 11.3978 1.37247 12.6657 2.10764C13.9336 2.84281 14.933 3.85563 15.6619 5.14805C16.3908 6.43851 16.7553 7.89126 16.7553 9.50238C16.7553 11.1135 16.3908 12.5663 15.6619 13.8567C14.933 15.1472 13.9336 16.162 12.6657 16.8971C11.3978 17.6323 9.96685 17.9999 8.3786 17.9999C6.79035 17.9999 5.35747 17.6323 4.07996 16.8971ZM10.9048 14.2321C11.6568 13.7726 12.2456 13.1313 12.6753 12.3082C13.1031 11.485 13.3179 10.5504 13.3179 9.50238C13.3179 8.45437 13.1031 7.51781 12.6753 6.6966C12.2476 5.87345 11.6568 5.23213 10.9048 4.77264C10.1529 4.31316 9.31083 4.08244 8.3786 4.08244C7.44636 4.08244 6.60429 4.31316 5.85428 4.77264C5.10235 5.23213 4.51347 5.87345 4.0838 6.6966C3.65413 7.51976 3.44121 8.45437 3.44121 9.50238C3.44121 10.5504 3.65604 11.487 4.0838 12.3082C4.51155 13.1313 5.10235 13.7726 5.85428 14.2321C6.6062 14.6916 7.44828 14.9223 8.3786 14.9223C9.31083 14.9204 10.1529 14.6916 10.9048 14.2321Z" fill="#243249"/>
<path d="M18.6787 0.240479H21.9665V17.7282H18.6787V0.240479Z" fill="#243249"/>
<path d="M25.0251 5.55877H28.3128V17.7282H25.0251V5.55877ZM28.6562 1.9748C28.6351 3.39431 26.6421 4.77471 26.6421 4.77471C26.6421 4.77471 24.6127 3.35716 24.628 1.9748C24.6395 0.9131 25.5296 0 26.6421 0C27.7546 0 28.6715 0.9131 28.6562 1.9748Z" fill="#243249"/>
<path d="M42.6255 5.55884L37.8397 17.7283H34.4464L29.6816 5.55884H33.0749L36.215 13.8374L39.4605 5.55884H42.6255V5.55884Z" fill="#243249"/>
<path d="M54.7053 12.6387H46.1272C46.2825 13.3935 46.647 13.9879 47.2225 14.4258C47.7979 14.8638 48.5153 15.0828 49.3727 15.0828C49.9635 15.0828 50.4872 14.9889 50.9437 14.7993C51.4002 14.6116 51.8261 14.3124 52.2193 13.9057L53.9687 15.9411C52.9003 17.2531 51.3408 17.9081 49.2883 17.9081C48.0089 17.9081 46.8772 17.6403 45.8951 17.1045C44.9111 16.5688 44.1515 15.8258 43.6182 14.8775C43.083 13.9272 42.8164 12.8499 42.8164 11.6435C42.8164 10.4528 43.0792 9.37739 43.6067 8.42127C44.1342 7.4632 44.8573 6.71825 45.7781 6.18251C46.6988 5.64678 47.7289 5.37891 48.8663 5.37891C49.977 5.37891 50.9821 5.63504 51.8817 6.14732C52.7813 6.65959 53.4872 7.39477 53.9994 8.35284C54.5115 9.31091 54.7686 10.4215 54.7686 11.6885C54.7686 11.7335 54.7475 12.0502 54.7053 12.6387ZM47.0115 8.72629C46.5051 9.17795 46.1962 9.79776 46.0831 10.5818H51.6688C51.5556 9.81341 51.2468 9.1975 50.7404 8.73802C50.234 8.27854 49.6163 8.04782 48.8855 8.04782C48.1432 8.04782 47.5179 8.27463 47.0115 8.72629Z" fill="#243249"/>
<path d="M61.6921 5.83057C62.3596 5.52946 63.1288 5.37891 63.9996 5.37891V8.63635C63.6333 8.60702 63.3877 8.59138 63.2611 8.59138C62.3193 8.59138 61.5808 8.87489 61.0476 9.43995C60.5124 10.005 60.2458 10.8536 60.2458 11.9837V17.7282H56.958V5.55879H60.0981V7.16405C60.4951 6.57747 61.0245 6.13363 61.6921 5.83057Z" fill="#243249"/>
</svg>
