<svg width="32" height="32" viewBox="0 0 32 32" fill="none" xmlns="http://www.w3.org/2000/svg">
<path d="M10.0813 20.7517C10.4953 20.74 10.8215 20.3948 10.8097 19.9808C10.798 19.5667 10.4528 19.2406 10.0388 19.2523L10.0813 20.7517ZM6.66669 16.802L5.91684 16.7867C5.91658 16.7994 5.91665 16.8121 5.91703 16.8247L6.66669 16.802ZM9.21335 13.702L9.37393 14.4346C9.7181 14.3592 9.96335 14.0544 9.96335 13.702H9.21335ZM9.21335 13.602L8.4637 13.5793C8.46347 13.5869 8.46335 13.5944 8.46335 13.602H9.21335ZM12.6067 10.402L12.5854 11.1517C12.5929 11.1519 12.6003 11.152 12.6077 11.152L12.6067 10.402ZM13.852 10.6247L13.5912 11.3279C13.9522 11.4618 14.356 11.3006 14.5255 10.9548L13.852 10.6247ZM18.1214 8.00202L18.1114 8.75195C18.1222 8.7521 18.133 8.75201 18.1437 8.75169L18.1214 8.00202ZM21.3665 9.23493L20.852 9.78062L20.852 9.78062L21.3665 9.23493ZM22.788 12.402L23.538 12.4011C23.538 12.3941 23.5379 12.3872 23.5377 12.3803L22.788 12.402ZM22.5947 13.662L21.8795 13.4362C21.8138 13.6442 21.8419 13.8703 21.9564 14.0559C22.0709 14.2414 22.2605 14.3679 22.4757 14.4025L22.5947 13.662ZM25.3334 16.802L26.083 16.8247C26.0834 16.8114 26.0835 16.7981 26.0832 16.7848L25.3334 16.802ZM21.9613 19.2523C21.5472 19.2406 21.2021 19.5667 21.1903 19.9808C21.1786 20.3948 21.5047 20.74 21.9188 20.7517L21.9613 19.2523ZM10.0388 19.2523C8.63224 19.2922 7.45897 18.1858 7.41634 16.7793L5.91703 16.8247C5.98472 19.0581 7.84779 20.815 10.0813 20.7517L10.0388 19.2523ZM7.41653 16.8173C7.44003 15.6662 8.24927 14.6811 9.37393 14.4346L9.05277 12.9694C7.25097 13.3643 5.9545 14.9425 5.91684 16.7867L7.41653 16.8173ZM9.96335 13.702C9.96335 13.702 9.96335 13.7019 9.96335 13.7018C9.96335 13.7018 9.96335 13.7017 9.96335 13.7016C9.96335 13.7016 9.96335 13.7015 9.96335 13.7014C9.96335 13.7014 9.96335 13.7013 9.96335 13.7012C9.96335 13.7012 9.96335 13.7011 9.96335 13.701C9.96335 13.701 9.96335 13.7009 9.96335 13.7008C9.96335 13.7008 9.96335 13.7007 9.96335 13.7006C9.96335 13.7006 9.96335 13.7005 9.96335 13.7004C9.96335 13.7004 9.96335 13.7003 9.96335 13.7002C9.96335 13.7002 9.96335 13.7001 9.96335 13.7C9.96335 13.7 9.96335 13.6999 9.96335 13.6998C9.96335 13.6998 9.96335 13.6997 9.96335 13.6996C9.96335 13.6996 9.96335 13.6995 9.96335 13.6994C9.96335 13.6994 9.96335 13.6993 9.96335 13.6992C9.96335 13.6992 9.96335 13.6991 9.96335 13.6991C9.96335 13.699 9.96335 13.6989 9.96335 13.6989C9.96335 13.6988 9.96335 13.6987 9.96335 13.6987C9.96335 13.6986 9.96335 13.6985 9.96335 13.6985C9.96335 13.6984 9.96335 13.6983 9.96335 13.6983C9.96335 13.6982 9.96335 13.6981 9.96335 13.6981C9.96335 13.698 9.96335 13.6979 9.96335 13.6979C9.96335 13.6978 9.96335 13.6977 9.96335 13.6977C9.96335 13.6976 9.96335 13.6975 9.96335 13.6975C9.96335 13.6974 9.96335 13.6973 9.96335 13.6973C9.96335 13.6972 9.96335 13.6971 9.96335 13.6971C9.96335 13.697 9.96335 13.6969 9.96335 13.6969C9.96335 13.6968 9.96335 13.6967 9.96335 13.6967C9.96335 13.6966 9.96335 13.6965 9.96335 13.6965C9.96335 13.6964 9.96335 13.6964 9.96335 13.6963C9.96335 13.6962 9.96335 13.6962 9.96335 13.6961C9.96335 13.696 9.96335 13.696 9.96335 13.6959C9.96335 13.6958 9.96335 13.6958 9.96335 13.6957C9.96335 13.6956 9.96335 13.6956 9.96335 13.6955C9.96335 13.6954 9.96335 13.6954 9.96335 13.6953C9.96335 13.6952 9.96335 13.6952 9.96335 13.6951C9.96335 13.695 9.96335 13.695 9.96335 13.6949C9.96335 13.6948 9.96335 13.6948 9.96335 13.6947C9.96335 13.6946 9.96335 13.6946 9.96335 13.6945C9.96335 13.6944 9.96335 13.6944 9.96335 13.6943C9.96335 13.6942 9.96335 13.6942 9.96335 13.6941C9.96335 13.694 9.96335 13.694 9.96335 13.6939C9.96335 13.6938 9.96335 13.6938 9.96335 13.6937C9.96335 13.6937 9.96335 13.6936 9.96335 13.6935C9.96335 13.6935 9.96335 13.6934 9.96335 13.6933C9.96335 13.6933 9.96335 13.6932 9.96335 13.6931C9.96335 13.6931 9.96335 13.693 9.96335 13.6929C9.96335 13.6929 9.96335 13.6928 9.96335 13.6927C9.96335 13.6927 9.96335 13.6926 9.96335 13.6925C9.96335 13.6925 9.96335 13.6924 9.96335 13.6923C9.96335 13.6923 9.96335 13.6922 9.96335 13.6921C9.96335 13.6921 9.96335 13.692 9.96335 13.6919C9.96335 13.6919 9.96335 13.6918 9.96335 13.6917C9.96335 13.6917 9.96335 13.6916 9.96335 13.6915C9.96335 13.6915 9.96335 13.6914 9.96335 13.6913C9.96335 13.6913 9.96335 13.6912 9.96335 13.6911C9.96335 13.6911 9.96335 13.691 9.96335 13.691C9.96335 13.6909 9.96335 13.6908 9.96335 13.6908C9.96335 13.6907 9.96335 13.6906 9.96335 13.6906C9.96335 13.6905 9.96335 13.6904 9.96335 13.6904C9.96335 13.6903 9.96335 13.6902 9.96335 13.6902C9.96335 13.6901 9.96335 13.69 9.96335 13.69C9.96335 13.6899 9.96335 13.6898 9.96335 13.6898C9.96335 13.6897 9.96335 13.6896 9.96335 13.6896C9.96335 13.6895 9.96335 13.6894 9.96335 13.6894C9.96335 13.6893 9.96335 13.6892 9.96335 13.6892C9.96335 13.6891 9.96335 13.689 9.96335 13.689C9.96335 13.6889 9.96335 13.6888 9.96335 13.6888C9.96335 13.6887 9.96335 13.6887 9.96335 13.6886C9.96335 13.6885 9.96335 13.6885 9.96335 13.6884C9.96335 13.6883 9.96335 13.6883 9.96335 13.6882C9.96335 13.6881 9.96335 13.6881 9.96335 13.688C9.96335 13.6879 9.96335 13.6879 9.96335 13.6878C9.96335 13.6877 9.96335 13.6877 9.96335 13.6876C9.96335 13.6875 9.96335 13.6875 9.96335 13.6874C9.96335 13.6873 9.96335 13.6873 9.96335 13.6872C9.96335 13.6871 9.96335 13.6871 9.96335 13.687C9.96335 13.6869 9.96335 13.6869 9.96335 13.6868C9.96335 13.6867 9.96335 13.6867 9.96335 13.6866C9.96335 13.6865 9.96335 13.6865 9.96335 13.6864C9.96335 13.6864 9.96335 13.6863 9.96335 13.6862C9.96335 13.6862 9.96335 13.6861 9.96335 13.686C9.96335 13.686 9.96335 13.6859 9.96335 13.6858C9.96335 13.6858 9.96335 13.6857 9.96335 13.6856C9.96335 13.6856 9.96335 13.6855 9.96335 13.6854C9.96335 13.6854 9.96335 13.6853 9.96335 13.6852C9.96335 13.6852 9.96335 13.6851 9.96335 13.685C9.96335 13.685 9.96335 13.6849 9.96335 13.6848C9.96335 13.6848 9.96335 13.6847 9.96335 13.6846C9.96335 13.6846 9.96335 13.6845 9.96335 13.6844C9.96335 13.6844 9.96335 13.6843 9.96335 13.6842C9.96335 13.6842 9.96335 13.6841 9.96335 13.6841C9.96335 13.684 9.96335 13.6839 9.96335 13.6839C9.96335 13.6838 9.96335 13.6837 9.96335 13.6837C9.96335 13.6836 9.96335 13.6835 9.96335 13.6835C9.96335 13.6834 9.96335 13.6833 9.96335 13.6833C9.96335 13.6832 9.96335 13.6831 9.96335 13.6831C9.96335 13.683 9.96335 13.6829 9.96335 13.6829C9.96335 13.6828 9.96335 13.6827 9.96335 13.6827C9.96335 13.6826 9.96335 13.6825 9.96335 13.6825C9.96335 13.6824 9.96335 13.6823 9.96335 13.6823C9.96335 13.6822 9.96335 13.6821 9.96335 13.6821C9.96335 13.682 9.96335 13.682 9.96335 13.6819C9.96335 13.6818 9.96335 13.6818 9.96335 13.6817C9.96335 13.6816 9.96335 13.6816 9.96335 13.6815C9.96335 13.6814 9.96335 13.6814 9.96335 13.6813C9.96335 13.6812 9.96335 13.6812 9.96335 13.6811C9.96335 13.681 9.96335 13.681 9.96335 13.6809C9.96335 13.6808 9.96335 13.6808 9.96335 13.6807C9.96335 13.6806 9.96335 13.6806 9.96335 13.6805C9.96335 13.6804 9.96335 13.6804 9.96335 13.6803C9.96335 13.6802 9.96335 13.6802 9.96335 13.6801C9.96335 13.68 9.96335 13.68 9.96335 13.6799C9.96335 13.6799 9.96335 13.6798 9.96335 13.6797C9.96335 13.6797 9.96335 13.6796 9.96335 13.6795C9.96335 13.6795 9.96335 13.6794 9.96335 13.6793C9.96335 13.6793 9.96335 13.6792 9.96335 13.6791C9.96335 13.6791 9.96335 13.679 9.96335 13.6789C9.96335 13.6789 9.96335 13.6788 9.96335 13.6787C9.96335 13.6787 9.96335 13.6786 9.96335 13.6785C9.96335 13.6785 9.96335 13.6784 9.96335 13.6783C9.96335 13.6783 9.96335 13.6782 9.96335 13.6781C9.96335 13.6781 9.96335 13.678 9.96335 13.6779C9.96335 13.6779 9.96335 13.6778 9.96335 13.6778C9.96335 13.6777 9.96335 13.6776 9.96335 13.6776C9.96335 13.6775 9.96335 13.6774 9.96335 13.6774C9.96335 13.6773 9.96335 13.6772 9.96335 13.6772C9.96335 13.6771 9.96335 13.677 9.96335 13.677C9.96335 13.6769 9.96335 13.6768 9.96335 13.6768C9.96335 13.6767 9.96335 13.6766 9.96335 13.6766C9.96335 13.6765 9.96335 13.6764 9.96335 13.6764C9.96335 13.6763 9.96335 13.6762 9.96335 13.6762C9.96335 13.6761 9.96335 13.676 9.96335 13.676C9.96335 13.6759 9.96335 13.6759 9.96335 13.6758C9.96335 13.6757 9.96335 13.6757 9.96335 13.6756C9.96335 13.6755 9.96335 13.6755 9.96335 13.6754C9.96335 13.6753 9.96335 13.6753 9.96335 13.6752C9.96335 13.6751 9.96335 13.6751 9.96335 13.675C9.96335 13.6749 9.96335 13.6749 9.96335 13.6748C9.96335 13.6747 9.96335 13.6747 9.96335 13.6746C9.96335 13.6745 9.96335 13.6745 9.96335 13.6744C9.96335 13.6743 9.96335 13.6743 9.96335 13.6742C9.96335 13.6741 9.96335 13.6741 9.96335 13.674C9.96335 13.674 9.96335 13.6739 9.96335 13.6738C9.96335 13.6738 9.96335 13.6737 9.96335 13.6736C9.96335 13.6736 9.96335 13.6735 9.96335 13.6734C9.96335 13.6734 9.96335 13.6733 9.96335 13.6732C9.96335 13.6732 9.96335 13.6731 9.96335 13.673C9.96335 13.673 9.96335 13.6729 9.96335 13.6728C9.96335 13.6728 9.96335 13.6727 9.96335 13.6726C9.96335 13.6726 9.96335 13.6725 9.96335 13.6724C9.96335 13.6724 9.96335 13.6723 9.96335 13.6723C9.96335 13.6722 9.96335 13.6721 9.96335 13.6721C9.96335 13.672 9.96335 13.6719 9.96335 13.6719C9.96335 13.6718 9.96335 13.6717 9.96335 13.6717C9.96335 13.6716 9.96335 13.6715 9.96335 13.6715C9.96335 13.6714 9.96335 13.6713 9.96335 13.6713C9.96335 13.6712 9.96335 13.6711 9.96335 13.6711C9.96335 13.671 9.96335 13.6709 9.96335 13.6709C9.96335 13.6708 9.96335 13.6707 9.96335 13.6707C9.96335 13.6706 9.96335 13.6705 9.96335 13.6705C9.96335 13.6704 9.96335 13.6704 9.96335 13.6703C9.96335 13.6702 9.96335 13.6702 9.96335 13.6701C9.96335 13.67 9.96335 13.67 9.96335 13.6699C9.96335 13.6698 9.96335 13.6698 9.96335 13.6697C9.96335 13.6696 9.96335 13.6696 9.96335 13.6695C9.96335 13.6694 9.96335 13.6694 9.96335 13.6693C9.96335 13.6692 9.96335 13.6692 9.96335 13.6691C9.96335 13.669 9.96335 13.669 9.96335 13.6689C9.96335 13.6688 9.96335 13.6688 9.96335 13.6687C9.96335 13.6687 9.96335 13.6686 9.96335 13.6685C9.96335 13.6685 9.96335 13.6684 9.96335 13.6683C9.96335 13.6683 9.96335 13.6682 9.96335 13.6681C9.96335 13.6681 9.96335 13.668 9.96335 13.6679C9.96335 13.6679 9.96335 13.6678 9.96335 13.6677C9.96335 13.6677 9.96335 13.6676 9.96335 13.6675C9.96335 13.6675 9.96335 13.6674 9.96335 13.6673C9.96335 13.6673 9.96335 13.6672 9.96335 13.6671C9.96335 13.6671 9.96335 13.667 9.96335 13.667C9.96335 13.6669 9.96335 13.6668 9.96335 13.6668C9.96335 13.6667 9.96335 13.6666 9.96335 13.6666C9.96335 13.6665 9.96335 13.6664 9.96335 13.6664C9.96335 13.6663 9.96335 13.6662 9.96335 13.6662C9.96335 13.6661 9.96335 13.666 9.96335 13.666C9.96335 13.6659 9.96335 13.6658 9.96335 13.6658C9.96335 13.6657 9.96335 13.6656 9.96335 13.6656C9.96335 13.6655 9.96335 13.6654 9.96335 13.6654C9.96335 13.6653 9.96335 13.6653 9.96335 13.6652C9.96335 13.6651 9.96335 13.6651 9.96335 13.665C9.96335 13.6649 9.96335 13.6649 9.96335 13.6648C9.96335 13.6647 9.96335 13.6647 9.96335 13.6646C9.96335 13.6645 9.96335 13.6645 9.96335 13.6644C9.96335 13.6643 9.96335 13.6643 9.96335 13.6642C9.96335 13.6641 9.96335 13.6641 9.96335 13.664C9.96335 13.6639 9.96335 13.6639 9.96335 13.6638C9.96335 13.6637 9.96335 13.6637 9.96335 13.6636C9.96335 13.6636 9.96335 13.6635 9.96335 13.6634C9.96335 13.6634 9.96335 13.6633 9.96335 13.6632C9.96335 13.6632 9.96335 13.6631 9.96335 13.663C9.96335 13.663 9.96335 13.6629 9.96335 13.6628C9.96335 13.6628 9.96335 13.6627 9.96335 13.6626C9.96335 13.6626 9.96335 13.6625 9.96335 13.6624C9.96335 13.6624 9.96335 13.6623 9.96335 13.6622C9.96335 13.6622 9.96335 13.6621 9.96335 13.6621C9.96335 13.662 9.96335 13.6619 9.96335 13.6619C9.96335 13.6618 9.96335 13.6617 9.96335 13.6617C9.96335 13.6616 9.96335 13.6615 9.96335 13.6615C9.96335 13.6614 9.96335 13.6613 9.96335 13.6613C9.96335 13.6612 9.96335 13.6611 9.96335 13.6611C9.96335 13.661 9.96335 13.6609 9.96335 13.6609C9.96335 13.6608 9.96335 13.6607 9.96335 13.6607C9.96335 13.6606 9.96335 13.6606 9.96335 13.6605C9.96335 13.6604 9.96335 13.6604 9.96335 13.6603C9.96335 13.6602 9.96335 13.6602 9.96335 13.6601C9.96335 13.66 9.96335 13.66 9.96335 13.6599C9.96335 13.6598 9.96335 13.6598 9.96335 13.6597C9.96335 13.6596 9.96335 13.6596 9.96335 13.6595C9.96335 13.6594 9.96335 13.6594 9.96335 13.6593C9.96335 13.6592 9.96335 13.6592 9.96335 13.6591C9.96335 13.659 9.96335 13.659 9.96335 13.6589C9.96335 13.6589 9.96335 13.6588 9.96335 13.6587C9.96335 13.6587 9.96335 13.6586 9.96335 13.6585C9.96335 13.6585 9.96335 13.6584 9.96335 13.6583C9.96335 13.6583 9.96335 13.6582 9.96335 13.6581C9.96335 13.6581 9.96335 13.658 9.96335 13.6579C9.96335 13.6579 9.96335 13.6578 9.96335 13.6577C9.96335 13.6577 9.96335 13.6576 9.96335 13.6575C9.96335 13.6575 9.96335 13.6574 9.96335 13.6574C9.96335 13.6573 9.96335 13.6572 9.96335 13.6572C9.96335 13.6571 9.96335 13.657 9.96335 13.657C9.96335 13.6569 9.96335 13.6568 9.96335 13.6568C9.96335 13.6567 9.96335 13.6566 9.96335 13.6566C9.96335 13.6565 9.96335 13.6564 9.96335 13.6564C9.96335 13.6563 9.96335 13.6562 9.96335 13.6562C9.96335 13.6561 9.96335 13.6561 9.96335 13.656C9.96335 13.6559 9.96335 13.6559 9.96335 13.6558C9.96335 13.6557 9.96335 13.6557 9.96335 13.6556C9.96335 13.6555 9.96335 13.6555 9.96335 13.6554C9.96335 13.6553 9.96335 13.6553 9.96335 13.6552C9.96335 13.6551 9.96335 13.6551 9.96335 13.655C9.96335 13.6549 9.96335 13.6549 9.96335 13.6548C9.96335 13.6547 9.96335 13.6547 9.96335 13.6546C9.96335 13.6546 9.96335 13.6545 9.96335 13.6544C9.96335 13.6544 9.96335 13.6543 9.96335 13.6542C9.96335 13.6542 9.96335 13.6541 9.96335 13.654C9.96335 13.654 9.96335 13.6539 9.96335 13.6538C9.96335 13.6538 9.96335 13.6537 9.96335 13.6536C9.96335 13.6536 9.96335 13.6535 9.96335 13.6534C9.96335 13.6534 9.96335 13.6533 9.96335 13.6532C9.96335 13.6532 9.96335 13.6531 9.96335 13.6531C9.96335 13.653 9.96335 13.6529 9.96335 13.6529C9.96335 13.6528 9.96335 13.6527 9.96335 13.6527C9.96335 13.6526 9.96335 13.6525 9.96335 13.6525C9.96335 13.6524 9.96335 13.6523 9.96335 13.6523C9.96335 13.6522 9.96335 13.6521 9.96335 13.6521C9.96335 13.652 9.96335 13.6519 9.96335 13.6519C9.96335 13.6518 9.96335 13.6518 9.96335 13.6517C9.96335 13.6516 9.96335 13.6516 9.96335 13.6515C9.96335 13.6514 9.96335 13.6514 9.96335 13.6513C9.96335 13.6512 9.96335 13.6512 9.96335 13.6511C9.96335 13.651 9.96335 13.651 9.96335 13.6509C9.96335 13.6508 9.96335 13.6508 9.96335 13.6507C9.96335 13.6506 9.96335 13.6506 9.96335 13.6505C9.96335 13.6504 9.96335 13.6504 9.96335 13.6503C9.96335 13.6503 9.96335 13.6502 9.96335 13.6501C9.96335 13.6501 9.96335 13.65 9.96335 13.6499C9.96335 13.6499 9.96335 13.6498 9.96335 13.6497C9.96335 13.6497 9.96335 13.6496 9.96335 13.6495C9.96335 13.6495 9.96335 13.6494 9.96335 13.6493C9.96335 13.6493 9.96335 13.6492 9.96335 13.6491C9.96335 13.6491 9.96335 13.649 9.96335 13.649C9.96335 13.6489 9.96335 13.6488 9.96335 13.6488C9.96335 13.6487 9.96335 13.6486 9.96335 13.6486C9.96335 13.6485 9.96335 13.6484 9.96335 13.6484C9.96335 13.6483 9.96335 13.6482 9.96335 13.6482C9.96335 13.6481 9.96335 13.648 9.96335 13.648C9.96335 13.6479 9.96335 13.6478 9.96335 13.6478C9.96335 13.6477 9.96335 13.6477 9.96335 13.6476C9.96335 13.6475 9.96335 13.6475 9.96335 13.6474C9.96335 13.6473 9.96335 13.6473 9.96335 13.6472C9.96335 13.6471 9.96335 13.6471 9.96335 13.647C9.96335 13.6469 9.96335 13.6469 9.96335 13.6468C9.96335 13.6467 9.96335 13.6467 9.96335 13.6466C9.96335 13.6465 9.96335 13.6465 9.96335 13.6464C9.96335 13.6464 9.96335 13.6463 9.96335 13.6462C9.96335 13.6462 9.96335 13.6461 9.96335 13.646C9.96335 13.646 9.96335 13.6459 9.96335 13.6458C9.96335 13.6458 9.96335 13.6457 9.96335 13.6456C9.96335 13.6456 9.96335 13.6455 9.96335 13.6454C9.96335 13.6454 9.96335 13.6453 9.96335 13.6452C9.96335 13.6452 9.96335 13.6451 9.96335 13.6451C9.96335 13.645 9.96335 13.6449 9.96335 13.6449C9.96335 13.6448 9.96335 13.6447 9.96335 13.6447C9.96335 13.6446 9.96335 13.6445 9.96335 13.6445C9.96335 13.6444 9.96335 13.6443 9.96335 13.6443C9.96335 13.6442 9.96335 13.6441 9.96335 13.6441C9.96335 13.644 9.96335 13.6439 9.96335 13.6439C9.96335 13.6438 9.96335 13.6438 9.96335 13.6437C9.96335 13.6436 9.96335 13.6436 9.96335 13.6435C9.96335 13.6434 9.96335 13.6434 9.96335 13.6433C9.96335 13.6432 9.96335 13.6432 9.96335 13.6431C9.96335 13.643 9.96335 13.643 9.96335 13.6429C9.96335 13.6428 9.96335 13.6428 9.96335 13.6427C9.96335 13.6426 9.96335 13.6426 9.96335 13.6425C9.96335 13.6425 9.96335 13.6424 9.96335 13.6423C9.96335 13.6423 9.96335 13.6422 9.96335 13.6421C9.96335 13.6421 9.96335 13.642 9.96335 13.6419C9.96335 13.6419 9.96335 13.6418 9.96335 13.6417C9.96335 13.6417 9.96335 13.6416 9.96335 13.6415C9.96335 13.6415 9.96335 13.6414 9.96335 13.6413C9.96335 13.6413 9.96335 13.6412 9.96335 13.6412C9.96335 13.6411 9.96335 13.641 9.96335 13.641C9.96335 13.6409 9.96335 13.6408 9.96335 13.6408C9.96335 13.6407 9.96335 13.6406 9.96335 13.6406C9.96335 13.6405 9.96335 13.6404 9.96335 13.6404C9.96335 13.6403 9.96335 13.6402 9.96335 13.6402C9.96335 13.6401 9.96335 13.6401 9.96335 13.64C9.96335 13.6399 9.96335 13.6399 9.96335 13.6398C9.96335 13.6397 9.96335 13.6397 9.96335 13.6396C9.96335 13.6395 9.96335 13.6395 9.96335 13.6394C9.96335 13.6393 9.96335 13.6393 9.96335 13.6392C9.96335 13.6391 9.96335 13.6391 9.96335 13.639C9.96335 13.6389 9.96335 13.6389 9.96335 13.6388C9.96335 13.6388 9.96335 13.6387 9.96335 13.6386C9.96335 13.6386 9.96335 13.6385 9.96335 13.6384C9.96335 13.6384 9.96335 13.6383 9.96335 13.6382C9.96335 13.6382 9.96335 13.6381 9.96335 13.638C9.96335 13.638 9.96335 13.6379 9.96335 13.6378C9.96335 13.6378 9.96335 13.6377 9.96335 13.6377C9.96335 13.6376 9.96335 13.6375 9.96335 13.6375C9.96335 13.6374 9.96335 13.6373 9.96335 13.6373C9.96335 13.6372 9.96335 13.6371 9.96335 13.6371C9.96335 13.637 9.96335 13.6369 9.96335 13.6369C9.96335 13.6368 9.96335 13.6367 9.96335 13.6367C9.96335 13.6366 9.96335 13.6365 9.96335 13.6365C9.96335 13.6364 9.96335 13.6364 9.96335 13.6363C9.96335 13.6362 9.96335 13.6362 9.96335 13.6361C9.96335 13.636 9.96335 13.636 9.96335 13.6359C9.96335 13.6358 9.96335 13.6358 9.96335 13.6357C9.96335 13.6356 9.96335 13.6356 9.96335 13.6355C9.96335 13.6354 9.96335 13.6354 9.96335 13.6353C9.96335 13.6353 9.96335 13.6352 9.96335 13.6351C9.96335 13.6351 9.96335 13.635 9.96335 13.6349C9.96335 13.6349 9.96335 13.6348 9.96335 13.6347C9.96335 13.6347 9.96335 13.6346 9.96335 13.6345C9.96335 13.6345 9.96335 13.6344 9.96335 13.6343C9.96335 13.6343 9.96335 13.6342 9.96335 13.6341C9.96335 13.6341 9.96335 13.634 9.96335 13.634C9.96335 13.6339 9.96335 13.6338 9.96335 13.6338C9.96335 13.6337 9.96335 13.6336 9.96335 13.6336C9.96335 13.6335 9.96335 13.6334 9.96335 13.6334C9.96335 13.6333 9.96335 13.6332 9.96335 13.6332C9.96335 13.6331 9.96335 13.633 9.96335 13.633C9.96335 13.6329 9.96335 13.6329 9.96335 13.6328C9.96335 13.6327 9.96335 13.6327 9.96335 13.6326C9.96335 13.6325 9.96335 13.6325 9.96335 13.6324C9.96335 13.6323 9.96335 13.6323 9.96335 13.6322C9.96335 13.6321 9.96335 13.6321 9.96335 13.632C9.96335 13.6319 9.96335 13.6319 9.96335 13.6318C9.96335 13.6318 9.96335 13.6317 9.96335 13.6316C9.96335 13.6316 9.96335 13.6315 9.96335 13.6314C9.96335 13.6314 9.96335 13.6313 9.96335 13.6312C9.96335 13.6312 9.96335 13.6311 9.96335 13.631C9.96335 13.631 9.96335 13.6309 9.96335 13.6308C9.96335 13.6308 9.96335 13.6307 9.96335 13.6307C9.96335 13.6306 9.96335 13.6305 9.96335 13.6305C9.96335 13.6304 9.96335 13.6303 9.96335 13.6303C9.96335 13.6302 9.96335 13.6301 9.96335 13.6301C9.96335 13.63 9.96335 13.6299 9.96335 13.6299C9.96335 13.6298 9.96335 13.6297 9.96335 13.6297C9.96335 13.6296 9.96335 13.6296 9.96335 13.6295C9.96335 13.6294 9.96335 13.6294 9.96335 13.6293C9.96335 13.6292 9.96335 13.6292 9.96335 13.6291C9.96335 13.629 9.96335 13.629 9.96335 13.6289C9.96335 13.6288 9.96335 13.6288 9.96335 13.6287C9.96335 13.6286 9.96335 13.6286 9.96335 13.6285C9.96335 13.6285 9.96335 13.6284 9.96335 13.6283C9.96335 13.6283 9.96335 13.6282 9.96335 13.6281C9.96335 13.6281 9.96335 13.628 9.96335 13.6279C9.96335 13.6279 9.96335 13.6278 9.96335 13.6277C9.96335 13.6277 9.96335 13.6276 9.96335 13.6275C9.96335 13.6275 9.96335 13.6274 9.96335 13.6274C9.96335 13.6273 9.96335 13.6272 9.96335 13.6272C9.96335 13.6271 9.96335 13.627 9.96335 13.627C9.96335 13.6269 9.96335 13.6268 9.96335 13.6268C9.96335 13.6267 9.96335 13.6266 9.96335 13.6266C9.96335 13.6265 9.96335 13.6264 9.96335 13.6264C9.96335 13.6263 9.96335 13.6263 9.96335 13.6262C9.96335 13.6261 9.96335 13.6261 9.96335 13.626C9.96335 13.6259 9.96335 13.6259 9.96335 13.6258C9.96335 13.6257 9.96335 13.6257 9.96335 13.6256C9.96335 13.6255 9.96335 13.6255 9.96335 13.6254C9.96335 13.6253 9.96335 13.6253 9.96335 13.6252C9.96335 13.6252 9.96335 13.6251 9.96335 13.625C9.96335 13.625 9.96335 13.6249 9.96335 13.6248C9.96335 13.6248 9.96335 13.6247 9.96335 13.6246C9.96335 13.6246 9.96335 13.6245 9.96335 13.6244C9.96335 13.6244 9.96335 13.6243 9.96335 13.6242C9.96335 13.6242 9.96335 13.6241 9.96335 13.6241C9.96335 13.624 9.96335 13.6239 9.96335 13.6239C9.96335 13.6238 9.96335 13.6237 9.96335 13.6237C9.96335 13.6236 9.96335 13.6235 9.96335 13.6235C9.96335 13.6234 9.96335 13.6233 9.96335 13.6233C9.96335 13.6232 9.96335 13.6231 9.96335 13.6231C9.96335 13.623 9.96335 13.623 9.96335 13.6229C9.96335 13.6228 9.96335 13.6228 9.96335 13.6227C9.96335 13.6226 9.96335 13.6226 9.96335 13.6225C9.96335 13.6224 9.96335 13.6224 9.96335 13.6223C9.96335 13.6222 9.96335 13.6222 9.96335 13.6221C9.96335 13.6221 9.96335 13.622 9.96335 13.6219C9.96335 13.6219 9.96335 13.6218 9.96335 13.6217C9.96335 13.6217 9.96335 13.6216 9.96335 13.6215C9.96335 13.6215 9.96335 13.6214 9.96335 13.6213C9.96335 13.6213 9.96335 13.6212 9.96335 13.6211C9.96335 13.6211 9.96335 13.621 9.96335 13.621C9.96335 13.6209 9.96335 13.6208 9.96335 13.6208C9.96335 13.6207 9.96335 13.6206 9.96335 13.6206C9.96335 13.6205 9.96335 13.6204 9.96335 13.6204C9.96335 13.6203 9.96335 13.6202 9.96335 13.6202C9.96335 13.6201 9.96335 13.62 9.96335 13.62C9.96335 13.6199 9.96335 13.6199 9.96335 13.6198C9.96335 13.6197 9.96335 13.6197 9.96335 13.6196C9.96335 13.6195 9.96335 13.6195 9.96335 13.6194C9.96335 13.6193 9.96335 13.6193 9.96335 13.6192C9.96335 13.6191 9.96335 13.6191 9.96335 13.619C9.96335 13.619 9.96335 13.6189 9.96335 13.6188C9.96335 13.6188 9.96335 13.6187 9.96335 13.6186C9.96335 13.6186 9.96335 13.6185 9.96335 13.6184C9.96335 13.6184 9.96335 13.6183 9.96335 13.6182C9.96335 13.6182 9.96335 13.6181 9.96335 13.618C9.96335 13.618 9.96335 13.6179 9.96335 13.6179C9.96335 13.6178 9.96335 13.6177 9.96335 13.6177C9.96335 13.6176 9.96335 13.6175 9.96335 13.6175C9.96335 13.6174 9.96335 13.6173 9.96335 13.6173C9.96335 13.6172 9.96335 13.6171 9.96335 13.6171C9.96335 13.617 9.96335 13.617 9.96335 13.6169C9.96335 13.6168 9.96335 13.6168 9.96335 13.6167C9.96335 13.6166 9.96335 13.6166 9.96335 13.6165C9.96335 13.6164 9.96335 13.6164 9.96335 13.6163C9.96335 13.6162 9.96335 13.6162 9.96335 13.6161C9.96335 13.616 9.96335 13.616 9.96335 13.6159C9.96335 13.6159 9.96335 13.6158 9.96335 13.6157C9.96335 13.6157 9.96335 13.6156 9.96335 13.6155C9.96335 13.6155 9.96335 13.6154 9.96335 13.6153C9.96335 13.6153 9.96335 13.6152 9.96335 13.6151C9.96335 13.6151 9.96335 13.615 9.96335 13.615C9.96335 13.6149 9.96335 13.6148 9.96335 13.6148C9.96335 13.6147 9.96335 13.6146 9.96335 13.6146C9.96335 13.6145 9.96335 13.6144 9.96335 13.6144C9.96335 13.6143 9.96335 13.6142 9.96335 13.6142C9.96335 13.6141 9.96335 13.6141 9.96335 13.614C9.96335 13.6139 9.96335 13.6139 9.96335 13.6138C9.96335 13.6137 9.96335 13.6137 9.96335 13.6136C9.96335 13.6135 9.96335 13.6135 9.96335 13.6134C9.96335 13.6133 9.96335 13.6133 9.96335 13.6132C9.96335 13.6131 9.96335 13.6131 9.96335 13.613C9.96335 13.613 9.96335 13.6129 9.96335 13.6128C9.96335 13.6128 9.96335 13.6127 9.96335 13.6126C9.96335 13.6126 9.96335 13.6125 9.96335 13.6124C9.96335 13.6124 9.96335 13.6123 9.96335 13.6122C9.96335 13.6122 9.96335 13.6121 9.96335 13.6121C9.96335 13.612 9.96335 13.6119 9.96335 13.6119C9.96335 13.6118 9.96335 13.6117 9.96335 13.6117C9.96335 13.6116 9.96335 13.6115 9.96335 13.6115C9.96335 13.6114 9.96335 13.6113 9.96335 13.6113C9.96335 13.6112 9.96335 13.6112 9.96335 13.6111C9.96335 13.611 9.96335 13.611 9.96335 13.6109C9.96335 13.6108 9.96335 13.6108 9.96335 13.6107C9.96335 13.6106 9.96335 13.6106 9.96335 13.6105C9.96335 13.6104 9.96335 13.6104 9.96335 13.6103C9.96335 13.6103 9.96335 13.6102 9.96335 13.6101C9.96335 13.6101 9.96335 13.61 9.96335 13.6099C9.96335 13.6099 9.96335 13.6098 9.96335 13.6097C9.96335 13.6097 9.96335 13.6096 9.96335 13.6095C9.96335 13.6095 9.96335 13.6094 9.96335 13.6093C9.96335 13.6093 9.96335 13.6092 9.96335 13.6092C9.96335 13.6091 9.96335 13.609 9.96335 13.609C9.96335 13.6089 9.96335 13.6088 9.96335 13.6088C9.96335 13.6087 9.96335 13.6086 9.96335 13.6086C9.96335 13.6085 9.96335 13.6084 9.96335 13.6084C9.96335 13.6083 9.96335 13.6083 9.96335 13.6082C9.96335 13.6081 9.96335 13.6081 9.96335 13.608C9.96335 13.6079 9.96335 13.6079 9.96335 13.6078C9.96335 13.6077 9.96335 13.6077 9.96335 13.6076C9.96335 13.6075 9.96335 13.6075 9.96335 13.6074C9.96335 13.6074 9.96335 13.6073 9.96335 13.6072C9.96335 13.6072 9.96335 13.6071 9.96335 13.607C9.96335 13.607 9.96335 13.6069 9.96335 13.6068C9.96335 13.6068 9.96335 13.6067 9.96335 13.6066C9.96335 13.6066 9.96335 13.6065 9.96335 13.6065C9.96335 13.6064 9.96335 13.6063 9.96335 13.6063C9.96335 13.6062 9.96335 13.6061 9.96335 13.6061C9.96335 13.606 9.96335 13.6059 9.96335 13.6059C9.96335 13.6058 9.96335 13.6057 9.96335 13.6057C9.96335 13.6056 9.96335 13.6056 9.96335 13.6055C9.96335 13.6054 9.96335 13.6054 9.96335 13.6053C9.96335 13.6052 9.96335 13.6052 9.96335 13.6051C9.96335 13.605 9.96335 13.605 9.96335 13.6049C9.96335 13.6048 9.96335 13.6048 9.96335 13.6047C9.96335 13.6047 9.96335 13.6046 9.96335 13.6045C9.96335 13.6045 9.96335 13.6044 9.96335 13.6043C9.96335 13.6043 9.96335 13.6042 9.96335 13.6041C9.96335 13.6041 9.96335 13.604 9.96335 13.6039C9.96335 13.6039 9.96335 13.6038 9.96335 13.6038C9.96335 13.6037 9.96335 13.6036 9.96335 13.6036C9.96335 13.6035 9.96335 13.6034 9.96335 13.6034C9.96335 13.6033 9.96335 13.6032 9.96335 13.6032C9.96335 13.6031 9.96335 13.603 9.96335 13.603C9.96335 13.6029 9.96335 13.6029 9.96335 13.6028C9.96335 13.6027 9.96335 13.6027 9.96335 13.6026C9.96335 13.6025 9.96335 13.6025 9.96335 13.6024C9.96335 13.6023 9.96335 13.6023 9.96335 13.6022C9.96335 13.6021 9.96335 13.6021 9.96335 13.602H8.46335C8.46335 13.6021 8.46335 13.6021 8.46335 13.6022C8.46335 13.6023 8.46335 13.6023 8.46335 13.6024C8.46335 13.6025 8.46335 13.6025 8.46335 13.6026C8.46335 13.6027 8.46335 13.6027 8.46335 13.6028C8.46335 13.6029 8.46335 13.6029 8.46335 13.603C8.46335 13.603 8.46335 13.6031 8.46335 13.6032C8.46335 13.6032 8.46335 13.6033 8.46335 13.6034C8.46335 13.6034 8.46335 13.6035 8.46335 13.6036C8.46335 13.6036 8.46335 13.6037 8.46335 13.6038C8.46335 13.6038 8.46335 13.6039 8.46335 13.6039C8.46335 13.604 8.46335 13.6041 8.46335 13.6041C8.46335 13.6042 8.46335 13.6043 8.46335 13.6043C8.46335 13.6044 8.46335 13.6045 8.46335 13.6045C8.46335 13.6046 8.46335 13.6047 8.46335 13.6047C8.46335 13.6048 8.46335 13.6048 8.46335 13.6049C8.46335 13.605 8.46335 13.605 8.46335 13.6051C8.46335 13.6052 8.46335 13.6052 8.46335 13.6053C8.46335 13.6054 8.46335 13.6054 8.46335 13.6055C8.46335 13.6056 8.46335 13.6056 8.46335 13.6057C8.46335 13.6057 8.46335 13.6058 8.46335 13.6059C8.46335 13.6059 8.46335 13.606 8.46335 13.6061C8.46335 13.6061 8.46335 13.6062 8.46335 13.6063C8.46335 13.6063 8.46335 13.6064 8.46335 13.6065C8.46335 13.6065 8.46335 13.6066 8.46335 13.6066C8.46335 13.6067 8.46335 13.6068 8.46335 13.6068C8.46335 13.6069 8.46335 13.607 8.46335 13.607C8.46335 13.6071 8.46335 13.6072 8.46335 13.6072C8.46335 13.6073 8.46335 13.6074 8.46335 13.6074C8.46335 13.6075 8.46335 13.6075 8.46335 13.6076C8.46335 13.6077 8.46335 13.6077 8.46335 13.6078C8.46335 13.6079 8.46335 13.6079 8.46335 13.608C8.46335 13.6081 8.46335 13.6081 8.46335 13.6082C8.46335 13.6083 8.46335 13.6083 8.46335 13.6084C8.46335 13.6084 8.46335 13.6085 8.46335 13.6086C8.46335 13.6086 8.46335 13.6087 8.46335 13.6088C8.46335 13.6088 8.46335 13.6089 8.46335 13.609C8.46335 13.609 8.46335 13.6091 8.46335 13.6092C8.46335 13.6092 8.46335 13.6093 8.46335 13.6093C8.46335 13.6094 8.46335 13.6095 8.46335 13.6095C8.46335 13.6096 8.46335 13.6097 8.46335 13.6097C8.46335 13.6098 8.46335 13.6099 8.46335 13.6099C8.46335 13.61 8.46335 13.6101 8.46335 13.6101C8.46335 13.6102 8.46335 13.6103 8.46335 13.6103C8.46335 13.6104 8.46335 13.6104 8.46335 13.6105C8.46335 13.6106 8.46335 13.6106 8.46335 13.6107C8.46335 13.6108 8.46335 13.6108 8.46335 13.6109C8.46335 13.611 8.46335 13.611 8.46335 13.6111C8.46335 13.6112 8.46335 13.6112 8.46335 13.6113C8.46335 13.6113 8.46335 13.6114 8.46335 13.6115C8.46335 13.6115 8.46335 13.6116 8.46335 13.6117C8.46335 13.6117 8.46335 13.6118 8.46335 13.6119C8.46335 13.6119 8.46335 13.612 8.46335 13.6121C8.46335 13.6121 8.46335 13.6122 8.46335 13.6122C8.46335 13.6123 8.46335 13.6124 8.46335 13.6124C8.46335 13.6125 8.46335 13.6126 8.46335 13.6126C8.46335 13.6127 8.46335 13.6128 8.46335 13.6128C8.46335 13.6129 8.46335 13.613 8.46335 13.613C8.46335 13.6131 8.46335 13.6131 8.46335 13.6132C8.46335 13.6133 8.46335 13.6133 8.46335 13.6134C8.46335 13.6135 8.46335 13.6135 8.46335 13.6136C8.46335 13.6137 8.46335 13.6137 8.46335 13.6138C8.46335 13.6139 8.46335 13.6139 8.46335 13.614C8.46335 13.6141 8.46335 13.6141 8.46335 13.6142C8.46335 13.6142 8.46335 13.6143 8.46335 13.6144C8.46335 13.6144 8.46335 13.6145 8.46335 13.6146C8.46335 13.6146 8.46335 13.6147 8.46335 13.6148C8.46335 13.6148 8.46335 13.6149 8.46335 13.615C8.46335 13.615 8.46335 13.6151 8.46335 13.6151C8.46335 13.6152 8.46335 13.6153 8.46335 13.6153C8.46335 13.6154 8.46335 13.6155 8.46335 13.6155C8.46335 13.6156 8.46335 13.6157 8.46335 13.6157C8.46335 13.6158 8.46335 13.6159 8.46335 13.6159C8.46335 13.616 8.46335 13.616 8.46335 13.6161C8.46335 13.6162 8.46335 13.6162 8.46335 13.6163C8.46335 13.6164 8.46335 13.6164 8.46335 13.6165C8.46335 13.6166 8.46335 13.6166 8.46335 13.6167C8.46335 13.6168 8.46335 13.6168 8.46335 13.6169C8.46335 13.617 8.46335 13.617 8.46335 13.6171C8.46335 13.6171 8.46335 13.6172 8.46335 13.6173C8.46335 13.6173 8.46335 13.6174 8.46335 13.6175C8.46335 13.6175 8.46335 13.6176 8.46335 13.6177C8.46335 13.6177 8.46335 13.6178 8.46335 13.6179C8.46335 13.6179 8.46335 13.618 8.46335 13.618C8.46335 13.6181 8.46335 13.6182 8.46335 13.6182C8.46335 13.6183 8.46335 13.6184 8.46335 13.6184C8.46335 13.6185 8.46335 13.6186 8.46335 13.6186C8.46335 13.6187 8.46335 13.6188 8.46335 13.6188C8.46335 13.6189 8.46335 13.619 8.46335 13.619C8.46335 13.6191 8.46335 13.6191 8.46335 13.6192C8.46335 13.6193 8.46335 13.6193 8.46335 13.6194C8.46335 13.6195 8.46335 13.6195 8.46335 13.6196C8.46335 13.6197 8.46335 13.6197 8.46335 13.6198C8.46335 13.6199 8.46335 13.6199 8.46335 13.62C8.46335 13.62 8.46335 13.6201 8.46335 13.6202C8.46335 13.6202 8.46335 13.6203 8.46335 13.6204C8.46335 13.6204 8.46335 13.6205 8.46335 13.6206C8.46335 13.6206 8.46335 13.6207 8.46335 13.6208C8.46335 13.6208 8.46335 13.6209 8.46335 13.621C8.46335 13.621 8.46335 13.6211 8.46335 13.6211C8.46335 13.6212 8.46335 13.6213 8.46335 13.6213C8.46335 13.6214 8.46335 13.6215 8.46335 13.6215C8.46335 13.6216 8.46335 13.6217 8.46335 13.6217C8.46335 13.6218 8.46335 13.6219 8.46335 13.6219C8.46335 13.622 8.46335 13.6221 8.46335 13.6221C8.46335 13.6222 8.46335 13.6222 8.46335 13.6223C8.46335 13.6224 8.46335 13.6224 8.46335 13.6225C8.46335 13.6226 8.46335 13.6226 8.46335 13.6227C8.46335 13.6228 8.46335 13.6228 8.46335 13.6229C8.46335 13.623 8.46335 13.623 8.46335 13.6231C8.46335 13.6231 8.46335 13.6232 8.46335 13.6233C8.46335 13.6233 8.46335 13.6234 8.46335 13.6235C8.46335 13.6235 8.46335 13.6236 8.46335 13.6237C8.46335 13.6237 8.46335 13.6238 8.46335 13.6239C8.46335 13.6239 8.46335 13.624 8.46335 13.6241C8.46335 13.6241 8.46335 13.6242 8.46335 13.6242C8.46335 13.6243 8.46335 13.6244 8.46335 13.6244C8.46335 13.6245 8.46335 13.6246 8.46335 13.6246C8.46335 13.6247 8.46335 13.6248 8.46335 13.6248C8.46335 13.6249 8.46335 13.625 8.46335 13.625C8.46335 13.6251 8.46335 13.6252 8.46335 13.6252C8.46335 13.6253 8.46335 13.6253 8.46335 13.6254C8.46335 13.6255 8.46335 13.6255 8.46335 13.6256C8.46335 13.6257 8.46335 13.6257 8.46335 13.6258C8.46335 13.6259 8.46335 13.6259 8.46335 13.626C8.46335 13.6261 8.46335 13.6261 8.46335 13.6262C8.46335 13.6263 8.46335 13.6263 8.46335 13.6264C8.46335 13.6264 8.46335 13.6265 8.46335 13.6266C8.46335 13.6266 8.46335 13.6267 8.46335 13.6268C8.46335 13.6268 8.46335 13.6269 8.46335 13.627C8.46335 13.627 8.46335 13.6271 8.46335 13.6272C8.46335 13.6272 8.46335 13.6273 8.46335 13.6274C8.46335 13.6274 8.46335 13.6275 8.46335 13.6275C8.46335 13.6276 8.46335 13.6277 8.46335 13.6277C8.46335 13.6278 8.46335 13.6279 8.46335 13.6279C8.46335 13.628 8.46335 13.6281 8.46335 13.6281C8.46335 13.6282 8.46335 13.6283 8.46335 13.6283C8.46335 13.6284 8.46335 13.6285 8.46335 13.6285C8.46335 13.6286 8.46335 13.6286 8.46335 13.6287C8.46335 13.6288 8.46335 13.6288 8.46335 13.6289C8.46335 13.629 8.46335 13.629 8.46335 13.6291C8.46335 13.6292 8.46335 13.6292 8.46335 13.6293C8.46335 13.6294 8.46335 13.6294 8.46335 13.6295C8.46335 13.6296 8.46335 13.6296 8.46335 13.6297C8.46335 13.6297 8.46335 13.6298 8.46335 13.6299C8.46335 13.6299 8.46335 13.63 8.46335 13.6301C8.46335 13.6301 8.46335 13.6302 8.46335 13.6303C8.46335 13.6303 8.46335 13.6304 8.46335 13.6305C8.46335 13.6305 8.46335 13.6306 8.46335 13.6307C8.46335 13.6307 8.46335 13.6308 8.46335 13.6308C8.46335 13.6309 8.46335 13.631 8.46335 13.631C8.46335 13.6311 8.46335 13.6312 8.46335 13.6312C8.46335 13.6313 8.46335 13.6314 8.46335 13.6314C8.46335 13.6315 8.46335 13.6316 8.46335 13.6316C8.46335 13.6317 8.46335 13.6318 8.46335 13.6318C8.46335 13.6319 8.46335 13.6319 8.46335 13.632C8.46335 13.6321 8.46335 13.6321 8.46335 13.6322C8.46335 13.6323 8.46335 13.6323 8.46335 13.6324C8.46335 13.6325 8.46335 13.6325 8.46335 13.6326C8.46335 13.6327 8.46335 13.6327 8.46335 13.6328C8.46335 13.6329 8.46335 13.6329 8.46335 13.633C8.46335 13.633 8.46335 13.6331 8.46335 13.6332C8.46335 13.6332 8.46335 13.6333 8.46335 13.6334C8.46335 13.6334 8.46335 13.6335 8.46335 13.6336C8.46335 13.6336 8.46335 13.6337 8.46335 13.6338C8.46335 13.6338 8.46335 13.6339 8.46335 13.634C8.46335 13.634 8.46335 13.6341 8.46335 13.6341C8.46335 13.6342 8.46335 13.6343 8.46335 13.6343C8.46335 13.6344 8.46335 13.6345 8.46335 13.6345C8.46335 13.6346 8.46335 13.6347 8.46335 13.6347C8.46335 13.6348 8.46335 13.6349 8.46335 13.6349C8.46335 13.635 8.46335 13.6351 8.46335 13.6351C8.46335 13.6352 8.46335 13.6353 8.46335 13.6353C8.46335 13.6354 8.46335 13.6354 8.46335 13.6355C8.46335 13.6356 8.46335 13.6356 8.46335 13.6357C8.46335 13.6358 8.46335 13.6358 8.46335 13.6359C8.46335 13.636 8.46335 13.636 8.46335 13.6361C8.46335 13.6362 8.46335 13.6362 8.46335 13.6363C8.46335 13.6364 8.46335 13.6364 8.46335 13.6365C8.46335 13.6365 8.46335 13.6366 8.46335 13.6367C8.46335 13.6367 8.46335 13.6368 8.46335 13.6369C8.46335 13.6369 8.46335 13.637 8.46335 13.6371C8.46335 13.6371 8.46335 13.6372 8.46335 13.6373C8.46335 13.6373 8.46335 13.6374 8.46335 13.6375C8.46335 13.6375 8.46335 13.6376 8.46335 13.6377C8.46335 13.6377 8.46335 13.6378 8.46335 13.6378C8.46335 13.6379 8.46335 13.638 8.46335 13.638C8.46335 13.6381 8.46335 13.6382 8.46335 13.6382C8.46335 13.6383 8.46335 13.6384 8.46335 13.6384C8.46335 13.6385 8.46335 13.6386 8.46335 13.6386C8.46335 13.6387 8.46335 13.6388 8.46335 13.6388C8.46335 13.6389 8.46335 13.6389 8.46335 13.639C8.46335 13.6391 8.46335 13.6391 8.46335 13.6392C8.46335 13.6393 8.46335 13.6393 8.46335 13.6394C8.46335 13.6395 8.46335 13.6395 8.46335 13.6396C8.46335 13.6397 8.46335 13.6397 8.46335 13.6398C8.46335 13.6399 8.46335 13.6399 8.46335 13.64C8.46335 13.6401 8.46335 13.6401 8.46335 13.6402C8.46335 13.6402 8.46335 13.6403 8.46335 13.6404C8.46335 13.6404 8.46335 13.6405 8.46335 13.6406C8.46335 13.6406 8.46335 13.6407 8.46335 13.6408C8.46335 13.6408 8.46335 13.6409 8.46335 13.641C8.46335 13.641 8.46335 13.6411 8.46335 13.6412C8.46335 13.6412 8.46335 13.6413 8.46335 13.6413C8.46335 13.6414 8.46335 13.6415 8.46335 13.6415C8.46335 13.6416 8.46335 13.6417 8.46335 13.6417C8.46335 13.6418 8.46335 13.6419 8.46335 13.6419C8.46335 13.642 8.46335 13.6421 8.46335 13.6421C8.46335 13.6422 8.46335 13.6423 8.46335 13.6423C8.46335 13.6424 8.46335 13.6425 8.46335 13.6425C8.46335 13.6426 8.46335 13.6426 8.46335 13.6427C8.46335 13.6428 8.46335 13.6428 8.46335 13.6429C8.46335 13.643 8.46335 13.643 8.46335 13.6431C8.46335 13.6432 8.46335 13.6432 8.46335 13.6433C8.46335 13.6434 8.46335 13.6434 8.46335 13.6435C8.46335 13.6436 8.46335 13.6436 8.46335 13.6437C8.46335 13.6438 8.46335 13.6438 8.46335 13.6439C8.46335 13.6439 8.46335 13.644 8.46335 13.6441C8.46335 13.6441 8.46335 13.6442 8.46335 13.6443C8.46335 13.6443 8.46335 13.6444 8.46335 13.6445C8.46335 13.6445 8.46335 13.6446 8.46335 13.6447C8.46335 13.6447 8.46335 13.6448 8.46335 13.6449C8.46335 13.6449 8.46335 13.645 8.46335 13.6451C8.46335 13.6451 8.46335 13.6452 8.46335 13.6452C8.46335 13.6453 8.46335 13.6454 8.46335 13.6454C8.46335 13.6455 8.46335 13.6456 8.46335 13.6456C8.46335 13.6457 8.46335 13.6458 8.46335 13.6458C8.46335 13.6459 8.46335 13.646 8.46335 13.646C8.46335 13.6461 8.46335 13.6462 8.46335 13.6462C8.46335 13.6463 8.46335 13.6464 8.46335 13.6464C8.46335 13.6465 8.46335 13.6465 8.46335 13.6466C8.46335 13.6467 8.46335 13.6467 8.46335 13.6468C8.46335 13.6469 8.46335 13.6469 8.46335 13.647C8.46335 13.6471 8.46335 13.6471 8.46335 13.6472C8.46335 13.6473 8.46335 13.6473 8.46335 13.6474C8.46335 13.6475 8.46335 13.6475 8.46335 13.6476C8.46335 13.6477 8.46335 13.6477 8.46335 13.6478C8.46335 13.6478 8.46335 13.6479 8.46335 13.648C8.46335 13.648 8.46335 13.6481 8.46335 13.6482C8.46335 13.6482 8.46335 13.6483 8.46335 13.6484C8.46335 13.6484 8.46335 13.6485 8.46335 13.6486C8.46335 13.6486 8.46335 13.6487 8.46335 13.6488C8.46335 13.6488 8.46335 13.6489 8.46335 13.649C8.46335 13.649 8.46335 13.6491 8.46335 13.6491C8.46335 13.6492 8.46335 13.6493 8.46335 13.6493C8.46335 13.6494 8.46335 13.6495 8.46335 13.6495C8.46335 13.6496 8.46335 13.6497 8.46335 13.6497C8.46335 13.6498 8.46335 13.6499 8.46335 13.6499C8.46335 13.65 8.46335 13.6501 8.46335 13.6501C8.46335 13.6502 8.46335 13.6503 8.46335 13.6503C8.46335 13.6504 8.46335 13.6504 8.46335 13.6505C8.46335 13.6506 8.46335 13.6506 8.46335 13.6507C8.46335 13.6508 8.46335 13.6508 8.46335 13.6509C8.46335 13.651 8.46335 13.651 8.46335 13.6511C8.46335 13.6512 8.46335 13.6512 8.46335 13.6513C8.46335 13.6514 8.46335 13.6514 8.46335 13.6515C8.46335 13.6516 8.46335 13.6516 8.46335 13.6517C8.46335 13.6518 8.46335 13.6518 8.46335 13.6519C8.46335 13.6519 8.46335 13.652 8.46335 13.6521C8.46335 13.6521 8.46335 13.6522 8.46335 13.6523C8.46335 13.6523 8.46335 13.6524 8.46335 13.6525C8.46335 13.6525 8.46335 13.6526 8.46335 13.6527C8.46335 13.6527 8.46335 13.6528 8.46335 13.6529C8.46335 13.6529 8.46335 13.653 8.46335 13.6531C8.46335 13.6531 8.46335 13.6532 8.46335 13.6532C8.46335 13.6533 8.46335 13.6534 8.46335 13.6534C8.46335 13.6535 8.46335 13.6536 8.46335 13.6536C8.46335 13.6537 8.46335 13.6538 8.46335 13.6538C8.46335 13.6539 8.46335 13.654 8.46335 13.654C8.46335 13.6541 8.46335 13.6542 8.46335 13.6542C8.46335 13.6543 8.46335 13.6544 8.46335 13.6544C8.46335 13.6545 8.46335 13.6546 8.46335 13.6546C8.46335 13.6547 8.46335 13.6547 8.46335 13.6548C8.46335 13.6549 8.46335 13.6549 8.46335 13.655C8.46335 13.6551 8.46335 13.6551 8.46335 13.6552C8.46335 13.6553 8.46335 13.6553 8.46335 13.6554C8.46335 13.6555 8.46335 13.6555 8.46335 13.6556C8.46335 13.6557 8.46335 13.6557 8.46335 13.6558C8.46335 13.6559 8.46335 13.6559 8.46335 13.656C8.46335 13.6561 8.46335 13.6561 8.46335 13.6562C8.46335 13.6562 8.46335 13.6563 8.46335 13.6564C8.46335 13.6564 8.46335 13.6565 8.46335 13.6566C8.46335 13.6566 8.46335 13.6567 8.46335 13.6568C8.46335 13.6568 8.46335 13.6569 8.46335 13.657C8.46335 13.657 8.46335 13.6571 8.46335 13.6572C8.46335 13.6572 8.46335 13.6573 8.46335 13.6574C8.46335 13.6574 8.46335 13.6575 8.46335 13.6575C8.46335 13.6576 8.46335 13.6577 8.46335 13.6577C8.46335 13.6578 8.46335 13.6579 8.46335 13.6579C8.46335 13.658 8.46335 13.6581 8.46335 13.6581C8.46335 13.6582 8.46335 13.6583 8.46335 13.6583C8.46335 13.6584 8.46335 13.6585 8.46335 13.6585C8.46335 13.6586 8.46335 13.6587 8.46335 13.6587C8.46335 13.6588 8.46335 13.6589 8.46335 13.6589C8.46335 13.659 8.46335 13.659 8.46335 13.6591C8.46335 13.6592 8.46335 13.6592 8.46335 13.6593C8.46335 13.6594 8.46335 13.6594 8.46335 13.6595C8.46335 13.6596 8.46335 13.6596 8.46335 13.6597C8.46335 13.6598 8.46335 13.6598 8.46335 13.6599C8.46335 13.66 8.46335 13.66 8.46335 13.6601C8.46335 13.6602 8.46335 13.6602 8.46335 13.6603C8.46335 13.6604 8.46335 13.6604 8.46335 13.6605C8.46335 13.6606 8.46335 13.6606 8.46335 13.6607C8.46335 13.6607 8.46335 13.6608 8.46335 13.6609C8.46335 13.6609 8.46335 13.661 8.46335 13.6611C8.46335 13.6611 8.46335 13.6612 8.46335 13.6613C8.46335 13.6613 8.46335 13.6614 8.46335 13.6615C8.46335 13.6615 8.46335 13.6616 8.46335 13.6617C8.46335 13.6617 8.46335 13.6618 8.46335 13.6619C8.46335 13.6619 8.46335 13.662 8.46335 13.6621C8.46335 13.6621 8.46335 13.6622 8.46335 13.6622C8.46335 13.6623 8.46335 13.6624 8.46335 13.6624C8.46335 13.6625 8.46335 13.6626 8.46335 13.6626C8.46335 13.6627 8.46335 13.6628 8.46335 13.6628C8.46335 13.6629 8.46335 13.663 8.46335 13.663C8.46335 13.6631 8.46335 13.6632 8.46335 13.6632C8.46335 13.6633 8.46335 13.6634 8.46335 13.6634C8.46335 13.6635 8.46335 13.6636 8.46335 13.6636C8.46335 13.6637 8.46335 13.6637 8.46335 13.6638C8.46335 13.6639 8.46335 13.6639 8.46335 13.664C8.46335 13.6641 8.46335 13.6641 8.46335 13.6642C8.46335 13.6643 8.46335 13.6643 8.46335 13.6644C8.46335 13.6645 8.46335 13.6645 8.46335 13.6646C8.46335 13.6647 8.46335 13.6647 8.46335 13.6648C8.46335 13.6649 8.46335 13.6649 8.46335 13.665C8.46335 13.6651 8.46335 13.6651 8.46335 13.6652C8.46335 13.6653 8.46335 13.6653 8.46335 13.6654C8.46335 13.6654 8.46335 13.6655 8.46335 13.6656C8.46335 13.6656 8.46335 13.6657 8.46335 13.6658C8.46335 13.6658 8.46335 13.6659 8.46335 13.666C8.46335 13.666 8.46335 13.6661 8.46335 13.6662C8.46335 13.6662 8.46335 13.6663 8.46335 13.6664C8.46335 13.6664 8.46335 13.6665 8.46335 13.6666C8.46335 13.6666 8.46335 13.6667 8.46335 13.6668C8.46335 13.6668 8.46335 13.6669 8.46335 13.667C8.46335 13.667 8.46335 13.6671 8.46335 13.6671C8.46335 13.6672 8.46335 13.6673 8.46335 13.6673C8.46335 13.6674 8.46335 13.6675 8.46335 13.6675C8.46335 13.6676 8.46335 13.6677 8.46335 13.6677C8.46335 13.6678 8.46335 13.6679 8.46335 13.6679C8.46335 13.668 8.46335 13.6681 8.46335 13.6681C8.46335 13.6682 8.46335 13.6683 8.46335 13.6683C8.46335 13.6684 8.46335 13.6685 8.46335 13.6685C8.46335 13.6686 8.46335 13.6687 8.46335 13.6687C8.46335 13.6688 8.46335 13.6688 8.46335 13.6689C8.46335 13.669 8.46335 13.669 8.46335 13.6691C8.46335 13.6692 8.46335 13.6692 8.46335 13.6693C8.46335 13.6694 8.46335 13.6694 8.46335 13.6695C8.46335 13.6696 8.46335 13.6696 8.46335 13.6697C8.46335 13.6698 8.46335 13.6698 8.46335 13.6699C8.46335 13.67 8.46335 13.67 8.46335 13.6701C8.46335 13.6702 8.46335 13.6702 8.46335 13.6703C8.46335 13.6704 8.46335 13.6704 8.46335 13.6705C8.46335 13.6705 8.46335 13.6706 8.46335 13.6707C8.46335 13.6707 8.46335 13.6708 8.46335 13.6709C8.46335 13.6709 8.46335 13.671 8.46335 13.6711C8.46335 13.6711 8.46335 13.6712 8.46335 13.6713C8.46335 13.6713 8.46335 13.6714 8.46335 13.6715C8.46335 13.6715 8.46335 13.6716 8.46335 13.6717C8.46335 13.6717 8.46335 13.6718 8.46335 13.6719C8.46335 13.6719 8.46335 13.672 8.46335 13.6721C8.46335 13.6721 8.46335 13.6722 8.46335 13.6723C8.46335 13.6723 8.46335 13.6724 8.46335 13.6724C8.46335 13.6725 8.46335 13.6726 8.46335 13.6726C8.46335 13.6727 8.46335 13.6728 8.46335 13.6728C8.46335 13.6729 8.46335 13.673 8.46335 13.673C8.46335 13.6731 8.46335 13.6732 8.46335 13.6732C8.46335 13.6733 8.46335 13.6734 8.46335 13.6734C8.46335 13.6735 8.46335 13.6736 8.46335 13.6736C8.46335 13.6737 8.46335 13.6738 8.46335 13.6738C8.46335 13.6739 8.46335 13.674 8.46335 13.674C8.46335 13.6741 8.46335 13.6741 8.46335 13.6742C8.46335 13.6743 8.46335 13.6743 8.46335 13.6744C8.46335 13.6745 8.46335 13.6745 8.46335 13.6746C8.46335 13.6747 8.46335 13.6747 8.46335 13.6748C8.46335 13.6749 8.46335 13.6749 8.46335 13.675C8.46335 13.6751 8.46335 13.6751 8.46335 13.6752C8.46335 13.6753 8.46335 13.6753 8.46335 13.6754C8.46335 13.6755 8.46335 13.6755 8.46335 13.6756C8.46335 13.6757 8.46335 13.6757 8.46335 13.6758C8.46335 13.6759 8.46335 13.6759 8.46335 13.676C8.46335 13.676 8.46335 13.6761 8.46335 13.6762C8.46335 13.6762 8.46335 13.6763 8.46335 13.6764C8.46335 13.6764 8.46335 13.6765 8.46335 13.6766C8.46335 13.6766 8.46335 13.6767 8.46335 13.6768C8.46335 13.6768 8.46335 13.6769 8.46335 13.677C8.46335 13.677 8.46335 13.6771 8.46335 13.6772C8.46335 13.6772 8.46335 13.6773 8.46335 13.6774C8.46335 13.6774 8.46335 13.6775 8.46335 13.6776C8.46335 13.6776 8.46335 13.6777 8.46335 13.6778C8.46335 13.6778 8.46335 13.6779 8.46335 13.6779C8.46335 13.678 8.46335 13.6781 8.46335 13.6781C8.46335 13.6782 8.46335 13.6783 8.46335 13.6783C8.46335 13.6784 8.46335 13.6785 8.46335 13.6785C8.46335 13.6786 8.46335 13.6787 8.46335 13.6787C8.46335 13.6788 8.46335 13.6789 8.46335 13.6789C8.46335 13.679 8.46335 13.6791 8.46335 13.6791C8.46335 13.6792 8.46335 13.6793 8.46335 13.6793C8.46335 13.6794 8.46335 13.6795 8.46335 13.6795C8.46335 13.6796 8.46335 13.6797 8.46335 13.6797C8.46335 13.6798 8.46335 13.6799 8.46335 13.6799C8.46335 13.68 8.46335 13.68 8.46335 13.6801C8.46335 13.6802 8.46335 13.6802 8.46335 13.6803C8.46335 13.6804 8.46335 13.6804 8.46335 13.6805C8.46335 13.6806 8.46335 13.6806 8.46335 13.6807C8.46335 13.6808 8.46335 13.6808 8.46335 13.6809C8.46335 13.681 8.46335 13.681 8.46335 13.6811C8.46335 13.6812 8.46335 13.6812 8.46335 13.6813C8.46335 13.6814 8.46335 13.6814 8.46335 13.6815C8.46335 13.6816 8.46335 13.6816 8.46335 13.6817C8.46335 13.6818 8.46335 13.6818 8.46335 13.6819C8.46335 13.682 8.46335 13.682 8.46335 13.6821C8.46335 13.6821 8.46335 13.6822 8.46335 13.6823C8.46335 13.6823 8.46335 13.6824 8.46335 13.6825C8.46335 13.6825 8.46335 13.6826 8.46335 13.6827C8.46335 13.6827 8.46335 13.6828 8.46335 13.6829C8.46335 13.6829 8.46335 13.683 8.46335 13.6831C8.46335 13.6831 8.46335 13.6832 8.46335 13.6833C8.46335 13.6833 8.46335 13.6834 8.46335 13.6835C8.46335 13.6835 8.46335 13.6836 8.46335 13.6837C8.46335 13.6837 8.46335 13.6838 8.46335 13.6839C8.46335 13.6839 8.46335 13.684 8.46335 13.6841C8.46335 13.6841 8.46335 13.6842 8.46335 13.6842C8.46335 13.6843 8.46335 13.6844 8.46335 13.6844C8.46335 13.6845 8.46335 13.6846 8.46335 13.6846C8.46335 13.6847 8.46335 13.6848 8.46335 13.6848C8.46335 13.6849 8.46335 13.685 8.46335 13.685C8.46335 13.6851 8.46335 13.6852 8.46335 13.6852C8.46335 13.6853 8.46335 13.6854 8.46335 13.6854C8.46335 13.6855 8.46335 13.6856 8.46335 13.6856C8.46335 13.6857 8.46335 13.6858 8.46335 13.6858C8.46335 13.6859 8.46335 13.686 8.46335 13.686C8.46335 13.6861 8.46335 13.6862 8.46335 13.6862C8.46335 13.6863 8.46335 13.6864 8.46335 13.6864C8.46335 13.6865 8.46335 13.6865 8.46335 13.6866C8.46335 13.6867 8.46335 13.6867 8.46335 13.6868C8.46335 13.6869 8.46335 13.6869 8.46335 13.687C8.46335 13.6871 8.46335 13.6871 8.46335 13.6872C8.46335 13.6873 8.46335 13.6873 8.46335 13.6874C8.46335 13.6875 8.46335 13.6875 8.46335 13.6876C8.46335 13.6877 8.46335 13.6877 8.46335 13.6878C8.46335 13.6879 8.46335 13.6879 8.46335 13.688C8.46335 13.6881 8.46335 13.6881 8.46335 13.6882C8.46335 13.6883 8.46335 13.6883 8.46335 13.6884C8.46335 13.6885 8.46335 13.6885 8.46335 13.6886C8.46335 13.6887 8.46335 13.6887 8.46335 13.6888C8.46335 13.6888 8.46335 13.6889 8.46335 13.689C8.46335 13.689 8.46335 13.6891 8.46335 13.6892C8.46335 13.6892 8.46335 13.6893 8.46335 13.6894C8.46335 13.6894 8.46335 13.6895 8.46335 13.6896C8.46335 13.6896 8.46335 13.6897 8.46335 13.6898C8.46335 13.6898 8.46335 13.6899 8.46335 13.69C8.46335 13.69 8.46335 13.6901 8.46335 13.6902C8.46335 13.6902 8.46335 13.6903 8.46335 13.6904C8.46335 13.6904 8.46335 13.6905 8.46335 13.6906C8.46335 13.6906 8.46335 13.6907 8.46335 13.6908C8.46335 13.6908 8.46335 13.6909 8.46335 13.691C8.46335 13.691 8.46335 13.6911 8.46335 13.6911C8.46335 13.6912 8.46335 13.6913 8.46335 13.6913C8.46335 13.6914 8.46335 13.6915 8.46335 13.6915C8.46335 13.6916 8.46335 13.6917 8.46335 13.6917C8.46335 13.6918 8.46335 13.6919 8.46335 13.6919C8.46335 13.692 8.46335 13.6921 8.46335 13.6921C8.46335 13.6922 8.46335 13.6923 8.46335 13.6923C8.46335 13.6924 8.46335 13.6925 8.46335 13.6925C8.46335 13.6926 8.46335 13.6927 8.46335 13.6927C8.46335 13.6928 8.46335 13.6929 8.46335 13.6929C8.46335 13.693 8.46335 13.6931 8.46335 13.6931C8.46335 13.6932 8.46335 13.6933 8.46335 13.6933C8.46335 13.6934 8.46335 13.6935 8.46335 13.6935C8.46335 13.6936 8.46335 13.6937 8.46335 13.6937C8.46335 13.6938 8.46335 13.6938 8.46335 13.6939C8.46335 13.694 8.46335 13.694 8.46335 13.6941C8.46335 13.6942 8.46335 13.6942 8.46335 13.6943C8.46335 13.6944 8.46335 13.6944 8.46335 13.6945C8.46335 13.6946 8.46335 13.6946 8.46335 13.6947C8.46335 13.6948 8.46335 13.6948 8.46335 13.6949C8.46335 13.695 8.46335 13.695 8.46335 13.6951C8.46335 13.6952 8.46335 13.6952 8.46335 13.6953C8.46335 13.6954 8.46335 13.6954 8.46335 13.6955C8.46335 13.6956 8.46335 13.6956 8.46335 13.6957C8.46335 13.6958 8.46335 13.6958 8.46335 13.6959C8.46335 13.696 8.46335 13.696 8.46335 13.6961C8.46335 13.6962 8.46335 13.6962 8.46335 13.6963C8.46335 13.6964 8.46335 13.6964 8.46335 13.6965C8.46335 13.6965 8.46335 13.6966 8.46335 13.6967C8.46335 13.6967 8.46335 13.6968 8.46335 13.6969C8.46335 13.6969 8.46335 13.697 8.46335 13.6971C8.46335 13.6971 8.46335 13.6972 8.46335 13.6973C8.46335 13.6973 8.46335 13.6974 8.46335 13.6975C8.46335 13.6975 8.46335 13.6976 8.46335 13.6977C8.46335 13.6977 8.46335 13.6978 8.46335 13.6979C8.46335 13.6979 8.46335 13.698 8.46335 13.6981C8.46335 13.6981 8.46335 13.6982 8.46335 13.6983C8.46335 13.6983 8.46335 13.6984 8.46335 13.6985C8.46335 13.6985 8.46335 13.6986 8.46335 13.6987C8.46335 13.6987 8.46335 13.6988 8.46335 13.6989C8.46335 13.6989 8.46335 13.699 8.46335 13.6991C8.46335 13.6991 8.46335 13.6992 8.46335 13.6992C8.46335 13.6993 8.46335 13.6994 8.46335 13.6994C8.46335 13.6995 8.46335 13.6996 8.46335 13.6996C8.46335 13.6997 8.46335 13.6998 8.46335 13.6998C8.46335 13.6999 8.46335 13.7 8.46335 13.7C8.46335 13.7001 8.46335 13.7002 8.46335 13.7002C8.46335 13.7003 8.46335 13.7004 8.46335 13.7004C8.46335 13.7005 8.46335 13.7006 8.46335 13.7006C8.46335 13.7007 8.46335 13.7008 8.46335 13.7008C8.46335 13.7009 8.46335 13.701 8.46335 13.701C8.46335 13.7011 8.46335 13.7012 8.46335 13.7012C8.46335 13.7013 8.46335 13.7014 8.46335 13.7014C8.46335 13.7015 8.46335 13.7016 8.46335 13.7016C8.46335 13.7017 8.46335 13.7018 8.46335 13.7018C8.46335 13.7019 8.46335 13.702 8.46335 13.702H9.96335ZM9.96301 13.6247C10.0056 12.2183 11.1789 11.1119 12.5854 11.1517L12.6279 9.65232C10.3945 9.58903 8.53138 11.3459 8.4637 13.5793L9.96301 13.6247ZM12.6077 11.152C12.9434 11.1516 13.2764 11.2111 13.5912 11.3279L14.1129 9.92151C13.6305 9.74259 13.1201 9.65132 12.6057 9.65202L12.6077 11.152ZM14.5255 10.9548C15.1948 9.58937 16.5909 8.73175 18.1114 8.75195L18.1313 7.25209C16.0312 7.22418 14.103 8.40869 13.1786 10.2946L14.5255 10.9548ZM18.1437 8.75169C19.1473 8.72174 20.1215 9.09189 20.852 9.78062L21.881 8.68924C20.8609 7.72744 19.5004 7.21053 18.099 7.25235L18.1437 8.75169ZM20.852 9.78062C21.5825 10.4694 22.0093 11.4202 22.0383 12.4237L23.5377 12.3803C23.4971 10.9789 22.9011 9.65104 21.881 8.68924L20.852 9.78062ZM22.038 12.403C22.0385 12.7535 21.985 13.102 21.8795 13.4362L23.3099 13.8878C23.4617 13.4068 23.5387 12.9054 23.538 12.4011L22.038 12.403ZM22.4757 14.4025C23.6693 14.5943 24.5558 15.6107 24.5836 16.8192L26.0832 16.7848C26.0388 14.8529 24.6216 13.228 22.7137 12.9215L22.4757 14.4025ZM24.5837 16.7793C24.5411 18.1858 23.3678 19.2922 21.9613 19.2523L21.9188 20.7517C24.1523 20.815 26.0153 19.0581 26.083 16.8247L24.5837 16.7793Z" fill="#2797E8"/>
<path d="M16.3765 23.9993H15.718C15.5708 23.9993 15.4514 23.88 15.4514 23.7327V23.1973C15.4514 23.0565 15.3418 22.9408 15.2018 22.9252C14.8684 22.8882 14.5459 22.8193 14.2343 22.7185C13.9315 22.6191 13.6692 22.5012 13.4474 22.3646C13.3454 22.3018 13.3083 22.1743 13.3505 22.0622L13.8021 20.8615C13.8629 20.6998 14.0592 20.638 14.2104 20.7216C14.4144 20.8343 14.6337 20.9307 14.8682 21.0107C15.2175 21.1232 15.5528 21.1795 15.874 21.1795C16.1501 21.1795 16.3473 21.1497 16.4656 21.0901C16.584 21.0239 16.6431 20.9279 16.6431 20.8022C16.6431 20.6566 16.5642 20.5473 16.4065 20.4745C16.2543 20.4017 16.0008 20.3223 15.6458 20.2362C15.1893 20.1237 14.809 20.0045 14.5047 19.8788C14.2004 19.7464 13.9356 19.5346 13.7102 19.2433C13.4848 18.9454 13.3721 18.545 13.3721 18.0419C13.3721 17.4594 13.5496 16.9596 13.9046 16.5426C14.2245 16.1727 14.6663 15.9226 15.23 15.7923C15.3569 15.7629 15.4514 15.6529 15.4514 15.5226V14.9327C15.4514 14.7854 15.5708 14.666 15.718 14.666H16.3765C16.5237 14.666 16.6431 14.7854 16.6431 14.9327V15.4889C16.6431 15.6252 16.746 15.7386 16.8806 15.7596C17.3744 15.8363 17.8082 15.9815 18.1822 16.1953C18.2882 16.2559 18.3304 16.385 18.2897 16.5002L17.867 17.6961C17.811 17.8545 17.6243 17.9216 17.4742 17.8459C16.9981 17.6059 16.5435 17.4859 16.1106 17.4859C15.5979 17.4859 15.3415 17.6315 15.3415 17.9227C15.3415 18.0618 15.4176 18.1677 15.5697 18.2405C15.7218 18.3067 15.9726 18.3795 16.3219 18.4589C16.7727 18.5582 17.1531 18.6741 17.463 18.8064C17.7729 18.9322 18.0405 19.1407 18.2659 19.432C18.497 19.7232 18.6125 20.1204 18.6125 20.6235C18.6125 21.1795 18.4406 21.666 18.0969 22.083C17.7974 22.4466 17.383 22.701 16.8537 22.8464C16.732 22.8798 16.6431 22.9876 16.6431 23.1137V23.7327C16.6431 23.88 16.5237 23.9993 16.3765 23.9993Z" fill="#2797E8"/>
</svg>
