<svg width="277" height="253" viewBox="0 0 277 253" fill="none" xmlns="http://www.w3.org/2000/svg">
<path fill-rule="evenodd" clip-rule="evenodd" d="M138.5 16.6667C140.801 16.6667 142.667 14.8012 142.667 12.5C142.667 10.1988 140.801 8.33333 138.5 8.33333C136.199 8.33333 134.333 10.1988 134.333 12.5C134.333 14.8012 136.199 16.6667 138.5 16.6667ZM138.5 25C145.404 25 151 19.4036 151 12.5C151 5.59644 145.404 0 138.5 0C131.596 0 126 5.59644 126 12.5C126 19.4036 131.596 25 138.5 25Z" fill="white"/>
<path d="M114.768 13.9733C116.167 12.159 118.773 11.8226 120.587 13.2219C122.401 14.6212 122.738 17.2263 121.338 19.0406L46.0236 116.693C44.6243 118.507 42.0192 118.844 40.2049 117.444C38.3906 116.045 38.0541 113.44 39.4534 111.626L114.768 13.9733Z" fill="white"/>
<path d="M230.321 176.141C232.495 175.759 234.567 177.211 234.95 179.384C235.332 181.558 233.88 183.63 231.707 184.013L55.8461 214.959C53.6724 215.341 51.6001 213.889 51.2176 211.715C50.8351 209.542 52.2872 207.47 54.4609 207.087L230.321 176.141Z" fill="white"/>
<path d="M211.644 82.7071C212.98 84.5683 212.554 87.1604 210.693 88.4966C208.832 89.8329 206.24 89.4073 204.903 87.5461L155.618 18.8972C154.281 17.036 154.707 14.4439 156.568 13.1077C158.429 11.7715 161.022 12.197 162.358 14.0582L211.644 82.7071Z" fill="white"/>
<path fill-rule="evenodd" clip-rule="evenodd" d="M242.325 94.9071L15.4729 134.698C12.2428 135.265 10.0836 138.343 10.6502 141.573L27.4811 237.527C28.0477 240.757 31.1255 242.917 34.3556 242.35L261.208 202.559C264.438 201.992 266.597 198.914 266.031 195.684L249.2 99.7299C248.633 96.4998 245.555 94.3405 242.325 94.9071ZM14.0367 126.51C6.28445 127.87 1.10232 135.257 2.46211 143.009L19.293 238.963C20.6528 246.716 28.0396 251.898 35.7919 250.538L262.644 210.747C270.396 209.387 275.579 202 274.219 194.248L257.388 98.2936C256.028 90.5414 248.641 85.3592 240.889 86.719L14.0367 126.51Z" fill="white"/>
<path d="M72.7545 197.102C69.0025 197.739 65.405 197.447 61.9619 196.228C58.5124 194.97 55.5941 192.936 53.2068 190.125C50.851 187.27 49.3368 183.861 48.6644 179.897C47.9919 175.933 48.3002 172.234 49.5891 168.8C50.9095 165.321 52.9938 162.438 55.8419 160.151C58.6901 157.864 61.9902 156.403 65.7422 155.766C69.5321 155.123 73.1296 155.415 76.5347 156.641C79.9778 157.861 82.8772 159.898 85.233 162.753C87.5824 165.57 89.0933 168.96 89.7657 172.924C90.4382 176.888 90.1332 180.606 88.8507 184.079C87.5618 187.513 85.4964 190.392 82.6547 192.717C79.8066 195.004 76.5065 196.466 72.7545 197.102ZM70.9893 186.697C73.8317 186.215 75.9093 184.902 77.2221 182.757C78.5729 180.607 78.9831 177.969 78.4529 174.843C77.9098 171.642 76.6493 169.267 74.6713 167.721C72.7249 166.13 70.3304 165.575 67.488 166.057C64.6077 166.546 62.5111 167.862 61.1983 170.006C59.879 172.112 59.4909 174.766 60.0341 177.968C60.5707 181.132 61.8123 183.509 63.7588 185.1C65.6988 186.653 68.109 187.186 70.9893 186.697Z" fill="white"/>
<path d="M134.704 158.537C135.118 160.976 134.927 163.302 134.133 165.515C133.37 167.684 131.955 169.571 129.888 171.176C127.853 172.737 125.205 173.794 121.946 174.347L116.432 175.282L118.74 188.89L107.598 190.78L100.76 150.473L117.417 147.647C120.638 147.101 123.464 147.209 125.894 147.974C128.362 148.731 130.335 150.024 131.815 151.851C133.295 153.678 134.258 155.907 134.704 158.537ZM119.353 165.611C122.498 165.078 123.825 163.362 123.334 160.466C122.836 157.531 121.014 156.33 117.869 156.864L113.435 157.616L114.919 166.363L119.353 165.611Z" fill="white"/>
<path d="M158.946 149.837L160.061 156.412L172.852 154.242L174.297 162.761L161.506 164.93L162.738 172.191L177.234 169.732L178.757 178.708L153.119 183.058L146.281 142.751L171.919 138.401L173.442 147.377L158.946 149.837Z" fill="white"/>
<path d="M230.765 169.886L219.623 171.776L200.964 151.767L204.785 174.293L193.643 176.183L186.805 135.876L197.948 133.986L216.655 154.281L212.785 131.469L223.927 129.579L230.765 169.886Z" fill="white"/>
</svg>
