<svg width="204" height="85" viewBox="0 0 204 85" fill="none" xmlns="http://www.w3.org/2000/svg">
<path d="M82.8125 22.5C82.8125 26.3938 83.9672 30.2002 86.1304 33.4378C88.2937 36.6754 91.3685 39.1988 94.9659 40.6889C98.5633 42.179 102.522 42.5689 106.341 41.8092C110.16 41.0496 113.668 39.1745 116.421 36.4212C119.175 33.6678 121.05 30.1598 121.809 26.3408C122.569 22.5218 122.179 18.5633 120.689 14.9659C119.199 11.3685 116.675 8.29373 113.438 6.13044C110.2 3.96715 106.394 2.8125 102.5 2.8125C97.2786 2.8125 92.271 4.88671 88.5788 8.57884C84.8867 12.271 82.8125 17.2786 82.8125 22.5ZM115.367 33.3984L91.6016 9.63281C94.8368 6.93984 98.9618 5.55325 103.167 5.74518C107.372 5.93711 111.353 7.69371 114.33 10.6702C117.306 13.6467 119.063 17.6282 119.255 21.8332C119.447 26.0382 118.06 30.1632 115.367 33.3984ZM91.5875 35.3812C88.182 32.4893 86.0623 28.3649 85.6933 23.9124C85.3242 19.46 86.7359 15.0429 89.6188 11.6297L113.37 35.3812C110.325 37.9547 106.466 39.3666 102.479 39.3666C98.4916 39.3666 94.6331 37.9547 91.5875 35.3812Z" fill="#B0BEC9"/>
<path d="M3.52798 71.25V67.164H5.79598C7.39798 67.164 8.11798 67.92 8.11798 69.216C8.11798 70.476 7.39798 71.25 5.79598 71.25H3.52798ZM10.224 69.216C10.224 67.182 8.76598 65.49 5.79598 65.49H1.47598V78H3.52798V72.924H5.79598C9.05398 72.924 10.224 70.998 10.224 69.216ZM14.2331 72.78C14.2331 70.674 15.1691 70.044 16.6811 70.044H17.2031V67.92C15.7991 67.92 14.8091 68.532 14.2331 69.522V68.082H12.1811V78H14.2331V72.78ZM28.5393 73.032C28.5393 69.918 26.3073 67.92 23.4813 67.92C20.6553 67.92 18.4233 69.918 18.4233 73.032C18.4233 76.146 20.5653 78.162 23.3913 78.162C26.2353 78.162 28.5393 76.146 28.5393 73.032ZM20.5113 73.032C20.5113 70.782 21.8973 69.702 23.4453 69.702C24.9753 69.702 26.4333 70.782 26.4333 73.032C26.4333 75.282 24.9213 76.38 23.3913 76.38C21.8433 76.38 20.5113 75.282 20.5113 73.032ZM29.8838 72.996C29.8838 76.056 31.9538 78.162 34.5638 78.162C36.1838 78.162 37.3718 77.406 38.0018 76.506V78H40.0718V64.68H38.0018V69.468C37.2458 68.532 35.8778 67.92 34.5818 67.92C31.9538 67.92 29.8838 69.936 29.8838 72.996ZM38.0018 73.032C38.0018 75.174 36.5438 76.38 34.9958 76.38C33.4658 76.38 31.9898 75.138 31.9898 72.996C31.9898 70.854 33.4658 69.702 34.9958 69.702C36.5438 69.702 38.0018 70.908 38.0018 73.032ZM51.749 68.082H49.697V73.608C49.697 75.426 48.707 76.362 47.195 76.362C45.701 76.362 44.711 75.426 44.711 73.608V68.082H42.677V73.914C42.677 76.686 44.441 78.144 46.763 78.144C47.933 78.144 49.049 77.658 49.697 76.812V78H51.749V68.082ZM53.7724 73.032C53.7724 76.146 55.7884 78.162 58.6324 78.162C61.0624 78.162 62.6464 76.812 63.2044 74.868H60.9904C60.6124 75.894 59.8564 76.434 58.6324 76.434C56.9764 76.434 55.8784 75.21 55.8784 73.032C55.8784 70.872 56.9764 69.648 58.6324 69.648C59.8564 69.648 60.6484 70.26 60.9904 71.214H63.2044C62.6464 69.126 61.0624 67.92 58.6324 67.92C55.7884 67.92 53.7724 69.936 53.7724 73.032ZM65.5734 75.246C65.5734 77.262 66.6714 78 68.4354 78H70.0554V76.29H68.7954C67.9314 76.29 67.6434 75.984 67.6434 75.246V69.756H70.0554V68.082H67.6434V65.616H65.5734V68.082H64.4034V69.756H65.5734V75.246ZM76.6225 78H78.6745V68.082H76.6225V78ZM77.6665 66.768C78.3865 66.768 78.9625 66.192 78.9625 65.454C78.9625 64.716 78.3865 64.14 77.6665 64.14C76.9285 64.14 76.3525 64.716 76.3525 65.454C76.3525 66.192 76.9285 66.768 77.6665 66.768ZM88.7666 75.228C88.6586 71.646 83.0606 72.762 83.0606 70.764C83.0606 70.098 83.6366 69.648 84.7346 69.648C85.8506 69.648 86.5166 70.242 86.5886 71.106H88.6406C88.5326 69.126 87.0566 67.92 84.8066 67.92C82.4666 67.92 80.9906 69.198 80.9906 70.782C80.9906 74.418 86.7506 73.302 86.7506 75.246C86.7506 75.93 86.1206 76.434 84.9326 76.434C83.7986 76.434 83.0246 75.768 82.9526 74.958H80.8286C80.9186 76.758 82.5926 78.162 84.9686 78.162C87.3086 78.162 88.7666 76.902 88.7666 75.228ZM105.11 73.032C105.11 69.918 102.878 67.92 100.052 67.92C97.2256 67.92 94.9936 69.918 94.9936 73.032C94.9936 76.146 97.1356 78.162 99.9616 78.162C102.806 78.162 105.11 76.146 105.11 73.032ZM97.0816 73.032C97.0816 70.782 98.4676 69.702 100.016 69.702C101.546 69.702 103.004 70.782 103.004 73.032C103.004 75.282 101.492 76.38 99.9616 76.38C98.4136 76.38 97.0816 75.282 97.0816 73.032ZM116.12 68.082H114.068V73.608C114.068 75.426 113.078 76.362 111.566 76.362C110.072 76.362 109.082 75.426 109.082 73.608V68.082H107.048V73.914C107.048 76.686 108.812 78.144 111.134 78.144C112.304 78.144 113.42 77.658 114.068 76.812V78H116.12V68.082ZM119.152 75.246C119.152 77.262 120.25 78 122.014 78H123.634V76.29H122.374C121.51 76.29 121.222 75.984 121.222 75.246V69.756H123.634V68.082H121.222V65.616H119.152V68.082H117.982V69.756H119.152V75.246ZM139.651 73.032C139.651 69.918 137.419 67.92 134.593 67.92C131.767 67.92 129.535 69.918 129.535 73.032C129.535 76.146 131.677 78.162 134.503 78.162C137.347 78.162 139.651 76.146 139.651 73.032ZM131.623 73.032C131.623 70.782 133.009 69.702 134.557 69.702C136.087 69.702 137.545 70.782 137.545 73.032C137.545 75.282 136.033 76.38 134.503 76.38C132.955 76.38 131.623 75.282 131.623 73.032ZM141.931 78H144.001V69.756H145.837V68.082H144.001V67.38C144.001 66.246 144.433 65.814 145.693 65.814V64.104C143.101 64.104 141.931 65.094 141.931 67.38V68.082H140.761V69.756H141.931V78ZM159.729 75.228C159.621 71.646 154.023 72.762 154.023 70.764C154.023 70.098 154.599 69.648 155.697 69.648C156.813 69.648 157.479 70.242 157.551 71.106H159.603C159.495 69.126 158.019 67.92 155.769 67.92C153.429 67.92 151.953 69.198 151.953 70.782C151.953 74.418 157.713 73.302 157.713 75.246C157.713 75.93 157.083 76.434 155.895 76.434C154.761 76.434 153.987 75.768 153.915 74.958H151.791C151.881 76.758 153.555 78.162 155.931 78.162C158.271 78.162 159.729 76.902 159.729 75.228ZM162.271 75.246C162.271 77.262 163.369 78 165.133 78H166.753V76.29H165.493C164.629 76.29 164.341 75.984 164.341 75.246V69.756H166.753V68.082H164.341V65.616H162.271V68.082H161.101V69.756H162.271V75.246ZM178.094 73.032C178.094 69.918 175.862 67.92 173.036 67.92C170.21 67.92 167.978 69.918 167.978 73.032C167.978 76.146 170.12 78.162 172.946 78.162C175.79 78.162 178.094 76.146 178.094 73.032ZM170.066 73.032C170.066 70.782 171.452 69.702 173 69.702C174.53 69.702 175.988 70.782 175.988 73.032C175.988 75.282 174.476 76.38 172.946 76.38C171.398 76.38 170.066 75.282 170.066 73.032ZM179.438 73.032C179.438 76.146 181.454 78.162 184.298 78.162C186.728 78.162 188.312 76.812 188.87 74.868H186.656C186.278 75.894 185.522 76.434 184.298 76.434C182.642 76.434 181.544 75.21 181.544 73.032C181.544 70.872 182.642 69.648 184.298 69.648C185.522 69.648 186.314 70.26 186.656 71.214H188.87C188.312 69.126 186.728 67.92 184.298 67.92C181.454 67.92 179.438 69.936 179.438 73.032ZM190.915 78H192.967V73.734L196.639 78H199.411L194.839 73.05L199.411 68.082H196.567L192.967 72.42V64.68H190.915V78ZM203.006 76.812C203.006 76.074 202.43 75.498 201.71 75.498C200.972 75.498 200.396 76.074 200.396 76.812C200.396 77.55 200.972 78.126 201.71 78.126C202.43 78.126 203.006 77.55 203.006 76.812Z" fill="#B0BEC9"/>
</svg>
