<svg width="15" height="14" viewBox="0 0 15 14" fill="none" xmlns="http://www.w3.org/2000/svg">
<path d="M0.500004 7.00061C0.500279 7.27675 0.72436 7.50038 1.0005 7.50011C1.27664 7.49983 1.50028 7.27575 1.5 6.99961L0.500004 7.00061ZM2.06222 3.38914L2.4823 3.6603L2.48255 3.65992L2.06222 3.38914ZM4.89045 0.995454L4.69349 0.535877L4.69287 0.536146L4.89045 0.995454ZM8.53112 0.624051L8.63279 0.134495L8.63122 0.134172L8.53112 0.624051ZM11.7568 2.404L11.3968 2.75102L11.3972 2.75143L11.7568 2.404ZM12.8593 5.28122C12.9356 5.54661 13.2126 5.69992 13.478 5.62364C13.7434 5.54735 13.8967 5.27037 13.8204 5.00497L12.8593 5.28122ZM12.8555 5.01734C12.786 5.2846 12.9464 5.55757 13.2136 5.62703C13.4809 5.69648 13.7539 5.53613 13.8233 5.26887L12.8555 5.01734ZM14.4826 2.73219C14.552 2.46492 14.3917 2.19195 14.1244 2.1225C13.8571 2.05304 13.5842 2.21339 13.5147 2.48066L14.4826 2.73219ZM13.2063 5.62508C13.4725 5.69863 13.7479 5.54248 13.8214 5.27631C13.895 5.01014 13.7388 4.73475 13.4727 4.6612L13.2063 5.62508ZM11.0131 3.98153C10.7469 3.90798 10.4715 4.06413 10.3979 4.3303C10.3244 4.59646 10.4805 4.87186 10.7467 4.94541L11.0131 3.98153ZM14.4991 6.99926C14.4988 6.72312 14.2747 6.49948 13.9986 6.49976C13.7224 6.50004 13.4988 6.72412 13.4991 7.00026L14.4991 6.99926ZM12.9369 10.6107L12.5168 10.3396L12.5165 10.3399L12.9369 10.6107ZM10.1086 13.0044L10.3056 13.464L10.3062 13.4637L10.1086 13.0044ZM6.46795 13.3758L6.36627 13.8654L6.36785 13.8657L6.46795 13.3758ZM3.24232 11.5959L3.60228 11.2488L3.60189 11.2484L3.24232 11.5959ZM2.13975 8.71865C2.06347 8.45325 1.78648 8.29995 1.52109 8.37623C1.25569 8.45251 1.10238 8.7295 1.17867 8.9949L2.13975 8.71865ZM2.14358 8.98296C2.21304 8.7157 2.05268 8.44273 1.78542 8.37327C1.51816 8.30382 1.24519 8.46417 1.17573 8.73144L2.14358 8.98296ZM0.516492 11.2681C0.447034 11.5354 0.607388 11.8083 0.874653 11.8778C1.14192 11.9473 1.41488 11.7869 1.48434 11.5196L0.516492 11.2681ZM1.79239 8.37487C1.52622 8.30132 1.25082 8.45747 1.17727 8.72363C1.10372 8.9898 1.25987 9.2652 1.52604 9.33875L1.79239 8.37487ZM3.98565 10.0184C4.25182 10.092 4.52721 9.93582 4.60076 9.66965C4.67431 9.40348 4.51817 9.12809 4.252 9.05454L3.98565 10.0184ZM1.5 6.99961C1.49882 5.8151 1.83994 4.65549 2.4823 3.6603L1.64213 3.11799C0.895244 4.2751 0.498629 5.62338 0.500004 7.00061L1.5 6.99961ZM2.48255 3.65992C3.11243 2.68213 4.01957 1.91437 5.08802 1.45476L4.69287 0.536146C3.44172 1.07434 2.37947 1.97338 1.64188 3.11837L2.48255 3.65992ZM5.0874 1.45503C6.14119 1.00343 7.30776 0.88442 8.43103 1.11393L8.63122 0.134172C7.30836 -0.136117 5.93452 0.00403607 4.69349 0.535878L5.0874 1.45503ZM8.42945 1.1136C9.56073 1.34855 10.5949 1.9192 11.3968 2.75102L12.1167 2.05697C11.1752 1.08034 9.96102 0.41035 8.63279 0.134498L8.42945 1.1136ZM11.3972 2.75143C12.0842 3.4624 12.5862 4.33105 12.8593 5.28122L13.8204 5.00497C13.5021 3.89757 12.917 2.88518 12.1163 2.05657L11.3972 2.75143ZM13.8233 5.26887L14.4826 2.73219L13.5147 2.48066L12.8555 5.01734L13.8233 5.26887ZM13.4727 4.6612L11.0131 3.98153L10.7467 4.94541L13.2063 5.62508L13.4727 4.6612ZM13.4991 7.00026C13.5002 8.18476 13.1591 9.34437 12.5168 10.3396L13.3569 10.8819C14.1038 9.72477 14.5004 8.37648 14.4991 6.99926L13.4991 7.00026ZM12.5165 10.3399C11.8866 11.3177 10.9795 12.0855 9.91105 12.5451L10.3062 13.4637C11.5573 12.9255 12.6196 12.0265 13.3572 10.8815L12.5165 10.3399ZM9.91167 12.5448C8.85788 12.9964 7.69131 13.1154 6.56804 12.8859L6.36785 13.8657C7.69071 14.136 9.06455 13.9958 10.3056 13.464L9.91167 12.5448ZM6.56962 12.8863C5.43834 12.6513 4.4042 12.0807 3.60228 11.2488L2.88235 11.9429C3.82388 12.9195 5.03805 13.5895 6.36627 13.8654L6.56962 12.8863ZM3.60189 11.2484C2.91491 10.5375 2.41286 9.66882 2.13975 8.71865L1.17867 8.9949C1.49697 10.1023 2.0821 11.1147 2.88275 11.9433L3.60189 11.2484ZM1.17573 8.73144L0.516492 11.2681L1.48434 11.5196L2.14358 8.98296L1.17573 8.73144ZM1.52604 9.33875L3.98565 10.0184L4.252 9.05454L1.79239 8.37487L1.52604 9.33875Z" fill="#758696"/>
</svg>
