<svg width="193" height="93" viewBox="0 0 193 93" fill="none" xmlns="http://www.w3.org/2000/svg">
<path d="M8.97375 77.26C8.97375 78.64 8.17375 79.62 6.39375 79.62H3.87375V74.96H6.39375C8.17375 74.96 8.97375 75.86 8.97375 77.26ZM1.59375 73.1V87H3.87375V81.44H5.61375L8.81375 87H11.5338L8.09375 81.24C10.4338 80.66 11.3138 78.9 11.3138 77.26C11.3138 75 9.69375 73.1 6.39375 73.1H1.59375ZM18.8705 77.72C20.5705 77.72 21.9105 78.8 21.9505 80.5H15.8505C16.0905 78.76 17.3305 77.72 18.8705 77.72ZM24.0305 83.72H21.5705C21.1505 84.58 20.3705 85.26 18.9705 85.26C17.2905 85.26 15.9905 84.16 15.8305 82.34H24.2505C24.3105 81.96 24.3305 81.6 24.3305 81.22C24.3305 77.98 22.1105 75.8 18.9705 75.8C15.7105 75.8 13.4705 78.02 13.4705 81.48C13.4705 84.94 15.8105 87.18 18.9705 87.18C21.6705 87.18 23.4105 85.64 24.0305 83.72ZM26.8542 87H29.1542V77.84H31.1942V75.98H29.1542V75.2C29.1542 73.94 29.6342 73.46 31.0342 73.46V71.56C28.1542 71.56 26.8542 72.66 26.8542 75.2V75.98H25.5542V77.84H26.8542V87ZM43.1948 75.98H40.9148V82.12C40.9148 84.14 39.8148 85.18 38.1348 85.18C36.4748 85.18 35.3748 84.14 35.3748 82.12V75.98H33.1148V82.46C33.1148 85.54 35.0748 87.16 37.6548 87.16C38.9548 87.16 40.1948 86.62 40.9148 85.68V87H43.1948V75.98ZM54.0231 87H56.2831V80.5C56.2831 77.42 54.3431 75.8 51.7631 75.8C50.4431 75.8 49.2231 76.34 48.4831 77.24V75.98H46.2031V87H48.4831V80.84C48.4831 78.82 49.5831 77.78 51.2631 77.78C52.9231 77.78 54.0231 78.82 54.0231 80.84V87ZM58.4314 81.44C58.4314 84.84 60.7314 87.18 63.6314 87.18C65.4314 87.18 66.7514 86.34 67.4514 85.34V87H69.7514V72.2H67.4514V77.52C66.6114 76.48 65.0914 75.8 63.6514 75.8C60.7314 75.8 58.4314 78.04 58.4314 81.44ZM67.4514 81.48C67.4514 83.86 65.8314 85.2 64.1114 85.2C62.4114 85.2 60.7714 83.82 60.7714 81.44C60.7714 79.06 62.4114 77.78 64.1114 77.78C65.8314 77.78 67.4514 79.12 67.4514 81.48ZM77.1814 81.48C77.1814 84.94 79.4214 87.18 82.5814 87.18C85.2814 87.18 87.0414 85.68 87.6614 83.52H85.2014C84.7814 84.66 83.9414 85.26 82.5814 85.26C80.7414 85.26 79.5214 83.9 79.5214 81.48C79.5214 79.08 80.7414 77.72 82.5814 77.72C83.9414 77.72 84.8214 78.4 85.2014 79.46H87.6614C87.0414 77.14 85.2814 75.8 82.5814 75.8C79.4214 75.8 77.1814 78.04 77.1814 81.48ZM100.434 81.48C100.434 78.02 97.9536 75.8 94.8136 75.8C91.6736 75.8 89.1936 78.02 89.1936 81.48C89.1936 84.94 91.5736 87.18 94.7136 87.18C97.8736 87.18 100.434 84.94 100.434 81.48ZM91.5136 81.48C91.5136 78.98 93.0536 77.78 94.7736 77.78C96.4736 77.78 98.0936 78.98 98.0936 81.48C98.0936 83.98 96.4136 85.2 94.7136 85.2C92.9936 85.2 91.5136 83.98 91.5136 81.48ZM118.308 87H120.568V80.5C120.568 77.42 118.608 75.8 116.028 75.8C114.428 75.8 112.868 76.64 112.188 77.98C111.428 76.54 109.968 75.8 108.228 75.8C106.908 75.8 105.708 76.34 104.968 77.24V75.98H102.688V87H104.968V80.84C104.968 78.82 106.068 77.78 107.748 77.78C109.408 77.78 110.508 78.82 110.508 80.84V87H112.768V80.84C112.768 78.82 113.868 77.78 115.548 77.78C117.208 77.78 118.308 78.82 118.308 80.84V87ZM125.749 77.6V75.98H123.469V92.24H125.749V85.4C126.469 86.26 127.769 87.18 129.589 87.18C132.489 87.18 134.769 84.84 134.769 81.44C134.769 78.04 132.489 75.8 129.589 75.8C127.789 75.8 126.449 76.68 125.749 77.6ZM132.449 81.44C132.449 83.82 130.809 85.2 129.089 85.2C127.389 85.2 125.749 83.86 125.749 81.48C125.749 79.12 127.389 77.78 129.089 77.78C130.809 77.78 132.449 79.06 132.449 81.44ZM137.023 87H139.303V72.2H137.023V87ZM146.937 77.72C148.637 77.72 149.977 78.8 150.017 80.5H143.917C144.157 78.76 145.397 77.72 146.937 77.72ZM152.097 83.72H149.637C149.217 84.58 148.437 85.26 147.037 85.26C145.357 85.26 144.057 84.16 143.897 82.34H152.317C152.377 81.96 152.397 81.6 152.397 81.22C152.397 77.98 150.177 75.8 147.037 75.8C143.777 75.8 141.537 78.02 141.537 81.48C141.537 84.94 143.877 87.18 147.037 87.18C149.737 87.18 151.477 85.64 152.097 83.72ZM155.001 83.94C155.001 86.18 156.221 87 158.181 87H159.981V85.1H158.581C157.621 85.1 157.301 84.76 157.301 83.94V77.84H159.981V75.98H157.301V73.24H155.001V75.98H153.701V77.84H155.001V83.94ZM166.722 77.72C168.422 77.72 169.762 78.8 169.802 80.5H163.702C163.942 78.76 165.182 77.72 166.722 77.72ZM171.882 83.72H169.422C169.002 84.58 168.222 85.26 166.822 85.26C165.142 85.26 163.842 84.16 163.682 82.34H172.102C172.162 81.96 172.182 81.6 172.182 81.22C172.182 77.98 169.962 75.8 166.822 75.8C163.562 75.8 161.322 78.02 161.322 81.48C161.322 84.94 163.662 87.18 166.822 87.18C169.522 87.18 171.262 85.64 171.882 83.72ZM173.666 81.44C173.666 84.84 175.966 87.18 178.866 87.18C180.666 87.18 181.986 86.34 182.686 85.34V87H184.986V72.2H182.686V77.52C181.846 76.48 180.326 75.8 178.886 75.8C175.966 75.8 173.666 78.04 173.666 81.44ZM182.686 81.48C182.686 83.86 181.066 85.2 179.346 85.2C177.646 85.2 176.006 83.82 176.006 81.44C176.006 79.06 177.646 77.78 179.346 77.78C181.066 77.78 182.686 79.12 182.686 81.48ZM188.68 82.8H190.58L190.84 73.1H188.42L188.68 82.8ZM191.14 85.68C191.14 84.86 190.5 84.22 189.7 84.22C188.88 84.22 188.24 84.86 188.24 85.68C188.24 86.5 188.88 87.14 189.7 87.14C190.5 87.14 191.14 86.5 191.14 85.68Z" fill="white"/>
<g clip-path="url(#clip0_5424_75797)">
<path d="M97 46.875C91.1984 46.875 85.6344 44.5703 81.532 40.468C77.4297 36.3656 75.125 30.8016 75.125 25C75.125 19.1984 77.4297 13.6344 81.532 9.53204C85.6344 5.42968 91.1984 3.125 97 3.125C102.802 3.125 108.366 5.42968 112.468 9.53204C116.57 13.6344 118.875 19.1984 118.875 25C118.875 30.8016 116.57 36.3656 112.468 40.468C108.366 44.5703 102.802 46.875 97 46.875ZM97 50C103.63 50 109.989 47.3661 114.678 42.6777C119.366 37.9893 122 31.6304 122 25C122 18.3696 119.366 12.0107 114.678 7.32233C109.989 2.63392 103.63 0 97 0C90.3696 0 84.0107 2.63392 79.3223 7.32233C74.6339 12.0107 72 18.3696 72 25C72 31.6304 74.6339 37.9893 79.3223 42.6777C84.0107 47.3661 90.3696 50 97 50Z" fill="white"/>
<path d="M106.282 15.5318C106.259 15.5533 106.238 15.5763 106.219 15.6005L95.366 29.4286L88.8253 22.8849C88.381 22.4709 87.7934 22.2455 87.1862 22.2562C86.579 22.2669 85.9997 22.5129 85.5703 22.9423C85.1408 23.3717 84.8949 23.9511 84.8842 24.5583C84.8734 25.1654 85.0988 25.7531 85.5128 26.1974L93.7816 34.4693C94.0043 34.6916 94.2696 34.8668 94.5615 34.9844C94.8535 35.102 95.1661 35.1596 95.4808 35.1538C95.7955 35.148 96.1057 35.0788 96.3931 34.9505C96.6805 34.8221 96.9391 34.6372 97.1534 34.4068L109.628 18.813C110.053 18.3672 110.285 17.7721 110.275 17.1563C110.264 16.5406 110.012 15.9538 109.572 15.5227C109.133 15.0916 108.541 14.8508 107.925 14.8525C107.309 14.8542 106.719 15.0982 106.282 15.5318Z" fill="white"/>
</g>
<defs>
<clipPath id="clip0_5424_75797">
<rect width="50" height="50" fill="white" transform="translate(72)"/>
</clipPath>
</defs>
</svg>
