<svg width="51" height="50" viewBox="0 0 51 50" fill="none" xmlns="http://www.w3.org/2000/svg">
<g clip-path="url(#clip0_4311_178264)">
<path d="M25.5 46.875C19.6984 46.875 14.1344 44.5703 10.032 40.468C5.92968 36.3656 3.625 30.8016 3.625 25C3.625 19.1984 5.92968 13.6344 10.032 9.53204C14.1344 5.42968 19.6984 3.125 25.5 3.125C31.3016 3.125 36.8656 5.42968 40.968 9.53204C45.0703 13.6344 47.375 19.1984 47.375 25C47.375 30.8016 45.0703 36.3656 40.968 40.468C36.8656 44.5703 31.3016 46.875 25.5 46.875ZM25.5 50C32.1304 50 38.4893 47.3661 43.1777 42.6777C47.8661 37.9893 50.5 31.6304 50.5 25C50.5 18.3696 47.8661 12.0107 43.1777 7.32233C38.4893 2.63392 32.1304 0 25.5 0C18.8696 0 12.5107 2.63392 7.82233 7.32233C3.13392 12.0107 0.5 18.3696 0.5 25C0.5 31.6304 3.13392 37.9893 7.82233 42.6777C12.5107 47.3661 18.8696 50 25.5 50Z" fill="white"/>
<path d="M34.7814 15.5318C34.7591 15.5533 34.7383 15.5763 34.7189 15.6005L23.8658 29.4286L17.3251 22.8849C16.8808 22.4709 16.2932 22.2455 15.686 22.2562C15.0788 22.2669 14.4995 22.5129 14.0701 22.9423C13.6407 23.3717 13.3947 23.9511 13.384 24.5583C13.3733 25.1654 13.5986 25.7531 14.0126 26.1974L22.2814 34.4693C22.5041 34.6916 22.7694 34.8668 23.0613 34.9844C23.3533 35.102 23.6659 35.1596 23.9806 35.1538C24.2953 35.148 24.6056 35.0788 24.8929 34.9505C25.1803 34.8221 25.4389 34.6372 25.6533 34.4068L38.1283 18.813C38.553 18.3672 38.7853 17.7721 38.7748 17.1563C38.7643 16.5406 38.5119 15.9538 38.0722 15.5227C37.6325 15.0916 37.0407 14.8508 36.4249 14.8525C35.8091 14.8542 35.2187 15.0982 34.7814 15.5318Z" fill="white"/>
</g>
<defs>
<clipPath id="clip0_4311_178264">
<rect width="50" height="50" fill="white" transform="translate(0.5)"/>
</clipPath>
</defs>
</svg>
