<svg width="21" height="21" viewBox="0 0 21 21" fill="none" xmlns="http://www.w3.org/2000/svg">
<path fill-rule="evenodd" clip-rule="evenodd" d="M14.284 13.0364L18.9915 17.7439C19.157 17.9095 19.2499 18.134 19.2498 18.3681C19.2498 18.6022 19.1567 18.8266 18.9911 18.9921C18.8255 19.1576 18.601 19.2505 18.3669 19.2504C18.1328 19.2503 17.9084 19.1572 17.7429 18.9917L13.0354 14.2842C11.6282 15.3741 9.85854 15.887 8.08654 15.7186C6.31453 15.5501 4.67325 14.7129 3.4966 13.3773C2.31994 12.0417 1.69629 10.308 1.75252 8.52888C1.80875 6.74977 2.54063 5.0589 3.79928 3.80026C5.05793 2.54161 6.74879 1.80973 8.5279 1.7535C10.307 1.69727 12.0407 2.32092 13.3763 3.49757C14.7119 4.67423 15.5491 6.31551 15.7176 8.08751C15.8861 9.85952 15.3731 11.6292 14.2832 13.0364H14.284ZM8.74967 13.9998C10.1421 13.9998 11.4774 13.4467 12.462 12.4621C13.4466 11.4775 13.9997 10.1422 13.9997 8.74978C13.9997 7.35739 13.4466 6.02203 12.462 5.03747C11.4774 4.0529 10.1421 3.49978 8.74967 3.49978C7.35729 3.49978 6.02193 4.0529 5.03736 5.03747C4.0528 6.02203 3.49967 7.35739 3.49967 8.74978C3.49967 10.1422 4.0528 11.4775 5.03736 12.4621C6.02193 13.4467 7.35729 13.9998 8.74967 13.9998Z" fill="#3d4c66"/>
</svg>
