<svg width="19" height="19" viewBox="0 0 19 19" fill="none" xmlns="http://www.w3.org/2000/svg">
<path d="M18.3325 7.37269C18.2473 7.10847 18.0907 6.87296 17.88 6.69225C17.6693 6.51153 17.4126 6.39265 17.1385 6.34877L12.8372 5.64974L10.8432 1.775C10.7162 1.52833 10.5237 1.32141 10.2869 1.17694C10.05 1.03248 9.77789 0.956055 9.50044 0.956055C9.22299 0.956055 8.9509 1.03248 8.71403 1.17694C8.47716 1.32141 8.28465 1.52833 8.15764 1.775L6.16368 5.64974L1.86244 6.34877C1.5886 6.39334 1.33233 6.51248 1.12174 6.69311C0.911154 6.87375 0.754391 7.1089 0.668653 7.37276C0.582915 7.63663 0.571515 7.91901 0.635704 8.18893C0.699892 8.45885 0.837189 8.70587 1.03253 8.90289L4.10148 11.9966L3.43722 16.3034C3.39459 16.5777 3.42845 16.8584 3.53505 17.1147C3.64166 17.371 3.81689 17.593 4.04148 17.7562C4.26606 17.9193 4.53129 18.0174 4.808 18.0396C5.08471 18.0618 5.36219 18.0072 5.6099 17.8819L9.50044 15.9192L13.3911 17.8819C13.6388 18.007 13.9162 18.0613 14.1928 18.039C14.4694 18.0167 14.7346 17.9186 14.9591 17.7555C15.1836 17.5924 15.3588 17.3706 15.4655 17.1144C15.5721 16.8582 15.6062 16.5776 15.5638 16.3034L14.8995 11.9966L17.9685 8.90289C18.1644 8.70625 18.3022 8.45923 18.3664 8.18916C18.4306 7.91908 18.4189 7.6365 18.3325 7.37269ZM17.1253 8.06663L13.6344 11.5857L14.3901 16.4845C14.3995 16.5432 14.3924 16.6033 14.3697 16.6582C14.347 16.7131 14.3096 16.7606 14.2615 16.7955C14.2134 16.8305 14.1566 16.8514 14.0974 16.856C14.0382 16.8606 13.9788 16.8488 13.9259 16.8217L9.50044 14.5892L5.07493 16.8218C5.02203 16.8489 4.96267 16.8607 4.90344 16.8561C4.84421 16.8515 4.78741 16.8305 4.73935 16.7956C4.69128 16.7607 4.65382 16.7132 4.63112 16.6583C4.60842 16.6033 4.60136 16.5432 4.61073 16.4846L5.36646 11.5857L1.87562 8.0666C1.83393 8.02448 1.80464 7.9717 1.79095 7.91405C1.77727 7.85639 1.77971 7.79608 1.79802 7.73972C1.81633 7.68336 1.8498 7.63313 1.89477 7.59452C1.93973 7.55592 1.99445 7.53044 2.05293 7.52087L6.94546 6.72576L9.21355 2.31839C9.24067 2.26567 9.2818 2.22145 9.33241 2.19057C9.38302 2.15969 9.44116 2.14335 9.50044 2.14335C9.55973 2.14335 9.61787 2.15969 9.66848 2.19057C9.71909 2.22145 9.76022 2.26567 9.78734 2.31839L12.0554 6.72576L16.948 7.52087C17.0064 7.53044 17.0612 7.55592 17.1061 7.59452C17.1511 7.63313 17.1846 7.68336 17.2029 7.73972C17.2212 7.79608 17.2236 7.85639 17.2099 7.91405C17.1962 7.9717 17.167 8.02448 17.1253 8.0666L17.1253 8.06663Z" fill="#3D4C66"/>
</svg>
