<svg width="32" height="32" viewBox="0 0 32 32" fill="none" xmlns="http://www.w3.org/2000/svg">
<path fill-rule="evenodd" clip-rule="evenodd" d="M9.36353 8.66602C8.67436 8.66801 8.07043 9.12763 7.88486 9.79135L6.77153 12.7887C6.43499 14.0543 6.92565 15.3952 7.99953 16.1447C8.82255 16.7154 9.87241 16.8482 10.8117 16.5005C11.7509 16.1528 12.4612 15.3684 12.7142 14.3993L12.9382 12.7993L13.5875 8.66602H9.36353Z" stroke="#00B998" stroke-width="1.5" stroke-linecap="round" stroke-linejoin="round"/>
<path fill-rule="evenodd" clip-rule="evenodd" d="M22.4235 8.66602C23.1127 8.66801 23.7166 9.12763 23.9022 9.79135L25.1422 12.598C25.2015 12.7259 25.2463 12.8601 25.2755 12.998C25.5092 14.2069 25.0092 15.44 23.9995 16.1447C23.1765 16.7154 22.1267 16.8482 21.1874 16.5005C20.2482 16.1528 19.5379 15.3684 19.2849 14.3993L19.0662 12.7887L18.2009 8.66602H22.4235Z" stroke="#00B998" stroke-width="1.5" stroke-linecap="round" stroke-linejoin="round"/>
<path d="M13.5875 7.91602C13.1733 7.91602 12.8375 8.2518 12.8375 8.66602C12.8375 9.08023 13.1733 9.41602 13.5875 9.41602V7.91602ZM18.2008 9.41602C18.615 9.41602 18.9508 9.08023 18.9508 8.66602C18.9508 8.2518 18.615 7.91602 18.2008 7.91602V9.41602ZM13.6827 12.8016C13.6898 12.3874 13.3599 12.0459 12.9457 12.0388C12.5316 12.0317 12.1901 12.3616 12.1829 12.7758L13.6827 12.8016ZM12.9195 13.5647L12.1695 13.5518V13.5647H12.9195ZM19.0715 13.5647H19.8215L19.8215 13.5595L19.0715 13.5647ZM19.8161 12.7835C19.8133 12.3693 19.4752 12.0359 19.061 12.0387C18.6468 12.0415 18.3133 12.3796 18.3162 12.7938L19.8161 12.7835ZM8.74943 16.1541C8.75465 15.7399 8.42312 15.4 8.00894 15.3947C7.59475 15.3895 7.25477 15.7211 7.24955 16.1352L8.74943 16.1541ZM7.92616 21.9673L7.17622 21.9579L7.17621 21.9583L7.92616 21.9673ZM8.6958 23.8737L9.22928 23.3465H9.22928L8.6958 23.8737ZM10.5928 24.666V23.916H10.5928L10.5928 24.666ZM13.2275 25.416C13.6417 25.416 13.9775 25.0802 13.9775 24.666C13.9775 24.2518 13.6417 23.916 13.2275 23.916V25.416ZM24.7494 16.158C24.7567 15.7439 24.427 15.4022 24.0128 15.3948C23.5987 15.3874 23.257 15.7172 23.2496 16.1314L24.7494 16.158ZM23.8955 21.9993L23.1455 21.986V21.9993H23.8955ZM18.5622 23.916C18.1479 23.916 17.8122 24.2518 17.8122 24.666C17.8122 25.0802 18.1479 25.416 18.5622 25.416V23.916ZM12.4788 24.666C12.4788 25.0802 12.8146 25.416 13.2288 25.416C13.643 25.416 13.9788 25.0802 13.9788 24.666H12.4788ZM17.8122 24.666C17.8122 25.0802 18.1479 25.416 18.5622 25.416C18.9764 25.416 19.3122 25.0802 19.3122 24.666H17.8122ZM13.2288 23.916C12.8146 23.916 12.4788 24.2518 12.4788 24.666C12.4788 25.0802 12.8146 25.416 13.2288 25.416V23.916ZM18.5622 25.416C18.9764 25.416 19.3122 25.0802 19.3122 24.666C19.3122 24.2518 18.9764 23.916 18.5622 23.916V25.416ZM13.5875 9.41602H18.2008V7.91602H13.5875V9.41602ZM12.1829 12.7758L12.1696 13.5518L13.6694 13.5776L13.6827 12.8016L12.1829 12.7758ZM12.1695 13.5647C12.1695 15.6777 13.8824 17.3907 15.9955 17.3907V15.8907C14.7109 15.8907 13.6695 14.8493 13.6695 13.5647H12.1695ZM15.9955 17.3907C18.1085 17.3907 19.8215 15.6777 19.8215 13.5647H18.3215C18.3215 14.8493 17.2801 15.8907 15.9955 15.8907V17.3907ZM19.8215 13.5595L19.8161 12.7835L18.3162 12.7938L18.3215 13.5698L19.8215 13.5595ZM7.24955 16.1352L7.17622 21.9579L8.6761 21.9768L8.74943 16.1541L7.24955 16.1352ZM7.17621 21.9583C7.16525 22.8716 7.52038 23.7512 8.16232 24.4008L9.22928 23.3465C8.86917 22.9821 8.66995 22.4887 8.6761 21.9763L7.17621 21.9583ZM8.16232 24.4008C8.80426 25.0505 9.67957 25.4161 10.5929 25.416L10.5928 23.916C10.0804 23.9161 9.5894 23.711 9.22928 23.3465L8.16232 24.4008ZM10.5928 25.416H13.2275V23.916H10.5928V25.416ZM23.2496 16.1314L23.1456 21.986L24.6454 22.0127L24.7494 16.158L23.2496 16.1314ZM23.1455 21.9993C23.1455 23.0579 22.2874 23.916 21.2288 23.916V25.416C23.1158 25.416 24.6455 23.8863 24.6455 21.9993H23.1455ZM21.2288 23.916H18.5622V25.416H21.2288V23.916ZM13.9788 24.666V23.3327H12.4788V24.666H13.9788ZM13.9788 23.3327C13.9788 22.2741 14.8369 21.416 15.8955 21.416V19.916C14.0085 19.916 12.4788 21.4457 12.4788 23.3327H13.9788ZM15.8955 21.416C16.954 21.416 17.8122 22.2741 17.8122 23.3327H19.3122C19.3122 21.4457 17.7825 19.916 15.8955 19.916V21.416ZM17.8122 23.3327V24.666H19.3122V23.3327H17.8122ZM13.2288 25.416H18.5622V23.916H13.2288V25.416Z" fill="#00B998"/>
</svg>
