<svg width="42" height="39" viewBox="0 0 42 39" fill="none" xmlns="http://www.w3.org/2000/svg">
<path d="M15.2138 11.5764C15.2138 11.1622 14.878 10.8264 14.4638 10.8264C14.0495 10.8264 13.7138 11.1622 13.7138 11.5764H15.2138ZM28.2868 11.5764C28.2868 11.1622 27.951 10.8264 27.5368 10.8264C27.1225 10.8264 26.7868 11.1622 26.7868 11.5764H28.2868ZM13.7139 11.5635C13.7068 11.9777 14.0367 12.3192 14.4509 12.3263C14.865 12.3334 15.2065 12.0035 15.2136 11.5893L13.7139 11.5635ZM15.242 9.9403C15.2491 9.52615 14.9191 9.18464 14.505 9.17753C14.0908 9.17041 13.7493 9.50038 13.7422 9.91453L15.242 9.9403ZM15.1912 11.7589C15.292 11.3571 15.048 10.9497 14.6462 10.8489C14.2444 10.7482 13.8371 10.9922 13.7363 11.394L15.1912 11.7589ZM14.0189 13.3501L14.7446 13.5396L14.7464 13.5325L14.0189 13.3501ZM9.97602 17.8151L10.2364 18.5185L9.97602 17.8151ZM4.42763 16.4426C4.08724 16.2066 3.61997 16.2912 3.38393 16.6315C3.1479 16.9719 3.2325 17.4392 3.57289 17.6752L4.42763 16.4426ZM4.75022 17.0666C4.75446 16.6524 4.42213 16.3132 4.00794 16.309C3.59375 16.3047 3.25454 16.637 3.2503 17.0512L4.75022 17.0666ZM3.84442 32.2654L4.59437 32.2744L4.59438 32.2731L3.84442 32.2654ZM5.47992 36.3164L4.94643 36.8435H4.94643L5.47992 36.3164ZM9.51109 38.0001V37.2501H9.51104L9.51109 38.0001ZM15.3336 38.7501C15.7478 38.7501 16.0836 38.4143 16.0836 38.0001C16.0836 37.5859 15.7478 37.2501 15.3336 37.2501V38.7501ZM3.57102 17.6739C3.91069 17.911 4.37822 17.8278 4.61528 17.4882C4.85234 17.1485 4.76916 16.681 4.4295 16.4439L3.57102 17.6739ZM1.39076 9.92741L0.687691 9.66627C0.679355 9.68871 0.672099 9.71154 0.665947 9.73467L1.39076 9.92741ZM3.75659 3.55808L4.45966 3.81923C4.46688 3.79977 4.4733 3.78002 4.47889 3.76003L3.75659 3.55808ZM6.89876 1.16675V0.416745L6.89659 0.416751L6.89876 1.16675ZM35.0989 1.16675L35.1011 0.416748H35.0989V1.16675ZM38.2411 3.55808L37.5188 3.76003C37.5244 3.77998 37.5308 3.7997 37.538 3.81913L38.2411 3.55808ZM40.6069 9.93025L41.3318 9.73759C41.3256 9.71446 41.3184 9.69164 41.31 9.6692L40.6069 9.93025ZM37.5707 16.4441C37.2311 16.6814 37.1482 17.149 37.3855 17.4885C37.6227 17.828 38.0903 17.911 38.4298 17.6737L37.5707 16.4441ZM14.5836 38.0001C14.5836 38.4143 14.9194 38.7501 15.3336 38.7501C15.7478 38.7501 16.0836 38.4143 16.0836 38.0001H14.5836ZM25.9169 38.0001C25.9169 38.4143 26.2527 38.7501 26.6669 38.7501C27.0811 38.7501 27.4169 38.4143 27.4169 38.0001H25.9169ZM15.3336 37.2501C14.9194 37.2501 14.5836 37.5859 14.5836 38.0001C14.5836 38.4143 14.9194 38.7501 15.3336 38.7501V37.2501ZM26.6669 38.7501C27.0811 38.7501 27.4169 38.4143 27.4169 38.0001C27.4169 37.5859 27.0811 37.2501 26.6669 37.2501V38.7501ZM26.7868 11.5854C26.7918 11.9996 27.1316 12.3313 27.5458 12.3264C27.96 12.3214 28.2917 11.9816 28.2867 11.5674L26.7868 11.5854ZM28.2669 9.9184C28.2619 9.50421 27.9221 9.17249 27.5079 9.17747C27.0937 9.18245 26.762 9.52225 26.767 9.93644L28.2669 9.9184ZM28.2725 11.3931C28.1713 10.9915 27.7636 10.7479 27.362 10.8492C26.9603 10.9504 26.7168 11.358 26.818 11.7597L28.2725 11.3931ZM27.9901 13.3416L27.2628 13.5249L27.2644 13.5308L27.9901 13.3416ZM32.0273 17.8065L31.7662 18.5096L32.0273 17.8065ZM38.4266 17.676C38.7674 17.4405 38.8528 16.9734 38.6173 16.6326C38.3818 16.2918 37.9147 16.2064 37.5739 16.4419L38.4266 17.676ZM38.7502 17.0517C38.7462 16.6375 38.4072 16.3049 37.993 16.309C37.5788 16.313 37.2463 16.652 37.2503 17.0662L38.7502 17.0517ZM38.1476 32.2654L37.3976 32.2727L37.3976 32.2744L38.1476 32.2654ZM36.5121 36.3164L35.9786 35.7892L36.5121 36.3164ZM32.4809 38.0001L32.481 37.2501H32.4809V38.0001ZM26.6669 37.2501C26.2527 37.2501 25.9169 37.5859 25.9169 38.0001C25.9169 38.4143 26.2527 38.7501 26.6669 38.7501V37.2501ZM13.7138 11.5764C13.7138 15.6006 16.976 18.8629 21.0003 18.8629V17.3629C17.8045 17.3629 15.2138 14.7722 15.2138 11.5764H13.7138ZM21.0003 18.8629C25.0245 18.8629 28.2868 15.6006 28.2868 11.5764H26.7868C26.7868 14.7722 24.1961 17.3629 21.0003 17.3629V18.8629ZM15.2136 11.5893L15.242 9.9403L13.7422 9.91453L13.7139 11.5635L15.2136 11.5893ZM13.7363 11.394L13.2915 13.1676L14.7464 13.5325L15.1912 11.7589L13.7363 11.394ZM13.2933 13.1606C12.8175 14.9828 11.4818 16.4579 9.71564 17.1118L10.2364 18.5185C12.462 17.6946 14.145 15.8358 14.7446 13.5396L13.2933 13.1606ZM9.71564 17.1118C7.94945 17.7656 5.97528 17.5158 4.42763 16.4426L3.57289 17.6752C5.5231 19.0276 8.01079 19.3424 10.2364 18.5185L9.71564 17.1118ZM3.2503 17.0512L3.09446 32.2577L4.59438 32.2731L4.75022 17.0666L3.2503 17.0512ZM3.09448 32.2564C3.07389 33.9715 3.74084 35.6235 4.94643 36.8435L6.0134 35.7892C5.08963 34.8544 4.5786 33.5886 4.59437 32.2744L3.09448 32.2564ZM4.94643 36.8435C6.15203 38.0636 7.79591 38.7502 9.51114 38.7501L9.51104 37.2501C8.19677 37.2502 6.93717 36.7241 6.0134 35.7892L4.94643 36.8435ZM9.51109 38.7501H15.3336V37.2501H9.51109V38.7501ZM4.4295 16.4439C2.40599 15.0316 1.48142 12.5049 2.11557 10.1202L0.665947 9.73467C-0.13021 12.7286 1.03056 15.9009 3.57102 17.6739L4.4295 16.4439ZM2.09382 10.1886L4.45966 3.81923L3.05352 3.29693L0.687691 9.66627L2.09382 10.1886ZM4.47889 3.76003C4.78284 2.67287 5.77209 1.92001 6.90093 1.91674L6.89659 0.416751C5.09648 0.421961 3.51899 1.6225 3.03429 3.35614L4.47889 3.76003ZM6.89876 1.91675H35.0989V0.416748H6.89876V1.91675ZM35.0968 1.91674C36.2256 1.92001 37.2148 2.67287 37.5188 3.76003L38.9634 3.35614C38.4787 1.6225 36.9012 0.421961 35.1011 0.416751L35.0968 1.91674ZM37.538 3.81913L39.9038 10.1913L41.31 9.6692L38.9442 3.29704L37.538 3.81913ZM39.8821 10.1229C40.5156 12.5063 39.5922 15.0316 37.5707 16.4441L38.4298 17.6737C40.9678 15.9003 42.1271 12.7299 41.3318 9.73759L39.8821 10.1229ZM16.0836 38.0001V29.5001H14.5836V38.0001H16.0836ZM16.0836 29.5001C16.0836 28.3495 17.0163 27.4167 18.1669 27.4167V25.9167C16.1879 25.9167 14.5836 27.5211 14.5836 29.5001H16.0836ZM18.1669 27.4167H23.8336V25.9167H18.1669V27.4167ZM23.8336 27.4167C24.9842 27.4167 25.9169 28.3495 25.9169 29.5001H27.4169C27.4169 27.5211 25.8126 25.9167 23.8336 25.9167V27.4167ZM25.9169 29.5001V38.0001H27.4169V29.5001H25.9169ZM15.3336 38.7501H26.6669V37.2501H15.3336V38.7501ZM28.2867 11.5674L28.2669 9.9184L26.767 9.93644L26.7868 11.5854L28.2867 11.5674ZM26.818 11.7597L27.2628 13.5249L28.7174 13.1583L28.2725 11.3931L26.818 11.7597ZM27.2644 13.5308C27.8627 15.8256 29.5431 17.684 31.7662 18.5096L32.2884 17.1034C30.5242 16.4483 29.1906 14.9734 28.7158 13.1524L27.2644 13.5308ZM31.7662 18.5096C33.9894 19.3352 36.4755 19.024 38.4266 17.676L37.5739 16.4419C36.0256 17.5116 34.0527 17.7586 32.2884 17.1034L31.7662 18.5096ZM37.2503 17.0662L37.3976 32.2727L38.8976 32.2582L38.7502 17.0517L37.2503 17.0662ZM37.3976 32.2744C37.4134 33.5886 36.9024 34.8544 35.9786 35.7892L37.0456 36.8435C38.2512 35.6235 38.9181 33.9715 38.8975 32.2564L37.3976 32.2744ZM35.9786 35.7892C35.0548 36.7241 33.7952 37.2502 32.481 37.2501L32.4809 38.7501C34.1961 38.7502 35.84 38.0636 37.0456 36.8435L35.9786 35.7892ZM32.4809 37.2501H26.6669V38.7501H32.4809V37.2501Z" fill="white"/>
</svg>
