<svg width="19" height="20" viewBox="0 0 19 20" fill="none" xmlns="http://www.w3.org/2000/svg">
<path d="M4.73192 10.5213C5.0198 10.8191 5.49461 10.8271 5.79243 10.5392C6.09024 10.2514 6.09829 9.77655 5.8104 9.47873L4.73192 10.5213ZM1.58123 5.10373C1.29335 4.80592 0.81854 4.79787 0.520726 5.08576C0.222911 5.37365 0.214863 5.84845 0.502751 6.14627L1.58123 5.10373ZM1.04199 4.875C0.627779 4.875 0.291992 5.21079 0.291992 5.625C0.291992 6.03921 0.627779 6.375 1.04199 6.375V4.875ZM17.9587 6.375C18.3729 6.375 18.7087 6.03921 18.7087 5.625C18.7087 5.21079 18.3729 4.875 17.9587 4.875V6.375ZM0.502751 5.10373C0.214863 5.40155 0.222911 5.87635 0.520726 6.16424C0.81854 6.45213 1.29335 6.44408 1.58123 6.14627L0.502751 5.10373ZM5.8104 1.77127C6.09829 1.47345 6.09024 0.998646 5.79243 0.710759C5.49461 0.422871 5.0198 0.430919 4.73192 0.728733L5.8104 1.77127ZM14.2687 9.47873C13.9808 9.18092 13.506 9.17287 13.2082 9.46076C12.9104 9.74865 12.9024 10.2235 13.1903 10.5213L14.2687 9.47873ZM17.4194 14.8963C17.7073 15.1941 18.1821 15.2021 18.4799 14.9142C18.7777 14.6264 18.7858 14.1515 18.4979 13.8537L17.4194 14.8963ZM17.9587 15.125C18.3729 15.125 18.7087 14.7892 18.7087 14.375C18.7087 13.9608 18.3729 13.625 17.9587 13.625V15.125ZM1.04199 13.625C0.627779 13.625 0.291992 13.9608 0.291992 14.375C0.291992 14.7892 0.627779 15.125 1.04199 15.125V13.625ZM18.4979 14.8963C18.7858 14.5985 18.7777 14.1236 18.4799 13.8358C18.1821 13.5479 17.7073 13.5559 17.4194 13.8537L18.4979 14.8963ZM13.1903 18.2287C12.9024 18.5265 12.9104 19.0014 13.2082 19.2892C13.506 19.5771 13.9808 19.5691 14.2687 19.2713L13.1903 18.2287ZM5.8104 9.47873L1.58123 5.10373L0.502751 6.14627L4.73192 10.5213L5.8104 9.47873ZM1.04199 6.375H17.9587V4.875H1.04199V6.375ZM1.58123 6.14627L5.8104 1.77127L4.73192 0.728733L0.502751 5.10373L1.58123 6.14627ZM13.1903 10.5213L17.4194 14.8963L18.4979 13.8537L14.2687 9.47873L13.1903 10.5213ZM17.9587 13.625H1.04199V15.125H17.9587V13.625ZM17.4194 13.8537L13.1903 18.2287L14.2687 19.2713L18.4979 14.8963L17.4194 13.8537Z" fill="#243249"/>
</svg>
