<svg width="20" height="22" viewBox="0 0 20 22" fill="none" xmlns="http://www.w3.org/2000/svg">
<path fill-rule="evenodd" clip-rule="evenodd" d="M15 6.02539C15 8.78681 12.7614 11.0254 10 11.0254C7.23858 11.0254 5 8.78681 5 6.02539C5 3.26397 7.23858 1.02539 10 1.02539C11.3261 1.02539 12.5979 1.55217 13.5355 2.48986C14.4732 3.42754 15 4.69931 15 6.02539Z" stroke="#243249" stroke-width="1.875" stroke-linecap="round" stroke-linejoin="round"/>
<path d="M10.9375 11.0253C10.9375 10.5075 10.5178 10.0878 10 10.0878C9.48223 10.0878 9.0625 10.5075 9.0625 11.0253H10.9375ZM9.0625 18.5253C9.0625 19.043 9.48223 19.4628 10 19.4628C10.5178 19.4628 10.9375 19.043 10.9375 18.5253H9.0625ZM9.90058 3.10929C9.38573 3.1642 9.01288 3.62608 9.06779 4.14093C9.1227 4.65578 9.58458 5.02863 10.0994 4.97372L9.90058 3.10929ZM11.6008 5.85655C11.8031 6.33316 12.3534 6.55554 12.83 6.35324C13.3067 6.15094 13.529 5.60057 13.3267 5.12396L11.6008 5.85655ZM6.2215 16.9578C6.73653 16.9047 7.11096 16.4441 7.05782 15.929C7.00468 15.414 6.54408 15.0396 6.02905 15.0927L6.2215 16.9578ZM2.05777 17.2828L1.6109 16.4586C1.58881 16.4706 1.56721 16.4835 1.54615 16.4972L2.05777 17.2828ZM1.51277 19.0328L0.791179 19.6313C0.823656 19.6704 0.859267 19.7069 0.897658 19.7403L1.51277 19.0328ZM4.73152 20.4953L4.93575 19.5803C4.91065 19.5747 4.88532 19.5701 4.85983 19.5666L4.73152 20.4953ZM10.0003 21.0253L10.018 20.0879C10.0061 20.0877 9.99423 20.0877 9.98237 20.0879L10.0003 21.0253ZM15.269 20.494L15.1394 19.5655C15.1143 19.569 15.0893 19.5736 15.0646 19.5791L15.269 20.494ZM18.4878 19.0253L19.1042 19.7316C19.1416 19.699 19.1763 19.6634 19.2081 19.6253L18.4878 19.0253ZM17.9428 17.2753L18.456 16.4908C18.434 16.4763 18.4114 16.4628 18.3882 16.4503L17.9428 17.2753ZM13.97 15.0926C13.4549 15.0402 12.9949 15.4154 12.9426 15.9305C12.8902 16.4456 13.2654 16.9056 13.7805 16.958L13.97 15.0926ZM9.0625 11.0253V18.5253H10.9375V11.0253H9.0625ZM10.0994 4.97372C10.7396 4.90544 11.3492 5.26388 11.6008 5.85655L13.3267 5.12396C12.7527 3.77145 11.3616 2.95347 9.90058 3.10929L10.0994 4.97372ZM6.02905 15.0927C4.48072 15.2525 2.97924 15.7167 1.6109 16.4586L2.50464 18.1069C3.65578 17.4827 4.91894 17.0922 6.2215 16.9578L6.02905 15.0927ZM1.54615 16.4972C1.04392 16.8243 0.578771 17.2686 0.39332 17.8639C0.186661 18.5274 0.392766 19.1509 0.791179 19.6313L2.23436 18.4343C2.18297 18.3723 2.18081 18.3473 2.18434 18.3614C2.18952 18.3821 2.1877 18.408 2.18347 18.4216C2.18148 18.428 2.18993 18.3956 2.24984 18.3285C2.31024 18.2608 2.41099 18.1715 2.5694 18.0684L1.54615 16.4972ZM0.897658 19.7403C1.94321 20.6493 3.23078 21.2343 4.60321 21.4239L4.85983 19.5666C3.84799 19.4268 2.89873 18.9955 2.12789 18.3253L0.897658 19.7403ZM4.52729 21.4103C6.32905 21.8124 8.17241 21.9979 10.0182 21.9626L9.98237 20.0879C8.28595 20.1203 6.59173 19.9499 4.93575 19.5803L4.52729 21.4103ZM9.98259 21.9626C11.8284 21.9974 13.6718 21.8116 15.4735 21.409L15.0646 19.5791C13.4086 19.9491 11.7144 20.1199 10.018 20.0879L9.98259 21.9626ZM15.3986 21.4225C16.7718 21.2308 18.0595 20.6433 19.1042 19.7316L17.8714 18.3189C17.1012 18.991 16.1518 19.4242 15.1394 19.5655L15.3986 21.4225ZM19.2081 19.6253C19.6079 19.1453 19.8139 18.5218 19.6072 17.8583C19.422 17.2637 18.9576 16.8189 18.456 16.4908L17.4295 18.0598C17.5882 18.1636 17.6893 18.2534 17.75 18.3216C17.8103 18.3893 17.819 18.4221 17.8171 18.416C17.8129 18.4026 17.8109 18.3764 17.8163 18.3548C17.8201 18.3399 17.8184 18.3641 17.7674 18.4252L19.2081 19.6253ZM18.3882 16.4503C17.0192 15.7112 15.5178 15.2498 13.97 15.0926L13.7805 16.958C15.0826 17.0902 16.3457 17.4784 17.4974 18.1002L18.3882 16.4503Z" fill="#243249"/>
</svg>
