<svg width="22" height="23" viewBox="0 0 22 23" fill="none" xmlns="http://www.w3.org/2000/svg">
<g clip-path="url(#clip0_5323_77160)">
<path d="M11 6.50781C10.838 6.50781 10.6825 6.5722 10.5679 6.6868C10.4533 6.80141 10.3889 6.95685 10.3889 7.11892V12.4478L13.9945 14.8923C14.1298 14.9782 14.2935 15.0075 14.4502 14.9739C14.607 14.9403 14.7443 14.8464 14.8325 14.7126C14.9207 14.5787 14.9527 14.4155 14.9217 14.2582C14.8907 14.1009 14.7991 13.9621 14.6667 13.8717L11.6111 11.8V7.11892C11.6111 6.95685 11.5468 6.80141 11.4321 6.6868C11.3175 6.5722 11.1621 6.50781 11 6.50781V6.50781Z" fill="#3D4C66"/>
<path d="M10.9999 1.72266C9.25415 1.72877 7.54147 2.19958 6.03786 3.0867C4.53426 3.97383 3.29395 5.24529 2.44439 6.77043V3.67821C2.44439 3.51614 2.38001 3.3607 2.2654 3.24609C2.15079 3.13149 1.99536 3.0671 1.83328 3.0671C1.6712 3.0671 1.51576 3.13149 1.40116 3.24609C1.28655 3.3607 1.22217 3.51614 1.22217 3.67821V9.05599H6.59995C6.76202 9.05599 6.91746 8.9916 7.03207 8.877C7.14667 8.76239 7.21106 8.60696 7.21106 8.44488C7.21106 8.2828 7.14667 8.12736 7.03207 8.01276C6.91746 7.89815 6.76202 7.83377 6.59995 7.83377H3.26939C4.04014 6.20711 5.30431 4.86498 6.882 3.99839C8.45969 3.1318 10.2705 2.78488 12.0568 3.00702C13.843 3.22916 15.5137 4.00903 16.8311 5.23565C18.1485 6.46227 19.0454 8.07315 19.3943 9.83905C19.7431 11.6049 19.5261 13.4359 18.7742 15.0713C18.0222 16.7067 16.7736 18.0633 15.206 18.948C13.6384 19.8327 11.8317 20.2005 10.043 19.9989C8.25426 19.7974 6.57469 19.0368 5.24328 17.8254C5.18389 17.7713 5.11442 17.7293 5.03882 17.702C4.96323 17.6747 4.88299 17.6625 4.80269 17.6662C4.72239 17.6699 4.64361 17.6894 4.57084 17.7235C4.49806 17.7576 4.43273 17.8058 4.37856 17.8652C4.32439 17.9245 4.28244 17.994 4.25512 18.0696C4.2278 18.1452 4.21564 18.2254 4.21933 18.3057C4.22302 18.386 4.24248 18.4648 4.27662 18.5376C4.31076 18.6104 4.35889 18.6757 4.41828 18.7299C5.59293 19.7995 7.01053 20.5669 8.54842 20.9655C10.0863 21.3641 11.6982 21.3819 13.2445 21.0175C14.7908 20.6531 16.2251 19.9173 17.4232 18.8739C18.6212 17.8306 19.547 16.511 20.1204 15.0293C20.6937 13.5477 20.8975 11.9487 20.7139 10.3706C20.5303 8.79254 19.965 7.28298 19.0668 5.97254C18.1686 4.6621 16.9646 3.59025 15.5591 2.84975C14.1535 2.10924 12.5887 1.72239 10.9999 1.72266V1.72266Z" fill="#3D4C66"/>
</g>
<defs>
<clipPath id="clip0_5323_77160">
<rect width="22" height="22" fill="white" transform="translate(0 0.5)"/>
</clipPath>
</defs>
</svg>
