<svg width="24" height="24" viewBox="0 0 24 24" fill="none" xmlns="http://www.w3.org/2000/svg">
<g clip-path="url(#clip0_5314_75922)">
<path d="M13 18.7336H11.0666C10.7333 18.7336 10.4666 18.5336 10.4 18.2003L10.0666 17.0003L9.79997 16.8669L8.7333 17.4669C8.46663 17.6003 8.1333 17.6003 7.9333 17.3336L6.5333 15.9336C6.3333 15.7336 6.26663 15.4003 6.39997 15.1336L6.99997 14.0669L6.86663 13.8003L5.66663 13.4669C5.39997 13.4003 5.1333 13.1336 5.1333 12.8003V10.8669C5.1333 10.5336 5.3333 10.2669 5.66663 10.2003L6.86663 9.86693L6.99997 9.60026L6.39997 8.53359C6.26663 8.26693 6.26663 7.93359 6.5333 7.73359L7.9333 6.33359C8.1333 6.13359 8.46663 6.06693 8.7333 6.20026L9.79997 6.80026L10.0666 6.66693L10.4 5.46693C10.4666 5.20026 10.7333 4.93359 11.0666 4.93359H13C13.3333 4.93359 13.6 5.13359 13.6666 5.46693L14 6.66693L14.2666 6.80026L15.3333 6.20026C15.6 6.06693 15.9333 6.06693 16.1333 6.33359L17.5333 7.73359C17.7333 7.93359 17.8 8.26693 17.6666 8.53359L17.0666 9.60026L17.2 9.86693L18.4 10.2003C18.6666 10.2669 18.9333 10.5336 18.9333 10.8669V12.8003C18.9333 13.1336 18.7333 13.4003 18.4 13.4669L17.2 13.8003L17.0666 14.0669L17.6666 15.1336C17.8 15.4003 17.8 15.7336 17.5333 15.9336L16.1333 17.3336C15.9333 17.5336 15.6 17.6003 15.3333 17.4669L14.2666 16.8669L14 17.0003L13.6666 18.2003C13.5333 18.5336 13.2666 18.7336 13 18.7336ZM11.5333 17.4003H12.4666L12.8 16.0003L13.1333 15.8669C13.4 15.8003 13.6 15.6669 13.8666 15.6003L14.2 15.4003L15.4666 16.1336L16.1333 15.4669L15.4 14.2003L15.6 13.8669C15.7333 13.6669 15.8 13.4003 15.8666 13.1336L16 12.8003L17.4 12.4669V11.5336L16 11.2003L15.8666 10.8669C15.8 10.6003 15.6666 10.4003 15.6 10.1336L15.4 9.80026L16.1333 8.53359L15.4666 7.86693L14.2 8.60026L13.8666 8.40026C13.6666 8.26693 13.4 8.20026 13.1333 8.13359L12.8 8.00026L12.4666 6.60026H11.5333L11.2 8.00026L10.8666 8.13359C10.6 8.20026 10.4 8.33359 10.1333 8.40026L9.79997 8.60026L8.5333 7.86693L7.86663 8.53359L8.59997 9.80026L8.39997 10.1336C8.26663 10.3336 8.19997 10.6003 8.1333 10.8669L7.99997 11.2003L6.59997 11.5336V12.4669L7.99997 12.8003L8.1333 13.1336C8.19997 13.4003 8.3333 13.6003 8.39997 13.8669L8.59997 14.2003L7.86663 15.4669L8.5333 16.1336L9.79997 15.4003L10.1333 15.6003C10.3333 15.7336 10.6 15.8003 10.8666 15.8669L11.2 16.0003L11.5333 17.4003Z" fill="#B0BEC9"/>
<path d="M12 14.8661C10.4 14.8661 9.1333 13.5995 9.1333 11.9995C9.1333 10.3995 10.4 9.13281 12 9.13281C13.6 9.13281 14.8666 10.3995 14.8666 11.9995C14.8666 13.5995 13.6 14.8661 12 14.8661ZM12 10.4661C11.1333 10.4661 10.4666 11.1328 10.4666 11.9995C10.4666 12.8661 11.1333 13.5328 12 13.5328C12.8666 13.5328 13.5333 12.8661 13.5333 11.9995C13.5333 11.1328 12.8666 10.4661 12 10.4661Z" fill="#B0BEC9"/>
<path d="M12.0002 1.33398C11.6002 1.33398 11.3335 1.60065 11.3335 2.00065C11.3335 2.40065 11.6002 2.66732 12.0002 2.66732C17.1335 2.66732 21.3335 6.86732 21.3335 12.0007C21.3335 17.134 17.1335 21.334 12.0002 21.334C6.86683 21.334 2.66683 17.134 2.66683 12.0007C2.66683 10.134 3.20016 8.33398 4.26683 6.80065V7.60065C4.26683 8.00065 4.5335 8.26732 4.9335 8.26732C5.3335 8.26732 5.60016 8.00065 5.60016 7.60065V4.26732H2.26683C1.86683 4.26732 1.60016 4.53398 1.60016 4.93398C1.60016 5.33398 1.86683 5.60065 2.26683 5.60065H3.46683C2.06683 7.40065 1.3335 9.66732 1.3335 12.0007C1.3335 17.8673 6.1335 22.6673 12.0002 22.6673C17.8668 22.6673 22.6668 17.8673 22.6668 12.0007C22.6668 6.13398 17.8668 1.33398 12.0002 1.33398Z" fill="#B0BEC9"/>
</g>
<defs>
<clipPath id="clip0_5314_75922">
<rect width="24" height="24" fill="white"/>
</clipPath>
</defs>
</svg>
