<svg width="28" height="28" viewBox="0 0 28 28" fill="none" xmlns="http://www.w3.org/2000/svg">
<path d="M23.7651 7.07031L22.4264 8.19906C23.8017 9.82826 24.5349 11.9036 24.4882 14.0352C24.4414 16.1668 23.618 18.2079 22.1726 19.7753L23.4589 21.0003C25.1946 19.1195 26.1836 16.6695 26.24 14.1107C26.2963 11.552 25.4163 9.0608 23.7651 7.10531V7.07031Z" fill="#758696"/>
<path d="M18.8825 10.4998C19.7075 11.478 20.1468 12.7239 20.1178 14.0033C20.0888 15.2827 19.5935 16.5074 18.725 17.4473L20.0113 18.6373C21.1688 17.3828 21.8281 15.7487 21.8651 14.0422C21.9022 12.3357 21.3145 10.6745 20.2125 9.37101L18.8825 10.4998ZM15.75 26.2498C15.6342 26.2493 15.5197 26.2258 15.4131 26.1808C15.3064 26.1357 15.2098 26.0699 15.1288 25.9873L8.46125 19.2498H2.625C2.39294 19.2498 2.17038 19.1576 2.00628 18.9935C1.84219 18.8294 1.75 18.6068 1.75 18.3748V9.62476C1.75 9.39269 1.84219 9.17013 2.00628 9.00604C2.17038 8.84194 2.39294 8.74976 2.625 8.74976H8.46125L15.1288 2.01226C15.2927 1.84929 15.5145 1.75781 15.7456 1.75781C15.9768 1.75781 16.1986 1.84929 16.3625 2.01226C16.5274 2.17381 16.6217 2.39396 16.625 2.62476V25.3748C16.625 25.6068 16.5328 25.8294 16.3687 25.9935C16.2046 26.1576 15.9821 26.2498 15.75 26.2498ZM3.5 17.4998H8.82C8.93577 17.5002 9.05029 17.5237 9.15693 17.5687C9.26357 17.6138 9.36021 17.6796 9.44125 17.7623L14.875 23.2485V4.75101L9.44125 10.2373C9.36021 10.3199 9.26357 10.3857 9.15693 10.4308C9.05029 10.4758 8.93577 10.4993 8.82 10.4998H3.5V17.4998Z" fill="#758696"/>
</svg>
