<svg width="14" height="14" viewBox="0 0 14 14" fill="none" xmlns="http://www.w3.org/2000/svg">
<path d="M8.17789 6.9864L13.1741 2.20635L13.1811 2.19965L13.1876 2.19244C13.3324 2.03057 13.4098 1.82024 13.401 1.60329C13.3922 1.3864 13.2983 1.18288 13.1413 1.0327C12.9846 0.882818 12.7767 0.796718 12.5596 0.788695C12.3425 0.780673 12.1287 0.851156 11.9609 0.988586L11.9535 0.99468L11.9466 1.00133L6.93447 5.79657L1.92228 0.995446L1.92217 0.995342C1.75675 0.837077 1.53466 0.75 1.30527 0.75C1.07589 0.75 0.853798 0.837077 0.688376 0.995342C0.522578 1.15397 0.427261 1.37153 0.427261 1.60084C0.427261 1.83016 0.522578 2.04772 0.688376 2.20635L0.688485 2.20645L5.69061 6.9864L0.694799 11.7603C0.606485 11.8345 0.533888 11.9254 0.481913 12.0282C0.428365 12.1341 0.398031 12.2499 0.393248 12.3684C0.388464 12.4869 0.409362 12.6048 0.454321 12.7146C0.499267 12.8244 0.567111 12.9233 0.652944 13.0054C0.738749 13.0875 0.840713 13.1511 0.952136 13.1929C1.06354 13.2346 1.18241 13.2538 1.3014 13.2494C1.4204 13.245 1.53751 13.2171 1.64544 13.1671C1.75018 13.1187 1.84442 13.0502 1.92226 12.9654L6.93426 8.17603L11.9466 12.9715L11.9535 12.9781L11.9609 12.9842C12.1287 13.1216 12.3425 13.1921 12.5596 13.1841C12.7767 13.1761 12.9846 13.09 13.1413 12.9401C13.2983 12.7899 13.3922 12.5864 13.401 12.3695C13.4098 12.1526 13.3324 11.9422 13.1876 11.7804L13.1811 11.7731L13.1741 11.7665L8.17789 6.9864Z" fill="#243249" stroke="#3D4C66" stroke-width="0.5"/>
</svg>
