<?xml version="1.0" standalone="no"?>
<!DOCTYPE svg PUBLIC "-//W3C//DTD SVG 20010904//EN"
 "http://www.w3.org/TR/2001/REC-SVG-20010904/DTD/svg10.dtd">
<svg version="1.0" xmlns="http://www.w3.org/2000/svg"
 width="800.000000pt" height="800.000000pt" viewBox="0 0 800.000000 800.000000"
 preserveAspectRatio="xMidYMid meet">
<metadata>
Created by potrace 1.11, written by Peter Selinger 2001-2013
</metadata>
<g transform="translate(0.000000,800.000000) scale(0.100000,-0.100000)"
fill="#000000" stroke="none">
<path d="M5818 7998 c0 -2 -2 -495 -3 -1096 l-1 -1092 1094 0 1094 0 -7 88
c-58 752 -473 1410 -1140 1805 -67 39 -256 127 -348 161 -140 52 -358 105
-497 120 -79 9 -190 17 -192 14z"/>
<path d="M2904 7441 c-2 -2 -4 -495 -4 -1096 l0 -1091 1093 0 1092 1 0 1095 0
1095 -1088 0 c-599 0 -1090 -2 -1093 -4z"/>
<path d="M2543 7429 c-69 -8 -91 -12 -173 -29 -30 -6 -67 -13 -81 -15 -174
-31 -583 -209 -729 -317 -201 -150 -243 -184 -349 -289 -119 -119 -185 -199
-283 -344 -184 -273 -306 -587 -363 -930 -9 -55 -20 -215 -16 -241 1 -7 325
-10 1089 -10 l1087 1 3 1093 2 1093 -62 -2 c-35 -2 -91 -6 -125 -10z"/>
<path d="M559 5082 c-14 -2 -15 -129 -15 -1090 l1 -1087 1093 -2 1092 -2 0
1090 c0 864 -3 1089 -12 1090 -32 3 -2146 4 -2159 1z"/>
<path d="M5259 5066 c-1 -27 -1 -2149 0 -2158 1 -4 493 -6 1094 -5 l1092 2 0
1090 0 1090 -1092 1 -1093 1 -1 -21z"/>
<path d="M2998 2732 l-98 -3 0 -1093 0 -1093 1093 1 1092 1 1 1093 2 1092
-272 0 c-149 0 -597 1 -996 3 -399 1 -769 1 -822 -1z"/>
<path d="M5298 2732 c-31 -3 -38 -7 -39 -25 -1 -28 -1 -2091 0 -2135 1 -32 1
-33 44 -28 23 3 70 8 103 11 61 5 116 12 164 21 14 3 36 7 50 9 101 17 326 87
440 137 415 181 759 468 1006 840 176 263 304 592 350 892 3 21 7 48 9 59 3
11 7 52 10 91 4 39 8 83 9 99 l3 27 -91 0 c-50 0 -525 1 -1056 3 -531 1 -982
1 -1002 -1z"/>
<path d="M549 2715 c-2 -17 3 -137 6 -154 2 -9 8 -52 15 -96 6 -44 15 -96 20
-115 5 -19 12 -50 15 -69 9 -55 74 -248 117 -351 150 -358 417 -699 732 -934
63 -47 117 -86 120 -86 3 0 26 -14 51 -31 124 -83 378 -196 555 -247 198 -56
436 -93 538 -83 9 1 12 225 12 1086 0 861 -3 1085 -12 1086 -7 0 -498 2 -1091
2 -712 1 -1077 -1 -1078 -8z"/>
</g>
</svg>
