<svg width="20" height="24" viewBox="0 0 20 24" fill="none" xmlns="http://www.w3.org/2000/svg">
<path fill-rule="evenodd" clip-rule="evenodd" d="M18.75 13.9004C18.75 18.7329 14.8325 22.6504 10 22.6504C5.16751 22.6504 1.25 18.7329 1.25 13.9004C1.25 9.0679 5.16751 5.15039 10 5.15039C12.3206 5.15039 14.5462 6.07226 16.1872 7.71321C17.8281 9.35415 18.75 11.5797 18.75 13.9004Z" stroke="#243249" stroke-width="1.875" stroke-linecap="round" stroke-linejoin="round"/>
<path fill-rule="evenodd" clip-rule="evenodd" d="M11.25 14.4814C11.25 15.517 10.4105 16.3564 9.375 16.3564C8.33947 16.3564 7.5 15.517 7.5 14.4814C7.5 13.4459 8.33947 12.6064 9.375 12.6064C10.4105 12.6064 11.25 13.4459 11.25 14.4814Z" stroke="#243249" stroke-width="1.875" stroke-linecap="round" stroke-linejoin="round"/>
<path d="M9.0625 5.15039C9.0625 5.66816 9.48223 6.08789 10 6.08789C10.5178 6.08789 10.9375 5.66816 10.9375 5.15039H9.0625ZM10.9375 1.40039C10.9375 0.882624 10.5178 0.462891 10 0.462891C9.48223 0.462891 9.0625 0.882624 9.0625 1.40039H10.9375ZM14.3697 10.8133C14.7358 10.4472 14.7358 9.85359 14.3697 9.48748C14.0036 9.12136 13.41 9.12136 13.0439 9.48748L14.3697 10.8133ZM10.0439 12.4875C9.67776 12.8536 9.67776 13.4472 10.0439 13.8133C10.41 14.1794 11.0036 14.1794 11.3697 13.8133L10.0439 12.4875ZM12.5 2.33789C13.0178 2.33789 13.4375 1.91816 13.4375 1.40039C13.4375 0.882624 13.0178 0.462891 12.5 0.462891V2.33789ZM7.5 0.462891C6.98223 0.462891 6.5625 0.882624 6.5625 1.40039C6.5625 1.91816 6.98223 2.33789 7.5 2.33789V0.462891ZM19.4437 5.65605C19.792 5.27294 19.7637 4.68002 19.3806 4.33173C18.9975 3.98344 18.4046 4.01167 18.0563 4.39479L19.4437 5.65605ZM15.5563 7.14479C15.208 7.52791 15.2363 8.12083 15.6194 8.46912C16.0025 8.8174 16.5954 8.78917 16.9437 8.40605L15.5563 7.14479ZM1.91291 4.36251C1.5468 3.99639 0.953204 3.99639 0.587087 4.36251C0.220971 4.72863 0.220971 5.32222 0.587087 5.68833L1.91291 4.36251ZM3.21209 8.31333C3.5782 8.67945 4.1718 8.67945 4.53791 8.31333C4.90403 7.94722 4.90403 7.35362 4.53791 6.98751L3.21209 8.31333ZM10.9375 5.15039V1.40039H9.0625V5.15039H10.9375ZM13.0439 9.48748L10.0439 12.4875L11.3697 13.8133L14.3697 10.8133L13.0439 9.48748ZM12.5 0.462891H7.5V2.33789H12.5V0.462891ZM18.0563 4.39479L15.5563 7.14479L16.9437 8.40605L19.4437 5.65605L18.0563 4.39479ZM0.587087 5.68833L3.21209 8.31333L4.53791 6.98751L1.91291 4.36251L0.587087 5.68833Z" fill="#243249"/>
</svg>
