<svg width="38" height="38" viewBox="0 0 38 38" fill="none" xmlns="http://www.w3.org/2000/svg">
<path d="M16.9189 11.8071C17.3188 11.4263 17.3343 10.7933 16.9534 10.3934C16.5725 9.99342 15.9395 9.97798 15.5396 10.3589L16.9189 11.8071ZM7.22709 18.2755C6.82716 18.6564 6.81172 19.2894 7.19261 19.6893C7.5735 20.0893 8.20647 20.1047 8.6064 19.7238L7.22709 18.2755ZM8.6064 18.2755C8.20647 17.8947 7.5735 17.9101 7.19261 18.31C6.81172 18.7099 6.82716 19.3429 7.22709 19.7238L8.6064 18.2755ZM15.5396 27.6405C15.9395 28.0214 16.5725 28.0059 16.9534 27.606C17.3343 27.2061 17.3188 26.5731 16.9189 26.1922L15.5396 27.6405ZM7.91675 17.9997C7.36446 17.9997 6.91675 18.4474 6.91675 18.9997C6.91675 19.552 7.36446 19.9997 7.91675 19.9997V17.9997ZM30.0834 19.9997C30.6357 19.9997 31.0834 19.552 31.0834 18.9997C31.0834 18.4474 30.6357 17.9997 30.0834 17.9997V19.9997ZM15.5396 10.3589L7.22709 18.2755L8.6064 19.7238L16.9189 11.8071L15.5396 10.3589ZM7.22709 19.7238L15.5396 27.6405L16.9189 26.1922L8.6064 18.2755L7.22709 19.7238ZM7.91675 19.9997H30.0834V17.9997H7.91675V19.9997Z" fill="#3D4C66"/>
</svg>
