<svg width="20" height="20" viewBox="0 0 20 20" fill="none" xmlns="http://www.w3.org/2000/svg">
<path fill-rule="evenodd" clip-rule="evenodd" d="M18.75 10.0254C18.75 14.8579 14.8325 18.7754 10 18.7754C5.16751 18.7754 1.25 14.8579 1.25 10.0254C1.25 5.1929 5.16751 1.27539 10 1.27539C12.3206 1.27539 14.5462 2.19726 16.1872 3.83821C17.8281 5.47915 18.75 7.70475 18.75 10.0254Z" stroke="#243249" stroke-width="1.875" stroke-linecap="round" stroke-linejoin="round"/>
<path d="M10.0016 13.5516C9.48384 13.5516 9.06411 13.9713 9.06411 14.4891C9.06411 15.0069 9.48384 15.4266 10.0016 15.4266V13.5516ZM8.1266 8.77533L8.77981 8.10285C8.74351 8.06759 8.70441 8.03533 8.66291 8.00638L8.1266 8.77533ZM7.5016 7.52533L8.43855 7.55766C8.43892 7.54689 8.4391 7.53611 8.4391 7.52533H7.5016ZM10.0016 6.49908C10.5194 6.49908 10.9391 6.07935 10.9391 5.56158C10.9391 5.04382 10.5194 4.62408 10.0016 4.62408V6.49908ZM9.9629 15.4271C10.4802 15.4483 10.9168 15.0461 10.9379 14.5287C10.9591 14.0114 10.5569 13.5749 10.0396 13.5537L9.9629 15.4271ZM8.43029 11.6346C8.4996 11.1215 8.13983 10.6494 7.62672 10.5801C7.11361 10.5108 6.64147 10.8706 6.57217 11.3837L8.43029 11.6346ZM10.938 14.4892C10.938 13.9714 10.5183 13.5517 10.0005 13.5517C9.48272 13.5517 9.06299 13.9714 9.06299 14.4892H10.938ZM9.06299 16.2754C9.06299 16.7932 9.48272 17.2129 10.0005 17.2129C10.5183 17.2129 10.938 16.7932 10.938 16.2754H9.06299ZM9.94773 4.6257C9.43079 4.65484 9.03534 5.09753 9.06447 5.61447C9.09361 6.13142 9.5363 6.52687 10.0532 6.49773L9.94773 4.6257ZM11.8968 6.33302L11.2057 6.96648L11.2057 6.96648L11.8968 6.33302ZM11.5726 8.15534C11.4987 8.6678 11.8542 9.14317 12.3666 9.21711C12.8791 9.29104 13.3544 8.93555 13.4284 8.42309L11.5726 8.15534ZM9.06299 5.56164C9.06299 6.07941 9.48272 6.49914 10.0005 6.49914C10.5183 6.49914 10.938 6.07941 10.938 5.56164H9.06299ZM10.938 3.77539C10.938 3.25762 10.5183 2.83789 10.0005 2.83789C9.48272 2.83789 9.06299 3.25762 9.06299 3.77539H10.938ZM10.0016 15.4266C10.5313 15.4266 11.3292 15.3064 12.03 14.9052C12.7771 14.4775 13.4391 13.702 13.4391 12.5016H11.5641C11.5641 12.8912 11.393 13.1094 11.0985 13.278C10.7578 13.473 10.3057 13.5516 10.0016 13.5516V15.4266ZM13.4391 12.5016C13.4391 11.7665 13.2083 11.1669 12.7905 10.6843C12.4038 10.2378 11.8974 9.9409 11.4475 9.70849C10.4736 9.20542 9.58621 8.88614 8.77981 8.10285L7.4734 9.44782C8.542 10.4858 9.84213 10.9896 10.587 11.3744C10.9964 11.5859 11.2322 11.7491 11.3729 11.9116C11.4824 12.0381 11.5641 12.1967 11.5641 12.5016H13.4391ZM8.66291 8.00638C8.51687 7.90453 8.43241 7.7356 8.43855 7.55766L6.56466 7.493C6.53659 8.30644 6.92271 9.07868 7.5903 9.54429L8.66291 8.00638ZM8.4391 7.52533C8.4391 7.19854 8.51028 7.02031 8.57098 6.92276C8.63149 6.82551 8.71975 6.74709 8.85326 6.68132C9.16017 6.53012 9.58689 6.49908 10.0016 6.49908V4.62408C9.58257 4.62408 8.75929 4.63742 8.02464 4.99935C7.63736 5.19014 7.25696 5.48547 6.97899 5.9322C6.70121 6.37864 6.5641 6.91462 6.5641 7.52533H8.4391ZM10.0396 13.5537C9.56328 13.5342 9.11727 13.3149 8.81098 12.9497L7.37428 14.1545C8.01963 14.924 8.95939 15.3861 9.9629 15.4271L10.0396 13.5537ZM8.81098 12.9497C8.50469 12.5844 8.36649 12.107 8.43029 11.6346L6.57217 11.3837C6.43773 12.379 6.72892 13.3849 7.37428 14.1545L8.81098 12.9497ZM9.06299 14.4892V16.2754H10.938V14.4892H9.06299ZM10.0532 6.49773C10.4883 6.47321 10.9113 6.64528 11.2057 6.96648L12.588 5.69956C11.9135 4.96372 10.9443 4.56953 9.94773 4.6257L10.0532 6.49773ZM11.2057 6.96648C11.5002 7.28769 11.6348 7.72409 11.5726 8.15534L13.4284 8.42309C13.5709 7.43514 13.2624 6.43539 12.588 5.69956L11.2057 6.96648ZM10.938 5.56164V3.77539H9.06299V5.56164H10.938Z" fill="#243249"/>
</svg>
