<svg width="28" height="29" viewBox="0 0 28 29" fill="none" xmlns="http://www.w3.org/2000/svg">
<circle opacity="0.2" cx="14" cy="14.0508" r="14" fill="#3D4C66"/>
<g clip-path="url(#clip0_4164_32817)">
<path d="M14 8.05078C12.8133 8.05078 11.6533 8.40268 10.6666 9.06196C9.67989 9.72125 8.91085 10.6583 8.45673 11.7547C8.0026 12.851 7.88378 14.0574 8.11529 15.2213C8.3468 16.3852 8.91825 17.4543 9.75736 18.2934C10.5965 19.1325 11.6656 19.704 12.8295 19.9355C13.9933 20.167 15.1997 20.0482 16.2961 19.5941C17.3925 19.1399 18.3295 18.3709 18.9888 17.3842C19.6481 16.3975 20 15.2375 20 14.0508C20 12.4595 19.3679 10.9334 18.2426 9.80814C17.1174 8.68292 15.5913 8.05078 14 8.05078ZM17.9188 12.037L12.9913 16.9608L10.0813 14.0508C9.9818 13.9513 9.92592 13.8164 9.92592 13.6758C9.92592 13.5351 9.9818 13.4002 10.0813 13.3008C10.1807 13.2013 10.3156 13.1455 10.4563 13.1455C10.5969 13.1455 10.7318 13.2013 10.8313 13.3008L12.9988 15.4683L17.1763 11.2945C17.2255 11.2453 17.284 11.2062 17.3483 11.1796C17.4126 11.1529 17.4816 11.1392 17.5513 11.1392C17.6209 11.1392 17.6899 11.1529 17.7542 11.1796C17.8185 11.2062 17.877 11.2453 17.9263 11.2945C17.9755 11.3438 18.0146 11.4022 18.0412 11.4666C18.0679 11.5309 18.0816 11.5999 18.0816 11.6695C18.0816 11.7392 18.0679 11.8081 18.0412 11.8725C18.0146 11.9368 17.9755 11.9953 17.9263 12.0445L17.9188 12.037Z" fill="#3D4C66"/>
</g>
<defs>
<clipPath id="clip0_4164_32817">
<rect width="12" height="12" fill="white" transform="translate(8 8.05078)"/>
</clipPath>
</defs>
</svg>
