<svg width="30" height="30" viewBox="0 0 30 30" fill="none" xmlns="http://www.w3.org/2000/svg">
<path fill-rule="evenodd" clip-rule="evenodd" d="M23.75 15C23.75 19.8325 19.8325 23.75 15 23.75C10.1675 23.75 6.25 19.8325 6.25 15C6.25 10.1675 10.1675 6.25 15 6.25C17.3206 6.25 19.5462 7.17187 21.1872 8.81282C22.8281 10.4538 23.75 12.6794 23.75 15Z" stroke="#2797E8" stroke-width="2" stroke-linecap="round" stroke-linejoin="round"/>
<path d="M15.0002 18.464C14.4479 18.464 14.0002 18.9117 14.0002 19.464C14.0002 20.0162 14.4479 20.464 15.0002 20.464V18.464ZM13.1252 13.7502L13.822 13.0329C13.7833 12.9953 13.7416 12.9609 13.6973 12.93L13.1252 13.7502ZM12.5002 12.5002L13.4996 12.5347C13.5 12.5232 13.5002 12.5117 13.5002 12.5002H12.5002ZM15.0002 11.5365C15.5525 11.5365 16.0002 11.0887 16.0002 10.5365C16.0002 9.98417 15.5525 9.53646 15.0002 9.53646V11.5365ZM14.9594 20.4641C15.5112 20.4867 15.9768 20.0577 15.9994 19.5059C16.022 18.954 15.593 18.4884 15.0411 18.4658L14.9594 20.4641ZM13.4913 16.6176C13.5652 16.0703 13.1814 15.5666 12.6341 15.4927C12.0868 15.4188 11.5832 15.8026 11.5093 16.3499L13.4913 16.6176ZM16 19.4635C16 18.9113 15.5523 18.4635 15 18.4635C14.4477 18.4635 14 18.9113 14 19.4635H16ZM14 21.2498C14 21.8021 14.4477 22.2498 15 22.2498C15.5523 22.2498 16 21.8021 16 21.2498H14ZM14.9437 9.53793C14.3923 9.56901 13.9705 10.0412 14.0016 10.5926C14.0327 11.144 14.5049 11.5658 15.0563 11.5348L14.9437 9.53793ZM16.8964 11.3076L16.1592 11.9833H16.1592L16.8964 11.3076ZM16.5102 13.121C16.4314 13.6677 16.8106 14.1747 17.3572 14.2536C17.9038 14.3325 18.4109 13.9533 18.4898 13.4066L16.5102 13.121ZM14 10.5363C14 11.0885 14.4477 11.5363 15 11.5363C15.5523 11.5363 16 11.0885 16 10.5363H14ZM16 8.75C16 8.19772 15.5523 7.75 15 7.75C14.4477 7.75 14 8.19772 14 8.75H16ZM15.0002 20.464C15.5374 20.464 16.3468 20.3424 17.0597 19.9343C17.8218 19.498 18.5002 18.7038 18.5002 17.4765H16.5002C16.5002 17.8391 16.3455 18.0386 16.0661 18.1986C15.7374 18.3868 15.2968 18.464 15.0002 18.464V20.464ZM18.5002 17.4765C18.5002 16.727 18.2644 16.1128 17.8363 15.6183C17.4415 15.1622 16.9261 14.8609 16.4748 14.6278C15.4932 14.1208 14.6196 13.8077 13.822 13.0329L12.4285 14.4675C13.5058 15.514 14.8197 16.024 15.5569 16.4048C15.965 16.6156 16.1918 16.7743 16.3243 16.9274C16.4235 17.042 16.5002 17.1859 16.5002 17.4765H18.5002ZM13.6973 12.93C13.5686 12.8403 13.4942 12.6915 13.4996 12.5347L11.5008 12.4657C11.472 13.3003 11.8682 14.0927 12.5532 14.5704L13.6973 12.93ZM13.5002 12.5002C13.5002 12.1829 13.5692 12.0166 13.6227 11.9307C13.6759 11.8451 13.7545 11.7739 13.8795 11.7123C14.1721 11.5681 14.5856 11.5365 15.0002 11.5365V9.53646C14.581 9.53646 13.7445 9.54921 12.9956 9.91816C12.5999 10.1131 12.2098 10.4157 11.9245 10.8741C11.6395 11.3321 11.5002 11.88 11.5002 12.5002H13.5002ZM15.0411 18.4658C14.5824 18.447 14.1529 18.2359 13.8579 17.8841L12.3254 19.1692C12.9821 19.9522 13.9383 20.4224 14.9594 20.4641L15.0411 18.4658ZM13.8579 17.8841C13.5629 17.5323 13.4298 17.0725 13.4913 16.6176L11.5093 16.3499C11.3725 17.3626 11.6688 18.3861 12.3254 19.1692L13.8579 17.8841ZM14 19.4635V21.2498H16V19.4635H14ZM15.0563 11.5348C15.4726 11.5113 15.8774 11.676 16.1592 11.9833L17.6335 10.632C16.9464 9.8823 15.959 9.4807 14.9437 9.53793L15.0563 11.5348ZM16.1592 11.9833C16.4409 12.2907 16.5698 12.7084 16.5102 13.121L18.4898 13.4066C18.635 12.4001 18.3207 11.3816 17.6335 10.632L16.1592 11.9833ZM16 10.5363V8.75H14V10.5363H16Z" fill="#2797E8"/>
</svg>
