<svg width="26" height="20" viewBox="0 0 26 20" fill="none" xmlns="http://www.w3.org/2000/svg">
<path fill-rule="evenodd" clip-rule="evenodd" d="M15.9688 4.24414C15.9688 5.88374 14.6396 7.21289 13 7.21289C11.3604 7.21289 10.0312 5.88374 10.0312 4.24414C10.0312 2.60455 11.3604 1.27539 13 1.27539C14.6396 1.27539 15.9688 2.60455 15.9688 4.24414Z" stroke="#243249" stroke-width="1.875" stroke-linecap="round" stroke-linejoin="round"/>
<path fill-rule="evenodd" clip-rule="evenodd" d="M18.9375 14.7441C18.9375 16.9941 16.2788 18.8279 13 18.8279C9.72125 18.8279 7.0625 16.9991 7.0625 14.7441C7.0625 12.4891 9.72125 10.6616 13 10.6616C16.2788 10.6616 18.9375 12.4891 18.9375 14.7441Z" stroke="#243249" stroke-width="1.875" stroke-linecap="round" stroke-linejoin="round"/>
<path fill-rule="evenodd" clip-rule="evenodd" d="M22.2498 6.96686C22.2625 7.69002 21.8366 8.34906 21.1721 8.63463C20.5076 8.92021 19.7364 8.77563 19.2205 8.26874C18.7045 7.76186 18.5463 6.99332 18.8201 6.32387C19.0939 5.65442 19.7453 5.21697 20.4685 5.21686C21.4435 5.20854 22.2408 5.99186 22.2498 6.96686V6.96686Z" stroke="#243249" stroke-width="1.875" stroke-linecap="round" stroke-linejoin="round"/>
<path fill-rule="evenodd" clip-rule="evenodd" d="M3.75028 6.96686C3.73759 7.69002 4.16344 8.34906 4.82794 8.63463C5.49244 8.92021 6.26366 8.77563 6.77959 8.26874C7.29552 7.76186 7.45374 6.99332 7.17996 6.32387C6.90619 5.65442 6.25479 5.21697 5.53153 5.21686C4.55652 5.20854 3.75921 5.99186 3.75028 6.96686Z" stroke="#243249" stroke-width="1.875" stroke-linecap="round" stroke-linejoin="round"/>
<path d="M21.3966 16.7278C20.8809 16.6816 20.4254 17.0623 20.3792 17.578C20.333 18.0937 20.7137 18.5492 21.2294 18.5953L21.3966 16.7278ZM24.8755 14.7441L25.8074 14.8462C25.8149 14.7782 25.8148 14.7096 25.8074 14.6416L24.8755 14.7441ZM21.2293 10.8941C20.7136 10.9403 20.333 11.3958 20.3792 11.9115C20.4254 12.4272 20.8809 12.8078 21.3966 12.7616L21.2293 10.8941ZM4.77111 18.5954C5.28682 18.5492 5.66744 18.0937 5.62126 17.578C5.57509 17.0623 5.11959 16.6817 4.60389 16.7279L4.77111 18.5954ZM1.125 14.7441L0.193114 14.6417C0.185642 14.7097 0.185629 14.7783 0.193076 14.8462L1.125 14.7441ZM4.60385 12.7616C5.11955 12.8078 5.57506 12.4272 5.62126 11.9115C5.66746 11.3958 5.28685 10.9403 4.77115 10.8941L4.60385 12.7616ZM21.2294 18.5953C23.5217 18.8006 25.5568 17.1339 25.8074 14.8462L23.9436 14.642C23.8041 15.9148 22.6719 16.842 21.3966 16.7278L21.2294 18.5953ZM25.8074 14.6416C25.5559 12.3545 23.5211 10.6888 21.2293 10.8941L21.3966 12.7616C22.6716 12.6474 23.8037 13.5741 23.9436 14.8465L25.8074 14.6416ZM4.60389 16.7279C3.32859 16.8421 2.19636 15.9148 2.05692 14.642L0.193076 14.8462C0.443704 17.134 2.47882 18.8007 4.77111 18.5954L4.60389 16.7279ZM2.05689 14.8466C2.19677 13.5742 3.32886 12.6474 4.60385 12.7616L4.77115 10.8941C2.47942 10.6888 0.444549 12.3546 0.193114 14.6417L2.05689 14.8466Z" fill="#243249"/>
</svg>
