<svg width="12" height="12" viewBox="0 0 12 12" fill="none" xmlns="http://www.w3.org/2000/svg">
<path d="M5.58908 9.7845C5.63495 9.85112 5.69632 9.90559 5.76792 9.94322C5.83952 9.98086 5.91919 10.0005 6.00008 10.0005C6.08096 10.0005 6.16063 9.98086 6.23223 9.94322C6.30383 9.90559 6.36521 9.85112 6.41108 9.7845L10.9111 3.2845C10.9632 3.20953 10.9937 3.12172 10.9994 3.0306C11.0051 2.93949 10.9857 2.84856 10.9433 2.7677C10.901 2.68683 10.8372 2.61912 10.7591 2.57193C10.681 2.52473 10.5914 2.49986 10.5001 2.5H1.50008C1.409 2.50038 1.31974 2.52557 1.24192 2.57288C1.16409 2.62019 1.10063 2.68782 1.05836 2.7685C1.01609 2.84917 0.996618 2.93985 1.00203 3.03077C1.00744 3.12168 1.03754 3.20941 1.08908 3.2845L5.58908 9.7845Z" fill="#3D4C66"/>
</svg>
