<svg width="215" height="147" viewBox="0 0 215 147" fill="none" xmlns="http://www.w3.org/2000/svg">
<g clip-path="url(#clip0_4070_155236)">
<path d="M75.0312 14.0625C74.4925 14.0625 73.9759 14.2765 73.5949 14.6574C73.214 15.0384 73 15.555 73 16.0938C73 16.6325 73.214 17.1491 73.5949 17.5301C73.9759 17.911 74.4925 18.125 75.0312 18.125H79.5406L81.1697 24.6534L87.2553 57.0925C87.3424 57.558 87.5895 57.9784 87.9537 58.281C88.3179 58.5837 88.7764 58.7496 89.25 58.75H93.3125C91.1576 58.75 89.091 59.606 87.5673 61.1298C86.0435 62.6535 85.1875 64.7201 85.1875 66.875C85.1875 69.0299 86.0435 71.0965 87.5673 72.6202C89.091 74.144 91.1576 75 93.3125 75C95.4674 75 97.534 74.144 99.0577 72.6202C100.581 71.0965 101.438 69.0299 101.438 66.875C101.438 64.7201 100.581 62.6535 99.0577 61.1298C97.534 59.606 95.4674 58.75 93.3125 58.75H121.75C119.595 58.75 117.528 59.606 116.005 61.1298C114.481 62.6535 113.625 64.7201 113.625 66.875C113.625 69.0299 114.481 71.0965 116.005 72.6202C117.528 74.144 119.595 75 121.75 75C123.905 75 125.972 74.144 127.495 72.6202C129.019 71.0965 129.875 69.0299 129.875 66.875C129.875 64.7201 129.019 62.6535 127.495 61.1298C125.972 59.606 123.905 58.75 121.75 58.75H125.812C126.286 58.7496 126.745 58.5837 127.109 58.281C127.473 57.9784 127.72 57.558 127.807 57.0925L133.901 24.5925C133.956 24.2993 133.945 23.9977 133.871 23.709C133.796 23.4203 133.658 23.1516 133.468 22.922C133.277 22.6924 133.039 22.5076 132.769 22.3807C132.499 22.2537 132.205 22.1878 131.906 22.1875H84.7406L83.0953 15.6022C82.9857 15.1626 82.7322 14.7722 82.3752 14.4932C82.0181 14.2142 81.5781 14.0626 81.125 14.0625H75.0312ZM90.9359 54.6875L85.6019 26.25H129.461L124.127 54.6875H90.9359ZM97.375 66.875C97.375 67.9524 96.947 68.9858 96.1851 69.7476C95.4233 70.5095 94.3899 70.9375 93.3125 70.9375C92.2351 70.9375 91.2017 70.5095 90.4399 69.7476C89.678 68.9858 89.25 67.9524 89.25 66.875C89.25 65.7976 89.678 64.7642 90.4399 64.0024C91.2017 63.2405 92.2351 62.8125 93.3125 62.8125C94.3899 62.8125 95.4233 63.2405 96.1851 64.0024C96.947 64.7642 97.375 65.7976 97.375 66.875ZM125.812 66.875C125.812 67.9524 125.384 68.9858 124.623 69.7476C123.861 70.5095 122.827 70.9375 121.75 70.9375C120.673 70.9375 119.639 70.5095 118.877 69.7476C118.116 68.9858 117.688 67.9524 117.688 66.875C117.688 65.7976 118.116 64.7642 118.877 64.0024C119.639 63.2405 120.673 62.8125 121.75 62.8125C122.827 62.8125 123.861 63.2405 124.623 64.0024C125.384 64.7642 125.812 65.7976 125.812 66.875Z" fill="#B0BEC9"/>
</g>
<circle cx="134.5" cy="17.5" r="17.5" fill="#2797E8"/>
<path d="M129.294 17.52C129.294 21.76 130.414 24.96 134.494 24.96C138.574 24.96 139.694 21.76 139.694 17.52C139.694 13.36 138.574 10.16 134.494 10.16C130.414 10.16 129.294 13.36 129.294 17.52ZM137.454 17.52C137.454 20.38 137.154 22.88 134.494 22.88C131.834 22.88 131.534 20.38 131.534 17.52C131.534 14.8 131.834 12.24 134.494 12.24C137.154 12.24 137.454 14.8 137.454 17.52Z" fill="white"/>
<path d="M41.1324 102.832L37.3564 110.112V114H35.1164V110.112L31.3244 102.832H33.8524L36.2524 107.936L38.6364 102.832H41.1324ZM46.3603 114.144C45.507 114.144 44.739 113.957 44.0563 113.584C43.3736 113.2 42.835 112.661 42.4403 111.968C42.0563 111.275 41.8643 110.475 41.8643 109.568C41.8643 108.661 42.0616 107.861 42.4563 107.168C42.8616 106.475 43.411 105.941 44.1043 105.568C44.7976 105.184 45.571 104.992 46.4243 104.992C47.2776 104.992 48.051 105.184 48.7443 105.568C49.4376 105.941 49.9816 106.475 50.3763 107.168C50.7816 107.861 50.9843 108.661 50.9843 109.568C50.9843 110.475 50.7763 111.275 50.3603 111.968C49.955 112.661 49.4003 113.2 48.6963 113.584C48.003 113.957 47.2243 114.144 46.3603 114.144ZM46.3603 112.192C46.7656 112.192 47.1443 112.096 47.4963 111.904C47.859 111.701 48.147 111.403 48.3603 111.008C48.5736 110.613 48.6803 110.133 48.6803 109.568C48.6803 108.725 48.4563 108.08 48.0083 107.632C47.571 107.173 47.0323 106.944 46.3923 106.944C45.7523 106.944 45.2136 107.173 44.7763 107.632C44.3496 108.08 44.1363 108.725 44.1363 109.568C44.1363 110.411 44.3443 111.061 44.7603 111.52C45.187 111.968 45.7203 112.192 46.3603 112.192ZM60.9954 105.136V114H58.7394V112.88C58.4514 113.264 58.0728 113.568 57.6034 113.792C57.1448 114.005 56.6434 114.112 56.0994 114.112C55.4061 114.112 54.7928 113.968 54.2594 113.68C53.7261 113.381 53.3048 112.949 52.9954 112.384C52.6968 111.808 52.5474 111.125 52.5474 110.336V105.136H54.7874V110.016C54.7874 110.72 54.9634 111.264 55.3154 111.648C55.6674 112.021 56.1474 112.208 56.7554 112.208C57.3741 112.208 57.8594 112.021 58.2114 111.648C58.5634 111.264 58.7394 110.72 58.7394 110.016V105.136H60.9954ZM65.4456 106.512C65.7336 106.043 66.1069 105.675 66.5656 105.408C67.0349 105.141 67.5682 105.008 68.1656 105.008V107.36H67.5736C66.8696 107.36 66.3362 107.525 65.9736 107.856C65.6216 108.187 65.4456 108.763 65.4456 109.584V114H63.2056V105.136H65.4456V106.512ZM72.9108 109.568C72.9108 108.651 73.0975 107.851 73.4708 107.168C73.8441 106.475 74.3615 105.941 75.0228 105.568C75.6841 105.184 76.4415 104.992 77.2948 104.992C78.3935 104.992 79.3001 105.269 80.0148 105.824C80.7401 106.368 81.2255 107.136 81.4708 108.128H79.0548C78.9268 107.744 78.7081 107.445 78.3988 107.232C78.1001 107.008 77.7268 106.896 77.2788 106.896C76.6388 106.896 76.1321 107.131 75.7588 107.6C75.3855 108.059 75.1988 108.715 75.1988 109.568C75.1988 110.411 75.3855 111.067 75.7588 111.536C76.1321 111.995 76.6388 112.224 77.2788 112.224C78.1855 112.224 78.7775 111.819 79.0548 111.008H81.4708C81.2255 111.968 80.7401 112.731 80.0148 113.296C79.2895 113.861 78.3828 114.144 77.2948 114.144C76.4415 114.144 75.6841 113.957 75.0228 113.584C74.3615 113.2 73.8441 112.667 73.4708 111.984C73.0975 111.291 72.9108 110.485 72.9108 109.568ZM82.5358 109.536C82.5358 108.64 82.7118 107.845 83.0638 107.152C83.4265 106.459 83.9118 105.925 84.5198 105.552C85.1385 105.179 85.8265 104.992 86.5838 104.992C87.2451 104.992 87.8211 105.125 88.3118 105.392C88.8131 105.659 89.2131 105.995 89.5118 106.4V105.136H91.7678V114H89.5118V112.704C89.2238 113.12 88.8238 113.467 88.3118 113.744C87.8105 114.011 87.2291 114.144 86.5678 114.144C85.8211 114.144 85.1385 113.952 84.5198 113.568C83.9118 113.184 83.4265 112.645 83.0638 111.952C82.7118 111.248 82.5358 110.443 82.5358 109.536ZM89.5118 109.568C89.5118 109.024 89.4051 108.56 89.1918 108.176C88.9785 107.781 88.6905 107.483 88.3278 107.28C87.9651 107.067 87.5758 106.96 87.1598 106.96C86.7438 106.96 86.3598 107.061 86.0078 107.264C85.6558 107.467 85.3678 107.765 85.1438 108.16C84.9305 108.544 84.8238 109.003 84.8238 109.536C84.8238 110.069 84.9305 110.539 85.1438 110.944C85.3678 111.339 85.6558 111.643 86.0078 111.856C86.3705 112.069 86.7545 112.176 87.1598 112.176C87.5758 112.176 87.9651 112.075 88.3278 111.872C88.6905 111.659 88.9785 111.36 89.1918 110.976C89.4051 110.581 89.5118 110.112 89.5118 109.568ZM96.1956 106.512C96.4836 106.043 96.8569 105.675 97.3156 105.408C97.7849 105.141 98.3182 105.008 98.9156 105.008V107.36H98.3236C97.6196 107.36 97.0862 107.525 96.7236 107.856C96.3716 108.187 96.1956 108.763 96.1956 109.584V114H93.9556V105.136H96.1956V106.512ZM103.032 106.976V111.264C103.032 111.563 103.102 111.781 103.24 111.92C103.39 112.048 103.635 112.112 103.976 112.112H105.016V114H103.608C101.72 114 100.776 113.083 100.776 111.248V106.976H99.7203V105.136H100.776V102.944H103.032V105.136H105.016V106.976H103.032ZM111.576 104.08C111.181 104.08 110.851 103.957 110.584 103.712C110.328 103.456 110.2 103.141 110.2 102.768C110.2 102.395 110.328 102.085 110.584 101.84C110.851 101.584 111.181 101.456 111.576 101.456C111.971 101.456 112.296 101.584 112.552 101.84C112.819 102.085 112.952 102.395 112.952 102.768C112.952 103.141 112.819 103.456 112.552 103.712C112.296 103.957 111.971 104.08 111.576 104.08ZM112.68 105.136V114H110.44V105.136H112.68ZM118.285 114.144C117.56 114.144 116.909 114.016 116.333 113.76C115.757 113.493 115.298 113.136 114.957 112.688C114.626 112.24 114.445 111.744 114.413 111.2H116.669C116.712 111.541 116.877 111.824 117.165 112.048C117.464 112.272 117.832 112.384 118.269 112.384C118.696 112.384 119.026 112.299 119.261 112.128C119.506 111.957 119.629 111.739 119.629 111.472C119.629 111.184 119.48 110.971 119.181 110.832C118.893 110.683 118.429 110.523 117.789 110.352C117.128 110.192 116.584 110.027 116.157 109.856C115.741 109.685 115.378 109.424 115.069 109.072C114.77 108.72 114.621 108.245 114.621 107.648C114.621 107.157 114.76 106.709 115.037 106.304C115.325 105.899 115.73 105.579 116.253 105.344C116.786 105.109 117.41 104.992 118.125 104.992C119.181 104.992 120.024 105.259 120.653 105.792C121.282 106.315 121.629 107.024 121.693 107.92H119.549C119.517 107.568 119.368 107.291 119.101 107.088C118.845 106.875 118.498 106.768 118.061 106.768C117.656 106.768 117.341 106.843 117.117 106.992C116.904 107.141 116.797 107.349 116.797 107.616C116.797 107.915 116.946 108.144 117.245 108.304C117.544 108.453 118.008 108.608 118.637 108.768C119.277 108.928 119.805 109.093 120.221 109.264C120.637 109.435 120.994 109.701 121.293 110.064C121.602 110.416 121.762 110.885 121.773 111.472C121.773 111.984 121.629 112.443 121.341 112.848C121.064 113.253 120.658 113.573 120.125 113.808C119.602 114.032 118.989 114.144 118.285 114.144ZM135.664 109.376C135.664 109.696 135.643 109.984 135.6 110.24H129.12C129.174 110.88 129.398 111.381 129.792 111.744C130.187 112.107 130.672 112.288 131.248 112.288C132.08 112.288 132.672 111.931 133.024 111.216H135.44C135.184 112.069 134.694 112.773 133.968 113.328C133.243 113.872 132.352 114.144 131.296 114.144C130.443 114.144 129.675 113.957 128.992 113.584C128.32 113.2 127.792 112.661 127.408 111.968C127.035 111.275 126.848 110.475 126.848 109.568C126.848 108.651 127.035 107.845 127.408 107.152C127.782 106.459 128.304 105.925 128.976 105.552C129.648 105.179 130.422 104.992 131.296 104.992C132.139 104.992 132.891 105.173 133.552 105.536C134.224 105.899 134.742 106.416 135.104 107.088C135.478 107.749 135.664 108.512 135.664 109.376ZM133.344 108.736C133.334 108.16 133.126 107.701 132.72 107.36C132.315 107.008 131.819 106.832 131.232 106.832C130.678 106.832 130.208 107.003 129.824 107.344C129.451 107.675 129.222 108.139 129.136 108.736H133.344ZM148.307 105.008C149.395 105.008 150.27 105.344 150.931 106.016C151.603 106.677 151.939 107.605 151.939 108.8V114H149.699V109.104C149.699 108.411 149.523 107.883 149.171 107.52C148.819 107.147 148.339 106.96 147.731 106.96C147.123 106.96 146.638 107.147 146.275 107.52C145.923 107.883 145.747 108.411 145.747 109.104V114H143.507V109.104C143.507 108.411 143.331 107.883 142.979 107.52C142.627 107.147 142.147 106.96 141.539 106.96C140.921 106.96 140.43 107.147 140.067 107.52C139.715 107.883 139.539 108.411 139.539 109.104V114H137.299V105.136H139.539V106.208C139.827 105.835 140.195 105.541 140.643 105.328C141.102 105.115 141.603 105.008 142.147 105.008C142.841 105.008 143.459 105.157 144.003 105.456C144.547 105.744 144.969 106.16 145.267 106.704C145.555 106.192 145.971 105.781 146.515 105.472C147.07 105.163 147.667 105.008 148.307 105.008ZM156.305 106.416C156.593 106.011 156.988 105.675 157.489 105.408C158.001 105.131 158.582 104.992 159.233 104.992C159.99 104.992 160.673 105.179 161.281 105.552C161.9 105.925 162.385 106.459 162.737 107.152C163.1 107.835 163.281 108.629 163.281 109.536C163.281 110.443 163.1 111.248 162.737 111.952C162.385 112.645 161.9 113.184 161.281 113.568C160.673 113.952 159.99 114.144 159.233 114.144C158.582 114.144 158.006 114.011 157.505 113.744C157.014 113.477 156.614 113.141 156.305 112.736V118.224H154.065V105.136H156.305V106.416ZM160.993 109.536C160.993 109.003 160.881 108.544 160.657 108.16C160.444 107.765 160.156 107.467 159.793 107.264C159.441 107.061 159.057 106.96 158.641 106.96C158.236 106.96 157.852 107.067 157.489 107.28C157.137 107.483 156.849 107.781 156.625 108.176C156.412 108.571 156.305 109.035 156.305 109.568C156.305 110.101 156.412 110.565 156.625 110.96C156.849 111.355 157.137 111.659 157.489 111.872C157.852 112.075 158.236 112.176 158.641 112.176C159.057 112.176 159.441 112.069 159.793 111.856C160.156 111.643 160.444 111.339 160.657 110.944C160.881 110.549 160.993 110.08 160.993 109.536ZM167.517 106.976V111.264C167.517 111.563 167.586 111.781 167.725 111.92C167.874 112.048 168.119 112.112 168.461 112.112H169.501V114H168.093C166.205 114 165.261 113.083 165.261 111.248V106.976H164.205V105.136H165.261V102.944H167.517V105.136H169.501V106.976H167.517ZM179.592 105.136L174.104 118.192H171.72L173.64 113.776L170.088 105.136H172.6L174.888 111.328L177.208 105.136H179.592ZM181.791 114.112C181.386 114.112 181.05 113.989 180.783 113.744C180.527 113.488 180.399 113.173 180.399 112.8C180.399 112.427 180.527 112.117 180.783 111.872C181.05 111.616 181.386 111.488 181.791 111.488C182.186 111.488 182.511 111.616 182.767 111.872C183.023 112.117 183.151 112.427 183.151 112.8C183.151 113.173 183.023 113.488 182.767 113.744C182.511 113.989 182.186 114.112 181.791 114.112Z" fill="#B0BEC9"/>
<path d="M8.08963 139.52H3.22563L2.32963 142H0.793625L4.82563 130.912H6.50563L10.5216 142H8.98563L8.08963 139.52ZM7.67363 138.336L5.65763 132.704L3.64163 138.336H7.67363ZM11.7349 137.584C11.7349 136.688 11.9162 135.904 12.2789 135.232C12.6415 134.549 13.1375 134.021 13.7669 133.648C14.4069 133.275 15.1215 133.088 15.9109 133.088C16.5935 133.088 17.2282 133.248 17.8149 133.568C18.4015 133.877 18.8495 134.288 19.1589 134.8V130.16H20.6309V142H19.1589V140.352C18.8709 140.875 18.4442 141.307 17.8789 141.648C17.3135 141.979 16.6522 142.144 15.8949 142.144C15.1162 142.144 14.4069 141.952 13.7669 141.568C13.1375 141.184 12.6415 140.645 12.2789 139.952C11.9162 139.259 11.7349 138.469 11.7349 137.584ZM19.1589 137.6C19.1589 136.939 19.0255 136.363 18.7589 135.872C18.4922 135.381 18.1295 135.008 17.6709 134.752C17.2229 134.485 16.7269 134.352 16.1829 134.352C15.6389 134.352 15.1429 134.48 14.6949 134.736C14.2469 134.992 13.8895 135.365 13.6229 135.856C13.3562 136.347 13.2229 136.923 13.2229 137.584C13.2229 138.256 13.3562 138.843 13.6229 139.344C13.8895 139.835 14.2469 140.213 14.6949 140.48C15.1429 140.736 15.6389 140.864 16.1829 140.864C16.7269 140.864 17.2229 140.736 17.6709 140.48C18.1295 140.213 18.4922 139.835 18.7589 139.344C19.0255 138.843 19.1589 138.261 19.1589 137.6ZM22.5474 137.584C22.5474 136.688 22.7287 135.904 23.0914 135.232C23.454 134.549 23.95 134.021 24.5794 133.648C25.2194 133.275 25.934 133.088 26.7234 133.088C27.406 133.088 28.0407 133.248 28.6274 133.568C29.214 133.877 29.662 134.288 29.9714 134.8V130.16H31.4434V142H29.9714V140.352C29.6834 140.875 29.2567 141.307 28.6914 141.648C28.126 141.979 27.4647 142.144 26.7074 142.144C25.9287 142.144 25.2194 141.952 24.5794 141.568C23.95 141.184 23.454 140.645 23.0914 139.952C22.7287 139.259 22.5474 138.469 22.5474 137.584ZM29.9714 137.6C29.9714 136.939 29.838 136.363 29.5714 135.872C29.3047 135.381 28.942 135.008 28.4834 134.752C28.0354 134.485 27.5394 134.352 26.9954 134.352C26.4514 134.352 25.9554 134.48 25.5074 134.736C25.0594 134.992 24.702 135.365 24.4354 135.856C24.1687 136.347 24.0354 136.923 24.0354 137.584C24.0354 138.256 24.1687 138.843 24.4354 139.344C24.702 139.835 25.0594 140.213 25.5074 140.48C25.9554 140.736 26.4514 140.864 26.9954 140.864C27.5394 140.864 28.0354 140.736 28.4834 140.48C28.942 140.213 29.3047 139.835 29.5714 139.344C29.838 138.843 29.9714 138.261 29.9714 137.6ZM37.6255 137.584C37.6255 136.688 37.8068 135.904 38.1695 135.232C38.5322 134.549 39.0282 134.021 39.6575 133.648C40.2975 133.275 41.0068 133.088 41.7855 133.088C42.5535 133.088 43.2202 133.253 43.7855 133.584C44.3508 133.915 44.7722 134.331 45.0495 134.832V133.232H46.5215V142H45.0495V140.368C44.7615 140.88 44.3295 141.307 43.7535 141.648C43.1882 141.979 42.5268 142.144 41.7695 142.144C40.9908 142.144 40.2868 141.952 39.6575 141.568C39.0282 141.184 38.5322 140.645 38.1695 139.952C37.8068 139.259 37.6255 138.469 37.6255 137.584ZM45.0495 137.6C45.0495 136.939 44.9162 136.363 44.6495 135.872C44.3828 135.381 44.0202 135.008 43.5615 134.752C43.1135 134.485 42.6175 134.352 42.0735 134.352C41.5295 134.352 41.0335 134.48 40.5855 134.736C40.1375 134.992 39.7802 135.365 39.5135 135.856C39.2468 136.347 39.1135 136.923 39.1135 137.584C39.1135 138.256 39.2468 138.843 39.5135 139.344C39.7802 139.835 40.1375 140.213 40.5855 140.48C41.0335 140.736 41.5295 140.864 42.0735 140.864C42.6175 140.864 43.1135 140.736 43.5615 140.48C44.0202 140.213 44.3828 139.835 44.6495 139.344C44.9162 138.843 45.0495 138.261 45.0495 137.6ZM53.254 133.072C54.3207 133.072 55.1847 133.397 55.846 134.048C56.5073 134.688 56.838 135.616 56.838 136.832V142H55.398V137.04C55.398 136.165 55.1793 135.499 54.742 135.04C54.3047 134.571 53.7073 134.336 52.95 134.336C52.182 134.336 51.5687 134.576 51.11 135.056C50.662 135.536 50.438 136.235 50.438 137.152V142H48.982V133.232H50.438V134.48C50.726 134.032 51.1153 133.685 51.606 133.44C52.1073 133.195 52.6567 133.072 53.254 133.072ZM64.234 131.808C63.9567 131.808 63.722 131.712 63.53 131.52C63.338 131.328 63.242 131.093 63.242 130.816C63.242 130.539 63.338 130.304 63.53 130.112C63.722 129.92 63.9567 129.824 64.234 129.824C64.5007 129.824 64.7247 129.92 64.906 130.112C65.098 130.304 65.194 130.539 65.194 130.816C65.194 131.093 65.098 131.328 64.906 131.52C64.7247 131.712 64.5007 131.808 64.234 131.808ZM64.938 133.232V142H63.482V133.232H64.938ZM69.1955 134.432V139.6C69.1955 140.027 69.2862 140.331 69.4675 140.512C69.6488 140.683 69.9635 140.768 70.4115 140.768H71.4835V142H70.1715C69.3608 142 68.7528 141.813 68.3475 141.44C67.9422 141.067 67.7395 140.453 67.7395 139.6V134.432H66.6035V133.232H67.7395V131.024H69.1955V133.232H71.4835V134.432H69.1955ZM81.2476 137.28C81.2476 137.557 81.2316 137.851 81.1996 138.16H74.1916C74.245 139.024 74.5383 139.701 75.0716 140.192C75.6156 140.672 76.2716 140.912 77.0396 140.912C77.669 140.912 78.1916 140.768 78.6076 140.48C79.0343 140.181 79.333 139.787 79.5036 139.296H81.0716C80.837 140.139 80.3676 140.827 79.6636 141.36C78.9596 141.883 78.085 142.144 77.0396 142.144C76.2076 142.144 75.461 141.957 74.7996 141.584C74.149 141.211 73.637 140.683 73.2636 140C72.8903 139.307 72.7036 138.507 72.7036 137.6C72.7036 136.693 72.885 135.899 73.2476 135.216C73.6103 134.533 74.117 134.011 74.7676 133.648C75.429 133.275 76.1863 133.088 77.0396 133.088C77.8716 133.088 78.6076 133.269 79.2476 133.632C79.8876 133.995 80.3783 134.496 80.7196 135.136C81.0716 135.765 81.2476 136.48 81.2476 137.28ZM79.7436 136.976C79.7436 136.421 79.621 135.947 79.3756 135.552C79.1303 135.147 78.7943 134.843 78.3676 134.64C77.9516 134.427 77.4876 134.32 76.9756 134.32C76.2396 134.32 75.6103 134.555 75.0876 135.024C74.5756 135.493 74.2823 136.144 74.2076 136.976H79.7436ZM93.7135 133.072C94.3962 133.072 95.0042 133.216 95.5375 133.504C96.0708 133.781 96.4922 134.203 96.8015 134.768C97.1108 135.333 97.2655 136.021 97.2655 136.832V142H95.8255V137.04C95.8255 136.165 95.6068 135.499 95.1695 135.04C94.7428 134.571 94.1615 134.336 93.4255 134.336C92.6682 134.336 92.0655 134.581 91.6175 135.072C91.1695 135.552 90.9455 136.251 90.9455 137.168V142H89.5055V137.04C89.5055 136.165 89.2868 135.499 88.8495 135.04C88.4228 134.571 87.8415 134.336 87.1055 134.336C86.3482 134.336 85.7455 134.581 85.2975 135.072C84.8495 135.552 84.6255 136.251 84.6255 137.168V142H83.1695V133.232H84.6255V134.496C84.9135 134.037 85.2975 133.685 85.7775 133.44C86.2682 133.195 86.8068 133.072 87.3935 133.072C88.1295 133.072 88.7802 133.237 89.3455 133.568C89.9108 133.899 90.3322 134.384 90.6095 135.024C90.8548 134.405 91.2602 133.925 91.8255 133.584C92.3908 133.243 93.0202 133.072 93.7135 133.072ZM105.696 134.432V139.6C105.696 140.027 105.786 140.331 105.968 140.512C106.149 140.683 106.464 140.768 106.911 140.768H107.984V142H106.672C105.861 142 105.253 141.813 104.848 141.44C104.442 141.067 104.24 140.453 104.24 139.6V134.432H103.104V133.232H104.24V131.024H105.696V133.232H107.984V134.432H105.696ZM113.572 142.144C112.75 142.144 112.004 141.957 111.332 141.584C110.67 141.211 110.148 140.683 109.764 140C109.39 139.307 109.204 138.507 109.204 137.6C109.204 136.704 109.396 135.915 109.78 135.232C110.174 134.539 110.708 134.011 111.38 133.648C112.052 133.275 112.804 133.088 113.636 133.088C114.468 133.088 115.22 133.275 115.892 133.648C116.564 134.011 117.092 134.533 117.476 135.216C117.87 135.899 118.068 136.693 118.068 137.6C118.068 138.507 117.865 139.307 117.46 140C117.065 140.683 116.526 141.211 115.844 141.584C115.161 141.957 114.404 142.144 113.572 142.144ZM113.572 140.864C114.094 140.864 114.585 140.741 115.044 140.496C115.502 140.251 115.87 139.883 116.148 139.392C116.436 138.901 116.58 138.304 116.58 137.6C116.58 136.896 116.441 136.299 116.164 135.808C115.886 135.317 115.524 134.955 115.076 134.72C114.628 134.475 114.142 134.352 113.62 134.352C113.086 134.352 112.596 134.475 112.148 134.72C111.71 134.955 111.358 135.317 111.092 135.808C110.825 136.299 110.692 136.896 110.692 137.6C110.692 138.315 110.82 138.917 111.076 139.408C111.342 139.899 111.694 140.267 112.132 140.512C112.569 140.747 113.049 140.864 113.572 140.864ZM127.864 133.088C128.621 133.088 129.282 133.253 129.848 133.584C130.424 133.915 130.85 134.331 131.128 134.832V133.232H132.6V142.192C132.6 142.992 132.429 143.701 132.088 144.32C131.746 144.949 131.256 145.44 130.616 145.792C129.986 146.144 129.25 146.32 128.408 146.32C127.256 146.32 126.296 146.048 125.528 145.504C124.76 144.96 124.306 144.219 124.168 143.28H125.608C125.768 143.813 126.098 144.24 126.6 144.56C127.101 144.891 127.704 145.056 128.408 145.056C129.208 145.056 129.858 144.805 130.36 144.304C130.872 143.803 131.128 143.099 131.128 142.192V140.352C130.84 140.864 130.413 141.291 129.848 141.632C129.282 141.973 128.621 142.144 127.864 142.144C127.085 142.144 126.376 141.952 125.736 141.568C125.106 141.184 124.61 140.645 124.248 139.952C123.885 139.259 123.704 138.469 123.704 137.584C123.704 136.688 123.885 135.904 124.248 135.232C124.61 134.549 125.106 134.021 125.736 133.648C126.376 133.275 127.085 133.088 127.864 133.088ZM131.128 137.6C131.128 136.939 130.994 136.363 130.728 135.872C130.461 135.381 130.098 135.008 129.64 134.752C129.192 134.485 128.696 134.352 128.152 134.352C127.608 134.352 127.112 134.48 126.664 134.736C126.216 134.992 125.858 135.365 125.592 135.856C125.325 136.347 125.192 136.923 125.192 137.584C125.192 138.256 125.325 138.843 125.592 139.344C125.858 139.835 126.216 140.213 126.664 140.48C127.112 140.736 127.608 140.864 128.152 140.864C128.696 140.864 129.192 140.736 129.64 140.48C130.098 140.213 130.461 139.835 130.728 139.344C130.994 138.843 131.128 138.261 131.128 137.6ZM143.06 137.28C143.06 137.557 143.044 137.851 143.012 138.16H136.004C136.057 139.024 136.351 139.701 136.884 140.192C137.428 140.672 138.084 140.912 138.852 140.912C139.481 140.912 140.004 140.768 140.42 140.48C140.847 140.181 141.145 139.787 141.316 139.296H142.884C142.649 140.139 142.18 140.827 141.476 141.36C140.772 141.883 139.897 142.144 138.852 142.144C138.02 142.144 137.273 141.957 136.612 141.584C135.961 141.211 135.449 140.683 135.076 140C134.703 139.307 134.516 138.507 134.516 137.6C134.516 136.693 134.697 135.899 135.06 135.216C135.423 134.533 135.929 134.011 136.58 133.648C137.241 133.275 137.999 133.088 138.852 133.088C139.684 133.088 140.42 133.269 141.06 133.632C141.7 133.995 142.191 134.496 142.532 135.136C142.884 135.765 143.06 136.48 143.06 137.28ZM141.556 136.976C141.556 136.421 141.433 135.947 141.188 135.552C140.943 135.147 140.607 134.843 140.18 134.64C139.764 134.427 139.3 134.32 138.788 134.32C138.052 134.32 137.423 134.555 136.9 135.024C136.388 135.493 136.095 136.144 136.02 136.976H141.556ZM146.758 134.432V139.6C146.758 140.027 146.849 140.331 147.03 140.512C147.211 140.683 147.526 140.768 147.974 140.768H149.046V142H147.734C146.923 142 146.315 141.813 145.91 141.44C145.505 141.067 145.302 140.453 145.302 139.6V134.432H144.166V133.232H145.302V131.024H146.758V133.232H149.046V134.432H146.758ZM158.18 142.144C157.508 142.144 156.905 142.032 156.372 141.808C155.838 141.573 155.417 141.253 155.108 140.848C154.798 140.432 154.628 139.957 154.596 139.424H156.1C156.142 139.861 156.345 140.219 156.708 140.496C157.081 140.773 157.566 140.912 158.164 140.912C158.718 140.912 159.156 140.789 159.476 140.544C159.796 140.299 159.956 139.989 159.956 139.616C159.956 139.232 159.785 138.949 159.444 138.768C159.102 138.576 158.574 138.389 157.86 138.208C157.209 138.037 156.676 137.867 156.26 137.696C155.854 137.515 155.502 137.253 155.204 136.912C154.916 136.56 154.772 136.101 154.772 135.536C154.772 135.088 154.905 134.677 155.172 134.304C155.438 133.931 155.817 133.637 156.308 133.424C156.798 133.2 157.358 133.088 157.988 133.088C158.958 133.088 159.742 133.333 160.34 133.824C160.937 134.315 161.257 134.987 161.3 135.84H159.844C159.812 135.381 159.625 135.013 159.284 134.736C158.953 134.459 158.505 134.32 157.94 134.32C157.417 134.32 157.001 134.432 156.692 134.656C156.382 134.88 156.228 135.173 156.228 135.536C156.228 135.824 156.318 136.064 156.5 136.256C156.692 136.437 156.926 136.587 157.204 136.704C157.492 136.811 157.886 136.933 158.388 137.072C159.017 137.243 159.529 137.413 159.924 137.584C160.318 137.744 160.654 137.989 160.932 138.32C161.22 138.651 161.369 139.083 161.38 139.616C161.38 140.096 161.246 140.528 160.98 140.912C160.713 141.296 160.334 141.6 159.844 141.824C159.364 142.037 158.809 142.144 158.18 142.144ZM165.211 134.432V139.6C165.211 140.027 165.302 140.331 165.483 140.512C165.664 140.683 165.979 140.768 166.427 140.768H167.499V142H166.187C165.376 142 164.768 141.813 164.363 141.44C163.958 141.067 163.755 140.453 163.755 139.6V134.432H162.619V133.232H163.755V131.024H165.211V133.232H167.499V134.432H165.211ZM168.719 137.584C168.719 136.688 168.901 135.904 169.263 135.232C169.626 134.549 170.122 134.021 170.751 133.648C171.391 133.275 172.101 133.088 172.879 133.088C173.647 133.088 174.314 133.253 174.879 133.584C175.445 133.915 175.866 134.331 176.143 134.832V133.232H177.615V142H176.143V140.368C175.855 140.88 175.423 141.307 174.847 141.648C174.282 141.979 173.621 142.144 172.863 142.144C172.085 142.144 171.381 141.952 170.751 141.568C170.122 141.184 169.626 140.645 169.263 139.952C168.901 139.259 168.719 138.469 168.719 137.584ZM176.143 137.6C176.143 136.939 176.01 136.363 175.743 135.872C175.477 135.381 175.114 135.008 174.655 134.752C174.207 134.485 173.711 134.352 173.167 134.352C172.623 134.352 172.127 134.48 171.679 134.736C171.231 134.992 170.874 135.365 170.607 135.856C170.341 136.347 170.207 136.923 170.207 137.584C170.207 138.256 170.341 138.843 170.607 139.344C170.874 139.835 171.231 140.213 171.679 140.48C172.127 140.736 172.623 140.864 173.167 140.864C173.711 140.864 174.207 140.736 174.655 140.48C175.114 140.213 175.477 139.835 175.743 139.344C176.01 138.843 176.143 138.261 176.143 137.6ZM181.532 134.656C181.788 134.155 182.15 133.765 182.62 133.488C183.1 133.211 183.681 133.072 184.364 133.072V134.576H183.98C182.348 134.576 181.532 135.461 181.532 137.232V142H180.076V133.232H181.532V134.656ZM187.821 134.432V139.6C187.821 140.027 187.911 140.331 188.093 140.512C188.274 140.683 188.589 140.768 189.036 140.768H190.109V142H188.797C187.986 142 187.378 141.813 186.973 141.44C186.567 141.067 186.365 140.453 186.365 139.6V134.432H185.229V133.232H186.365V131.024H187.821V133.232H190.109V134.432H187.821ZM199.873 137.28C199.873 137.557 199.857 137.851 199.825 138.16H192.817C192.87 139.024 193.163 139.701 193.697 140.192C194.241 140.672 194.897 140.912 195.665 140.912C196.294 140.912 196.817 140.768 197.233 140.48C197.659 140.181 197.958 139.787 198.129 139.296H199.697C199.462 140.139 198.993 140.827 198.289 141.36C197.585 141.883 196.71 142.144 195.665 142.144C194.833 142.144 194.086 141.957 193.425 141.584C192.774 141.211 192.262 140.683 191.889 140C191.515 139.307 191.329 138.507 191.329 137.6C191.329 136.693 191.51 135.899 191.873 135.216C192.235 134.533 192.742 134.011 193.393 133.648C194.054 133.275 194.811 133.088 195.665 133.088C196.497 133.088 197.233 133.269 197.873 133.632C198.513 133.995 199.003 134.496 199.345 135.136C199.697 135.765 199.873 136.48 199.873 137.28ZM198.369 136.976C198.369 136.421 198.246 135.947 198.001 135.552C197.755 135.147 197.419 134.843 196.993 134.64C196.577 134.427 196.113 134.32 195.601 134.32C194.865 134.32 194.235 134.555 193.713 135.024C193.201 135.493 192.907 136.144 192.833 136.976H198.369ZM201.251 137.584C201.251 136.688 201.432 135.904 201.795 135.232C202.157 134.549 202.653 134.021 203.283 133.648C203.923 133.275 204.637 133.088 205.427 133.088C206.109 133.088 206.744 133.248 207.331 133.568C207.917 133.877 208.365 134.288 208.675 134.8V130.16H210.147V142H208.675V140.352C208.387 140.875 207.96 141.307 207.395 141.648C206.829 141.979 206.168 142.144 205.411 142.144C204.632 142.144 203.923 141.952 203.283 141.568C202.653 141.184 202.157 140.645 201.795 139.952C201.432 139.259 201.251 138.469 201.251 137.584ZM208.675 137.6C208.675 136.939 208.541 136.363 208.275 135.872C208.008 135.381 207.645 135.008 207.187 134.752C206.739 134.485 206.243 134.352 205.699 134.352C205.155 134.352 204.659 134.48 204.211 134.736C203.763 134.992 203.405 135.365 203.139 135.856C202.872 136.347 202.739 136.923 202.739 137.584C202.739 138.256 202.872 138.843 203.139 139.344C203.405 139.835 203.763 140.213 204.211 140.48C204.659 140.736 205.155 140.864 205.699 140.864C206.243 140.864 206.739 140.736 207.187 140.48C207.645 140.213 208.008 139.835 208.275 139.344C208.541 138.843 208.675 138.261 208.675 137.6ZM213.071 142.096C212.794 142.096 212.559 142 212.367 141.808C212.175 141.616 212.079 141.381 212.079 141.104C212.079 140.827 212.175 140.592 212.367 140.4C212.559 140.208 212.794 140.112 213.071 140.112C213.338 140.112 213.562 140.208 213.743 140.4C213.935 140.592 214.031 140.827 214.031 141.104C214.031 141.381 213.935 141.616 213.743 141.808C213.562 142 213.338 142.096 213.071 142.096Z" fill="#B0BEC9"/>
<defs>
<clipPath id="clip0_4070_155236">
<rect width="65" height="65" fill="white" transform="translate(73 10)"/>
</clipPath>
</defs>
</svg>
