<svg width="8" height="8" viewBox="0 0 8 8" fill="none" xmlns="http://www.w3.org/2000/svg">
<path d="M3.72604 6.52235C3.75662 6.56676 3.79754 6.60308 3.84527 6.62817C3.893 6.65325 3.94612 6.66636 4.00004 6.66636C4.05396 6.66636 4.10708 6.65325 4.15481 6.62817C4.20254 6.60308 4.24346 6.56676 4.27404 6.52235L7.27404 2.18902C7.30877 2.13903 7.32913 2.08049 7.33292 2.01975C7.33671 1.95901 7.32378 1.89839 7.29554 1.84448C7.26729 1.79057 7.22482 1.74543 7.17272 1.71397C7.12062 1.6825 7.0609 1.66592 7.00004 1.66602H1.00004C0.939321 1.66627 0.879819 1.68306 0.827934 1.7146C0.776048 1.74614 0.733741 1.79123 0.705563 1.84501C0.677385 1.8988 0.664402 1.95925 0.66801 2.01986C0.671618 2.08047 0.69168 2.13895 0.72604 2.18902L3.72604 6.52235Z" fill="#2797E8"/>
</svg>
