<svg width="29" height="29" viewBox="0 0 29 29" fill="none" xmlns="http://www.w3.org/2000/svg">
<circle opacity="0.2" cx="14.5488" cy="14.7969" r="14" fill="#2797E8"/>
<g clip-path="url(#clip0_4164_32808)">
<path fill-rule="evenodd" clip-rule="evenodd" d="M8.54883 14.7969C8.54883 11.4831 11.235 8.79688 14.5488 8.79688C17.8626 8.79688 20.5488 11.4831 20.5488 14.7969C20.5488 18.1107 17.8626 20.7969 14.5488 20.7969C11.235 20.7969 8.54883 18.1107 8.54883 14.7969ZM15.1488 12.3969C15.1488 12.2377 15.0856 12.0851 14.9731 11.9726C14.8606 11.8601 14.708 11.7969 14.5488 11.7969C14.3897 11.7969 14.2371 11.8601 14.1246 11.9726C14.012 12.0851 13.9488 12.2377 13.9488 12.3969C13.9488 12.556 14.012 12.7086 14.1246 12.8211C14.2371 12.9337 14.3897 12.9969 14.5488 12.9969C14.708 12.9969 14.8606 12.9337 14.9731 12.8211C15.0856 12.7086 15.1488 12.556 15.1488 12.3969ZM14.5488 17.7969C14.708 17.7969 14.8606 17.7337 14.9731 17.6211C15.0856 17.5086 15.1488 17.356 15.1488 17.1969V14.7969C15.1488 14.6377 15.0856 14.4851 14.9731 14.3726C14.8606 14.2601 14.708 14.1969 14.5488 14.1969C14.3897 14.1969 14.2371 14.2601 14.1246 14.3726C14.012 14.4851 13.9488 14.6377 13.9488 14.7969V17.1969C13.9488 17.356 14.012 17.5086 14.1246 17.6211C14.2371 17.7337 14.3897 17.7969 14.5488 17.7969Z" fill="#2797E8"/>
</g>
<defs>
<clipPath id="clip0_4164_32808">
<rect width="12" height="12" fill="white" transform="translate(8.54883 8.79688)"/>
</clipPath>
</defs>
</svg>
