<svg width="26" height="26" viewBox="0 0 26 26" fill="none" xmlns="http://www.w3.org/2000/svg">
<path d="M17.3988 2.6584C17.7034 2.96313 17.8745 3.37638 17.8745 3.80727C17.8745 4.23816 17.7034 4.65141 17.3988 4.95615L9.35502 12.9999L17.3988 21.0436C17.6948 21.3501 17.8586 21.7606 17.8549 22.1867C17.8512 22.6127 17.6803 23.0203 17.379 23.3216C17.0777 23.6229 16.6701 23.7938 16.244 23.7975C15.818 23.8012 15.4075 23.6374 15.101 23.3414L5.90839 14.1488C5.60375 13.844 5.43262 13.4308 5.43262 12.9999C5.43262 12.569 5.60375 12.1558 5.90839 11.851L15.101 2.6584C15.4058 2.35375 15.819 2.18262 16.2499 2.18262C16.6808 2.18262 17.094 2.35375 17.3988 2.6584Z" fill="#3D4C66"/>
</svg>
