<svg width="22" height="25" viewBox="0 0 22 25" fill="none" xmlns="http://www.w3.org/2000/svg">
<path fill-rule="evenodd" clip-rule="evenodd" d="M7.83985 8.01314C6.88421 9.58876 6.02456 11.1659 5.49663 12.2003L4.17115 10.6883C3.34659 9.73142 3.34659 8.23337 4.17115 7.27651C4.56143 6.82673 5.10182 6.57133 5.66743 6.56934H8.75173C8.44401 7.03303 8.13769 7.51688 7.83985 8.01314Z" stroke="#243249" stroke-width="2" stroke-linecap="round" stroke-linejoin="round"/>
<path fill-rule="evenodd" clip-rule="evenodd" d="M15.1453 16.0384C13.7111 17.0883 12.2755 18.0328 11.334 18.6128L12.7103 20.069C13.5812 20.9749 14.9448 20.9749 15.8158 20.069C16.2251 19.6402 16.4576 19.0465 16.4594 18.4251V15.0366C16.0374 15.3747 15.597 15.7112 15.1453 16.0384Z" stroke="#243249" stroke-width="2" stroke-linecap="round" stroke-linejoin="round"/>
<path d="M5.07074 15.1684C5.44241 14.7599 5.41255 14.1275 5.00404 13.7558C4.59553 13.3841 3.96307 13.414 3.5914 13.8225L5.07074 15.1684ZM0.317949 17.4204C-0.0537231 17.8289 -0.0238619 18.4613 0.384646 18.833C0.793153 19.2047 1.42561 19.1748 1.79729 18.7663L0.317949 17.4204ZM7.52562 17.8682C7.89721 17.4597 7.86721 16.8272 7.45862 16.4556C7.05003 16.084 6.41758 16.114 6.04599 16.5226L7.52562 17.8682ZM4.41139 18.32C4.0398 18.7286 4.0698 19.361 4.47839 19.7326C4.88697 20.1042 5.51943 20.0742 5.89101 19.6656L4.41139 18.32ZM6.23575 11.5201C5.8635 11.1121 5.231 11.0831 4.82302 11.4554C4.41504 11.8276 4.38607 12.4601 4.75832 12.8681L6.23575 11.5201ZM8.42183 15.3996L9.16216 14.7274L9.16054 14.7256L8.42183 15.3996ZM10.5992 19.2851C10.9705 19.694 11.6029 19.7245 12.0118 19.3532C12.4207 18.9819 12.4512 18.3495 12.0799 17.9406L10.5992 19.2851ZM7.89906 6.03819C7.61089 6.50933 7.75921 7.12488 8.23035 7.41305C8.70149 7.70123 9.31704 7.5529 9.60522 7.08176L7.89906 6.03819ZM11.3184 3.2552L10.6441 2.51675C10.6301 2.52953 10.6165 2.5427 10.6032 2.55625L11.3184 3.2552ZM20.687 1.92461L21.683 1.83428C21.64 1.36033 21.2689 0.98233 20.7959 0.930544L20.687 1.92461ZM19.4759 12.2189L20.2387 12.8655C20.2507 12.8513 20.2624 12.8368 20.2736 12.8219L19.4759 12.2189ZM15.8739 14.2337C15.4296 14.5618 15.3353 15.1879 15.6633 15.6322C15.9913 16.0765 16.6175 16.1708 17.0618 15.8428L15.8739 14.2337ZM9.98416 20.5671C10.356 20.1588 10.3264 19.5263 9.91807 19.1545C9.50972 18.7826 8.87725 18.8122 8.5054 19.2206L9.98416 20.5671ZM5.23054 22.8169C4.85869 23.2252 4.88828 23.8577 5.29663 24.2295C5.70497 24.6014 6.33745 24.5718 6.70929 24.1635L5.23054 22.8169ZM17.7918 6.59107C18.1635 6.18264 18.1338 5.55018 17.7254 5.17842C17.3169 4.80666 16.6845 4.83638 16.3127 5.24481L17.7918 6.59107ZM14.5666 7.16316C14.1948 7.57159 14.2245 8.20406 14.633 8.57582C15.0414 8.94758 15.6739 8.91785 16.0456 8.50942L14.5666 7.16316ZM3.5914 13.8225L0.317949 17.4204L1.79729 18.7663L5.07074 15.1684L3.5914 13.8225ZM6.04599 16.5226L4.41139 18.32L5.89101 19.6656L7.52562 17.8682L6.04599 16.5226ZM4.75832 12.8681L7.68312 16.0736L9.16054 14.7256L6.23575 11.5201L4.75832 12.8681ZM7.6815 16.0718L10.5992 19.2851L12.0799 17.9406L9.16216 14.7274L7.6815 16.0718ZM9.60522 7.08176C10.3044 5.93865 11.1195 4.88946 12.0336 3.95415L10.6032 2.55625C9.58199 3.60118 8.67495 4.76968 7.89906 6.03819L9.60522 7.08176ZM11.9927 3.99365C12.2926 3.71979 12.7949 3.46457 13.5066 3.26055C14.2049 3.06039 15.0288 2.9307 15.8981 2.85707C17.6379 2.70971 19.452 2.79538 20.5782 2.91867L20.7959 0.930544C19.5704 0.7964 17.6241 0.703723 15.7293 0.864203C14.7815 0.944487 13.8196 1.09027 12.9555 1.33799C12.1048 1.58186 11.2681 1.94697 10.6441 2.51675L11.9927 3.99365ZM19.6911 2.01493C19.8046 3.26549 19.8833 5.27636 19.7477 7.20878C19.6799 8.17483 19.5601 9.09789 19.3731 9.88564C19.1819 10.6909 18.9396 11.27 18.6782 11.6158L20.2736 12.8219C20.7801 12.152 21.1025 11.2594 21.319 10.3477C21.5396 9.41849 21.6705 8.37939 21.7428 7.34877C21.8874 5.28786 21.8039 3.16737 21.683 1.83428L19.6911 2.01493ZM18.7131 11.5722C17.8608 12.5777 16.9079 13.4704 15.8739 14.2337L17.0618 15.8428C18.2229 14.9856 19.2886 13.9863 20.2387 12.8655L18.7131 11.5722ZM8.5054 19.2206L5.23054 22.8169L6.70929 24.1635L9.98416 20.5671L8.5054 19.2206ZM16.3127 5.24481L14.5666 7.16316L16.0456 8.50942L17.7918 6.59107L16.3127 5.24481Z" fill="#243249"/>
</svg>
