<svg width="50" height="50" viewBox="0 0 50 50" fill="none" xmlns="http://www.w3.org/2000/svg">
<path d="M25.1246 28.5977C24.3769 28.6033 23.6525 28.8592 23.0671 29.3245C22.4818 29.7898 22.069 30.4378 21.8948 31.165C21.7206 31.8922 21.7949 32.6568 22.1059 33.3369C22.4169 34.0169 22.9467 34.5732 23.6107 34.9171V38.8893H26.3885V35.0421C27.1056 34.7482 27.6986 34.2146 28.0661 33.5323C28.4336 32.8499 28.553 32.0612 28.4039 31.3007C28.2547 30.5402 27.8463 29.855 27.2482 29.362C26.6502 28.8691 25.8996 28.5989 25.1246 28.5977Z" fill="#B0BEC9"/>
<path d="M36.1115 20.8329V14.8885C36.1712 11.8772 35.0356 8.9649 32.9533 6.78885C30.8709 4.61281 28.0114 3.35021 25.0004 3.27734C21.9895 3.35021 19.1299 4.61281 17.0476 6.78885C14.9653 8.9649 13.8297 11.8772 13.8893 14.8885V20.8329H9.72266V44.444C9.72266 45.1807 10.0153 45.8873 10.5362 46.4082C11.0572 46.9291 11.7637 47.2218 12.5004 47.2218H37.5004C38.2371 47.2218 38.9437 46.9291 39.4646 46.4082C39.9856 45.8873 40.2782 45.1807 40.2782 44.444V20.8329H36.1115ZM16.6671 14.8885C16.6072 12.6138 17.4501 10.4079 19.0116 8.75273C20.573 7.09757 22.7261 6.12774 25.0004 6.05512C27.2747 6.12774 29.4278 7.09757 30.9893 8.75273C32.5508 10.4079 33.3936 12.6138 33.3338 14.8885V20.8329H16.6671V14.8885ZM12.5004 44.444V23.6107H37.5004V44.444H12.5004Z" fill="#B0BEC9"/>
</svg>
