<svg width="260" height="165" viewBox="0 0 260 165" fill="none" xmlns="http://www.w3.org/2000/svg">
<path d="M9.54827 128.228V135.984L4.42427 128.228H3.15027V138H4.42427V130.23L9.54827 138H10.8223V128.228H9.54827ZM20.274 134.15C20.274 131.728 18.58 130.202 16.396 130.202C14.226 130.202 12.518 131.728 12.518 134.15C12.518 136.586 14.17 138.126 16.34 138.126C18.524 138.126 20.274 136.586 20.274 134.15ZM13.82 134.15C13.82 132.218 15.038 131.308 16.382 131.308C17.698 131.308 18.972 132.218 18.972 134.15C18.972 136.096 17.67 137.006 16.34 137.006C15.01 137.006 13.82 136.096 13.82 134.15ZM25.2055 134.136C25.2055 136.516 26.7875 138.126 28.8315 138.126C30.2455 138.126 31.2395 137.398 31.7015 136.572V138H32.9895V130.328H31.7015V131.728C31.2535 130.93 30.2735 130.202 28.8455 130.202C26.7875 130.202 25.2055 131.742 25.2055 134.136ZM31.7015 134.15C31.7015 135.956 30.4975 137.006 29.0975 137.006C27.6975 137.006 26.5075 135.942 26.5075 134.136C26.5075 132.33 27.6975 131.308 29.0975 131.308C30.4975 131.308 31.7015 132.372 31.7015 134.15ZM36.4165 131.742V130.328H35.1425V141.64H36.4165V136.586C36.8925 137.37 37.8865 138.126 39.2865 138.126C41.3445 138.126 42.9265 136.516 42.9265 134.136C42.9265 131.742 41.3445 130.202 39.2865 130.202C37.8865 130.202 36.8785 130.93 36.4165 131.742ZM41.6245 134.136C41.6245 135.942 40.4345 137.006 39.0205 137.006C37.6345 137.006 36.4165 135.956 36.4165 134.15C36.4165 132.372 37.6345 131.308 39.0205 131.308C40.4345 131.308 41.6245 132.33 41.6245 134.136ZM45.8774 131.742V130.328H44.6034V141.64H45.8774V136.586C46.3534 137.37 47.3474 138.126 48.7474 138.126C50.8054 138.126 52.3874 136.516 52.3874 134.136C52.3874 131.742 50.8054 130.202 48.7474 130.202C47.3474 130.202 46.3394 130.93 45.8774 131.742ZM51.0854 134.136C51.0854 135.942 49.8954 137.006 48.4814 137.006C47.0954 137.006 45.8774 135.956 45.8774 134.15C45.8774 132.372 47.0954 131.308 48.4814 131.308C49.8954 131.308 51.0854 132.33 51.0854 134.136ZM59.5803 135.914C59.5243 133.17 55.0723 134.164 55.0723 132.344C55.0723 131.728 55.6323 131.28 56.5703 131.28C57.5923 131.28 58.1803 131.84 58.2363 132.61H59.5103C59.4263 131.112 58.3063 130.202 56.6123 130.202C54.9043 130.202 53.7983 131.168 53.7983 132.344C53.7983 135.2 58.3343 134.206 58.3343 135.914C58.3343 136.544 57.7743 137.048 56.7663 137.048C55.6883 137.048 55.0303 136.488 54.9603 135.746H53.6443C53.7283 137.146 54.9883 138.126 56.7803 138.126C58.4743 138.126 59.5803 137.174 59.5803 135.914ZM65.1112 138H66.3852V130.328H65.1112V138ZM65.7692 129.082C66.2312 129.082 66.6092 128.704 66.6092 128.214C66.6092 127.724 66.2312 127.346 65.7692 127.346C65.2792 127.346 64.9012 127.724 64.9012 128.214C64.9012 128.704 65.2792 129.082 65.7692 129.082ZM74.1705 138H75.4305V133.478C75.4305 131.28 74.0725 130.188 72.2945 130.188C71.2585 130.188 70.3345 130.622 69.8305 131.42V130.328H68.5565V138H69.8305V133.758C69.8305 132.106 70.7265 131.294 72.0285 131.294C73.3165 131.294 74.1705 132.092 74.1705 133.66V138ZM83.0276 135.914C82.9716 133.17 78.5196 134.164 78.5196 132.344C78.5196 131.728 79.0796 131.28 80.0176 131.28C81.0396 131.28 81.6276 131.84 81.6836 132.61H82.9576C82.8736 131.112 81.7536 130.202 80.0596 130.202C78.3516 130.202 77.2456 131.168 77.2456 132.344C77.2456 135.2 81.7816 134.206 81.7816 135.914C81.7816 136.544 81.2216 137.048 80.2136 137.048C79.1356 137.048 78.4776 136.488 78.4076 135.746H77.0916C77.1756 137.146 78.4356 138.126 80.2276 138.126C81.9216 138.126 83.0276 137.174 83.0276 135.914ZM85.106 135.9C85.106 137.44 85.876 138 87.234 138H88.382V136.922H87.444C86.66 136.922 86.38 136.656 86.38 135.9V131.378H88.382V130.328H86.38V128.396H85.106V130.328H84.112V131.378H85.106V135.9ZM89.4497 134.136C89.4497 136.516 91.0317 138.126 93.0757 138.126C94.4897 138.126 95.4837 137.398 95.9457 136.572V138H97.2337V130.328H95.9457V131.728C95.4977 130.93 94.5177 130.202 93.0897 130.202C91.0317 130.202 89.4497 131.742 89.4497 134.136ZM95.9457 134.15C95.9457 135.956 94.7417 137.006 93.3417 137.006C91.9417 137.006 90.7517 135.942 90.7517 134.136C90.7517 132.33 91.9417 131.308 93.3417 131.308C94.7417 131.308 95.9457 132.372 95.9457 134.15ZM99.3866 138H100.661V127.64H99.3866V138ZM102.832 138H104.106V127.64H102.832V138ZM109.539 131.28C110.855 131.28 111.975 132.106 111.961 133.604H107.117C107.257 132.106 108.293 131.28 109.539 131.28ZM113.123 135.634H111.751C111.471 136.46 110.743 137.048 109.595 137.048C108.293 137.048 107.201 136.194 107.103 134.64H113.235C113.263 134.374 113.277 134.15 113.277 133.87C113.277 131.77 111.821 130.202 109.595 130.202C107.355 130.202 105.801 131.728 105.801 134.15C105.801 136.586 107.411 138.126 109.595 138.126C111.499 138.126 112.731 137.034 113.123 135.634ZM114.483 134.136C114.483 136.516 116.065 138.126 118.123 138.126C119.523 138.126 120.517 137.412 120.979 136.558V138H122.267V127.64H120.979V131.7C120.447 130.818 119.341 130.202 118.137 130.202C116.065 130.202 114.483 131.742 114.483 134.136ZM120.979 134.15C120.979 135.956 119.775 137.006 118.375 137.006C116.975 137.006 115.785 135.942 115.785 134.136C115.785 132.33 116.975 131.308 118.375 131.308C119.775 131.308 120.979 132.372 120.979 134.15ZM123.314 140.002H124.168L125.736 136.236H124.336L123.314 140.002ZM131.208 135.9C131.208 137.44 131.978 138 133.336 138H134.484V136.922H133.546C132.762 136.922 132.482 136.656 132.482 135.9V131.378H134.484V130.328H132.482V128.396H131.208V130.328H130.214V131.378H131.208V135.9ZM137.301 133.828C137.301 132.05 138.225 131.504 139.443 131.504H139.779V130.188C138.561 130.188 137.735 130.72 137.301 131.574V130.328H136.027V138H137.301V133.828ZM144.162 136.544L141.754 130.328H140.34L143.434 137.916L141.922 141.612H143.238L147.858 130.328H146.542L144.162 136.544ZM152.871 138H154.145V130.328H152.871V138ZM153.529 129.082C153.991 129.082 154.369 128.704 154.369 128.214C154.369 127.724 153.991 127.346 153.529 127.346C153.039 127.346 152.661 127.724 152.661 128.214C152.661 128.704 153.039 129.082 153.529 129.082ZM161.93 138H163.19V133.478C163.19 131.28 161.832 130.188 160.054 130.188C159.018 130.188 158.094 130.622 157.59 131.42V130.328H156.316V138H157.59V133.758C157.59 132.106 158.486 131.294 159.788 131.294C161.076 131.294 161.93 132.092 161.93 133.66V138ZM170.787 135.914C170.731 133.17 166.279 134.164 166.279 132.344C166.279 131.728 166.839 131.28 167.777 131.28C168.799 131.28 169.387 131.84 169.443 132.61H170.717C170.633 131.112 169.513 130.202 167.819 130.202C166.111 130.202 165.005 131.168 165.005 132.344C165.005 135.2 169.541 134.206 169.541 135.914C169.541 136.544 168.981 137.048 167.973 137.048C166.895 137.048 166.237 136.488 166.167 135.746H164.851C164.935 137.146 166.195 138.126 167.987 138.126C169.681 138.126 170.787 137.174 170.787 135.914ZM172.866 135.9C172.866 137.44 173.636 138 174.994 138H176.142V136.922H175.204C174.42 136.922 174.14 136.656 174.14 135.9V131.378H176.142V130.328H174.14V128.396H172.866V130.328H171.872V131.378H172.866V135.9ZM177.209 134.136C177.209 136.516 178.791 138.126 180.835 138.126C182.249 138.126 183.243 137.398 183.705 136.572V138H184.993V130.328H183.705V131.728C183.257 130.93 182.277 130.202 180.849 130.202C178.791 130.202 177.209 131.742 177.209 134.136ZM183.705 134.15C183.705 135.956 182.501 137.006 181.101 137.006C179.701 137.006 178.511 135.942 178.511 134.136C178.511 132.33 179.701 131.308 181.101 131.308C182.501 131.308 183.705 132.372 183.705 134.15ZM187.146 138H188.42V127.64H187.146V138ZM190.592 138H191.866V127.64H190.592V138ZM194.037 138H195.311V130.328H194.037V138ZM194.695 129.082C195.157 129.082 195.535 128.704 195.535 128.214C195.535 127.724 195.157 127.346 194.695 127.346C194.205 127.346 193.827 127.724 193.827 128.214C193.827 128.704 194.205 129.082 194.695 129.082ZM203.096 138H204.356V133.478C204.356 131.28 202.998 130.188 201.22 130.188C200.184 130.188 199.26 130.622 198.756 131.42V130.328H197.482V138H198.756V133.758C198.756 132.106 199.652 131.294 200.954 131.294C202.242 131.294 203.096 132.092 203.096 133.66V138ZM205.961 134.136C205.961 136.516 207.543 138.126 209.601 138.126C211.001 138.126 211.995 137.384 212.457 136.558V138.168C212.457 139.806 211.435 140.674 210.077 140.674C208.817 140.674 207.907 140.044 207.627 139.12H206.367C206.619 140.758 208.061 141.78 210.077 141.78C212.331 141.78 213.745 140.282 213.745 138.168V130.328H212.457V131.728C212.009 130.902 211.001 130.202 209.601 130.202C207.543 130.202 205.961 131.742 205.961 134.136ZM212.457 134.15C212.457 135.956 211.253 137.006 209.853 137.006C208.453 137.006 207.263 135.942 207.263 134.136C207.263 132.33 208.453 131.308 209.853 131.308C211.253 131.308 212.457 132.372 212.457 134.15ZM225.147 135.914C225.091 133.17 220.639 134.164 220.639 132.344C220.639 131.728 221.199 131.28 222.137 131.28C223.159 131.28 223.747 131.84 223.803 132.61H225.077C224.993 131.112 223.873 130.202 222.179 130.202C220.471 130.202 219.365 131.168 219.365 132.344C219.365 135.2 223.901 134.206 223.901 135.914C223.901 136.544 223.341 137.048 222.333 137.048C221.255 137.048 220.597 136.488 220.527 135.746H219.211C219.295 137.146 220.555 138.126 222.347 138.126C224.041 138.126 225.147 137.174 225.147 135.914ZM234.225 134.15C234.225 131.728 232.531 130.202 230.347 130.202C228.177 130.202 226.469 131.728 226.469 134.15C226.469 136.586 228.121 138.126 230.291 138.126C232.475 138.126 234.225 136.586 234.225 134.15ZM227.771 134.15C227.771 132.218 228.989 131.308 230.333 131.308C231.649 131.308 232.923 132.218 232.923 134.15C232.923 136.096 231.621 137.006 230.291 137.006C228.961 137.006 227.771 136.096 227.771 134.15ZM246.974 138H248.234V133.478C248.234 131.28 246.876 130.188 245.126 130.188C243.95 130.188 242.858 130.79 242.41 131.896C241.906 130.748 240.856 130.188 239.596 130.188C238.588 130.188 237.678 130.622 237.174 131.434V130.328H235.9V138H237.174V133.772C237.174 132.12 238.056 131.294 239.344 131.294C240.604 131.294 241.444 132.092 241.444 133.66V138H242.704V133.772C242.704 132.12 243.586 131.294 244.874 131.294C246.134 131.294 246.974 132.092 246.974 133.66V138ZM253.586 131.28C254.902 131.28 256.022 132.106 256.008 133.604H251.164C251.304 132.106 252.34 131.28 253.586 131.28ZM257.17 135.634H255.798C255.518 136.46 254.79 137.048 253.642 137.048C252.34 137.048 251.248 136.194 251.15 134.64H257.282C257.31 134.374 257.324 134.15 257.324 133.87C257.324 131.77 255.868 130.202 253.642 130.202C251.402 130.202 249.848 131.728 249.848 134.15C249.848 136.586 251.458 138.126 253.642 138.126C255.546 138.126 256.778 137.034 257.17 135.634ZM21.8901 152.136C21.8901 154.516 23.4721 156.126 25.5161 156.126C26.9301 156.126 27.9241 155.398 28.3861 154.572V156H29.6741V148.328H28.3861V149.728C27.9381 148.93 26.9581 148.202 25.5301 148.202C23.4721 148.202 21.8901 149.742 21.8901 152.136ZM28.3861 152.15C28.3861 153.956 27.1821 155.006 25.7821 155.006C24.3821 155.006 23.1921 153.942 23.1921 152.136C23.1921 150.33 24.3821 149.308 25.7821 149.308C27.1821 149.308 28.3861 150.372 28.3861 152.15ZM33.101 149.742V148.328H31.827V159.64H33.101V154.586C33.577 155.37 34.571 156.126 35.971 156.126C38.029 156.126 39.611 154.516 39.611 152.136C39.611 149.742 38.029 148.202 35.971 148.202C34.571 148.202 33.563 148.93 33.101 149.742ZM38.309 152.136C38.309 153.942 37.119 155.006 35.705 155.006C34.319 155.006 33.101 153.956 33.101 152.15C33.101 150.372 34.319 149.308 35.705 149.308C37.119 149.308 38.309 150.33 38.309 152.136ZM42.562 149.742V148.328H41.288V159.64H42.562V154.586C43.038 155.37 44.032 156.126 45.432 156.126C47.49 156.126 49.072 154.516 49.072 152.136C49.072 149.742 47.49 148.202 45.432 148.202C44.032 148.202 43.024 148.93 42.562 149.742ZM47.77 152.136C47.77 153.942 46.58 155.006 45.166 155.006C43.78 155.006 42.562 153.956 42.562 152.15C42.562 150.372 43.78 149.308 45.166 149.308C46.58 149.308 47.77 150.33 47.77 152.136ZM56.2649 153.914C56.2089 151.17 51.7569 152.164 51.7569 150.344C51.7569 149.728 52.3169 149.28 53.2549 149.28C54.2769 149.28 54.8649 149.84 54.9209 150.61H56.1949C56.1109 149.112 54.9909 148.202 53.2969 148.202C51.5889 148.202 50.4829 149.168 50.4829 150.344C50.4829 153.2 55.0189 152.206 55.0189 153.914C55.0189 154.544 54.4589 155.048 53.4509 155.048C52.3729 155.048 51.7149 154.488 51.6449 153.746H50.3289C50.4129 155.146 51.6729 156.126 53.4649 156.126C55.1589 156.126 56.2649 155.174 56.2649 153.914ZM62.0338 156H63.3078V149.378H64.9178V148.328H63.3078V147.782C63.3078 146.788 63.6858 146.368 64.8338 146.368V145.304C62.8738 145.304 62.0338 146.074 62.0338 147.782V148.328H61.0398V149.378H62.0338V156ZM67.6772 151.828C67.6772 150.05 68.6012 149.504 69.8192 149.504H70.1552V148.188C68.9372 148.188 68.1112 148.72 67.6772 149.574V148.328H66.4032V156H67.6772V151.828ZM78.9059 152.15C78.9059 149.728 77.2119 148.202 75.0279 148.202C72.8579 148.202 71.1499 149.728 71.1499 152.15C71.1499 154.586 72.8019 156.126 74.9719 156.126C77.1559 156.126 78.9059 154.586 78.9059 152.15ZM72.4519 152.15C72.4519 150.218 73.6699 149.308 75.0139 149.308C76.3299 149.308 77.6039 150.218 77.6039 152.15C77.6039 154.096 76.3019 155.006 74.9719 155.006C73.6419 155.006 72.4519 154.096 72.4519 152.15ZM91.6549 156H92.9149V151.478C92.9149 149.28 91.5569 148.188 89.8069 148.188C88.6309 148.188 87.5389 148.79 87.0909 149.896C86.5869 148.748 85.5369 148.188 84.2769 148.188C83.2689 148.188 82.3589 148.622 81.8549 149.434V148.328H80.5809V156H81.8549V151.772C81.8549 150.12 82.7369 149.294 84.0249 149.294C85.2849 149.294 86.1249 150.092 86.1249 151.66V156H87.3849V151.772C87.3849 150.12 88.2669 149.294 89.5549 149.294C90.8149 149.294 91.6549 150.092 91.6549 151.66V156ZM99.0172 153.9C99.0172 155.44 99.7872 156 101.145 156H102.293V154.922H101.355C100.571 154.922 100.291 154.656 100.291 153.9V149.378H102.293V148.328H100.291V146.396H99.0172V148.328H98.0232V149.378H99.0172V153.9ZM103.837 156H105.111V151.758C105.111 150.106 106.007 149.294 107.309 149.294C108.597 149.294 109.451 150.092 109.451 151.66V156H110.711V151.478C110.711 149.28 109.353 148.188 107.645 148.188C106.567 148.188 105.615 148.622 105.111 149.434V145.64H103.837V156ZM116.054 149.28C117.37 149.28 118.49 150.106 118.476 151.604H113.632C113.772 150.106 114.808 149.28 116.054 149.28ZM119.638 153.634H118.266C117.986 154.46 117.258 155.048 116.11 155.048C114.808 155.048 113.716 154.194 113.618 152.64H119.75C119.778 152.374 119.792 152.15 119.792 151.87C119.792 149.77 118.336 148.202 116.11 148.202C113.87 148.202 112.316 149.728 112.316 152.15C112.316 154.586 113.926 156.126 116.11 156.126C118.014 156.126 119.246 155.034 119.638 153.634ZM134.53 151.114C134.53 148.188 132.388 146.13 129.63 146.13C126.886 146.13 124.73 148.188 124.73 151.114C124.73 154.04 126.886 156.098 129.63 156.098C132.388 156.098 134.53 154.04 134.53 151.114ZM126.032 151.114C126.032 148.72 127.572 147.236 129.63 147.236C131.688 147.236 133.228 148.72 133.228 151.114C133.228 153.494 131.688 154.992 129.63 154.992C127.572 154.992 126.032 153.494 126.032 151.114ZM136.212 156H137.486V145.64H136.212V156ZM139.657 156H140.931V148.328H139.657V156ZM140.315 147.082C140.777 147.082 141.155 146.704 141.155 146.214C141.155 145.724 140.777 145.346 140.315 145.346C139.825 145.346 139.447 145.724 139.447 146.214C139.447 146.704 139.825 147.082 140.315 147.082ZM142.192 148.328L145.202 156H146.686L149.696 148.328H148.338L145.958 154.824L143.564 148.328H142.192ZM154.212 149.28C155.528 149.28 156.648 150.106 156.634 151.604H151.79C151.93 150.106 152.966 149.28 154.212 149.28ZM157.796 153.634H156.424C156.144 154.46 155.416 155.048 154.268 155.048C152.966 155.048 151.874 154.194 151.776 152.64H157.908C157.936 152.374 157.95 152.15 157.95 151.87C157.95 149.77 156.494 148.202 154.268 148.202C152.028 148.202 150.474 149.728 150.474 152.15C150.474 154.586 152.084 156.126 154.268 156.126C156.172 156.126 157.404 155.034 157.796 153.634ZM160.906 151.828C160.906 150.05 161.83 149.504 163.048 149.504H163.384V148.188C162.166 148.188 161.34 148.72 160.906 149.574V148.328H159.632V156H160.906V151.828ZM175.139 156H176.483L172.969 146.298H171.499L167.971 156H169.315L170.099 153.83H174.355L175.139 156ZM173.991 152.794H170.463L172.227 147.866L173.991 152.794ZM179.294 149.742V148.328H178.02V159.64H179.294V154.586C179.77 155.37 180.764 156.126 182.164 156.126C184.222 156.126 185.804 154.516 185.804 152.136C185.804 149.742 184.222 148.202 182.164 148.202C180.764 148.202 179.756 148.93 179.294 149.742ZM184.502 152.136C184.502 153.942 183.312 155.006 181.898 155.006C180.512 155.006 179.294 153.956 179.294 152.15C179.294 150.372 180.512 149.308 181.898 149.308C183.312 149.308 184.502 150.33 184.502 152.136ZM188.755 149.742V148.328H187.481V159.64H188.755V154.586C189.231 155.37 190.225 156.126 191.625 156.126C193.683 156.126 195.265 154.516 195.265 152.136C195.265 149.742 193.683 148.202 191.625 148.202C190.225 148.202 189.217 148.93 188.755 149.742ZM193.963 152.136C193.963 153.942 192.773 155.006 191.359 155.006C189.973 155.006 188.755 153.956 188.755 152.15C188.755 150.372 189.973 149.308 191.359 149.308C192.773 149.308 193.963 150.33 193.963 152.136ZM207.017 153.34C207.017 149.728 201.753 151.296 201.753 148.776C201.753 147.726 202.579 147.18 203.629 147.208C204.819 147.222 205.435 147.964 205.519 148.622H206.919C206.765 147.138 205.547 146.116 203.685 146.116C201.753 146.116 200.451 147.208 200.451 148.818C200.451 152.444 205.729 150.764 205.729 153.396C205.729 154.32 205.001 155.02 203.769 155.02C202.411 155.02 201.837 154.208 201.753 153.396H200.395C200.423 155.006 201.809 156.098 203.769 156.098C205.883 156.098 207.017 154.726 207.017 153.34ZM209.171 153.9C209.171 155.44 209.941 156 211.299 156H212.447V154.922H211.509C210.725 154.922 210.445 154.656 210.445 153.9V149.378H212.447V148.328H210.445V146.396H209.171V148.328H208.177V149.378H209.171V153.9ZM221.271 152.15C221.271 149.728 219.577 148.202 217.393 148.202C215.223 148.202 213.515 149.728 213.515 152.15C213.515 154.586 215.167 156.126 217.337 156.126C219.521 156.126 221.271 154.586 221.271 152.15ZM214.817 152.15C214.817 150.218 216.035 149.308 217.379 149.308C218.695 149.308 219.969 150.218 219.969 152.15C219.969 154.096 218.667 155.006 217.337 155.006C216.007 155.006 214.817 154.096 214.817 152.15ZM224.22 151.828C224.22 150.05 225.144 149.504 226.362 149.504H226.698V148.188C225.48 148.188 224.654 148.72 224.22 149.574V148.328H222.946V156H224.22V151.828ZM231.431 149.28C232.747 149.28 233.867 150.106 233.853 151.604H229.009C229.149 150.106 230.185 149.28 231.431 149.28ZM235.015 153.634H233.643C233.363 154.46 232.635 155.048 231.487 155.048C230.185 155.048 229.093 154.194 228.995 152.64H235.127C235.155 152.374 235.169 152.15 235.169 151.87C235.169 149.77 233.713 148.202 231.487 148.202C229.247 148.202 227.693 149.728 227.693 152.15C227.693 154.586 229.303 156.126 231.487 156.126C233.391 156.126 234.623 155.034 235.015 153.634ZM238.096 155.216C238.096 154.726 237.718 154.348 237.256 154.348C236.766 154.348 236.388 154.726 236.388 155.216C236.388 155.706 236.766 156.084 237.256 156.084C237.718 156.084 238.096 155.706 238.096 155.216Z" fill="#758696"/>
<g opacity="0.5">
<path d="M134.591 6.32422H110.086V30.829H134.591V6.32422Z" fill="#758696"/>
<path d="M108.505 6.32422C95.8166 7.25642 85.6928 17.7158 84.7905 30.829H108.505V6.32422Z" fill="#758696"/>
<path d="M108.505 32.4092H84.7905V56.9139H108.505V32.4092Z" fill="#758696"/>
<path d="M160.676 32.4092H136.171V56.9139H160.676V32.4092Z" fill="#758696"/>
<path d="M136.171 82.2104C149.287 81.3124 159.744 71.1886 160.676 58.4961H136.171V82.2104Z" fill="#758696"/>
<path d="M134.591 58.4961H110.086V82.2104H134.591V58.4961Z" fill="#758696"/>
<path d="M108.505 58.4961H84.7905C85.6885 71.1929 95.808 81.3124 108.505 82.2104V58.4961Z" fill="#758696"/>
</g>
<path opacity="0.5" d="M194 70.2559L171.138 59.6457L160.528 82.5074C173.156 88.3633 188.142 82.8781 194 70.2559Z" fill="#758696"/>
</svg>
