<svg width="220" height="220" viewBox="0 0 220 220" fill="none" xmlns="http://www.w3.org/2000/svg">
<rect width="220" height="220" rx="8" fill="#F8FAFC"/>
<path d="M79.2023 133.69H77.7319L71.8182 124.723V133.69H70.3478V122.412H71.8182L77.7319 131.364V122.412H79.2023V133.69ZM85.5704 133.836C84.741 133.836 83.987 133.647 83.3084 133.27C82.6405 132.893 82.1127 132.36 81.7249 131.671C81.3479 130.971 81.1594 130.163 81.1594 129.247C81.1594 128.342 81.3533 127.545 81.7411 126.856C82.1396 126.156 82.6782 125.622 83.3568 125.256C84.0355 124.879 84.7949 124.691 85.6351 124.691C86.4753 124.691 87.2347 124.879 87.9133 125.256C88.5919 125.622 89.1251 126.15 89.5129 126.84C89.9115 127.529 90.1108 128.331 90.1108 129.247C90.1108 130.163 89.9061 130.971 89.4968 131.671C89.0982 132.36 88.5542 132.893 87.8648 133.27C87.1754 133.647 86.4106 133.836 85.5704 133.836ZM85.5704 132.543C86.0983 132.543 86.5938 132.419 87.057 132.172C87.5201 131.924 87.8918 131.552 88.1718 131.057C88.4627 130.561 88.6081 129.958 88.6081 129.247C88.6081 128.536 88.4681 127.933 88.188 127.437C87.9079 126.942 87.5417 126.576 87.0893 126.339C86.6369 126.091 86.1467 125.967 85.6189 125.967C85.0803 125.967 84.5848 126.091 84.1324 126.339C83.6908 126.576 83.3353 126.942 83.066 127.437C82.7967 127.933 82.6621 128.536 82.6621 129.247C82.6621 129.969 82.7913 130.577 83.0498 131.073C83.3191 131.568 83.6746 131.94 84.1162 132.188C84.5579 132.425 85.0426 132.543 85.5704 132.543ZM97.822 122.428V133.69H96.3517V122.428H97.822ZM110.976 124.674C111.665 124.674 112.279 124.82 112.818 125.111C113.357 125.391 113.782 125.816 114.094 126.387C114.407 126.958 114.563 127.653 114.563 128.471V133.69H113.109V128.682C113.109 127.798 112.888 127.125 112.446 126.662C112.015 126.188 111.428 125.951 110.685 125.951C109.92 125.951 109.312 126.199 108.859 126.694C108.407 127.179 108.181 127.884 108.181 128.811V133.69H106.726V128.682C106.726 127.798 106.506 127.125 106.064 126.662C105.633 126.188 105.046 125.951 104.303 125.951C103.538 125.951 102.929 126.199 102.477 126.694C102.025 127.179 101.798 127.884 101.798 128.811V133.69H100.328V124.836H101.798V126.112C102.089 125.649 102.477 125.294 102.962 125.046C103.457 124.798 104.001 124.674 104.594 124.674C105.337 124.674 105.994 124.841 106.565 125.175C107.136 125.509 107.561 125.999 107.841 126.646C108.089 126.021 108.498 125.536 109.069 125.191C109.64 124.847 110.276 124.674 110.976 124.674ZM116.426 129.231C116.426 128.326 116.609 127.534 116.975 126.856C117.341 126.166 117.842 125.633 118.478 125.256C119.124 124.879 119.84 124.691 120.627 124.691C121.402 124.691 122.075 124.858 122.646 125.191C123.217 125.525 123.643 125.945 123.923 126.452V124.836H125.409V133.69H123.923V132.042C123.632 132.559 123.196 132.99 122.614 133.335C122.043 133.669 121.375 133.836 120.61 133.836C119.824 133.836 119.113 133.642 118.478 133.254C117.842 132.866 117.341 132.322 116.975 131.622C116.609 130.922 116.426 130.125 116.426 129.231ZM123.923 129.247C123.923 128.579 123.788 127.998 123.519 127.502C123.249 127.007 122.883 126.629 122.42 126.371C121.968 126.102 121.467 125.967 120.917 125.967C120.368 125.967 119.867 126.096 119.415 126.355C118.962 126.613 118.601 126.99 118.332 127.486C118.063 127.981 117.928 128.563 117.928 129.231C117.928 129.91 118.063 130.502 118.332 131.008C118.601 131.504 118.962 131.886 119.415 132.155C119.867 132.414 120.368 132.543 120.917 132.543C121.467 132.543 121.968 132.414 122.42 132.155C122.883 131.886 123.249 131.504 123.519 131.008C123.788 130.502 123.923 129.915 123.923 129.247ZM131.546 124.691C132.31 124.691 132.978 124.858 133.549 125.191C134.131 125.525 134.562 125.945 134.842 126.452V124.836H136.328V133.884C136.328 134.692 136.156 135.409 135.811 136.033C135.467 136.669 134.971 137.164 134.325 137.52C133.689 137.875 132.946 138.053 132.095 138.053C130.932 138.053 129.962 137.778 129.187 137.229C128.411 136.68 127.953 135.931 127.813 134.983H129.267C129.429 135.522 129.763 135.953 130.269 136.276C130.775 136.61 131.384 136.777 132.095 136.777C132.903 136.777 133.56 136.523 134.066 136.017C134.583 135.511 134.842 134.8 134.842 133.884V132.026C134.551 132.543 134.12 132.974 133.549 133.319C132.978 133.664 132.31 133.836 131.546 133.836C130.759 133.836 130.043 133.642 129.397 133.254C128.761 132.866 128.26 132.322 127.894 131.622C127.528 130.922 127.345 130.125 127.345 129.231C127.345 128.326 127.528 127.534 127.894 126.856C128.26 126.166 128.761 125.633 129.397 125.256C130.043 124.879 130.759 124.691 131.546 124.691ZM134.842 129.247C134.842 128.579 134.707 127.998 134.438 127.502C134.169 127.007 133.802 126.629 133.339 126.371C132.887 126.102 132.386 125.967 131.836 125.967C131.287 125.967 130.786 126.096 130.334 126.355C129.881 126.613 129.521 126.99 129.251 127.486C128.982 127.981 128.847 128.563 128.847 129.231C128.847 129.91 128.982 130.502 129.251 131.008C129.521 131.504 129.881 131.886 130.334 132.155C130.786 132.414 131.287 132.543 131.836 132.543C132.386 132.543 132.887 132.414 133.339 132.155C133.802 131.886 134.169 131.504 134.438 131.008C134.707 130.502 134.842 129.915 134.842 129.247ZM146.892 128.924C146.892 129.204 146.876 129.5 146.843 129.813H139.766C139.82 130.685 140.116 131.369 140.655 131.865C141.204 132.349 141.867 132.592 142.642 132.592C143.278 132.592 143.806 132.446 144.226 132.155C144.657 131.854 144.958 131.455 145.131 130.96H146.714C146.477 131.811 146.003 132.506 145.292 133.044C144.581 133.572 143.698 133.836 142.642 133.836C141.802 133.836 141.048 133.647 140.38 133.27C139.723 132.893 139.206 132.36 138.829 131.671C138.452 130.971 138.264 130.163 138.264 129.247C138.264 128.331 138.447 127.529 138.813 126.84C139.179 126.15 139.691 125.622 140.348 125.256C141.016 124.879 141.781 124.691 142.642 124.691C143.483 124.691 144.226 124.874 144.872 125.24C145.519 125.606 146.014 126.112 146.359 126.759C146.714 127.394 146.892 128.116 146.892 128.924ZM145.373 128.617C145.373 128.057 145.249 127.577 145.001 127.179C144.754 126.77 144.414 126.463 143.984 126.258C143.563 126.042 143.095 125.935 142.578 125.935C141.835 125.935 141.199 126.172 140.671 126.646C140.154 127.12 139.858 127.777 139.783 128.617H145.373ZM81.0758 149.186H76.1639L75.259 151.69H73.7079L77.7796 140.493H79.4762L83.5318 151.69H81.9807L81.0758 149.186ZM80.6557 147.99L78.6198 142.303L76.584 147.99H80.6557ZM88.6025 150.333L91.3494 142.836H92.9167L89.4427 151.69H87.73L84.2561 142.836H85.8396L88.6025 150.333ZM93.8142 147.231C93.8142 146.326 93.9973 145.534 94.3635 144.856C94.7298 144.166 95.2307 143.633 95.8662 143.256C96.5125 142.879 97.2288 142.691 98.0152 142.691C98.7908 142.691 99.464 142.858 100.035 143.191C100.606 143.525 101.031 143.945 101.311 144.452V142.836H102.798V151.69H101.311V150.042C101.021 150.559 100.584 150.99 100.003 151.335C99.4317 151.669 98.7638 151.836 97.999 151.836C97.2127 151.836 96.5017 151.642 95.8662 151.254C95.2307 150.866 94.7298 150.322 94.3635 149.622C93.9973 148.922 93.8142 148.125 93.8142 147.231ZM101.311 147.247C101.311 146.579 101.177 145.998 100.907 145.502C100.638 145.007 100.272 144.629 99.8087 144.371C99.3563 144.102 98.8554 143.967 98.306 143.967C97.7567 143.967 97.2558 144.096 96.8034 144.355C96.3509 144.613 95.9901 144.99 95.7208 145.486C95.4515 145.981 95.3168 146.563 95.3168 147.231C95.3168 147.91 95.4515 148.502 95.7208 149.008C95.9901 149.504 96.3509 149.886 96.8034 150.155C97.2558 150.414 97.7567 150.543 98.306 150.543C98.8554 150.543 99.3563 150.414 99.8087 150.155C100.272 149.886 100.638 149.504 100.907 149.008C101.177 148.502 101.311 147.915 101.311 147.247ZM106.042 141.398C105.762 141.398 105.525 141.301 105.331 141.107C105.137 140.913 105.04 140.676 105.04 140.396C105.04 140.116 105.137 139.879 105.331 139.685C105.525 139.491 105.762 139.394 106.042 139.394C106.311 139.394 106.538 139.491 106.721 139.685C106.915 139.879 107.012 140.116 107.012 140.396C107.012 140.676 106.915 140.913 106.721 141.107C106.538 141.301 106.311 141.398 106.042 141.398ZM106.753 142.836V151.69H105.283V142.836H106.753ZM110.729 139.734V151.69H109.259V139.734H110.729ZM112.686 147.231C112.686 146.326 112.869 145.534 113.235 144.856C113.602 144.166 114.102 143.633 114.738 143.256C115.384 142.879 116.101 142.691 116.887 142.691C117.662 142.691 118.336 142.858 118.907 143.191C119.478 143.525 119.903 143.945 120.183 144.452V142.836H121.67V151.69H120.183V150.042C119.892 150.559 119.456 150.99 118.874 151.335C118.303 151.669 117.636 151.836 116.871 151.836C116.084 151.836 115.373 151.642 114.738 151.254C114.102 150.866 113.602 150.322 113.235 149.622C112.869 148.922 112.686 148.125 112.686 147.231ZM120.183 147.247C120.183 146.579 120.048 145.998 119.779 145.502C119.51 145.007 119.144 144.629 118.68 144.371C118.228 144.102 117.727 143.967 117.178 143.967C116.628 143.967 116.127 144.096 115.675 144.355C115.223 144.613 114.862 144.99 114.593 145.486C114.323 145.981 114.189 146.563 114.189 147.231C114.189 147.91 114.323 148.502 114.593 149.008C114.862 149.504 115.223 149.886 115.675 150.155C116.127 150.414 116.628 150.543 117.178 150.543C117.727 150.543 118.228 150.414 118.68 150.155C119.144 149.886 119.51 149.504 119.779 149.008C120.048 148.502 120.183 147.915 120.183 147.247ZM125.625 144.484C125.926 143.956 126.368 143.525 126.95 143.191C127.531 142.858 128.194 142.691 128.937 142.691C129.734 142.691 130.45 142.879 131.086 143.256C131.722 143.633 132.222 144.166 132.589 144.856C132.955 145.534 133.138 146.326 133.138 147.231C133.138 148.125 132.955 148.922 132.589 149.622C132.222 150.322 131.716 150.866 131.07 151.254C130.434 151.642 129.723 151.836 128.937 151.836C128.172 151.836 127.499 151.669 126.917 151.335C126.346 151.001 125.916 150.576 125.625 150.058V151.69H124.154V139.734H125.625V144.484ZM131.635 147.231C131.635 146.563 131.501 145.981 131.231 145.486C130.962 144.99 130.596 144.613 130.133 144.355C129.68 144.096 129.179 143.967 128.63 143.967C128.091 143.967 127.591 144.102 127.127 144.371C126.675 144.629 126.309 145.012 126.029 145.518C125.759 146.014 125.625 146.59 125.625 147.247C125.625 147.915 125.759 148.502 126.029 149.008C126.309 149.504 126.675 149.886 127.127 150.155C127.591 150.414 128.091 150.543 128.63 150.543C129.179 150.543 129.68 150.414 130.133 150.155C130.596 149.886 130.962 149.504 131.231 149.008C131.501 148.502 131.635 147.91 131.635 147.231ZM136.544 139.734V151.69H135.073V139.734H136.544ZM147.129 146.924C147.129 147.204 147.112 147.5 147.08 147.813H140.003C140.057 148.685 140.353 149.369 140.892 149.865C141.441 150.349 142.104 150.592 142.879 150.592C143.515 150.592 144.043 150.446 144.463 150.155C144.893 149.854 145.195 149.455 145.367 148.96H146.951C146.714 149.811 146.24 150.506 145.529 151.044C144.818 151.572 143.935 151.836 142.879 151.836C142.039 151.836 141.285 151.647 140.617 151.27C139.96 150.893 139.443 150.36 139.066 149.671C138.689 148.971 138.5 148.163 138.5 147.247C138.5 146.331 138.684 145.529 139.05 144.84C139.416 144.15 139.928 143.622 140.585 143.256C141.253 142.879 142.017 142.691 142.879 142.691C143.719 142.691 144.463 142.874 145.109 143.24C145.755 143.606 146.251 144.112 146.595 144.759C146.951 145.394 147.129 146.116 147.129 146.924ZM145.61 146.617C145.61 146.057 145.486 145.577 145.238 145.179C144.99 144.77 144.651 144.463 144.22 144.258C143.8 144.042 143.332 143.935 142.815 143.935C142.071 143.935 141.436 144.172 140.908 144.646C140.391 145.12 140.095 145.777 140.019 146.617H145.61Z" fill="#B0BEC9"/>
<path d="M116.056 68.3877H102.768V81.514H116.056V68.3877Z" fill="#B0BEC9"/>
<path d="M101.909 68.3877C95.0283 68.887 89.5381 74.4897 89.0488 81.514H101.909V68.3877Z" fill="#B0BEC9"/>
<path d="M101.909 82.3604H89.0488V95.4866H101.909V82.3604Z" fill="#B0BEC9"/>
<path d="M130.202 82.3604H116.913V95.4866H130.202V82.3604Z" fill="#B0BEC9"/>
<path d="M116.913 109.036C124.025 108.555 129.696 103.132 130.202 96.333H116.913V109.036Z" fill="#B0BEC9"/>
<path d="M116.056 96.333H102.768V109.036H116.056V96.333Z" fill="#B0BEC9"/>
<path d="M101.909 96.333H89.0488C89.5358 103.134 95.0236 108.555 101.909 109.036V96.333Z" fill="#B0BEC9"/>
<path d="M119.056 65.4229V78.9726H132.774C132.771 71.4893 126.63 65.4229 119.056 65.4229Z" fill="#B0BEC9"/>
</svg>
