<svg width="257" height="176" viewBox="0 0 257 176" fill="none" xmlns="http://www.w3.org/2000/svg">
<g opacity="0.5">
<path fill-rule="evenodd" clip-rule="evenodd" d="M148.089 31.4258C145.731 34.9657 143.609 38.509 142.306 40.8329L139.034 37.4359C136.999 35.2862 136.999 31.9206 139.034 29.7709C139.998 28.7604 141.331 28.1866 142.727 28.1821H150.34C149.581 29.2239 148.825 30.3109 148.089 31.4258Z" stroke="#758696" stroke-width="1.5" stroke-linecap="round" stroke-linejoin="round"/>
<path fill-rule="evenodd" clip-rule="evenodd" d="M166.12 49.4558C162.58 51.8146 159.037 53.9364 156.713 55.2394L160.11 58.511C162.26 60.5462 165.625 60.5462 167.775 58.511C168.785 57.5477 169.359 56.2139 169.364 54.8179V47.2051C168.322 47.9646 167.235 48.7207 166.12 49.4558Z" stroke="#758696" stroke-width="1.5" stroke-linecap="round" stroke-linejoin="round"/>
<path d="M139.959 46.5193C140.252 46.2263 140.251 45.7515 139.959 45.4586C139.666 45.1658 139.191 45.1659 138.898 45.4589L139.959 46.5193ZM130.818 53.542C130.525 53.835 130.525 54.3098 130.818 54.6027C131.111 54.8955 131.586 54.8954 131.879 54.6024L130.818 53.542ZM146.018 52.585C146.31 52.292 146.31 51.8171 146.017 51.5244C145.724 51.2316 145.249 51.2318 144.957 51.5248L146.018 52.585ZM140.922 55.5629C140.629 55.8559 140.629 56.3308 140.922 56.6236C141.215 56.9163 141.69 56.9161 141.983 56.6231L140.922 55.5629ZM142.836 40.2877C142.543 39.9951 142.068 39.9957 141.775 40.289C141.483 40.5822 141.483 41.0571 141.776 41.3496L142.836 40.2877ZM149.525 48.0203L150.056 47.4906L150.055 47.4893L149.525 48.0203ZM156.196 55.7691C156.488 56.0623 156.963 56.0629 157.257 55.7704C157.55 55.4778 157.55 55.0029 157.258 54.7097L156.196 55.7691ZM149.718 27.7426C149.487 28.0864 149.578 28.5524 149.922 28.7834C150.266 29.0144 150.732 28.923 150.963 28.5792L149.718 27.7426ZM156.675 20.7362L156.195 20.1595C156.184 20.1685 156.174 20.1778 156.163 20.1874L156.675 20.7362ZM179.799 17.7469L180.545 17.6725C180.51 17.3171 180.228 17.036 179.873 17.0006L179.799 17.7469ZM176.809 40.8744L177.358 41.3856C177.368 41.3752 177.377 41.3645 177.386 41.3536L176.809 40.8744ZM168.966 46.586C168.623 46.817 168.531 47.283 168.762 47.6268C168.993 47.9706 169.459 48.062 169.803 47.831L168.966 46.586ZM152.087 58.6477C152.38 58.3549 152.38 57.88 152.087 57.5871C151.794 57.2941 151.319 57.294 151.026 57.5868L152.087 58.6477ZM142.943 65.6665C142.65 65.9593 142.65 66.4342 142.943 66.7271C143.236 67.0201 143.711 67.0202 144.004 66.7274L142.943 65.6665ZM171.357 27.2488C171.65 26.9559 171.65 26.481 171.357 26.1881C171.065 25.8952 170.59 25.8952 170.297 26.1881L171.357 27.2488ZM165.987 30.498C165.694 30.7909 165.694 31.2657 165.987 31.5586C166.28 31.8515 166.755 31.8515 167.048 31.5586L165.987 30.498ZM138.898 45.4589L130.818 53.542L131.879 54.6024L139.959 46.5193L138.898 45.4589ZM144.957 51.5248L140.922 55.5629L141.983 56.6231L146.018 52.585L144.957 51.5248ZM141.776 41.3496L148.996 48.5513L150.055 47.4893L142.836 40.2877L141.776 41.3496ZM148.994 48.55L156.196 55.7691L157.258 54.7097L150.056 47.4906L148.994 48.55ZM150.963 28.5792C152.751 25.9178 154.839 23.4704 157.186 21.2851L156.163 20.1874C153.733 22.4509 151.57 24.9859 149.718 27.7426L150.963 28.5792ZM157.154 21.313C158.172 20.467 159.702 19.8055 161.585 19.3143C163.456 18.8262 165.612 18.5218 167.828 18.3509C172.26 18.0092 176.856 18.2074 179.724 18.4932L179.873 17.0006C176.937 16.708 172.251 16.5055 167.713 16.8554C165.443 17.0303 163.192 17.3448 161.206 17.8629C159.232 18.378 157.458 19.1101 156.195 20.1595L157.154 21.313ZM179.052 17.8212C179.338 20.6896 179.536 25.2852 179.195 29.7181C179.024 31.9343 178.719 34.091 178.231 35.9622C177.74 37.8451 177.079 39.3764 176.232 40.3952L177.386 41.3536C178.435 40.0903 179.168 38.3152 179.683 36.3408C180.201 34.3546 180.515 32.103 180.69 29.8334C181.04 25.2947 180.838 20.6087 180.545 17.6725L179.052 17.8212ZM176.26 40.3632C174.075 42.7097 171.628 44.7976 168.966 46.586L169.803 47.831C172.56 45.9786 175.095 43.816 177.358 41.3856L176.26 40.3632ZM151.026 57.5868L142.943 65.6665L144.004 66.7274L152.087 58.6477L151.026 57.5868ZM170.297 26.1881L165.987 30.498L167.048 31.5586L171.357 27.2488L170.297 26.1881Z" fill="#758696"/>
<path d="M132.441 66.1341C134.697 68.3798 134.819 72.135 132.713 74.522L128.629 70.4559L132.441 66.1341Z" fill="#758696"/>
<rect width="5.76309" height="5.76309" transform="matrix(0.685209 0.728346 -0.685623 0.727957 122.363 61.417)" fill="#758696"/>
<path d="M74.7573 115.34C76.9383 117.658 76.9372 121.415 74.7549 123.732L70.806 119.535L74.7573 115.34Z" fill="#758696"/>
<path d="M81.9955 95.1116C84.1766 97.4299 84.1755 101.187 81.9932 103.504L78.0442 99.3069L81.9955 95.1116Z" fill="#758696"/>
<rect width="5.76309" height="5.76309" transform="matrix(0.685209 0.728346 -0.685623 0.727957 114.868 90.9893)" fill="#758696"/>
<rect width="5.76309" height="5.76309" transform="matrix(0.685209 0.728346 -0.685623 0.727957 84.7852 106.207)" fill="#758696"/>
<rect width="5.76309" height="5.76309" transform="matrix(0.685209 0.728346 -0.685623 0.727957 99.1113 104.686)" fill="#758696"/>
<rect width="3.81998" height="3.81998" transform="matrix(-0.686347 0.727274 -0.684484 -0.729028 139.107 60.3618)" fill="#758696"/>
<path d="M131.946 63.4071C130.497 64.9415 128.153 64.9385 126.709 63.4004L129.331 60.6222L131.946 63.4071Z" fill="#758696"/>
<path d="M117.619 72.5389C116.171 74.0733 113.827 74.0703 112.383 72.5322L115.005 69.7541L117.619 72.5389Z" fill="#758696"/>
<rect width="3.81998" height="3.81998" transform="matrix(-0.686347 0.727274 -0.684484 -0.729028 127.647 74.0605)" fill="#758696"/>
<rect width="3.81998" height="3.81998" transform="matrix(-0.686347 0.727274 -0.684484 -0.729028 113.321 86.2334)" fill="#758696"/>
<path d="M89.2116 92.0557C87.7675 90.5176 87.7707 88.0271 89.2188 86.4927L91.8335 89.2776L89.2116 92.0557Z" fill="#758696"/>
<path d="M86.3464 105.754C84.9023 104.216 84.9055 101.725 86.3535 100.191L88.9682 102.976L86.3464 105.754Z" fill="#758696"/>
<path d="M92.2341 114.55C90.79 113.012 90.7931 110.521 92.2412 108.987L94.8559 111.772L92.2341 114.55Z" fill="#758696"/>
<path d="M86.3464 122.494C84.9023 120.956 84.9055 118.466 86.3535 116.931L88.9682 119.716L86.3464 122.494Z" fill="#758696"/>
<path d="M103.768 79.3243C102.324 77.7862 102.327 75.2956 103.775 73.7612L106.39 76.5461L103.768 79.3243Z" fill="#758696"/>
<path d="M102.272 83.6199C103.474 81.886 105.795 81.5344 107.457 82.8345L105.281 85.9738L102.272 83.6199Z" fill="#758696"/>
<rect width="3.81998" height="3.81998" transform="matrix(-0.686347 0.727274 -0.684484 -0.729028 77.5547 108.707)" fill="#758696"/>
<rect width="3.81998" height="3.81998" transform="matrix(-0.686347 0.727274 -0.684484 -0.729028 110.456 101.453)" fill="#758696"/>
<rect width="3.81998" height="3.81998" transform="matrix(-0.686347 0.727274 -0.684484 -0.729028 109.023 92.3213)" fill="#758696"/>
<rect width="3.81998" height="3.81998" transform="matrix(-0.686347 0.727274 -0.684484 -0.729028 100.428 84.7129)" fill="#758696"/>
<rect width="3.81998" height="3.81998" transform="matrix(-0.686347 0.727274 -0.684484 -0.729028 113.598 78.0732)" fill="#758696"/>
<rect width="9.50083" height="9.50083" transform="matrix(0.685209 0.728346 -0.685623 0.727957 120.36 75.7695)" fill="#758696"/>
<rect width="9.50083" height="9.50083" transform="matrix(0.685209 0.728346 -0.685623 0.727957 95.999 90.9873)" fill="#758696"/>
</g>
<path d="M20.7426 145.278H23.4166V154H24.6906V145.278H27.3506V144.242H20.7426V145.278ZM28.9188 154H30.1928V149.758C30.1928 148.106 31.0888 147.294 32.3908 147.294C33.6788 147.294 34.5328 148.092 34.5328 149.66V154H35.7928V149.478C35.7928 147.28 34.4348 146.188 32.7268 146.188C31.6488 146.188 30.6968 146.622 30.1928 147.434V143.64H28.9188V154ZM41.1359 147.28C42.4519 147.28 43.5719 148.106 43.5579 149.604H38.7139C38.8539 148.106 39.8899 147.28 41.1359 147.28ZM44.7199 151.634H43.3479C43.0679 152.46 42.3399 153.048 41.1919 153.048C39.8899 153.048 38.7979 152.194 38.6999 150.64H44.8319C44.8599 150.374 44.8739 150.15 44.8739 149.87C44.8739 147.77 43.4179 146.202 41.1919 146.202C38.9519 146.202 37.3979 147.728 37.3979 150.15C37.3979 152.586 39.0079 154.126 41.1919 154.126C43.0959 154.126 44.3279 153.034 44.7199 151.634ZM47.8295 149.828C47.8295 148.05 48.7535 147.504 49.9715 147.504H50.3075V146.188C49.0895 146.188 48.2635 146.72 47.8295 147.574V146.328H46.5555V154H47.8295V149.828ZM55.0402 147.28C56.3562 147.28 57.4762 148.106 57.4622 149.604H52.6182C52.7582 148.106 53.7942 147.28 55.0402 147.28ZM58.6242 151.634H57.2522C56.9722 152.46 56.2442 153.048 55.0962 153.048C53.7942 153.048 52.7022 152.194 52.6042 150.64H58.7362C58.7642 150.374 58.7782 150.15 58.7782 149.87C58.7782 147.77 57.3222 146.202 55.0962 146.202C52.8562 146.202 51.3022 147.728 51.3022 150.15C51.3022 152.586 52.9122 154.126 55.0962 154.126C57.0002 154.126 58.2322 153.034 58.6242 151.634ZM63.7163 150.136C63.7163 152.516 65.2983 154.126 67.3423 154.126C68.7563 154.126 69.7503 153.398 70.2123 152.572V154H71.5003V146.328H70.2123V147.728C69.7643 146.93 68.7843 146.202 67.3563 146.202C65.2983 146.202 63.7163 147.742 63.7163 150.136ZM70.2123 150.15C70.2123 151.956 69.0083 153.006 67.6083 153.006C66.2083 153.006 65.0183 151.942 65.0183 150.136C65.0183 148.33 66.2083 147.308 67.6083 147.308C69.0083 147.308 70.2123 148.372 70.2123 150.15ZM74.9272 149.828C74.9272 148.05 75.8512 147.504 77.0692 147.504H77.4052V146.188C76.1872 146.188 75.3612 146.72 74.9272 147.574V146.328H73.6532V154H74.9272V149.828ZM82.1379 147.28C83.4539 147.28 84.5739 148.106 84.5599 149.604H79.7159C79.8559 148.106 80.8919 147.28 82.1379 147.28ZM85.7219 151.634H84.3499C84.0699 152.46 83.3419 153.048 82.1939 153.048C80.8919 153.048 79.7999 152.194 79.7019 150.64H85.8339C85.8619 150.374 85.8759 150.15 85.8759 149.87C85.8759 147.77 84.4199 146.202 82.1939 146.202C79.9539 146.202 78.3999 147.728 78.3999 150.15C78.3999 152.586 80.0099 154.126 82.1939 154.126C84.0979 154.126 85.3299 153.034 85.7219 151.634ZM96.9039 154H98.1639V149.478C98.1639 147.28 96.8059 146.188 95.0279 146.188C93.9919 146.188 93.0679 146.622 92.5639 147.42V146.328H91.2899V154H92.5639V149.758C92.5639 148.106 93.4599 147.294 94.7619 147.294C96.0499 147.294 96.9039 148.092 96.9039 149.66V154ZM107.525 150.15C107.525 147.728 105.831 146.202 103.647 146.202C101.477 146.202 99.769 147.728 99.769 150.15C99.769 152.586 101.421 154.126 103.591 154.126C105.775 154.126 107.525 152.586 107.525 150.15ZM101.071 150.15C101.071 148.218 102.289 147.308 103.633 147.308C104.949 147.308 106.223 148.218 106.223 150.15C106.223 152.096 104.921 153.006 103.591 153.006C102.261 153.006 101.071 152.096 101.071 150.15ZM112.932 154H114.206V143.64H112.932V154ZM116.378 154H117.652V146.328H116.378V154ZM117.036 145.082C117.498 145.082 117.876 144.704 117.876 144.214C117.876 143.724 117.498 143.346 117.036 143.346C116.546 143.346 116.168 143.724 116.168 144.214C116.168 144.704 116.546 145.082 117.036 145.082ZM125.437 154H126.697V149.478C126.697 147.28 125.339 146.188 123.561 146.188C122.525 146.188 121.601 146.622 121.097 147.42V146.328H119.823V154H121.097V149.758C121.097 148.106 121.993 147.294 123.295 147.294C124.583 147.294 125.437 148.092 125.437 149.66V154ZM128.778 154H130.052V150.612L133.062 154H134.798L131.172 150.15L134.784 146.328H133.006L130.052 149.73V143.64H128.778V154ZM141.499 151.914C141.443 149.17 136.991 150.164 136.991 148.344C136.991 147.728 137.551 147.28 138.489 147.28C139.511 147.28 140.099 147.84 140.155 148.61H141.429C141.345 147.112 140.225 146.202 138.531 146.202C136.823 146.202 135.717 147.168 135.717 148.344C135.717 151.2 140.253 150.206 140.253 151.914C140.253 152.544 139.693 153.048 138.685 153.048C137.607 153.048 136.949 152.488 136.879 151.746H135.563C135.647 153.146 136.907 154.126 138.699 154.126C140.393 154.126 141.499 153.174 141.499 151.914ZM147.31 151.9C147.31 153.44 148.08 154 149.438 154H150.586V152.922H149.648C148.864 152.922 148.584 152.656 148.584 151.9V147.378H150.586V146.328H148.584V144.396H147.31V146.328H146.316V147.378H147.31V151.9ZM159.41 150.15C159.41 147.728 157.716 146.202 155.532 146.202C153.362 146.202 151.654 147.728 151.654 150.15C151.654 152.586 153.306 154.126 155.476 154.126C157.66 154.126 159.41 152.586 159.41 150.15ZM152.956 150.15C152.956 148.218 154.174 147.308 155.518 147.308C156.834 147.308 158.108 148.218 158.108 150.15C158.108 152.096 156.806 153.006 155.476 153.006C154.146 153.006 152.956 152.096 152.956 150.15ZM164.817 154H166.091V143.64H164.817V154ZM167.787 150.136C167.787 152.516 169.369 154.126 171.413 154.126C172.827 154.126 173.821 153.398 174.283 152.572V154H175.571V146.328H174.283V147.728C173.835 146.93 172.855 146.202 171.427 146.202C169.369 146.202 167.787 147.742 167.787 150.136ZM174.283 150.15C174.283 151.956 173.079 153.006 171.679 153.006C170.279 153.006 169.089 151.942 169.089 150.136C169.089 148.33 170.279 147.308 171.679 147.308C173.079 147.308 174.283 148.372 174.283 150.15ZM184.528 146.328H183.254V150.542C183.254 152.194 182.372 153.006 181.056 153.006C179.768 153.006 178.914 152.208 178.914 150.654V146.328H177.654V150.822C177.654 153.02 179.04 154.112 180.804 154.112C181.826 154.112 182.764 153.664 183.254 152.866V154H184.528V146.328ZM192.293 154H193.553V149.478C193.553 147.28 192.195 146.188 190.417 146.188C189.381 146.188 188.457 146.622 187.953 147.42V146.328H186.679V154H187.953V149.758C187.953 148.106 188.849 147.294 190.151 147.294C191.439 147.294 192.293 148.092 192.293 149.66V154ZM195.158 150.15C195.158 152.586 196.712 154.126 198.896 154.126C200.8 154.126 202.046 153.062 202.438 151.536H201.066C200.786 152.502 200.03 153.048 198.896 153.048C197.496 153.048 196.46 152.054 196.46 150.15C196.46 148.274 197.496 147.28 198.896 147.28C200.03 147.28 200.8 147.868 201.066 148.792H202.438C202.046 147.182 200.8 146.202 198.896 146.202C196.712 146.202 195.158 147.742 195.158 150.15ZM204.138 154H205.412V149.758C205.412 148.106 206.308 147.294 207.61 147.294C208.898 147.294 209.752 148.092 209.752 149.66V154H211.012V149.478C211.012 147.28 209.654 146.188 207.946 146.188C206.868 146.188 205.916 146.622 205.412 147.434V143.64H204.138V154ZM211.987 156.002H212.841L214.409 152.236H213.009L211.987 156.002ZM219.88 151.9C219.88 153.44 220.65 154 222.008 154H223.156V152.922H222.218C221.434 152.922 221.154 152.656 221.154 151.9V147.378H223.156V146.328H221.154V144.396H219.88V146.328H218.886V147.378H219.88V151.9ZM225.974 149.828C225.974 148.05 226.898 147.504 228.116 147.504H228.452V146.188C227.234 146.188 226.408 146.72 225.974 147.574V146.328H224.7V154H225.974V149.828ZM232.835 152.544L230.427 146.328H229.013L232.107 153.916L230.595 157.612H231.911L236.531 146.328H235.215L232.835 152.544ZM36.0581 168.136C36.0581 170.516 37.6401 172.126 39.6841 172.126C41.0981 172.126 42.0921 171.398 42.5541 170.572V172H43.8421V164.328H42.5541V165.728C42.1061 164.93 41.1261 164.202 39.6981 164.202C37.6401 164.202 36.0581 165.742 36.0581 168.136ZM42.5541 168.15C42.5541 169.956 41.3501 171.006 39.9501 171.006C38.5501 171.006 37.3601 169.942 37.3601 168.136C37.3601 166.33 38.5501 165.308 39.9501 165.308C41.3501 165.308 42.5541 166.372 42.5541 168.15ZM45.519 168.136C45.519 170.516 47.101 172.126 49.159 172.126C50.559 172.126 51.553 171.412 52.015 170.558V172H53.303V161.64H52.015V165.7C51.483 164.818 50.377 164.202 49.173 164.202C47.101 164.202 45.519 165.742 45.519 168.136ZM52.015 168.15C52.015 169.956 50.811 171.006 49.411 171.006C48.011 171.006 46.821 169.942 46.821 168.136C46.821 166.33 48.011 165.308 49.411 165.308C50.811 165.308 52.015 166.372 52.015 168.15ZM54.9799 168.136C54.9799 170.516 56.5619 172.126 58.6199 172.126C60.0199 172.126 61.0139 171.412 61.4759 170.558V172H62.7639V161.64H61.4759V165.7C60.9439 164.818 59.8379 164.202 58.6339 164.202C56.5619 164.202 54.9799 165.742 54.9799 168.136ZM61.4759 168.15C61.4759 169.956 60.2719 171.006 58.8719 171.006C57.4719 171.006 56.2819 169.942 56.2819 168.136C56.2819 166.33 57.4719 165.308 58.8719 165.308C60.2719 165.308 61.4759 166.372 61.4759 168.15ZM64.9169 172H66.1909V164.328H64.9169V172ZM65.5749 163.082C66.0369 163.082 66.4149 162.704 66.4149 162.214C66.4149 161.724 66.0369 161.346 65.5749 161.346C65.0849 161.346 64.7069 161.724 64.7069 162.214C64.7069 162.704 65.0849 163.082 65.5749 163.082ZM73.9762 172H75.2362V167.478C75.2362 165.28 73.8782 164.188 72.1002 164.188C71.0642 164.188 70.1402 164.622 69.6362 165.42V164.328H68.3622V172H69.6362V167.758C69.6362 166.106 70.5322 165.294 71.8342 165.294C73.1222 165.294 73.9762 166.092 73.9762 167.66V172ZM76.8413 168.136C76.8413 170.516 78.4233 172.126 80.4813 172.126C81.8813 172.126 82.8753 171.384 83.3373 170.558V172.168C83.3373 173.806 82.3153 174.674 80.9573 174.674C79.6973 174.674 78.7873 174.044 78.5073 173.12H77.2473C77.4993 174.758 78.9413 175.78 80.9573 175.78C83.2113 175.78 84.6253 174.282 84.6253 172.168V164.328H83.3373V165.728C82.8893 164.902 81.8813 164.202 80.4813 164.202C78.4233 164.202 76.8413 165.742 76.8413 168.136ZM83.3373 168.15C83.3373 169.956 82.1333 171.006 80.7333 171.006C79.3333 171.006 78.1433 169.942 78.1433 168.136C78.1433 166.33 79.3333 165.308 80.7333 165.308C82.1333 165.308 83.3373 166.372 83.3373 168.15ZM90.0346 168.136C90.0346 170.516 91.6166 172.126 93.6606 172.126C95.0746 172.126 96.0686 171.398 96.5306 170.572V172H97.8186V164.328H96.5306V165.728C96.0826 164.93 95.1026 164.202 93.6746 164.202C91.6166 164.202 90.0346 165.742 90.0346 168.136ZM96.5306 168.15C96.5306 169.956 95.3266 171.006 93.9266 171.006C92.5266 171.006 91.3366 169.942 91.3366 168.136C91.3366 166.33 92.5266 165.308 93.9266 165.308C95.3266 165.308 96.5306 166.372 96.5306 168.15ZM109.318 172H110.578V167.478C110.578 165.28 109.22 164.188 107.442 164.188C106.406 164.188 105.482 164.622 104.978 165.42V164.328H103.704V172H104.978V167.758C104.978 166.106 105.874 165.294 107.176 165.294C108.464 165.294 109.318 166.092 109.318 167.66V172ZM115.921 165.28C117.237 165.28 118.357 166.106 118.343 167.604H113.499C113.639 166.106 114.675 165.28 115.921 165.28ZM119.505 169.634H118.133C117.853 170.46 117.125 171.048 115.977 171.048C114.675 171.048 113.583 170.194 113.485 168.64H119.617C119.645 168.374 119.659 168.15 119.659 167.87C119.659 165.77 118.203 164.202 115.977 164.202C113.737 164.202 112.183 165.728 112.183 168.15C112.183 170.586 113.793 172.126 115.977 172.126C117.881 172.126 119.113 171.034 119.505 169.634ZM122.839 172H124.155L126.003 165.91L127.851 172H129.167L131.561 164.328H130.301L128.565 170.782L126.703 164.328H125.401L123.497 170.768L121.733 164.328H120.431L122.839 172ZM137.831 165.756V161.64H136.557V172H137.831V170.586C138.307 171.426 139.301 172.126 140.701 172.126C142.759 172.126 144.341 170.516 144.341 168.136C144.341 165.742 142.773 164.202 140.701 164.202C139.343 164.202 138.321 164.902 137.831 165.756ZM143.039 168.136C143.039 169.942 141.849 171.006 140.435 171.006C139.049 171.006 137.831 169.956 137.831 168.15C137.831 166.372 139.049 165.308 140.435 165.308C141.849 165.308 143.039 166.33 143.039 168.136ZM147.292 167.828C147.292 166.05 148.216 165.504 149.434 165.504H149.77V164.188C148.552 164.188 147.726 164.72 147.292 165.574V164.328H146.018V172H147.292V167.828ZM158.521 168.15C158.521 165.728 156.827 164.202 154.643 164.202C152.473 164.202 150.765 165.728 150.765 168.15C150.765 170.586 152.417 172.126 154.587 172.126C156.771 172.126 158.521 170.586 158.521 168.15ZM152.067 168.15C152.067 166.218 153.285 165.308 154.629 165.308C155.945 165.308 157.219 166.218 157.219 168.15C157.219 170.096 155.917 171.006 154.587 171.006C153.257 171.006 152.067 170.096 152.067 168.15ZM161.694 172H163.01L164.858 165.91L166.706 172H168.022L170.416 164.328H169.156L167.42 170.782L165.558 164.328H164.256L162.352 170.768L160.588 164.328H159.286L161.694 172ZM177.197 169.914C177.141 167.17 172.689 168.164 172.689 166.344C172.689 165.728 173.249 165.28 174.187 165.28C175.209 165.28 175.797 165.84 175.853 166.61H177.127C177.043 165.112 175.923 164.202 174.229 164.202C172.521 164.202 171.415 165.168 171.415 166.344C171.415 169.2 175.951 168.206 175.951 169.914C175.951 170.544 175.391 171.048 174.383 171.048C173.305 171.048 172.647 170.488 172.577 169.746H171.261C171.345 171.146 172.605 172.126 174.397 172.126C176.091 172.126 177.197 171.174 177.197 169.914ZM182.257 165.28C183.573 165.28 184.693 166.106 184.679 167.604H179.835C179.975 166.106 181.011 165.28 182.257 165.28ZM185.841 169.634H184.469C184.189 170.46 183.461 171.048 182.313 171.048C181.011 171.048 179.919 170.194 179.821 168.64H185.953C185.981 168.374 185.995 168.15 185.995 167.87C185.995 165.77 184.539 164.202 182.313 164.202C180.073 164.202 178.519 165.728 178.519 168.15C178.519 170.586 180.129 172.126 182.313 172.126C184.217 172.126 185.449 171.034 185.841 169.634ZM188.951 167.828C188.951 166.05 189.875 165.504 191.093 165.504H191.429V164.188C190.211 164.188 189.385 164.72 188.951 165.574V164.328H187.677V172H188.951V167.828ZM196.632 172H197.906V161.64H196.632V172ZM200.077 172H201.351V164.328H200.077V172ZM200.735 163.082C201.197 163.082 201.575 162.704 201.575 162.214C201.575 161.724 201.197 161.346 200.735 161.346C200.245 161.346 199.867 161.724 199.867 162.214C199.867 162.704 200.245 163.082 200.735 163.082ZM209.136 172H210.396V167.478C210.396 165.28 209.038 164.188 207.26 164.188C206.224 164.188 205.3 164.622 204.796 165.42V164.328H203.522V172H204.796V167.758C204.796 166.106 205.692 165.294 206.994 165.294C208.282 165.294 209.136 166.092 209.136 167.66V172ZM212.477 172H213.751V168.612L216.761 172H218.497L214.871 168.15L218.483 164.328H216.705L213.751 167.73V161.64H212.477V172ZM220.928 171.216C220.928 170.726 220.55 170.348 220.088 170.348C219.598 170.348 219.22 170.726 219.22 171.216C219.22 171.706 219.598 172.084 220.088 172.084C220.55 172.084 220.928 171.706 220.928 171.216Z" fill="#758696"/>
</svg>
