<svg width="30" height="30" viewBox="0 0 30 30" fill="none" xmlns="http://www.w3.org/2000/svg">
<path d="M24.2803 21.3312L24.0678 21.1437C23.4649 20.6066 22.9372 19.9907 22.499 19.3125C22.0204 18.3766 21.7336 17.3545 21.6553 16.3063V13.2188C21.6594 11.5723 21.0622 9.98092 19.9757 8.74373C18.8893 7.50654 17.3885 6.70866 15.7553 6.5V5.69375C15.7553 5.47246 15.6674 5.26023 15.5109 5.10376C15.3544 4.94728 15.1422 4.85938 14.9209 4.85938C14.6996 4.85938 14.4874 4.94728 14.3309 5.10376C14.1744 5.26023 14.0865 5.47246 14.0865 5.69375V6.5125C12.4679 6.7362 10.9853 7.53891 9.9131 8.77194C8.84095 10.005 8.25198 11.5848 8.25527 13.2188V16.3063C8.177 17.3545 7.89013 18.3766 7.41152 19.3125C6.98082 19.989 6.46165 20.6048 5.86777 21.1437L5.65527 21.3312V23.0938H24.2803V21.3312Z" fill="#050505"/>
<path d="M13.3252 23.75C13.38 24.1462 13.5763 24.5091 13.8779 24.7718C14.1794 25.0346 14.5659 25.1793 14.9658 25.1793C15.3658 25.1793 15.7522 25.0346 16.0538 24.7718C16.3553 24.5091 16.5516 24.1462 16.6064 23.75H13.3252Z" fill="#050505"/>
</svg>
