<svg width="61" height="61" viewBox="0 0 61 61" fill="none" xmlns="http://www.w3.org/2000/svg">
<g opacity="0.5">
<path d="M42.6998 21.3497C43.5087 21.3497 44.2845 21.0284 44.8565 20.4564C45.4285 19.8844 45.7498 19.1087 45.7498 18.2997C45.7498 17.4908 45.4285 16.7151 44.8565 16.1431C44.2845 15.5711 43.5087 15.2497 42.6998 15.2497C41.8909 15.2497 41.1151 15.5711 40.5431 16.1431C39.9711 16.7151 39.6498 17.4908 39.6498 18.2997C39.6498 19.1087 39.9711 19.8844 40.5431 20.4564C41.1151 21.0284 41.8909 21.3497 42.6998 21.3497ZM33.9463 6.09975C33.1396 6.09429 32.3398 6.24891 31.5932 6.55466C30.8467 6.8604 30.1682 7.3112 29.597 7.88095L9.21691 28.2092C8.64935 28.7753 8.19894 29.4478 7.89144 30.1881C7.58394 30.9284 7.42537 31.722 7.42481 32.5237C7.42424 33.3253 7.58168 34.1192 7.88814 34.8599C8.19459 35.6007 8.64405 36.2738 9.21081 36.8407L24.3053 51.9321C25.068 52.6953 26.0195 53.2424 27.0627 53.5178C28.106 53.7932 29.2036 53.787 30.2436 53.4998C29.6497 52.606 29.1431 51.6571 28.7308 50.6663C28.3116 50.6825 27.8936 50.6117 27.5031 50.4584C27.1125 50.3051 26.7579 50.0727 26.4616 49.7757L11.3672 34.6843C11.0838 34.4009 10.859 34.0643 10.7058 33.694C10.5526 33.3236 10.4739 32.9267 10.4742 32.5258C10.4744 32.125 10.5537 31.7282 10.7075 31.358C10.8612 30.9879 11.0864 30.6517 11.3702 30.3686L31.7503 10.0403C32.0359 9.75547 32.3751 9.53008 32.7484 9.3772C33.1217 9.22433 33.5216 9.14702 33.925 9.14975L48.8395 9.24735C49.6441 9.25298 50.414 9.57639 50.9813 10.1471C51.5486 10.7178 51.8673 11.4896 51.8681 12.2943L51.8925 27.3918C51.8927 27.9831 51.721 28.5616 51.3984 29.0571C52.3256 29.4963 53.204 30.0148 54.0275 30.6095C54.6275 29.6414 54.9445 28.5247 54.9425 27.3857L54.9181 12.2882C54.9157 10.6793 54.2779 9.13655 53.1434 7.99578C52.0089 6.855 50.4696 6.20861 48.8608 6.19735L33.9463 6.09975ZM57.9498 44.2247C57.9498 47.8648 56.5038 51.3559 53.9298 53.9298C51.3559 56.5037 47.8649 57.9497 44.2248 57.9497C40.5847 57.9497 37.0937 56.5037 34.5198 53.9298C31.9458 51.3559 30.4998 47.8648 30.4998 44.2247C30.4998 40.5847 31.9458 37.0936 34.5198 34.5197C37.0937 31.9458 40.5847 30.4997 44.2248 30.4997C47.8649 30.4997 51.3559 31.9458 53.9298 34.5197C56.5038 37.0936 57.9498 40.5847 57.9498 44.2247ZM44.2248 36.5997C43.8203 36.5997 43.4325 36.7604 43.1465 37.0464C42.8605 37.3324 42.6998 37.7203 42.6998 38.1247V44.2247C42.6998 44.6292 42.8605 45.0171 43.1465 45.3031C43.4325 45.5891 43.8203 45.7497 44.2248 45.7497C44.6293 45.7497 45.0172 45.5891 45.3031 45.3031C45.5891 45.0171 45.7498 44.6292 45.7498 44.2247V38.1247C45.7498 37.7203 45.5891 37.3324 45.3031 37.0464C45.0172 36.7604 44.6293 36.5997 44.2248 36.5997ZM44.2248 52.231C44.7304 52.231 45.2152 52.0302 45.5727 51.6727C45.9302 51.3152 46.1311 50.8303 46.1311 50.3247C46.1311 49.8192 45.9302 49.3343 45.5727 48.9768C45.2152 48.6193 44.7304 48.4185 44.2248 48.4185C43.7192 48.4185 43.2344 48.6193 42.8769 48.9768C42.5194 49.3343 42.3186 49.8192 42.3186 50.3247C42.3186 50.8303 42.5194 51.3152 42.8769 51.6727C43.2344 52.0302 43.7192 52.231 44.2248 52.231Z" fill="#758696"/>
</g>
</svg>
