<svg width="322" height="179" viewBox="0 0 322 179" fill="none" xmlns="http://www.w3.org/2000/svg">
<path d="M13.476 164.278H16.15V173H17.424V164.278H20.084V163.242H13.476V164.278ZM21.6522 173H22.9262V168.758C22.9262 167.106 23.8222 166.294 25.1242 166.294C26.4122 166.294 27.2662 167.092 27.2662 168.66V173H28.5262V168.478C28.5262 166.28 27.1682 165.188 25.4602 165.188C24.3822 165.188 23.4302 165.622 22.9262 166.434V162.64H21.6522V173ZM30.6073 173H31.8813V165.328H30.6073V173ZM31.2653 164.082C31.7273 164.082 32.1053 163.704 32.1053 163.214C32.1053 162.724 31.7273 162.346 31.2653 162.346C30.7753 162.346 30.3973 162.724 30.3973 163.214C30.3973 163.704 30.7753 164.082 31.2653 164.082ZM39.5686 170.914C39.5126 168.17 35.0606 169.164 35.0606 167.344C35.0606 166.728 35.6206 166.28 36.5586 166.28C37.5806 166.28 38.1686 166.84 38.2246 167.61H39.4986C39.4146 166.112 38.2946 165.202 36.6006 165.202C34.8926 165.202 33.7866 166.168 33.7866 167.344C33.7866 170.2 38.3226 169.206 38.3226 170.914C38.3226 171.544 37.7626 172.048 36.7546 172.048C35.6766 172.048 35.0186 171.488 34.9486 170.746H33.6326C33.7166 172.146 34.9766 173.126 36.7686 173.126C38.4626 173.126 39.5686 172.174 39.5686 170.914ZM46.3735 166.742V165.328H45.0995V176.64H46.3735V171.586C46.8495 172.37 47.8435 173.126 49.2435 173.126C51.3015 173.126 52.8835 171.516 52.8835 169.136C52.8835 166.742 51.3015 165.202 49.2435 165.202C47.8435 165.202 46.8355 165.93 46.3735 166.742ZM51.5815 169.136C51.5815 170.942 50.3915 172.006 48.9775 172.006C47.5915 172.006 46.3735 170.956 46.3735 169.15C46.3735 167.372 47.5915 166.308 48.9775 166.308C50.3915 166.308 51.5815 167.33 51.5815 169.136ZM55.8344 168.828C55.8344 167.05 56.7584 166.504 57.9764 166.504H58.3124V165.188C57.0944 165.188 56.2684 165.72 55.8344 166.574V165.328H54.5604V173H55.8344V168.828ZM67.0631 169.15C67.0631 166.728 65.3691 165.202 63.1851 165.202C61.0151 165.202 59.3071 166.728 59.3071 169.15C59.3071 171.586 60.9591 173.126 63.1291 173.126C65.3131 173.126 67.0631 171.586 67.0631 169.15ZM60.6091 169.15C60.6091 167.218 61.8271 166.308 63.1711 166.308C64.4871 166.308 65.7611 167.218 65.7611 169.15C65.7611 171.096 64.4591 172.006 63.1291 172.006C61.7991 172.006 60.6091 171.096 60.6091 169.15ZM68.2622 169.136C68.2622 171.516 69.8442 173.126 71.9022 173.126C73.3022 173.126 74.2962 172.412 74.7582 171.558V173H76.0462V162.64H74.7582V166.7C74.2262 165.818 73.1202 165.202 71.9162 165.202C69.8442 165.202 68.2622 166.742 68.2622 169.136ZM74.7582 169.15C74.7582 170.956 73.5542 172.006 72.1542 172.006C70.7542 172.006 69.5642 170.942 69.5642 169.136C69.5642 167.33 70.7542 166.308 72.1542 166.308C73.5542 166.308 74.7582 167.372 74.7582 169.15ZM85.0031 165.328H83.7291V169.542C83.7291 171.194 82.8471 172.006 81.5311 172.006C80.2431 172.006 79.3891 171.208 79.3891 169.654V165.328H78.1291V169.822C78.1291 172.02 79.5151 173.112 81.2791 173.112C82.3011 173.112 83.2391 172.664 83.7291 171.866V173H85.0031V165.328ZM86.6782 169.15C86.6782 171.586 88.2322 173.126 90.4162 173.126C92.3202 173.126 93.5662 172.062 93.9582 170.536H92.5862C92.3062 171.502 91.5502 172.048 90.4162 172.048C89.0162 172.048 87.9802 171.054 87.9802 169.15C87.9802 167.274 89.0162 166.28 90.4162 166.28C91.5502 166.28 92.3202 166.868 92.5862 167.792H93.9582C93.5662 166.182 92.3202 165.202 90.4162 165.202C88.2322 165.202 86.6782 166.742 86.6782 169.15ZM95.9381 170.9C95.9381 172.44 96.7081 173 98.0661 173H99.2141V171.922H98.2761C97.4921 171.922 97.2121 171.656 97.2121 170.9V166.378H99.2141V165.328H97.2121V163.396H95.9381V165.328H94.9441V166.378H95.9381V170.9ZM104.014 169.136C104.014 171.516 105.596 173.126 107.654 173.126C109.054 173.126 110.048 172.412 110.51 171.558V173H111.798V162.64H110.51V166.7C109.978 165.818 108.872 165.202 107.668 165.202C105.596 165.202 104.014 166.742 104.014 169.136ZM110.51 169.15C110.51 170.956 109.306 172.006 107.906 172.006C106.506 172.006 105.316 170.942 105.316 169.136C105.316 167.33 106.506 166.308 107.906 166.308C109.306 166.308 110.51 167.372 110.51 169.15ZM121.231 169.15C121.231 166.728 119.537 165.202 117.353 165.202C115.183 165.202 113.475 166.728 113.475 169.15C113.475 171.586 115.127 173.126 117.297 173.126C119.481 173.126 121.231 171.586 121.231 169.15ZM114.777 169.15C114.777 167.218 115.995 166.308 117.339 166.308C118.655 166.308 119.929 167.218 119.929 169.15C119.929 171.096 118.627 172.006 117.297 172.006C115.967 172.006 114.777 171.096 114.777 169.15ZM126.168 166.28C127.484 166.28 128.604 167.106 128.59 168.604H123.746C123.886 167.106 124.922 166.28 126.168 166.28ZM129.752 170.634H128.38C128.1 171.46 127.372 172.048 126.224 172.048C124.922 172.048 123.83 171.194 123.732 169.64H129.864C129.892 169.374 129.906 169.15 129.906 168.87C129.906 166.77 128.45 165.202 126.224 165.202C123.984 165.202 122.43 166.728 122.43 169.15C122.43 171.586 124.04 173.126 126.224 173.126C128.128 173.126 129.36 172.034 129.752 170.634ZM137.104 170.914C137.048 168.17 132.596 169.164 132.596 167.344C132.596 166.728 133.156 166.28 134.094 166.28C135.116 166.28 135.704 166.84 135.76 167.61H137.034C136.95 166.112 135.83 165.202 134.136 165.202C132.428 165.202 131.322 166.168 131.322 167.344C131.322 170.2 135.858 169.206 135.858 170.914C135.858 171.544 135.298 172.048 134.29 172.048C133.212 172.048 132.554 171.488 132.484 170.746H131.168C131.252 172.146 132.512 173.126 134.304 173.126C135.998 173.126 137.104 172.174 137.104 170.914ZM148.249 173H149.509V168.478C149.509 166.28 148.151 165.188 146.373 165.188C145.337 165.188 144.413 165.622 143.909 166.42V165.328H142.635V173H143.909V168.758C143.909 167.106 144.805 166.294 146.107 166.294C147.395 166.294 148.249 167.092 148.249 168.66V173ZM158.87 169.15C158.87 166.728 157.176 165.202 154.992 165.202C152.822 165.202 151.114 166.728 151.114 169.15C151.114 171.586 152.766 173.126 154.936 173.126C157.12 173.126 158.87 171.586 158.87 169.15ZM152.416 169.15C152.416 167.218 153.634 166.308 154.978 166.308C156.294 166.308 157.568 167.218 157.568 169.15C157.568 171.096 156.266 172.006 154.936 172.006C153.606 172.006 152.416 171.096 152.416 169.15ZM160.825 170.9C160.825 172.44 161.595 173 162.953 173H164.101V171.922H163.163C162.379 171.922 162.099 171.656 162.099 170.9V166.378H164.101V165.328H162.099V163.396H160.825V165.328H159.831V166.378H160.825V170.9ZM169.377 173H170.651V168.758C170.651 167.106 171.547 166.294 172.849 166.294C174.137 166.294 174.991 167.092 174.991 168.66V173H176.251V168.478C176.251 166.28 174.893 165.188 173.185 165.188C172.107 165.188 171.155 165.622 170.651 166.434V162.64H169.377V173ZM177.856 169.136C177.856 171.516 179.438 173.126 181.482 173.126C182.896 173.126 183.89 172.398 184.352 171.572V173H185.64V165.328H184.352V166.728C183.904 165.93 182.924 165.202 181.496 165.202C179.438 165.202 177.856 166.742 177.856 169.136ZM184.352 169.15C184.352 170.956 183.148 172.006 181.748 172.006C180.348 172.006 179.158 170.942 179.158 169.136C179.158 167.33 180.348 166.308 181.748 166.308C183.148 166.308 184.352 167.372 184.352 169.15ZM186.883 165.328L189.893 173H191.377L194.387 165.328H193.029L190.649 171.824L188.255 165.328H186.883ZM198.903 166.28C200.219 166.28 201.339 167.106 201.325 168.604H196.481C196.62 167.106 197.657 166.28 198.903 166.28ZM202.487 170.634H201.115C200.835 171.46 200.107 172.048 198.959 172.048C197.657 172.048 196.565 171.194 196.467 169.64H202.599C202.627 169.374 202.641 169.15 202.641 168.87C202.641 166.77 201.185 165.202 198.959 165.202C196.719 165.202 195.165 166.728 195.165 169.15C195.165 171.586 196.775 173.126 198.959 173.126C200.863 173.126 202.095 172.034 202.487 170.634ZM207.579 169.136C207.579 171.516 209.161 173.126 211.205 173.126C212.619 173.126 213.613 172.398 214.075 171.572V173H215.363V165.328H214.075V166.728C213.627 165.93 212.647 165.202 211.219 165.202C209.161 165.202 207.579 166.742 207.579 169.136ZM214.075 169.15C214.075 170.956 212.871 172.006 211.471 172.006C210.071 172.006 208.881 170.942 208.881 169.136C208.881 167.33 210.071 166.308 211.471 166.308C212.871 166.308 214.075 167.372 214.075 169.15ZM223.13 173H224.39V168.478C224.39 166.28 223.032 165.188 221.254 165.188C220.218 165.188 219.294 165.622 218.79 166.42V165.328H217.516V173H218.79V168.758C218.79 167.106 219.686 166.294 220.988 166.294C222.276 166.294 223.13 167.092 223.13 168.66V173ZM229.383 171.544L226.975 165.328H225.561L228.655 172.916L227.143 176.612H228.459L233.079 165.328H231.763L229.383 171.544ZM237.182 165.328L240.192 173H241.676L244.686 165.328H243.328L240.948 171.824L238.554 165.328H237.182ZM245.463 169.136C245.463 171.516 247.045 173.126 249.089 173.126C250.503 173.126 251.497 172.398 251.959 171.572V173H253.247V165.328H251.959V166.728C251.511 165.93 250.531 165.202 249.103 165.202C247.045 165.202 245.463 166.742 245.463 169.136ZM251.959 169.15C251.959 170.956 250.755 172.006 249.355 172.006C247.955 172.006 246.765 170.942 246.765 169.136C246.765 167.33 247.955 166.308 249.355 166.308C250.755 166.308 251.959 167.372 251.959 169.15ZM256.674 168.828C256.674 167.05 257.598 166.504 258.816 166.504H259.152V165.188C257.934 165.188 257.108 165.72 256.674 166.574V165.328H255.4V173H256.674V168.828ZM260.623 173H261.897V165.328H260.623V173ZM261.281 164.082C261.743 164.082 262.121 163.704 262.121 163.214C262.121 162.724 261.743 162.346 261.281 162.346C260.791 162.346 260.413 162.724 260.413 163.214C260.413 163.704 260.791 164.082 261.281 164.082ZM263.592 169.136C263.592 171.516 265.174 173.126 267.218 173.126C268.632 173.126 269.626 172.398 270.088 171.572V173H271.376V165.328H270.088V166.728C269.64 165.93 268.66 165.202 267.232 165.202C265.174 165.202 263.592 166.742 263.592 169.136ZM270.088 169.15C270.088 170.956 268.884 172.006 267.484 172.006C266.084 172.006 264.894 170.942 264.894 169.136C264.894 167.33 266.084 166.308 267.484 166.308C268.884 166.308 270.088 167.372 270.088 169.15ZM273.809 170.9C273.809 172.44 274.579 173 275.937 173H277.085V171.922H276.147C275.363 171.922 275.083 171.656 275.083 170.9V166.378H277.085V165.328H275.083V163.396H273.809V165.328H272.815V166.378H273.809V170.9ZM278.629 173H279.903V165.328H278.629V173ZM279.287 164.082C279.749 164.082 280.127 163.704 280.127 163.214C280.127 162.724 279.749 162.346 279.287 162.346C278.797 162.346 278.419 162.724 278.419 163.214C278.419 163.704 278.797 164.082 279.287 164.082ZM289.354 169.15C289.354 166.728 287.66 165.202 285.476 165.202C283.306 165.202 281.598 166.728 281.598 169.15C281.598 171.586 283.25 173.126 285.42 173.126C287.604 173.126 289.354 171.586 289.354 169.15ZM282.9 169.15C282.9 167.218 284.118 166.308 285.462 166.308C286.778 166.308 288.052 167.218 288.052 169.15C288.052 171.096 286.75 172.006 285.42 172.006C284.09 172.006 282.9 171.096 282.9 169.15ZM296.643 173H297.903V168.478C297.903 166.28 296.545 165.188 294.767 165.188C293.731 165.188 292.807 165.622 292.303 166.42V165.328H291.029V173H292.303V168.758C292.303 167.106 293.199 166.294 294.501 166.294C295.789 166.294 296.643 167.092 296.643 168.66V173ZM305.5 170.914C305.444 168.17 300.992 169.164 300.992 167.344C300.992 166.728 301.552 166.28 302.49 166.28C303.512 166.28 304.1 166.84 304.156 167.61H305.43C305.346 166.112 304.226 165.202 302.532 165.202C300.824 165.202 299.718 166.168 299.718 167.344C299.718 170.2 304.254 169.206 304.254 170.914C304.254 171.544 303.694 172.048 302.686 172.048C301.608 172.048 300.95 171.488 300.88 170.746H299.564C299.648 172.146 300.908 173.126 302.7 173.126C304.394 173.126 305.5 172.174 305.5 170.914ZM308.545 172.216C308.545 171.726 308.167 171.348 307.705 171.348C307.215 171.348 306.837 171.726 306.837 172.216C306.837 172.706 307.215 173.084 307.705 173.084C308.167 173.084 308.545 172.706 308.545 172.216Z" fill="#758696"/>
<path d="M83.448 133.256V140.508L78.646 133.256H77.05V143H78.646V135.734L83.448 143H85.044V133.256H83.448ZM94.4898 139.136C94.4898 136.714 92.7538 135.16 90.5558 135.16C88.3578 135.16 86.6218 136.714 86.6218 139.136C86.6218 141.558 88.2878 143.126 90.4858 143.126C92.6978 143.126 94.4898 141.558 94.4898 139.136ZM88.2458 139.136C88.2458 137.386 89.3238 136.546 90.5278 136.546C91.7178 136.546 92.8518 137.386 92.8518 139.136C92.8518 140.886 91.6758 141.74 90.4858 141.74C89.2818 141.74 88.2458 140.886 88.2458 139.136ZM98.7943 135.286L101.72 143H103.624L106.564 135.286H104.87L102.686 141.572L100.502 135.286H98.7943ZM107.239 139.108C107.239 141.488 108.849 143.126 110.851 143.126C112.139 143.126 113.063 142.51 113.553 141.852V143H115.163V135.286H113.553V136.406C113.077 135.776 112.181 135.16 110.879 135.16C108.849 135.16 107.239 136.728 107.239 139.108ZM113.553 139.136C113.553 140.802 112.419 141.74 111.215 141.74C110.025 141.74 108.877 140.774 108.877 139.108C108.877 137.442 110.025 136.546 111.215 136.546C112.419 136.546 113.553 137.484 113.553 139.136ZM118.855 138.94C118.855 137.302 119.583 136.812 120.759 136.812H121.165V135.16C120.073 135.16 119.303 135.636 118.855 136.406V135.286H117.259V143H118.855V138.94ZM122.632 143H124.228V135.286H122.632V143ZM123.444 134.264C124.004 134.264 124.452 133.816 124.452 133.242C124.452 132.668 124.004 132.22 123.444 132.22C122.87 132.22 122.422 132.668 122.422 133.242C122.422 133.816 122.87 134.264 123.444 134.264ZM125.791 139.108C125.791 141.488 127.401 143.126 129.403 143.126C130.691 143.126 131.615 142.51 132.105 141.852V143H133.715V135.286H132.105V136.406C131.629 135.776 130.733 135.16 129.431 135.16C127.401 135.16 125.791 136.728 125.791 139.108ZM132.105 139.136C132.105 140.802 130.971 141.74 129.767 141.74C128.577 141.74 127.429 140.774 127.429 139.108C127.429 137.442 128.577 136.546 129.767 136.546C130.971 136.546 132.105 137.484 132.105 139.136ZM136.064 140.858C136.064 142.426 136.918 143 138.29 143H139.55V141.67H138.57C137.898 141.67 137.674 141.432 137.674 140.858V136.588H139.55V135.286H137.674V133.368H136.064V135.286H135.154V136.588H136.064V140.858ZM141.021 143H142.617V135.286H141.021V143ZM141.833 134.264C142.393 134.264 142.841 133.816 142.841 133.242C142.841 132.668 142.393 132.22 141.833 132.22C141.259 132.22 140.811 132.668 140.811 133.242C140.811 133.816 141.259 134.264 141.833 134.264ZM152.062 139.136C152.062 136.714 150.326 135.16 148.128 135.16C145.93 135.16 144.194 136.714 144.194 139.136C144.194 141.558 145.86 143.126 148.058 143.126C150.27 143.126 152.062 141.558 152.062 139.136ZM145.818 139.136C145.818 137.386 146.896 136.546 148.1 136.546C149.29 136.546 150.424 137.386 150.424 139.136C150.424 140.886 149.248 141.74 148.058 141.74C146.854 141.74 145.818 140.886 145.818 139.136ZM159.114 143H160.696V138.45C160.696 136.294 159.338 135.16 157.532 135.16C156.608 135.16 155.754 135.538 155.236 136.168V135.286H153.64V143H155.236V138.688C155.236 137.274 156.006 136.546 157.182 136.546C158.344 136.546 159.114 137.274 159.114 138.688V143ZM168.486 140.844C168.402 138.058 164.048 138.926 164.048 137.372C164.048 136.854 164.496 136.504 165.35 136.504C166.218 136.504 166.736 136.966 166.792 137.638H168.388C168.304 136.098 167.156 135.16 165.406 135.16C163.586 135.16 162.438 136.154 162.438 137.386C162.438 140.214 166.918 139.346 166.918 140.858C166.918 141.39 166.428 141.782 165.504 141.782C164.622 141.782 164.02 141.264 163.964 140.634H162.312C162.382 142.034 163.684 143.126 165.532 143.126C167.352 143.126 168.486 142.146 168.486 140.844ZM174.099 140.858C174.099 142.426 174.953 143 176.325 143H177.585V141.67H176.605C175.933 141.67 175.709 141.432 175.709 140.858V136.588H177.585V135.286H175.709V133.368H174.099V135.286H173.189V136.588H174.099V140.858ZM186.406 139.136C186.406 136.714 184.67 135.16 182.472 135.16C180.274 135.16 178.538 136.714 178.538 139.136C178.538 141.558 180.204 143.126 182.402 143.126C184.614 143.126 186.406 141.558 186.406 139.136ZM180.162 139.136C180.162 137.386 181.24 136.546 182.444 136.546C183.634 136.546 184.768 137.386 184.768 139.136C184.768 140.886 183.592 141.74 182.402 141.74C181.198 141.74 180.162 140.886 180.162 139.136ZM191.088 139.108C191.088 141.488 192.698 143.126 194.728 143.126C195.988 143.126 196.912 142.538 197.402 141.838V143H199.012V132.64H197.402V136.364C196.814 135.636 195.75 135.16 194.742 135.16C192.698 135.16 191.088 136.728 191.088 139.108ZM197.402 139.136C197.402 140.802 196.268 141.74 195.064 141.74C193.874 141.74 192.726 140.774 192.726 139.108C192.726 137.442 193.874 136.546 195.064 136.546C196.268 136.546 197.402 137.484 197.402 139.136ZM201.109 143H202.705V135.286H201.109V143ZM201.921 134.264C202.481 134.264 202.929 133.816 202.929 133.242C202.929 132.668 202.481 132.22 201.921 132.22C201.347 132.22 200.899 132.668 200.899 133.242C200.899 133.816 201.347 134.264 201.921 134.264ZM210.554 140.844C210.47 138.058 206.116 138.926 206.116 137.372C206.116 136.854 206.564 136.504 207.418 136.504C208.286 136.504 208.804 136.966 208.86 137.638H210.456C210.372 136.098 209.224 135.16 207.474 135.16C205.654 135.16 204.506 136.154 204.506 137.386C204.506 140.214 208.986 139.346 208.986 140.858C208.986 141.39 208.496 141.782 207.572 141.782C206.69 141.782 206.088 141.264 206.032 140.634H204.38C204.45 142.034 205.752 143.126 207.6 143.126C209.42 143.126 210.554 142.146 210.554 140.844ZM213.875 136.42V135.286H212.279V146.668H213.875V141.88C214.379 142.482 215.289 143.126 216.563 143.126C218.593 143.126 220.189 141.488 220.189 139.108C220.189 136.728 218.593 135.16 216.563 135.16C215.303 135.16 214.365 135.776 213.875 136.42ZM218.565 139.108C218.565 140.774 217.417 141.74 216.213 141.74C215.023 141.74 213.875 140.802 213.875 139.136C213.875 137.484 215.023 136.546 216.213 136.546C217.417 136.546 218.565 137.442 218.565 139.108ZM221.767 143H223.363V132.64H221.767V143ZM224.926 139.108C224.926 141.488 226.536 143.126 228.538 143.126C229.826 143.126 230.75 142.51 231.24 141.852V143H232.85V135.286H231.24V136.406C230.764 135.776 229.868 135.16 228.566 135.16C226.536 135.16 224.926 136.728 224.926 139.108ZM231.24 139.136C231.24 140.802 230.106 141.74 228.902 141.74C227.712 141.74 226.564 140.774 226.564 139.108C226.564 137.442 227.712 136.546 228.902 136.546C230.106 136.546 231.24 137.484 231.24 139.136ZM237.984 141.166L235.814 135.286H234.036L237.074 142.874L235.506 146.626H237.158L241.89 135.286H240.238L237.984 141.166ZM244.747 142.076C244.747 141.502 244.299 141.054 243.739 141.054C243.165 141.054 242.717 141.502 242.717 142.076C242.717 142.65 243.165 143.098 243.739 143.098C244.299 143.098 244.747 142.65 244.747 142.076Z" fill="#758696"/>
<g opacity="0.5">
<rect x="2" y="2.78906" width="107.315" height="30.7742" rx="8" stroke="#758696" stroke-width="3" stroke-linecap="round" stroke-dasharray="7 7"/>
<rect x="212.685" y="2" width="107.315" height="30.7742" rx="8" stroke="#758696" stroke-width="3" stroke-linecap="round" stroke-dasharray="7 7"/>
<rect x="121.94" y="2.78906" width="78.1191" height="30.7742" rx="8" stroke="#758696" stroke-width="3" stroke-linecap="round" stroke-dasharray="7 7"/>
<rect x="152.715" y="46.9775" width="107.315" height="30.7742" rx="8" stroke="#758696" stroke-width="3" stroke-linecap="round" stroke-dasharray="7 7"/>
<rect x="61.9702" y="46.9775" width="78.1191" height="30.7742" rx="8" stroke="#758696" stroke-width="3" stroke-linecap="round" stroke-dasharray="7 7"/>
</g>
</svg>
