<svg width="16" height="13" viewBox="0 0 16 13" fill="none" xmlns="http://www.w3.org/2000/svg">
<path d="M3.56624 10.7512C3.98029 10.7395 4.30643 10.3943 4.2947 9.98027C4.28297 9.56622 3.9378 9.24008 3.52376 9.25182L3.56624 10.7512ZM1 7.60152L0.250156 7.58621C0.249897 7.59888 0.24996 7.61156 0.250344 7.62424L1 7.60152ZM2.91 5.27652L3.07058 6.00912C3.41475 5.93369 3.66 5.62885 3.66 5.27652H2.91ZM2.91 5.20151L2.16034 5.17879C2.16011 5.18637 2.16 5.19394 2.16 5.20151H2.91ZM5.455 2.80151L5.43376 3.55121C5.44118 3.55142 5.4486 3.55152 5.45602 3.55151L5.455 2.80151ZM6.389 2.96851L6.12815 3.67169C6.48917 3.80562 6.89296 3.64438 7.06244 3.29863L6.389 2.96851ZM9.591 1.00151L9.58103 1.75145C9.59181 1.75159 9.6026 1.7515 9.61337 1.75118L9.591 1.00151ZM12.0249 1.9262L11.5104 2.47189L11.5104 2.47189L12.0249 1.9262ZM13.091 4.30151L13.841 4.30056C13.841 4.29364 13.8409 4.28671 13.8407 4.27979L13.091 4.30151ZM12.946 5.24651L12.2308 5.02074C12.1652 5.22865 12.1932 5.45482 12.3077 5.64036C12.4222 5.8259 12.6118 5.95244 12.827 5.98702L12.946 5.24651ZM15 7.60152L15.7497 7.62424C15.7501 7.61092 15.7501 7.5976 15.7498 7.58429L15 7.60152ZM12.4762 9.25182C12.0622 9.24008 11.717 9.56622 11.7053 9.98027C11.6936 10.3943 12.0197 10.7395 12.4338 10.7512L12.4762 9.25182ZM3.52376 9.25182C2.57222 9.27878 1.77849 8.53028 1.74966 7.5788L0.250344 7.62424C0.304242 9.40261 1.78777 10.8016 3.56624 10.7512L3.52376 9.25182ZM1.74984 7.61683C1.7657 6.84012 2.31173 6.17546 3.07058 6.00912L2.74942 4.54391C1.31342 4.85866 0.280166 6.11643 0.250156 7.58621L1.74984 7.61683ZM3.66 5.27652C3.66 5.27647 3.66 5.27642 3.66 5.27637C3.66 5.27632 3.66 5.27627 3.66 5.27622C3.66 5.27617 3.66 5.27612 3.66 5.27607C3.66 5.27602 3.66 5.27597 3.66 5.27592C3.66 5.27587 3.66 5.27582 3.66 5.27577C3.66 5.27572 3.66 5.27567 3.66 5.27562C3.66 5.27558 3.66 5.27553 3.66 5.27548C3.66 5.27543 3.66 5.27538 3.66 5.27533C3.66 5.27528 3.66 5.27523 3.66 5.27518C3.66 5.27513 3.66 5.27508 3.66 5.27503C3.66 5.27498 3.66 5.27493 3.66 5.27488C3.66 5.27483 3.66 5.27478 3.66 5.27473C3.66 5.27468 3.66 5.27464 3.66 5.27459C3.66 5.27454 3.66 5.27449 3.66 5.27444C3.66 5.27439 3.66 5.27434 3.66 5.27429C3.66 5.27424 3.66 5.27419 3.66 5.27414C3.66 5.27409 3.66 5.27404 3.66 5.27399C3.66 5.27394 3.66 5.27389 3.66 5.27384C3.66 5.2738 3.66 5.27375 3.66 5.2737C3.66 5.27365 3.66 5.2736 3.66 5.27355C3.66 5.2735 3.66 5.27345 3.66 5.2734C3.66 5.27335 3.66 5.2733 3.66 5.27325C3.66 5.2732 3.66 5.27315 3.66 5.2731C3.66 5.27305 3.66 5.273 3.66 5.27295C3.66 5.27291 3.66 5.27286 3.66 5.27281C3.66 5.27276 3.66 5.27271 3.66 5.27266C3.66 5.27261 3.66 5.27256 3.66 5.27251C3.66 5.27246 3.66 5.27241 3.66 5.27236C3.66 5.27231 3.66 5.27226 3.66 5.27221C3.66 5.27216 3.66 5.27211 3.66 5.27207C3.66 5.27202 3.66 5.27197 3.66 5.27192C3.66 5.27187 3.66 5.27182 3.66 5.27177C3.66 5.27172 3.66 5.27167 3.66 5.27162C3.66 5.27157 3.66 5.27152 3.66 5.27147C3.66 5.27142 3.66 5.27137 3.66 5.27132C3.66 5.27128 3.66 5.27123 3.66 5.27118C3.66 5.27113 3.66 5.27108 3.66 5.27103C3.66 5.27098 3.66 5.27093 3.66 5.27088C3.66 5.27083 3.66 5.27078 3.66 5.27073C3.66 5.27068 3.66 5.27063 3.66 5.27058C3.66 5.27053 3.66 5.27048 3.66 5.27044C3.66 5.27039 3.66 5.27034 3.66 5.27029C3.66 5.27024 3.66 5.27019 3.66 5.27014C3.66 5.27009 3.66 5.27004 3.66 5.26999C3.66 5.26994 3.66 5.26989 3.66 5.26984C3.66 5.26979 3.66 5.26974 3.66 5.26969C3.66 5.26965 3.66 5.2696 3.66 5.26955C3.66 5.2695 3.66 5.26945 3.66 5.2694C3.66 5.26935 3.66 5.2693 3.66 5.26925C3.66 5.2692 3.66 5.26915 3.66 5.2691C3.66 5.26905 3.66 5.269 3.66 5.26895C3.66 5.26891 3.66 5.26886 3.66 5.26881C3.66 5.26876 3.66 5.26871 3.66 5.26866C3.66 5.26861 3.66 5.26856 3.66 5.26851C3.66 5.26846 3.66 5.26841 3.66 5.26836C3.66 5.26831 3.66 5.26826 3.66 5.26821C3.66 5.26817 3.66 5.26812 3.66 5.26807C3.66 5.26802 3.66 5.26797 3.66 5.26792C3.66 5.26787 3.66 5.26782 3.66 5.26777C3.66 5.26772 3.66 5.26767 3.66 5.26762C3.66 5.26757 3.66 5.26752 3.66 5.26747C3.66 5.26743 3.66 5.26738 3.66 5.26733C3.66 5.26728 3.66 5.26723 3.66 5.26718C3.66 5.26713 3.66 5.26708 3.66 5.26703C3.66 5.26698 3.66 5.26693 3.66 5.26688C3.66 5.26683 3.66 5.26678 3.66 5.26673C3.66 5.26669 3.66 5.26664 3.66 5.26659C3.66 5.26654 3.66 5.26649 3.66 5.26644C3.66 5.26639 3.66 5.26634 3.66 5.26629C3.66 5.26624 3.66 5.26619 3.66 5.26614C3.66 5.26609 3.66 5.26604 3.66 5.266C3.66 5.26595 3.66 5.2659 3.66 5.26585C3.66 5.2658 3.66 5.26575 3.66 5.2657C3.66 5.26565 3.66 5.2656 3.66 5.26555C3.66 5.2655 3.66 5.26545 3.66 5.2654C3.66 5.26535 3.66 5.26531 3.66 5.26526C3.66 5.26521 3.66 5.26516 3.66 5.26511C3.66 5.26506 3.66 5.26501 3.66 5.26496C3.66 5.26491 3.66 5.26486 3.66 5.26481C3.66 5.26476 3.66 5.26471 3.66 5.26466C3.66 5.26462 3.66 5.26457 3.66 5.26452C3.66 5.26447 3.66 5.26442 3.66 5.26437C3.66 5.26432 3.66 5.26427 3.66 5.26422C3.66 5.26417 3.66 5.26412 3.66 5.26407C3.66 5.26402 3.66 5.26397 3.66 5.26393C3.66 5.26388 3.66 5.26383 3.66 5.26378C3.66 5.26373 3.66 5.26368 3.66 5.26363C3.66 5.26358 3.66 5.26353 3.66 5.26348C3.66 5.26343 3.66 5.26338 3.66 5.26333C3.66 5.26329 3.66 5.26324 3.66 5.26319C3.66 5.26314 3.66 5.26309 3.66 5.26304C3.66 5.26299 3.66 5.26294 3.66 5.26289C3.66 5.26284 3.66 5.26279 3.66 5.26274C3.66 5.26269 3.66 5.26264 3.66 5.2626C3.66 5.26255 3.66 5.2625 3.66 5.26245C3.66 5.2624 3.66 5.26235 3.66 5.2623C3.66 5.26225 3.66 5.2622 3.66 5.26215C3.66 5.2621 3.66 5.26205 3.66 5.262C3.66 5.26196 3.66 5.26191 3.66 5.26186C3.66 5.26181 3.66 5.26176 3.66 5.26171C3.66 5.26166 3.66 5.26161 3.66 5.26156C3.66 5.26151 3.66 5.26146 3.66 5.26141C3.66 5.26136 3.66 5.26132 3.66 5.26127C3.66 5.26122 3.66 5.26117 3.66 5.26112C3.66 5.26107 3.66 5.26102 3.66 5.26097C3.66 5.26092 3.66 5.26087 3.66 5.26082C3.66 5.26077 3.66 5.26073 3.66 5.26068C3.66 5.26063 3.66 5.26058 3.66 5.26053C3.66 5.26048 3.66 5.26043 3.66 5.26038C3.66 5.26033 3.66 5.26028 3.66 5.26023C3.66 5.26018 3.66 5.26013 3.66 5.26009C3.66 5.26004 3.66 5.25999 3.66 5.25994C3.66 5.25989 3.66 5.25984 3.66 5.25979C3.66 5.25974 3.66 5.25969 3.66 5.25964C3.66 5.25959 3.66 5.25954 3.66 5.2595C3.66 5.25945 3.66 5.2594 3.66 5.25935C3.66 5.2593 3.66 5.25925 3.66 5.2592C3.66 5.25915 3.66 5.2591 3.66 5.25905C3.66 5.259 3.66 5.25895 3.66 5.2589C3.66 5.25886 3.66 5.25881 3.66 5.25876C3.66 5.25871 3.66 5.25866 3.66 5.25861C3.66 5.25856 3.66 5.25851 3.66 5.25846C3.66 5.25841 3.66 5.25836 3.66 5.25831C3.66 5.25827 3.66 5.25822 3.66 5.25817C3.66 5.25812 3.66 5.25807 3.66 5.25802C3.66 5.25797 3.66 5.25792 3.66 5.25787C3.66 5.25782 3.66 5.25777 3.66 5.25772C3.66 5.25768 3.66 5.25763 3.66 5.25758C3.66 5.25753 3.66 5.25748 3.66 5.25743C3.66 5.25738 3.66 5.25733 3.66 5.25728C3.66 5.25723 3.66 5.25718 3.66 5.25713C3.66 5.25709 3.66 5.25704 3.66 5.25699C3.66 5.25694 3.66 5.25689 3.66 5.25684C3.66 5.25679 3.66 5.25674 3.66 5.25669C3.66 5.25664 3.66 5.25659 3.66 5.25655C3.66 5.2565 3.66 5.25645 3.66 5.2564C3.66 5.25635 3.66 5.2563 3.66 5.25625C3.66 5.2562 3.66 5.25615 3.66 5.2561C3.66 5.25605 3.66 5.256 3.66 5.25596C3.66 5.25591 3.66 5.25586 3.66 5.25581C3.66 5.25576 3.66 5.25571 3.66 5.25566C3.66 5.25561 3.66 5.25556 3.66 5.25551C3.66 5.25546 3.66 5.25542 3.66 5.25537C3.66 5.25532 3.66 5.25527 3.66 5.25522C3.66 5.25517 3.66 5.25512 3.66 5.25507C3.66 5.25502 3.66 5.25497 3.66 5.25492C3.66 5.25488 3.66 5.25483 3.66 5.25478C3.66 5.25473 3.66 5.25468 3.66 5.25463C3.66 5.25458 3.66 5.25453 3.66 5.25448C3.66 5.25443 3.66 5.25438 3.66 5.25433C3.66 5.25429 3.66 5.25424 3.66 5.25419C3.66 5.25414 3.66 5.25409 3.66 5.25404C3.66 5.25399 3.66 5.25394 3.66 5.25389C3.66 5.25384 3.66 5.2538 3.66 5.25375C3.66 5.2537 3.66 5.25365 3.66 5.2536C3.66 5.25355 3.66 5.2535 3.66 5.25345C3.66 5.2534 3.66 5.25335 3.66 5.2533C3.66 5.25326 3.66 5.25321 3.66 5.25316C3.66 5.25311 3.66 5.25306 3.66 5.25301C3.66 5.25296 3.66 5.25291 3.66 5.25286C3.66 5.25281 3.66 5.25276 3.66 5.25272C3.66 5.25267 3.66 5.25262 3.66 5.25257C3.66 5.25252 3.66 5.25247 3.66 5.25242C3.66 5.25237 3.66 5.25232 3.66 5.25227C3.66 5.25222 3.66 5.25218 3.66 5.25213C3.66 5.25208 3.66 5.25203 3.66 5.25198C3.66 5.25193 3.66 5.25188 3.66 5.25183C3.66 5.25178 3.66 5.25173 3.66 5.25169C3.66 5.25164 3.66 5.25159 3.66 5.25154C3.66 5.25149 3.66 5.25144 3.66 5.25139C3.66 5.25134 3.66 5.25129 3.66 5.25124C3.66 5.25119 3.66 5.25115 3.66 5.2511C3.66 5.25105 3.66 5.251 3.66 5.25095C3.66 5.2509 3.66 5.25085 3.66 5.2508C3.66 5.25075 3.66 5.2507 3.66 5.25066C3.66 5.25061 3.66 5.25056 3.66 5.25051C3.66 5.25046 3.66 5.25041 3.66 5.25036C3.66 5.25031 3.66 5.25026 3.66 5.25021C3.66 5.25016 3.66 5.25012 3.66 5.25007C3.66 5.25002 3.66 5.24997 3.66 5.24992C3.66 5.24987 3.66 5.24982 3.66 5.24977C3.66 5.24972 3.66 5.24967 3.66 5.24963C3.66 5.24958 3.66 5.24953 3.66 5.24948C3.66 5.24943 3.66 5.24938 3.66 5.24933C3.66 5.24928 3.66 5.24923 3.66 5.24918C3.66 5.24914 3.66 5.24909 3.66 5.24904C3.66 5.24899 3.66 5.24894 3.66 5.24889C3.66 5.24884 3.66 5.24879 3.66 5.24874C3.66 5.24869 3.66 5.24865 3.66 5.2486C3.66 5.24855 3.66 5.2485 3.66 5.24845C3.66 5.2484 3.66 5.24835 3.66 5.2483C3.66 5.24825 3.66 5.2482 3.66 5.24816C3.66 5.24811 3.66 5.24806 3.66 5.24801C3.66 5.24796 3.66 5.24791 3.66 5.24786C3.66 5.24781 3.66 5.24776 3.66 5.24771C3.66 5.24767 3.66 5.24762 3.66 5.24757C3.66 5.24752 3.66 5.24747 3.66 5.24742C3.66 5.24737 3.66 5.24732 3.66 5.24727C3.66 5.24722 3.66 5.24718 3.66 5.24713C3.66 5.24708 3.66 5.24703 3.66 5.24698C3.66 5.24693 3.66 5.24688 3.66 5.24683C3.66 5.24678 3.66 5.24674 3.66 5.24669C3.66 5.24664 3.66 5.24659 3.66 5.24654C3.66 5.24649 3.66 5.24644 3.66 5.24639C3.66 5.24634 3.66 5.24629 3.66 5.24625C3.66 5.2462 3.66 5.24615 3.66 5.2461C3.66 5.24605 3.66 5.246 3.66 5.24595C3.66 5.2459 3.66 5.24585 3.66 5.2458C3.66 5.24576 3.66 5.24571 3.66 5.24566C3.66 5.24561 3.66 5.24556 3.66 5.24551C3.66 5.24546 3.66 5.24541 3.66 5.24536C3.66 5.24532 3.66 5.24527 3.66 5.24522C3.66 5.24517 3.66 5.24512 3.66 5.24507C3.66 5.24502 3.66 5.24497 3.66 5.24492C3.66 5.24487 3.66 5.24483 3.66 5.24478C3.66 5.24473 3.66 5.24468 3.66 5.24463C3.66 5.24458 3.66 5.24453 3.66 5.24448C3.66 5.24443 3.66 5.24439 3.66 5.24434C3.66 5.24429 3.66 5.24424 3.66 5.24419C3.66 5.24414 3.66 5.24409 3.66 5.24404C3.66 5.24399 3.66 5.24395 3.66 5.2439C3.66 5.24385 3.66 5.2438 3.66 5.24375C3.66 5.2437 3.66 5.24365 3.66 5.2436C3.66 5.24355 3.66 5.24351 3.66 5.24346C3.66 5.24341 3.66 5.24336 3.66 5.24331C3.66 5.24326 3.66 5.24321 3.66 5.24316C3.66 5.24311 3.66 5.24306 3.66 5.24302C3.66 5.24297 3.66 5.24292 3.66 5.24287C3.66 5.24282 3.66 5.24277 3.66 5.24272C3.66 5.24267 3.66 5.24262 3.66 5.24258C3.66 5.24253 3.66 5.24248 3.66 5.24243C3.66 5.24238 3.66 5.24233 3.66 5.24228C3.66 5.24223 3.66 5.24218 3.66 5.24214C3.66 5.24209 3.66 5.24204 3.66 5.24199C3.66 5.24194 3.66 5.24189 3.66 5.24184C3.66 5.24179 3.66 5.24174 3.66 5.2417C3.66 5.24165 3.66 5.2416 3.66 5.24155C3.66 5.2415 3.66 5.24145 3.66 5.2414C3.66 5.24135 3.66 5.2413 3.66 5.24126C3.66 5.24121 3.66 5.24116 3.66 5.24111C3.66 5.24106 3.66 5.24101 3.66 5.24096C3.66 5.24091 3.66 5.24087 3.66 5.24082C3.66 5.24077 3.66 5.24072 3.66 5.24067C3.66 5.24062 3.66 5.24057 3.66 5.24052C3.66 5.24047 3.66 5.24043 3.66 5.24038C3.66 5.24033 3.66 5.24028 3.66 5.24023C3.66 5.24018 3.66 5.24013 3.66 5.24008C3.66 5.24003 3.66 5.23999 3.66 5.23994C3.66 5.23989 3.66 5.23984 3.66 5.23979C3.66 5.23974 3.66 5.23969 3.66 5.23964C3.66 5.23959 3.66 5.23955 3.66 5.2395C3.66 5.23945 3.66 5.2394 3.66 5.23935C3.66 5.2393 3.66 5.23925 3.66 5.2392C3.66 5.23916 3.66 5.23911 3.66 5.23906C3.66 5.23901 3.66 5.23896 3.66 5.23891C3.66 5.23886 3.66 5.23881 3.66 5.23876C3.66 5.23872 3.66 5.23867 3.66 5.23862C3.66 5.23857 3.66 5.23852 3.66 5.23847C3.66 5.23842 3.66 5.23837 3.66 5.23833C3.66 5.23828 3.66 5.23823 3.66 5.23818C3.66 5.23813 3.66 5.23808 3.66 5.23803C3.66 5.23798 3.66 5.23794 3.66 5.23789C3.66 5.23784 3.66 5.23779 3.66 5.23774C3.66 5.23769 3.66 5.23764 3.66 5.23759C3.66 5.23754 3.66 5.2375 3.66 5.23745C3.66 5.2374 3.66 5.23735 3.66 5.2373C3.66 5.23725 3.66 5.2372 3.66 5.23715C3.66 5.2371 3.66 5.23706 3.66 5.23701C3.66 5.23696 3.66 5.23691 3.66 5.23686C3.66 5.23681 3.66 5.23676 3.66 5.23671C3.66 5.23667 3.66 5.23662 3.66 5.23657C3.66 5.23652 3.66 5.23647 3.66 5.23642C3.66 5.23637 3.66 5.23632 3.66 5.23628C3.66 5.23623 3.66 5.23618 3.66 5.23613C3.66 5.23608 3.66 5.23603 3.66 5.23598C3.66 5.23593 3.66 5.23589 3.66 5.23584C3.66 5.23579 3.66 5.23574 3.66 5.23569C3.66 5.23564 3.66 5.23559 3.66 5.23554C3.66 5.2355 3.66 5.23545 3.66 5.2354C3.66 5.23535 3.66 5.2353 3.66 5.23525C3.66 5.2352 3.66 5.23515 3.66 5.23511C3.66 5.23506 3.66 5.23501 3.66 5.23496C3.66 5.23491 3.66 5.23486 3.66 5.23481C3.66 5.23476 3.66 5.23471 3.66 5.23467C3.66 5.23462 3.66 5.23457 3.66 5.23452C3.66 5.23447 3.66 5.23442 3.66 5.23437C3.66 5.23432 3.66 5.23428 3.66 5.23423C3.66 5.23418 3.66 5.23413 3.66 5.23408C3.66 5.23403 3.66 5.23398 3.66 5.23393C3.66 5.23389 3.66 5.23384 3.66 5.23379C3.66 5.23374 3.66 5.23369 3.66 5.23364C3.66 5.23359 3.66 5.23354 3.66 5.2335C3.66 5.23345 3.66 5.2334 3.66 5.23335C3.66 5.2333 3.66 5.23325 3.66 5.2332C3.66 5.23316 3.66 5.23311 3.66 5.23306C3.66 5.23301 3.66 5.23296 3.66 5.23291C3.66 5.23286 3.66 5.23281 3.66 5.23277C3.66 5.23272 3.66 5.23267 3.66 5.23262C3.66 5.23257 3.66 5.23252 3.66 5.23247C3.66 5.23242 3.66 5.23238 3.66 5.23233C3.66 5.23228 3.66 5.23223 3.66 5.23218C3.66 5.23213 3.66 5.23208 3.66 5.23203C3.66 5.23199 3.66 5.23194 3.66 5.23189C3.66 5.23184 3.66 5.23179 3.66 5.23174C3.66 5.23169 3.66 5.23165 3.66 5.2316C3.66 5.23155 3.66 5.2315 3.66 5.23145C3.66 5.2314 3.66 5.23135 3.66 5.2313C3.66 5.23126 3.66 5.23121 3.66 5.23116C3.66 5.23111 3.66 5.23106 3.66 5.23101C3.66 5.23096 3.66 5.23091 3.66 5.23087C3.66 5.23082 3.66 5.23077 3.66 5.23072C3.66 5.23067 3.66 5.23062 3.66 5.23057C3.66 5.23053 3.66 5.23048 3.66 5.23043C3.66 5.23038 3.66 5.23033 3.66 5.23028C3.66 5.23023 3.66 5.23018 3.66 5.23014C3.66 5.23009 3.66 5.23004 3.66 5.22999C3.66 5.22994 3.66 5.22989 3.66 5.22984C3.66 5.22979 3.66 5.22975 3.66 5.2297C3.66 5.22965 3.66 5.2296 3.66 5.22955C3.66 5.2295 3.66 5.22945 3.66 5.22941C3.66 5.22936 3.66 5.22931 3.66 5.22926C3.66 5.22921 3.66 5.22916 3.66 5.22911C3.66 5.22906 3.66 5.22902 3.66 5.22897C3.66 5.22892 3.66 5.22887 3.66 5.22882C3.66 5.22877 3.66 5.22872 3.66 5.22868C3.66 5.22863 3.66 5.22858 3.66 5.22853C3.66 5.22848 3.66 5.22843 3.66 5.22838C3.66 5.22833 3.66 5.22829 3.66 5.22824C3.66 5.22819 3.66 5.22814 3.66 5.22809C3.66 5.22804 3.66 5.22799 3.66 5.22795C3.66 5.2279 3.66 5.22785 3.66 5.2278C3.66 5.22775 3.66 5.2277 3.66 5.22765C3.66 5.22761 3.66 5.22756 3.66 5.22751C3.66 5.22746 3.66 5.22741 3.66 5.22736C3.66 5.22731 3.66 5.22726 3.66 5.22722C3.66 5.22717 3.66 5.22712 3.66 5.22707C3.66 5.22702 3.66 5.22697 3.66 5.22692C3.66 5.22688 3.66 5.22683 3.66 5.22678C3.66 5.22673 3.66 5.22668 3.66 5.22663C3.66 5.22658 3.66 5.22654 3.66 5.22649C3.66 5.22644 3.66 5.22639 3.66 5.22634C3.66 5.22629 3.66 5.22624 3.66 5.2262C3.66 5.22615 3.66 5.2261 3.66 5.22605C3.66 5.226 3.66 5.22595 3.66 5.2259C3.66 5.22585 3.66 5.22581 3.66 5.22576C3.66 5.22571 3.66 5.22566 3.66 5.22561C3.66 5.22556 3.66 5.22551 3.66 5.22547C3.66 5.22542 3.66 5.22537 3.66 5.22532C3.66 5.22527 3.66 5.22522 3.66 5.22517C3.66 5.22513 3.66 5.22508 3.66 5.22503C3.66 5.22498 3.66 5.22493 3.66 5.22488C3.66 5.22483 3.66 5.22479 3.66 5.22474C3.66 5.22469 3.66 5.22464 3.66 5.22459C3.66 5.22454 3.66 5.22449 3.66 5.22445C3.66 5.2244 3.66 5.22435 3.66 5.2243C3.66 5.22425 3.66 5.2242 3.66 5.22415C3.66 5.22411 3.66 5.22406 3.66 5.22401C3.66 5.22396 3.66 5.22391 3.66 5.22386C3.66 5.22381 3.66 5.22377 3.66 5.22372C3.66 5.22367 3.66 5.22362 3.66 5.22357C3.66 5.22352 3.66 5.22347 3.66 5.22343C3.66 5.22338 3.66 5.22333 3.66 5.22328C3.66 5.22323 3.66 5.22318 3.66 5.22313C3.66 5.22309 3.66 5.22304 3.66 5.22299C3.66 5.22294 3.66 5.22289 3.66 5.22284C3.66 5.22279 3.66 5.22275 3.66 5.2227C3.66 5.22265 3.66 5.2226 3.66 5.22255C3.66 5.2225 3.66 5.22246 3.66 5.22241C3.66 5.22236 3.66 5.22231 3.66 5.22226C3.66 5.22221 3.66 5.22216 3.66 5.22212C3.66 5.22207 3.66 5.22202 3.66 5.22197C3.66 5.22192 3.66 5.22187 3.66 5.22182C3.66 5.22178 3.66 5.22173 3.66 5.22168C3.66 5.22163 3.66 5.22158 3.66 5.22153C3.66 5.22148 3.66 5.22144 3.66 5.22139C3.66 5.22134 3.66 5.22129 3.66 5.22124C3.66 5.22119 3.66 5.22114 3.66 5.2211C3.66 5.22105 3.66 5.221 3.66 5.22095C3.66 5.2209 3.66 5.22085 3.66 5.2208C3.66 5.22076 3.66 5.22071 3.66 5.22066C3.66 5.22061 3.66 5.22056 3.66 5.22051C3.66 5.22047 3.66 5.22042 3.66 5.22037C3.66 5.22032 3.66 5.22027 3.66 5.22022C3.66 5.22017 3.66 5.22013 3.66 5.22008C3.66 5.22003 3.66 5.21998 3.66 5.21993C3.66 5.21988 3.66 5.21983 3.66 5.21979C3.66 5.21974 3.66 5.21969 3.66 5.21964C3.66 5.21959 3.66 5.21954 3.66 5.2195C3.66 5.21945 3.66 5.2194 3.66 5.21935C3.66 5.2193 3.66 5.21925 3.66 5.2192C3.66 5.21916 3.66 5.21911 3.66 5.21906C3.66 5.21901 3.66 5.21896 3.66 5.21891C3.66 5.21886 3.66 5.21882 3.66 5.21877C3.66 5.21872 3.66 5.21867 3.66 5.21862C3.66 5.21857 3.66 5.21853 3.66 5.21848C3.66 5.21843 3.66 5.21838 3.66 5.21833C3.66 5.21828 3.66 5.21823 3.66 5.21819C3.66 5.21814 3.66 5.21809 3.66 5.21804C3.66 5.21799 3.66 5.21794 3.66 5.2179C3.66 5.21785 3.66 5.2178 3.66 5.21775C3.66 5.2177 3.66 5.21765 3.66 5.2176C3.66 5.21756 3.66 5.21751 3.66 5.21746C3.66 5.21741 3.66 5.21736 3.66 5.21731C3.66 5.21727 3.66 5.21722 3.66 5.21717C3.66 5.21712 3.66 5.21707 3.66 5.21702C3.66 5.21697 3.66 5.21693 3.66 5.21688C3.66 5.21683 3.66 5.21678 3.66 5.21673C3.66 5.21668 3.66 5.21664 3.66 5.21659C3.66 5.21654 3.66 5.21649 3.66 5.21644C3.66 5.21639 3.66 5.21634 3.66 5.2163C3.66 5.21625 3.66 5.2162 3.66 5.21615C3.66 5.2161 3.66 5.21605 3.66 5.21601C3.66 5.21596 3.66 5.21591 3.66 5.21586C3.66 5.21581 3.66 5.21576 3.66 5.21572C3.66 5.21567 3.66 5.21562 3.66 5.21557C3.66 5.21552 3.66 5.21547 3.66 5.21543C3.66 5.21538 3.66 5.21533 3.66 5.21528C3.66 5.21523 3.66 5.21518 3.66 5.21513C3.66 5.21509 3.66 5.21504 3.66 5.21499C3.66 5.21494 3.66 5.21489 3.66 5.21484C3.66 5.2148 3.66 5.21475 3.66 5.2147C3.66 5.21465 3.66 5.2146 3.66 5.21455C3.66 5.21451 3.66 5.21446 3.66 5.21441C3.66 5.21436 3.66 5.21431 3.66 5.21426C3.66 5.21421 3.66 5.21417 3.66 5.21412C3.66 5.21407 3.66 5.21402 3.66 5.21397C3.66 5.21392 3.66 5.21388 3.66 5.21383C3.66 5.21378 3.66 5.21373 3.66 5.21368C3.66 5.21363 3.66 5.21359 3.66 5.21354C3.66 5.21349 3.66 5.21344 3.66 5.21339C3.66 5.21334 3.66 5.21329 3.66 5.21325C3.66 5.2132 3.66 5.21315 3.66 5.2131C3.66 5.21305 3.66 5.21301 3.66 5.21296C3.66 5.21291 3.66 5.21286 3.66 5.21281C3.66 5.21276 3.66 5.21271 3.66 5.21267C3.66 5.21262 3.66 5.21257 3.66 5.21252C3.66 5.21247 3.66 5.21242 3.66 5.21238C3.66 5.21233 3.66 5.21228 3.66 5.21223C3.66 5.21218 3.66 5.21213 3.66 5.21209C3.66 5.21204 3.66 5.21199 3.66 5.21194C3.66 5.21189 3.66 5.21184 3.66 5.2118C3.66 5.21175 3.66 5.2117 3.66 5.21165C3.66 5.2116 3.66 5.21155 3.66 5.21151C3.66 5.21146 3.66 5.21141 3.66 5.21136C3.66 5.21131 3.66 5.21126 3.66 5.21122C3.66 5.21117 3.66 5.21112 3.66 5.21107C3.66 5.21102 3.66 5.21097 3.66 5.21093C3.66 5.21088 3.66 5.21083 3.66 5.21078C3.66 5.21073 3.66 5.21068 3.66 5.21064C3.66 5.21059 3.66 5.21054 3.66 5.21049C3.66 5.21044 3.66 5.21039 3.66 5.21035C3.66 5.2103 3.66 5.21025 3.66 5.2102C3.66 5.21015 3.66 5.2101 3.66 5.21006C3.66 5.21001 3.66 5.20996 3.66 5.20991C3.66 5.20986 3.66 5.20981 3.66 5.20977C3.66 5.20972 3.66 5.20967 3.66 5.20962C3.66 5.20957 3.66 5.20952 3.66 5.20948C3.66 5.20943 3.66 5.20938 3.66 5.20933C3.66 5.20928 3.66 5.20923 3.66 5.20919C3.66 5.20914 3.66 5.20909 3.66 5.20904C3.66 5.20899 3.66 5.20894 3.66 5.2089C3.66 5.20885 3.66 5.2088 3.66 5.20875C3.66 5.2087 3.66 5.20865 3.66 5.20861C3.66 5.20856 3.66 5.20851 3.66 5.20846C3.66 5.20841 3.66 5.20836 3.66 5.20832C3.66 5.20827 3.66 5.20822 3.66 5.20817C3.66 5.20812 3.66 5.20807 3.66 5.20803C3.66 5.20798 3.66 5.20793 3.66 5.20788C3.66 5.20783 3.66 5.20778 3.66 5.20774C3.66 5.20769 3.66 5.20764 3.66 5.20759C3.66 5.20754 3.66 5.2075 3.66 5.20745C3.66 5.2074 3.66 5.20735 3.66 5.2073C3.66 5.20725 3.66 5.20721 3.66 5.20716C3.66 5.20711 3.66 5.20706 3.66 5.20701C3.66 5.20696 3.66 5.20692 3.66 5.20687C3.66 5.20682 3.66 5.20677 3.66 5.20672C3.66 5.20667 3.66 5.20663 3.66 5.20658C3.66 5.20653 3.66 5.20648 3.66 5.20643C3.66 5.20639 3.66 5.20634 3.66 5.20629C3.66 5.20624 3.66 5.20619 3.66 5.20614C3.66 5.2061 3.66 5.20605 3.66 5.206C3.66 5.20595 3.66 5.2059 3.66 5.20585C3.66 5.20581 3.66 5.20576 3.66 5.20571C3.66 5.20566 3.66 5.20561 3.66 5.20556C3.66 5.20552 3.66 5.20547 3.66 5.20542C3.66 5.20537 3.66 5.20532 3.66 5.20528C3.66 5.20523 3.66 5.20518 3.66 5.20513C3.66 5.20508 3.66 5.20503 3.66 5.20499C3.66 5.20494 3.66 5.20489 3.66 5.20484C3.66 5.20479 3.66 5.20474 3.66 5.2047C3.66 5.20465 3.66 5.2046 3.66 5.20455C3.66 5.2045 3.66 5.20445 3.66 5.20441C3.66 5.20436 3.66 5.20431 3.66 5.20426C3.66 5.20421 3.66 5.20417 3.66 5.20412C3.66 5.20407 3.66 5.20402 3.66 5.20397C3.66 5.20392 3.66 5.20388 3.66 5.20383C3.66 5.20378 3.66 5.20373 3.66 5.20368C3.66 5.20364 3.66 5.20359 3.66 5.20354C3.66 5.20349 3.66 5.20344 3.66 5.20339C3.66 5.20335 3.66 5.2033 3.66 5.20325C3.66 5.2032 3.66 5.20315 3.66 5.2031C3.66 5.20306 3.66 5.20301 3.66 5.20296C3.66 5.20291 3.66 5.20286 3.66 5.20282C3.66 5.20277 3.66 5.20272 3.66 5.20267C3.66 5.20262 3.66 5.20257 3.66 5.20253C3.66 5.20248 3.66 5.20243 3.66 5.20238C3.66 5.20233 3.66 5.20229 3.66 5.20224C3.66 5.20219 3.66 5.20214 3.66 5.20209C3.66 5.20204 3.66 5.202 3.66 5.20195C3.66 5.2019 3.66 5.20185 3.66 5.2018C3.66 5.20176 3.66 5.20171 3.66 5.20166C3.66 5.20161 3.66 5.20156 3.66 5.20151H2.16C2.16 5.20156 2.16 5.20161 2.16 5.20166C2.16 5.20171 2.16 5.20176 2.16 5.2018C2.16 5.20185 2.16 5.2019 2.16 5.20195C2.16 5.202 2.16 5.20204 2.16 5.20209C2.16 5.20214 2.16 5.20219 2.16 5.20224C2.16 5.20229 2.16 5.20233 2.16 5.20238C2.16 5.20243 2.16 5.20248 2.16 5.20253C2.16 5.20257 2.16 5.20262 2.16 5.20267C2.16 5.20272 2.16 5.20277 2.16 5.20282C2.16 5.20286 2.16 5.20291 2.16 5.20296C2.16 5.20301 2.16 5.20306 2.16 5.2031C2.16 5.20315 2.16 5.2032 2.16 5.20325C2.16 5.2033 2.16 5.20335 2.16 5.20339C2.16 5.20344 2.16 5.20349 2.16 5.20354C2.16 5.20359 2.16 5.20364 2.16 5.20368C2.16 5.20373 2.16 5.20378 2.16 5.20383C2.16 5.20388 2.16 5.20392 2.16 5.20397C2.16 5.20402 2.16 5.20407 2.16 5.20412C2.16 5.20417 2.16 5.20421 2.16 5.20426C2.16 5.20431 2.16 5.20436 2.16 5.20441C2.16 5.20445 2.16 5.2045 2.16 5.20455C2.16 5.2046 2.16 5.20465 2.16 5.2047C2.16 5.20474 2.16 5.20479 2.16 5.20484C2.16 5.20489 2.16 5.20494 2.16 5.20499C2.16 5.20503 2.16 5.20508 2.16 5.20513C2.16 5.20518 2.16 5.20523 2.16 5.20528C2.16 5.20532 2.16 5.20537 2.16 5.20542C2.16 5.20547 2.16 5.20552 2.16 5.20556C2.16 5.20561 2.16 5.20566 2.16 5.20571C2.16 5.20576 2.16 5.20581 2.16 5.20585C2.16 5.2059 2.16 5.20595 2.16 5.206C2.16 5.20605 2.16 5.2061 2.16 5.20614C2.16 5.20619 2.16 5.20624 2.16 5.20629C2.16 5.20634 2.16 5.20639 2.16 5.20643C2.16 5.20648 2.16 5.20653 2.16 5.20658C2.16 5.20663 2.16 5.20667 2.16 5.20672C2.16 5.20677 2.16 5.20682 2.16 5.20687C2.16 5.20692 2.16 5.20696 2.16 5.20701C2.16 5.20706 2.16 5.20711 2.16 5.20716C2.16 5.20721 2.16 5.20725 2.16 5.2073C2.16 5.20735 2.16 5.2074 2.16 5.20745C2.16 5.2075 2.16 5.20754 2.16 5.20759C2.16 5.20764 2.16 5.20769 2.16 5.20774C2.16 5.20778 2.16 5.20783 2.16 5.20788C2.16 5.20793 2.16 5.20798 2.16 5.20803C2.16 5.20807 2.16 5.20812 2.16 5.20817C2.16 5.20822 2.16 5.20827 2.16 5.20832C2.16 5.20836 2.16 5.20841 2.16 5.20846C2.16 5.20851 2.16 5.20856 2.16 5.20861C2.16 5.20865 2.16 5.2087 2.16 5.20875C2.16 5.2088 2.16 5.20885 2.16 5.2089C2.16 5.20894 2.16 5.20899 2.16 5.20904C2.16 5.20909 2.16 5.20914 2.16 5.20919C2.16 5.20923 2.16 5.20928 2.16 5.20933C2.16 5.20938 2.16 5.20943 2.16 5.20948C2.16 5.20952 2.16 5.20957 2.16 5.20962C2.16 5.20967 2.16 5.20972 2.16 5.20977C2.16 5.20981 2.16 5.20986 2.16 5.20991C2.16 5.20996 2.16 5.21001 2.16 5.21006C2.16 5.2101 2.16 5.21015 2.16 5.2102C2.16 5.21025 2.16 5.2103 2.16 5.21035C2.16 5.21039 2.16 5.21044 2.16 5.21049C2.16 5.21054 2.16 5.21059 2.16 5.21064C2.16 5.21068 2.16 5.21073 2.16 5.21078C2.16 5.21083 2.16 5.21088 2.16 5.21093C2.16 5.21097 2.16 5.21102 2.16 5.21107C2.16 5.21112 2.16 5.21117 2.16 5.21122C2.16 5.21126 2.16 5.21131 2.16 5.21136C2.16 5.21141 2.16 5.21146 2.16 5.21151C2.16 5.21155 2.16 5.2116 2.16 5.21165C2.16 5.2117 2.16 5.21175 2.16 5.2118C2.16 5.21184 2.16 5.21189 2.16 5.21194C2.16 5.21199 2.16 5.21204 2.16 5.21209C2.16 5.21213 2.16 5.21218 2.16 5.21223C2.16 5.21228 2.16 5.21233 2.16 5.21238C2.16 5.21242 2.16 5.21247 2.16 5.21252C2.16 5.21257 2.16 5.21262 2.16 5.21267C2.16 5.21271 2.16 5.21276 2.16 5.21281C2.16 5.21286 2.16 5.21291 2.16 5.21296C2.16 5.21301 2.16 5.21305 2.16 5.2131C2.16 5.21315 2.16 5.2132 2.16 5.21325C2.16 5.21329 2.16 5.21334 2.16 5.21339C2.16 5.21344 2.16 5.21349 2.16 5.21354C2.16 5.21359 2.16 5.21363 2.16 5.21368C2.16 5.21373 2.16 5.21378 2.16 5.21383C2.16 5.21388 2.16 5.21392 2.16 5.21397C2.16 5.21402 2.16 5.21407 2.16 5.21412C2.16 5.21417 2.16 5.21421 2.16 5.21426C2.16 5.21431 2.16 5.21436 2.16 5.21441C2.16 5.21446 2.16 5.21451 2.16 5.21455C2.16 5.2146 2.16 5.21465 2.16 5.2147C2.16 5.21475 2.16 5.2148 2.16 5.21484C2.16 5.21489 2.16 5.21494 2.16 5.21499C2.16 5.21504 2.16 5.21509 2.16 5.21513C2.16 5.21518 2.16 5.21523 2.16 5.21528C2.16 5.21533 2.16 5.21538 2.16 5.21543C2.16 5.21547 2.16 5.21552 2.16 5.21557C2.16 5.21562 2.16 5.21567 2.16 5.21572C2.16 5.21576 2.16 5.21581 2.16 5.21586C2.16 5.21591 2.16 5.21596 2.16 5.21601C2.16 5.21605 2.16 5.2161 2.16 5.21615C2.16 5.2162 2.16 5.21625 2.16 5.2163C2.16 5.21634 2.16 5.21639 2.16 5.21644C2.16 5.21649 2.16 5.21654 2.16 5.21659C2.16 5.21664 2.16 5.21668 2.16 5.21673C2.16 5.21678 2.16 5.21683 2.16 5.21688C2.16 5.21693 2.16 5.21697 2.16 5.21702C2.16 5.21707 2.16 5.21712 2.16 5.21717C2.16 5.21722 2.16 5.21727 2.16 5.21731C2.16 5.21736 2.16 5.21741 2.16 5.21746C2.16 5.21751 2.16 5.21756 2.16 5.2176C2.16 5.21765 2.16 5.2177 2.16 5.21775C2.16 5.2178 2.16 5.21785 2.16 5.2179C2.16 5.21794 2.16 5.21799 2.16 5.21804C2.16 5.21809 2.16 5.21814 2.16 5.21819C2.16 5.21823 2.16 5.21828 2.16 5.21833C2.16 5.21838 2.16 5.21843 2.16 5.21848C2.16 5.21853 2.16 5.21857 2.16 5.21862C2.16 5.21867 2.16 5.21872 2.16 5.21877C2.16 5.21882 2.16 5.21886 2.16 5.21891C2.16 5.21896 2.16 5.21901 2.16 5.21906C2.16 5.21911 2.16 5.21916 2.16 5.2192C2.16 5.21925 2.16 5.2193 2.16 5.21935C2.16 5.2194 2.16 5.21945 2.16 5.2195C2.16 5.21954 2.16 5.21959 2.16 5.21964C2.16 5.21969 2.16 5.21974 2.16 5.21979C2.16 5.21983 2.16 5.21988 2.16 5.21993C2.16 5.21998 2.16 5.22003 2.16 5.22008C2.16 5.22013 2.16 5.22017 2.16 5.22022C2.16 5.22027 2.16 5.22032 2.16 5.22037C2.16 5.22042 2.16 5.22047 2.16 5.22051C2.16 5.22056 2.16 5.22061 2.16 5.22066C2.16 5.22071 2.16 5.22076 2.16 5.2208C2.16 5.22085 2.16 5.2209 2.16 5.22095C2.16 5.221 2.16 5.22105 2.16 5.2211C2.16 5.22114 2.16 5.22119 2.16 5.22124C2.16 5.22129 2.16 5.22134 2.16 5.22139C2.16 5.22144 2.16 5.22148 2.16 5.22153C2.16 5.22158 2.16 5.22163 2.16 5.22168C2.16 5.22173 2.16 5.22178 2.16 5.22182C2.16 5.22187 2.16 5.22192 2.16 5.22197C2.16 5.22202 2.16 5.22207 2.16 5.22212C2.16 5.22216 2.16 5.22221 2.16 5.22226C2.16 5.22231 2.16 5.22236 2.16 5.22241C2.16 5.22246 2.16 5.2225 2.16 5.22255C2.16 5.2226 2.16 5.22265 2.16 5.2227C2.16 5.22275 2.16 5.22279 2.16 5.22284C2.16 5.22289 2.16 5.22294 2.16 5.22299C2.16 5.22304 2.16 5.22309 2.16 5.22313C2.16 5.22318 2.16 5.22323 2.16 5.22328C2.16 5.22333 2.16 5.22338 2.16 5.22343C2.16 5.22347 2.16 5.22352 2.16 5.22357C2.16 5.22362 2.16 5.22367 2.16 5.22372C2.16 5.22377 2.16 5.22381 2.16 5.22386C2.16 5.22391 2.16 5.22396 2.16 5.22401C2.16 5.22406 2.16 5.22411 2.16 5.22415C2.16 5.2242 2.16 5.22425 2.16 5.2243C2.16 5.22435 2.16 5.2244 2.16 5.22445C2.16 5.22449 2.16 5.22454 2.16 5.22459C2.16 5.22464 2.16 5.22469 2.16 5.22474C2.16 5.22479 2.16 5.22483 2.16 5.22488C2.16 5.22493 2.16 5.22498 2.16 5.22503C2.16 5.22508 2.16 5.22513 2.16 5.22517C2.16 5.22522 2.16 5.22527 2.16 5.22532C2.16 5.22537 2.16 5.22542 2.16 5.22547C2.16 5.22551 2.16 5.22556 2.16 5.22561C2.16 5.22566 2.16 5.22571 2.16 5.22576C2.16 5.22581 2.16 5.22585 2.16 5.2259C2.16 5.22595 2.16 5.226 2.16 5.22605C2.16 5.2261 2.16 5.22615 2.16 5.2262C2.16 5.22624 2.16 5.22629 2.16 5.22634C2.16 5.22639 2.16 5.22644 2.16 5.22649C2.16 5.22654 2.16 5.22658 2.16 5.22663C2.16 5.22668 2.16 5.22673 2.16 5.22678C2.16 5.22683 2.16 5.22688 2.16 5.22692C2.16 5.22697 2.16 5.22702 2.16 5.22707C2.16 5.22712 2.16 5.22717 2.16 5.22722C2.16 5.22726 2.16 5.22731 2.16 5.22736C2.16 5.22741 2.16 5.22746 2.16 5.22751C2.16 5.22756 2.16 5.22761 2.16 5.22765C2.16 5.2277 2.16 5.22775 2.16 5.2278C2.16 5.22785 2.16 5.2279 2.16 5.22795C2.16 5.22799 2.16 5.22804 2.16 5.22809C2.16 5.22814 2.16 5.22819 2.16 5.22824C2.16 5.22829 2.16 5.22833 2.16 5.22838C2.16 5.22843 2.16 5.22848 2.16 5.22853C2.16 5.22858 2.16 5.22863 2.16 5.22868C2.16 5.22872 2.16 5.22877 2.16 5.22882C2.16 5.22887 2.16 5.22892 2.16 5.22897C2.16 5.22902 2.16 5.22906 2.16 5.22911C2.16 5.22916 2.16 5.22921 2.16 5.22926C2.16 5.22931 2.16 5.22936 2.16 5.22941C2.16 5.22945 2.16 5.2295 2.16 5.22955C2.16 5.2296 2.16 5.22965 2.16 5.2297C2.16 5.22975 2.16 5.22979 2.16 5.22984C2.16 5.22989 2.16 5.22994 2.16 5.22999C2.16 5.23004 2.16 5.23009 2.16 5.23014C2.16 5.23018 2.16 5.23023 2.16 5.23028C2.16 5.23033 2.16 5.23038 2.16 5.23043C2.16 5.23048 2.16 5.23053 2.16 5.23057C2.16 5.23062 2.16 5.23067 2.16 5.23072C2.16 5.23077 2.16 5.23082 2.16 5.23087C2.16 5.23091 2.16 5.23096 2.16 5.23101C2.16 5.23106 2.16 5.23111 2.16 5.23116C2.16 5.23121 2.16 5.23126 2.16 5.2313C2.16 5.23135 2.16 5.2314 2.16 5.23145C2.16 5.2315 2.16 5.23155 2.16 5.2316C2.16 5.23165 2.16 5.23169 2.16 5.23174C2.16 5.23179 2.16 5.23184 2.16 5.23189C2.16 5.23194 2.16 5.23199 2.16 5.23203C2.16 5.23208 2.16 5.23213 2.16 5.23218C2.16 5.23223 2.16 5.23228 2.16 5.23233C2.16 5.23238 2.16 5.23242 2.16 5.23247C2.16 5.23252 2.16 5.23257 2.16 5.23262C2.16 5.23267 2.16 5.23272 2.16 5.23277C2.16 5.23281 2.16 5.23286 2.16 5.23291C2.16 5.23296 2.16 5.23301 2.16 5.23306C2.16 5.23311 2.16 5.23316 2.16 5.2332C2.16 5.23325 2.16 5.2333 2.16 5.23335C2.16 5.2334 2.16 5.23345 2.16 5.2335C2.16 5.23354 2.16 5.23359 2.16 5.23364C2.16 5.23369 2.16 5.23374 2.16 5.23379C2.16 5.23384 2.16 5.23389 2.16 5.23393C2.16 5.23398 2.16 5.23403 2.16 5.23408C2.16 5.23413 2.16 5.23418 2.16 5.23423C2.16 5.23428 2.16 5.23432 2.16 5.23437C2.16 5.23442 2.16 5.23447 2.16 5.23452C2.16 5.23457 2.16 5.23462 2.16 5.23467C2.16 5.23471 2.16 5.23476 2.16 5.23481C2.16 5.23486 2.16 5.23491 2.16 5.23496C2.16 5.23501 2.16 5.23506 2.16 5.23511C2.16 5.23515 2.16 5.2352 2.16 5.23525C2.16 5.2353 2.16 5.23535 2.16 5.2354C2.16 5.23545 2.16 5.2355 2.16 5.23554C2.16 5.23559 2.16 5.23564 2.16 5.23569C2.16 5.23574 2.16 5.23579 2.16 5.23584C2.16 5.23589 2.16 5.23593 2.16 5.23598C2.16 5.23603 2.16 5.23608 2.16 5.23613C2.16 5.23618 2.16 5.23623 2.16 5.23628C2.16 5.23632 2.16 5.23637 2.16 5.23642C2.16 5.23647 2.16 5.23652 2.16 5.23657C2.16 5.23662 2.16 5.23667 2.16 5.23671C2.16 5.23676 2.16 5.23681 2.16 5.23686C2.16 5.23691 2.16 5.23696 2.16 5.23701C2.16 5.23706 2.16 5.2371 2.16 5.23715C2.16 5.2372 2.16 5.23725 2.16 5.2373C2.16 5.23735 2.16 5.2374 2.16 5.23745C2.16 5.2375 2.16 5.23754 2.16 5.23759C2.16 5.23764 2.16 5.23769 2.16 5.23774C2.16 5.23779 2.16 5.23784 2.16 5.23789C2.16 5.23794 2.16 5.23798 2.16 5.23803C2.16 5.23808 2.16 5.23813 2.16 5.23818C2.16 5.23823 2.16 5.23828 2.16 5.23833C2.16 5.23837 2.16 5.23842 2.16 5.23847C2.16 5.23852 2.16 5.23857 2.16 5.23862C2.16 5.23867 2.16 5.23872 2.16 5.23876C2.16 5.23881 2.16 5.23886 2.16 5.23891C2.16 5.23896 2.16 5.23901 2.16 5.23906C2.16 5.23911 2.16 5.23916 2.16 5.2392C2.16 5.23925 2.16 5.2393 2.16 5.23935C2.16 5.2394 2.16 5.23945 2.16 5.2395C2.16 5.23955 2.16 5.23959 2.16 5.23964C2.16 5.23969 2.16 5.23974 2.16 5.23979C2.16 5.23984 2.16 5.23989 2.16 5.23994C2.16 5.23999 2.16 5.24003 2.16 5.24008C2.16 5.24013 2.16 5.24018 2.16 5.24023C2.16 5.24028 2.16 5.24033 2.16 5.24038C2.16 5.24043 2.16 5.24047 2.16 5.24052C2.16 5.24057 2.16 5.24062 2.16 5.24067C2.16 5.24072 2.16 5.24077 2.16 5.24082C2.16 5.24087 2.16 5.24091 2.16 5.24096C2.16 5.24101 2.16 5.24106 2.16 5.24111C2.16 5.24116 2.16 5.24121 2.16 5.24126C2.16 5.2413 2.16 5.24135 2.16 5.2414C2.16 5.24145 2.16 5.2415 2.16 5.24155C2.16 5.2416 2.16 5.24165 2.16 5.2417C2.16 5.24174 2.16 5.24179 2.16 5.24184C2.16 5.24189 2.16 5.24194 2.16 5.24199C2.16 5.24204 2.16 5.24209 2.16 5.24214C2.16 5.24218 2.16 5.24223 2.16 5.24228C2.16 5.24233 2.16 5.24238 2.16 5.24243C2.16 5.24248 2.16 5.24253 2.16 5.24258C2.16 5.24262 2.16 5.24267 2.16 5.24272C2.16 5.24277 2.16 5.24282 2.16 5.24287C2.16 5.24292 2.16 5.24297 2.16 5.24302C2.16 5.24306 2.16 5.24311 2.16 5.24316C2.16 5.24321 2.16 5.24326 2.16 5.24331C2.16 5.24336 2.16 5.24341 2.16 5.24346C2.16 5.24351 2.16 5.24355 2.16 5.2436C2.16 5.24365 2.16 5.2437 2.16 5.24375C2.16 5.2438 2.16 5.24385 2.16 5.2439C2.16 5.24395 2.16 5.24399 2.16 5.24404C2.16 5.24409 2.16 5.24414 2.16 5.24419C2.16 5.24424 2.16 5.24429 2.16 5.24434C2.16 5.24439 2.16 5.24443 2.16 5.24448C2.16 5.24453 2.16 5.24458 2.16 5.24463C2.16 5.24468 2.16 5.24473 2.16 5.24478C2.16 5.24483 2.16 5.24487 2.16 5.24492C2.16 5.24497 2.16 5.24502 2.16 5.24507C2.16 5.24512 2.16 5.24517 2.16 5.24522C2.16 5.24527 2.16 5.24532 2.16 5.24536C2.16 5.24541 2.16 5.24546 2.16 5.24551C2.16 5.24556 2.16 5.24561 2.16 5.24566C2.16 5.24571 2.16 5.24576 2.16 5.2458C2.16 5.24585 2.16 5.2459 2.16 5.24595C2.16 5.246 2.16 5.24605 2.16 5.2461C2.16 5.24615 2.16 5.2462 2.16 5.24625C2.16 5.24629 2.16 5.24634 2.16 5.24639C2.16 5.24644 2.16 5.24649 2.16 5.24654C2.16 5.24659 2.16 5.24664 2.16 5.24669C2.16 5.24674 2.16 5.24678 2.16 5.24683C2.16 5.24688 2.16 5.24693 2.16 5.24698C2.16 5.24703 2.16 5.24708 2.16 5.24713C2.16 5.24718 2.16 5.24722 2.16 5.24727C2.16 5.24732 2.16 5.24737 2.16 5.24742C2.16 5.24747 2.16 5.24752 2.16 5.24757C2.16 5.24762 2.16 5.24767 2.16 5.24771C2.16 5.24776 2.16 5.24781 2.16 5.24786C2.16 5.24791 2.16 5.24796 2.16 5.24801C2.16 5.24806 2.16 5.24811 2.16 5.24816C2.16 5.2482 2.16 5.24825 2.16 5.2483C2.16 5.24835 2.16 5.2484 2.16 5.24845C2.16 5.2485 2.16 5.24855 2.16 5.2486C2.16 5.24865 2.16 5.24869 2.16 5.24874C2.16 5.24879 2.16 5.24884 2.16 5.24889C2.16 5.24894 2.16 5.24899 2.16 5.24904C2.16 5.24909 2.16 5.24914 2.16 5.24918C2.16 5.24923 2.16 5.24928 2.16 5.24933C2.16 5.24938 2.16 5.24943 2.16 5.24948C2.16 5.24953 2.16 5.24958 2.16 5.24963C2.16 5.24967 2.16 5.24972 2.16 5.24977C2.16 5.24982 2.16 5.24987 2.16 5.24992C2.16 5.24997 2.16 5.25002 2.16 5.25007C2.16 5.25012 2.16 5.25016 2.16 5.25021C2.16 5.25026 2.16 5.25031 2.16 5.25036C2.16 5.25041 2.16 5.25046 2.16 5.25051C2.16 5.25056 2.16 5.25061 2.16 5.25066C2.16 5.2507 2.16 5.25075 2.16 5.2508C2.16 5.25085 2.16 5.2509 2.16 5.25095C2.16 5.251 2.16 5.25105 2.16 5.2511C2.16 5.25115 2.16 5.25119 2.16 5.25124C2.16 5.25129 2.16 5.25134 2.16 5.25139C2.16 5.25144 2.16 5.25149 2.16 5.25154C2.16 5.25159 2.16 5.25164 2.16 5.25169C2.16 5.25173 2.16 5.25178 2.16 5.25183C2.16 5.25188 2.16 5.25193 2.16 5.25198C2.16 5.25203 2.16 5.25208 2.16 5.25213C2.16 5.25218 2.16 5.25222 2.16 5.25227C2.16 5.25232 2.16 5.25237 2.16 5.25242C2.16 5.25247 2.16 5.25252 2.16 5.25257C2.16 5.25262 2.16 5.25267 2.16 5.25272C2.16 5.25276 2.16 5.25281 2.16 5.25286C2.16 5.25291 2.16 5.25296 2.16 5.25301C2.16 5.25306 2.16 5.25311 2.16 5.25316C2.16 5.25321 2.16 5.25326 2.16 5.2533C2.16 5.25335 2.16 5.2534 2.16 5.25345C2.16 5.2535 2.16 5.25355 2.16 5.2536C2.16 5.25365 2.16 5.2537 2.16 5.25375C2.16 5.2538 2.16 5.25384 2.16 5.25389C2.16 5.25394 2.16 5.25399 2.16 5.25404C2.16 5.25409 2.16 5.25414 2.16 5.25419C2.16 5.25424 2.16 5.25429 2.16 5.25433C2.16 5.25438 2.16 5.25443 2.16 5.25448C2.16 5.25453 2.16 5.25458 2.16 5.25463C2.16 5.25468 2.16 5.25473 2.16 5.25478C2.16 5.25483 2.16 5.25488 2.16 5.25492C2.16 5.25497 2.16 5.25502 2.16 5.25507C2.16 5.25512 2.16 5.25517 2.16 5.25522C2.16 5.25527 2.16 5.25532 2.16 5.25537C2.16 5.25542 2.16 5.25546 2.16 5.25551C2.16 5.25556 2.16 5.25561 2.16 5.25566C2.16 5.25571 2.16 5.25576 2.16 5.25581C2.16 5.25586 2.16 5.25591 2.16 5.25596C2.16 5.256 2.16 5.25605 2.16 5.2561C2.16 5.25615 2.16 5.2562 2.16 5.25625C2.16 5.2563 2.16 5.25635 2.16 5.2564C2.16 5.25645 2.16 5.2565 2.16 5.25655C2.16 5.25659 2.16 5.25664 2.16 5.25669C2.16 5.25674 2.16 5.25679 2.16 5.25684C2.16 5.25689 2.16 5.25694 2.16 5.25699C2.16 5.25704 2.16 5.25709 2.16 5.25713C2.16 5.25718 2.16 5.25723 2.16 5.25728C2.16 5.25733 2.16 5.25738 2.16 5.25743C2.16 5.25748 2.16 5.25753 2.16 5.25758C2.16 5.25763 2.16 5.25768 2.16 5.25772C2.16 5.25777 2.16 5.25782 2.16 5.25787C2.16 5.25792 2.16 5.25797 2.16 5.25802C2.16 5.25807 2.16 5.25812 2.16 5.25817C2.16 5.25822 2.16 5.25827 2.16 5.25831C2.16 5.25836 2.16 5.25841 2.16 5.25846C2.16 5.25851 2.16 5.25856 2.16 5.25861C2.16 5.25866 2.16 5.25871 2.16 5.25876C2.16 5.25881 2.16 5.25886 2.16 5.2589C2.16 5.25895 2.16 5.259 2.16 5.25905C2.16 5.2591 2.16 5.25915 2.16 5.2592C2.16 5.25925 2.16 5.2593 2.16 5.25935C2.16 5.2594 2.16 5.25945 2.16 5.2595C2.16 5.25954 2.16 5.25959 2.16 5.25964C2.16 5.25969 2.16 5.25974 2.16 5.25979C2.16 5.25984 2.16 5.25989 2.16 5.25994C2.16 5.25999 2.16 5.26004 2.16 5.26009C2.16 5.26013 2.16 5.26018 2.16 5.26023C2.16 5.26028 2.16 5.26033 2.16 5.26038C2.16 5.26043 2.16 5.26048 2.16 5.26053C2.16 5.26058 2.16 5.26063 2.16 5.26068C2.16 5.26073 2.16 5.26077 2.16 5.26082C2.16 5.26087 2.16 5.26092 2.16 5.26097C2.16 5.26102 2.16 5.26107 2.16 5.26112C2.16 5.26117 2.16 5.26122 2.16 5.26127C2.16 5.26132 2.16 5.26136 2.16 5.26141C2.16 5.26146 2.16 5.26151 2.16 5.26156C2.16 5.26161 2.16 5.26166 2.16 5.26171C2.16 5.26176 2.16 5.26181 2.16 5.26186C2.16 5.26191 2.16 5.26196 2.16 5.262C2.16 5.26205 2.16 5.2621 2.16 5.26215C2.16 5.2622 2.16 5.26225 2.16 5.2623C2.16 5.26235 2.16 5.2624 2.16 5.26245C2.16 5.2625 2.16 5.26255 2.16 5.2626C2.16 5.26264 2.16 5.26269 2.16 5.26274C2.16 5.26279 2.16 5.26284 2.16 5.26289C2.16 5.26294 2.16 5.26299 2.16 5.26304C2.16 5.26309 2.16 5.26314 2.16 5.26319C2.16 5.26324 2.16 5.26329 2.16 5.26333C2.16 5.26338 2.16 5.26343 2.16 5.26348C2.16 5.26353 2.16 5.26358 2.16 5.26363C2.16 5.26368 2.16 5.26373 2.16 5.26378C2.16 5.26383 2.16 5.26388 2.16 5.26393C2.16 5.26397 2.16 5.26402 2.16 5.26407C2.16 5.26412 2.16 5.26417 2.16 5.26422C2.16 5.26427 2.16 5.26432 2.16 5.26437C2.16 5.26442 2.16 5.26447 2.16 5.26452C2.16 5.26457 2.16 5.26462 2.16 5.26466C2.16 5.26471 2.16 5.26476 2.16 5.26481C2.16 5.26486 2.16 5.26491 2.16 5.26496C2.16 5.26501 2.16 5.26506 2.16 5.26511C2.16 5.26516 2.16 5.26521 2.16 5.26526C2.16 5.26531 2.16 5.26535 2.16 5.2654C2.16 5.26545 2.16 5.2655 2.16 5.26555C2.16 5.2656 2.16 5.26565 2.16 5.2657C2.16 5.26575 2.16 5.2658 2.16 5.26585C2.16 5.2659 2.16 5.26595 2.16 5.266C2.16 5.26604 2.16 5.26609 2.16 5.26614C2.16 5.26619 2.16 5.26624 2.16 5.26629C2.16 5.26634 2.16 5.26639 2.16 5.26644C2.16 5.26649 2.16 5.26654 2.16 5.26659C2.16 5.26664 2.16 5.26669 2.16 5.26673C2.16 5.26678 2.16 5.26683 2.16 5.26688C2.16 5.26693 2.16 5.26698 2.16 5.26703C2.16 5.26708 2.16 5.26713 2.16 5.26718C2.16 5.26723 2.16 5.26728 2.16 5.26733C2.16 5.26738 2.16 5.26743 2.16 5.26747C2.16 5.26752 2.16 5.26757 2.16 5.26762C2.16 5.26767 2.16 5.26772 2.16 5.26777C2.16 5.26782 2.16 5.26787 2.16 5.26792C2.16 5.26797 2.16 5.26802 2.16 5.26807C2.16 5.26812 2.16 5.26817 2.16 5.26821C2.16 5.26826 2.16 5.26831 2.16 5.26836C2.16 5.26841 2.16 5.26846 2.16 5.26851C2.16 5.26856 2.16 5.26861 2.16 5.26866C2.16 5.26871 2.16 5.26876 2.16 5.26881C2.16 5.26886 2.16 5.26891 2.16 5.26895C2.16 5.269 2.16 5.26905 2.16 5.2691C2.16 5.26915 2.16 5.2692 2.16 5.26925C2.16 5.2693 2.16 5.26935 2.16 5.2694C2.16 5.26945 2.16 5.2695 2.16 5.26955C2.16 5.2696 2.16 5.26965 2.16 5.26969C2.16 5.26974 2.16 5.26979 2.16 5.26984C2.16 5.26989 2.16 5.26994 2.16 5.26999C2.16 5.27004 2.16 5.27009 2.16 5.27014C2.16 5.27019 2.16 5.27024 2.16 5.27029C2.16 5.27034 2.16 5.27039 2.16 5.27044C2.16 5.27048 2.16 5.27053 2.16 5.27058C2.16 5.27063 2.16 5.27068 2.16 5.27073C2.16 5.27078 2.16 5.27083 2.16 5.27088C2.16 5.27093 2.16 5.27098 2.16 5.27103C2.16 5.27108 2.16 5.27113 2.16 5.27118C2.16 5.27123 2.16 5.27128 2.16 5.27132C2.16 5.27137 2.16 5.27142 2.16 5.27147C2.16 5.27152 2.16 5.27157 2.16 5.27162C2.16 5.27167 2.16 5.27172 2.16 5.27177C2.16 5.27182 2.16 5.27187 2.16 5.27192C2.16 5.27197 2.16 5.27202 2.16 5.27207C2.16 5.27211 2.16 5.27216 2.16 5.27221C2.16 5.27226 2.16 5.27231 2.16 5.27236C2.16 5.27241 2.16 5.27246 2.16 5.27251C2.16 5.27256 2.16 5.27261 2.16 5.27266C2.16 5.27271 2.16 5.27276 2.16 5.27281C2.16 5.27286 2.16 5.27291 2.16 5.27295C2.16 5.273 2.16 5.27305 2.16 5.2731C2.16 5.27315 2.16 5.2732 2.16 5.27325C2.16 5.2733 2.16 5.27335 2.16 5.2734C2.16 5.27345 2.16 5.2735 2.16 5.27355C2.16 5.2736 2.16 5.27365 2.16 5.2737C2.16 5.27375 2.16 5.2738 2.16 5.27384C2.16 5.27389 2.16 5.27394 2.16 5.27399C2.16 5.27404 2.16 5.27409 2.16 5.27414C2.16 5.27419 2.16 5.27424 2.16 5.27429C2.16 5.27434 2.16 5.27439 2.16 5.27444C2.16 5.27449 2.16 5.27454 2.16 5.27459C2.16 5.27464 2.16 5.27468 2.16 5.27473C2.16 5.27478 2.16 5.27483 2.16 5.27488C2.16 5.27493 2.16 5.27498 2.16 5.27503C2.16 5.27508 2.16 5.27513 2.16 5.27518C2.16 5.27523 2.16 5.27528 2.16 5.27533C2.16 5.27538 2.16 5.27543 2.16 5.27548C2.16 5.27553 2.16 5.27558 2.16 5.27562C2.16 5.27567 2.16 5.27572 2.16 5.27577C2.16 5.27582 2.16 5.27587 2.16 5.27592C2.16 5.27597 2.16 5.27602 2.16 5.27607C2.16 5.27612 2.16 5.27617 2.16 5.27622C2.16 5.27627 2.16 5.27632 2.16 5.27637C2.16 5.27642 2.16 5.27647 2.16 5.27652H3.66ZM3.65966 5.22424C3.68849 4.27275 4.48222 3.52425 5.43376 3.55121L5.47625 2.05182C3.69777 2.00142 2.21424 3.40042 2.16034 5.17879L3.65966 5.22424ZM5.45602 3.55151C5.68543 3.5512 5.91306 3.5919 6.12815 3.67169L6.64985 2.26534C6.26715 2.12337 5.86216 2.05096 5.45398 2.05152L5.45602 3.55151ZM7.06244 3.29863C7.53254 2.33961 8.51309 1.73726 9.58103 1.75145L9.60097 0.251581C7.95346 0.229686 6.44077 1.15894 5.71556 2.6384L7.06244 3.29863ZM9.61337 1.75118C10.3163 1.7302 10.9987 1.98947 11.5104 2.47189L12.5394 1.38051C11.7381 0.62502 10.6694 0.218996 9.56863 0.251849L9.61337 1.75118ZM11.5104 2.47189C12.022 2.95431 12.3209 3.62031 12.3413 4.32324L13.8407 4.27979C13.8088 3.17898 13.3407 2.13599 12.5394 1.38051L11.5104 2.47189ZM12.341 4.30247C12.3413 4.54613 12.3041 4.78838 12.2308 5.02074L13.6612 5.47229C13.7809 5.09324 13.8415 4.69805 13.841 4.30056L12.341 4.30247ZM12.827 5.98702C13.6329 6.11648 14.2315 6.80277 14.2502 7.61874L15.7498 7.58429C15.7144 6.04495 14.5852 4.75025 13.065 4.50601L12.827 5.98702ZM14.2503 7.5788C14.2215 8.53028 13.4278 9.27878 12.4762 9.25182L12.4338 10.7512C14.2122 10.8016 15.6958 9.40261 15.7497 7.62424L14.2503 7.5788Z" fill="#3D4C66"/>
<path d="M8.28231 13H7.78849C7.67804 13 7.58849 12.9105 7.58849 12.8V12.3985C7.58849 12.2929 7.5063 12.2061 7.40134 12.1944C7.1513 12.1667 6.9094 12.115 6.67566 12.0394C6.44859 11.9648 6.25187 11.8764 6.08549 11.7739C6.00902 11.7269 5.98121 11.6312 6.01282 11.5472L6.35154 10.6466C6.39716 10.5254 6.54437 10.479 6.65777 10.5417C6.81079 10.6262 6.97523 10.6985 7.15109 10.7585C7.41311 10.8429 7.66456 10.8851 7.90545 10.8851C8.11253 10.8851 8.26044 10.8628 8.34919 10.8181C8.43794 10.7684 8.48231 10.6964 8.48231 10.6021C8.48231 10.4929 8.42315 10.411 8.30482 10.3564C8.19071 10.3018 8.00054 10.2422 7.73429 10.1777C7.39198 10.0933 7.10672 10.0039 6.87851 9.90957C6.6503 9.81028 6.45167 9.65142 6.28263 9.43298C6.11358 9.20957 6.02906 8.90922 6.02906 8.53191C6.02906 8.09504 6.16219 7.72021 6.42843 7.40745C6.66834 7.13002 6.99968 6.94243 7.42247 6.84469C7.51764 6.82268 7.58849 6.74015 7.58849 6.64247V6.2C7.58849 6.08954 7.67804 6 7.78849 6H8.28231C8.39277 6 8.48231 6.08954 8.48231 6.2V6.61719C8.48231 6.71936 8.55946 6.80447 8.66042 6.82016C9.03075 6.87772 9.35615 6.98664 9.63661 7.14693C9.71614 7.19238 9.74777 7.28924 9.71724 7.37561L9.40023 8.27254C9.35822 8.39139 9.21819 8.44169 9.10562 8.38494C8.74852 8.20491 8.40763 8.11489 8.08295 8.11489C7.69837 8.11489 7.50608 8.22411 7.50608 8.44255C7.50608 8.54681 7.56314 8.62624 7.67724 8.68085C7.79135 8.7305 7.97941 8.78511 8.24142 8.84468C8.57951 8.91915 8.86477 9.00603 9.09721 9.10532C9.32964 9.19965 9.53038 9.35603 9.69943 9.57447C9.8727 9.79291 9.95933 10.0908 9.95933 10.4681C9.95933 10.8851 9.83044 11.25 9.57264 11.5628C9.34804 11.8354 9.03723 12.0262 8.64021 12.1353C8.54895 12.1604 8.48231 12.2412 8.48231 12.3358V12.8C8.48231 12.9105 8.39277 13 8.28231 13Z" fill="#3D4C66"/>
</svg>
