<svg width="107" height="98" viewBox="0 0 107 98" fill="none" xmlns="http://www.w3.org/2000/svg">
<path fill-rule="evenodd" clip-rule="evenodd" d="M53.4929 6.43717C54.3817 6.43717 55.1022 5.71666 55.1022 4.82787C55.1022 3.93909 54.3817 3.21858 53.4929 3.21858C52.6041 3.21858 51.8836 3.93909 51.8836 4.82787C51.8836 5.71666 52.6041 6.43717 53.4929 6.43717ZM53.4929 9.65575C56.1593 9.65575 58.3208 7.49424 58.3208 4.82787C58.3208 2.16151 56.1593 0 53.4929 0C50.8266 0 48.665 2.16151 48.665 4.82787C48.665 7.49424 50.8266 9.65575 53.4929 9.65575Z" fill="#3D4C66"/>
<path d="M44.3271 5.39672C44.8675 4.69599 45.8737 4.56605 46.5745 5.10649C47.2752 5.64694 47.4051 6.65312 46.8647 7.35385L17.7759 45.0701C17.2355 45.7708 16.2293 45.9007 15.5285 45.3603C14.8278 44.8198 14.6979 43.8137 15.2383 43.1129L44.3271 5.39672Z" fill="#3D4C66"/>
<path d="M88.9569 68.0309C89.7965 67.8832 90.5968 68.444 90.7445 69.2836C90.8923 70.1231 90.3315 70.9235 89.4919 71.0712L21.5693 83.0235C20.7297 83.1712 19.9294 82.6104 19.7817 81.7708C19.6339 80.9313 20.1948 80.1309 21.0343 79.9832L88.9569 68.0309Z" fill="#3D4C66"/>
<path d="M81.7433 31.9445C82.2594 32.6633 82.095 33.6645 81.3761 34.1806C80.6573 34.6967 79.6561 34.5323 79.14 33.8134L60.1044 7.2992C59.5883 6.58034 59.7527 5.57921 60.4715 5.06311C61.1904 4.54701 62.1915 4.71138 62.7076 5.43024L81.7433 31.9445Z" fill="#3D4C66"/>
<path fill-rule="evenodd" clip-rule="evenodd" d="M93.5932 36.6553L5.97611 52.0238C4.72854 52.2426 3.89459 53.4314 4.11342 54.6789L10.614 91.7394C10.8329 92.987 12.0216 93.821 13.2692 93.6021L100.886 78.2336C102.134 78.0148 102.968 76.8261 102.749 75.5785L96.2484 38.518C96.0296 37.2704 94.8408 36.4365 93.5932 36.6553ZM5.4214 48.8613C2.42724 49.3865 0.42575 52.2395 0.95094 55.2336L7.45154 92.2942C7.97673 95.2883 10.8297 97.2898 13.8239 96.7646L101.441 81.3961C104.435 80.8709 106.437 78.018 105.911 75.0238L99.4109 37.9633C98.8857 34.9691 96.0327 32.9676 93.0385 33.4928L5.4214 48.8613Z" fill="#3D4C66"/>
<path d="M28.1 76.1268C26.6509 76.3726 25.2614 76.26 23.9316 75.7889C22.5993 75.3031 21.4721 74.5175 20.5501 73.432C19.6402 72.3293 19.0554 71.0124 18.7957 69.4814C18.5359 67.9504 18.655 66.5217 19.1528 65.1954C19.6628 63.8518 20.4678 62.7384 21.5679 61.8551C22.6679 60.9718 23.9425 60.4073 25.3916 60.1614C26.8554 59.9131 28.2449 60.0257 29.56 60.4993C30.8898 60.9704 32.0097 61.7573 32.9196 62.86C33.827 63.9479 34.4105 65.2574 34.6702 66.7885C34.93 68.3195 34.8122 69.7555 34.3168 71.0966C33.819 72.4229 33.0213 73.5351 31.9238 74.4331C30.8237 75.3164 29.5491 75.881 28.1 76.1268ZM27.4182 72.1078C28.516 71.9216 29.3185 71.4144 29.8255 70.5863C30.3472 69.7557 30.5057 68.7368 30.3009 67.5297C30.0911 66.2931 29.6043 65.3761 28.8403 64.7787C28.0885 64.1641 27.1637 63.95 26.0659 64.1362C24.9534 64.3249 24.1437 64.8333 23.6366 65.6615C23.1271 66.4749 22.9772 67.4999 23.187 68.7365C23.3943 69.9583 23.8738 70.8766 24.6256 71.4911C25.3749 72.091 26.3057 72.2966 27.4182 72.1078Z" fill="#3D4C66"/>
<path d="M52.0266 61.2316C52.1865 62.1738 52.113 63.0722 51.8062 63.9269C51.5116 64.7645 50.9651 65.4933 50.1668 66.1133C49.3806 66.7162 48.358 67.1244 47.0992 67.338L44.9694 67.6993L45.861 72.9548L41.5575 73.6848L38.9165 58.117L45.3498 57.0256C46.594 56.8146 47.6854 56.8566 48.6239 57.1517C49.5771 57.4444 50.3394 57.9436 50.9109 58.6493C51.4824 59.3551 51.8543 60.2158 52.0266 61.2316ZM46.0976 63.9639C47.3126 63.7578 47.8251 63.0954 47.6353 61.9765C47.443 60.843 46.7394 60.3793 45.5245 60.5854L43.8119 60.8759L44.385 64.2545L46.0976 63.9639Z" fill="#3D4C66"/>
<path d="M61.3897 57.8713L61.8205 60.4107L66.7607 59.5727L67.3188 62.8629L62.3786 63.701L62.8544 66.5054L68.4533 65.5556L69.0414 69.0225L59.139 70.7023L56.4981 55.1344L66.4005 53.4546L66.9886 56.9215L61.3897 57.8713Z" fill="#3D4C66"/>
<path d="M89.1284 65.6149L84.8249 66.345L77.6183 58.6168L79.0942 67.3171L74.7907 68.0472L72.1498 52.4793L76.4533 51.7492L83.6786 59.5878L82.184 50.7771L86.4874 50.047L89.1284 65.6149Z" fill="#3D4C66"/>
</svg>
