<svg width="69" height="69" viewBox="0 0 69 69" fill="none" xmlns="http://www.w3.org/2000/svg">
<path d="M39.8289 11.0789C40.0908 10.8078 40.2356 10.4447 40.2324 10.0678C40.2291 9.69085 40.0779 9.33031 39.8114 9.06378C39.5449 8.79726 39.1843 8.64608 38.8074 8.6428C38.4305 8.63953 38.0674 8.78442 37.7963 9.04627L34.5001 12.3425L31.2039 9.04627C31.0713 8.90898 30.9127 8.79947 30.7373 8.72413C30.5619 8.64879 30.3733 8.60913 30.1824 8.60748C29.9915 8.60582 29.8023 8.64219 29.6256 8.71447C29.4489 8.78675 29.2884 8.89348 29.1535 9.02846C29.0185 9.16343 28.9117 9.32393 28.8395 9.50059C28.7672 9.67725 28.7308 9.86654 28.7325 10.0574C28.7341 10.2483 28.7738 10.4369 28.8491 10.6123C28.9245 10.7877 29.034 10.9463 29.1713 11.0789L32.4675 14.3751L29.1713 17.6713C28.9094 17.9424 28.7645 18.3055 28.7678 18.6824C28.7711 19.0593 28.9223 19.4199 29.1888 19.6864C29.4553 19.9529 29.8159 20.1041 30.1928 20.1074C30.5697 20.1106 30.9328 19.9658 31.2039 19.7039L34.5001 16.4077L37.7963 19.7039C38.066 19.9734 38.4318 20.1248 38.8131 20.1247C39.1944 20.1245 39.5601 19.9729 39.8296 19.7032C40.0992 19.4334 40.2505 19.0677 40.2504 18.6864C40.2502 18.305 40.0986 17.9394 39.8289 17.6698L36.5327 14.3751L39.8289 11.0789ZM48.8018 46.2646C48.8615 46.4437 48.8853 46.6329 48.8719 46.8212C48.8584 47.0096 48.808 47.1935 48.7235 47.3623C48.639 47.5312 48.5221 47.6818 48.3794 47.8054C48.2367 47.9291 48.071 48.0234 47.8918 48.083L41.4231 50.2393C41.0613 50.3598 40.6664 50.3316 40.3254 50.1609C39.9844 49.9903 39.7251 49.6911 39.6047 49.3293C39.4842 48.9675 39.5124 48.5727 39.683 48.2317C39.8537 47.8906 40.1528 47.6314 40.5146 47.5109L46.9833 45.3547C47.1625 45.295 47.3516 45.2711 47.54 45.2846C47.7283 45.298 47.9122 45.3484 48.0811 45.4329C48.2499 45.5174 48.4005 45.6343 48.5242 45.777C48.6478 45.9197 48.7422 46.0854 48.8018 46.2646Z" fill="#B0BEC9"/>
<path fill-rule="evenodd" clip-rule="evenodd" d="M9.60889 38.0204L14.3756 39.6088V51.75C14.3757 52.0489 14.4688 52.3403 14.6422 52.5838C14.8156 52.8273 15.0606 53.0107 15.3431 53.1084L34.0191 59.5728C34.3142 59.6789 34.6361 59.6844 34.9348 59.5886L34.9549 59.5829L34.9765 59.5757L53.6582 53.1084C53.9407 53.0107 54.1857 52.8273 54.3591 52.5838C54.5325 52.3403 54.6256 52.0489 54.6256 51.75V39.6088L59.3924 38.0204C59.6123 37.9473 59.8112 37.8221 59.9723 37.6555C60.1333 37.4889 60.2517 37.2858 60.3174 37.0636C60.383 36.8414 60.394 36.6066 60.3493 36.3792C60.3047 36.1518 60.2057 35.9386 60.0608 35.7578L54.3108 28.5703C54.1403 28.3579 53.913 28.1984 53.6553 28.1103L34.9707 21.6415C34.6662 21.5362 34.3351 21.5362 34.0306 21.6415L15.346 28.1103C15.0883 28.1984 14.8609 28.3579 14.6905 28.5703L8.94046 35.7578C8.79561 35.9386 8.69664 36.1518 8.65197 36.3792C8.60729 36.6066 8.61825 36.8414 8.6839 37.0636C8.74955 37.2858 8.86795 37.4889 9.02901 37.6555C9.19007 37.8221 9.38901 37.9473 9.60889 38.0204ZM30.6467 43.9487L33.0631 40.4987V56.2005L17.2506 50.7265V40.5662L29.0151 44.4877C29.309 44.5854 29.6266 44.5856 29.9206 44.4882C30.2146 44.3908 30.4693 44.201 30.6467 43.9472V43.9487ZM20.2076 29.4687L34.5006 34.4166L48.7937 29.4687L34.5006 24.5208L20.2076 29.4687ZM38.3546 43.9487L35.9381 40.5001V56.2019L51.7506 50.7279V40.5662L39.9861 44.4877C39.6923 44.5854 39.3747 44.5856 39.0807 44.4882C38.7867 44.3908 38.532 44.201 38.3546 43.9472V43.9487ZM16.3019 31.1592L12.4738 35.9447L20.3959 38.5853L28.9059 41.4215L32.2308 36.6735L32.0368 36.6059L16.3019 31.1578V31.1592ZM56.5275 35.9447L52.6994 31.1578L36.7705 36.6735L40.0954 41.4215L56.5275 35.9447Z" fill="#B0BEC9"/>
</svg>
