<svg width="19" height="19" viewBox="0 0 19 19" fill="none" xmlns="http://www.w3.org/2000/svg">
<path d="M3.49891 16.2918C3.38908 16.2916 3.28048 16.2685 3.18004 16.2241C3.07959 16.1797 2.98949 16.1148 2.91546 16.0337C2.84009 15.9532 2.78258 15.8578 2.7467 15.7535C2.71081 15.6493 2.69737 15.5386 2.70725 15.4289L2.90121 13.2961L11.8613 4.33918L14.6614 7.13852L5.70371 16.0946L3.57096 16.2886C3.54701 16.2908 3.52297 16.2919 3.49891 16.2918ZM15.2203 6.57881L12.421 3.77947L14.1001 2.10035C14.1736 2.02674 14.261 1.96835 14.3571 1.92851C14.4532 1.88867 14.5562 1.86816 14.6602 1.86816C14.7643 1.86816 14.8673 1.88867 14.9634 1.92851C15.0595 1.96835 15.1468 2.02674 15.2203 2.10035L16.8995 3.77947C16.9731 3.853 17.0315 3.94031 17.0713 4.03642C17.1111 4.13252 17.1316 4.23554 17.1316 4.33958C17.1316 4.44362 17.1111 4.54663 17.0713 4.64274C17.0315 4.73885 16.9731 4.82616 16.8995 4.89968L15.2211 6.57802L15.2203 6.57881Z" fill="#2797E8"/>
</svg>
