<svg width="42" height="42" viewBox="0 0 42 42" fill="none" xmlns="http://www.w3.org/2000/svg">
<path d="M12.25 20.25C11.8358 20.25 11.5 20.5858 11.5 21C11.5 21.4142 11.8358 21.75 12.25 21.75V20.25ZM21 21.75C21.4142 21.75 21.75 21.4142 21.75 21C21.75 20.5858 21.4142 20.25 21 20.25V21.75ZM21 20.25C20.5858 20.25 20.25 20.5858 20.25 21C20.25 21.4142 20.5858 21.75 21 21.75V20.25ZM29.75 21.75C30.1642 21.75 30.5 21.4142 30.5 21C30.5 20.5858 30.1642 20.25 29.75 20.25V21.75ZM21.75 21C21.75 20.5858 21.4142 20.25 21 20.25C20.5858 20.25 20.25 20.5858 20.25 21H21.75ZM20.25 29.75C20.25 30.1642 20.5858 30.5 21 30.5C21.4142 30.5 21.75 30.1642 21.75 29.75H20.25ZM20.25 21C20.25 21.4142 20.5858 21.75 21 21.75C21.4142 21.75 21.75 21.4142 21.75 21H20.25ZM21.75 12.25C21.75 11.8358 21.4142 11.5 21 11.5C20.5858 11.5 20.25 11.8358 20.25 12.25H21.75ZM12.25 21.75H21V20.25H12.25V21.75ZM21 21.75H29.75V20.25H21V21.75ZM21 21H20.25C20.25 21 20.25 21 20.25 21C20.25 21 20.25 21 20.25 21C20.25 21 20.25 21 20.25 21C20.25 21 20.25 21 20.25 21C20.25 21 20.25 21 20.25 21C20.25 21 20.25 21 20.25 21C20.25 21 20.25 21 20.25 21C20.25 21 20.25 21 20.25 21C20.25 21.0001 20.25 21.0001 20.25 21.0001C20.25 21.0001 20.25 21.0001 20.25 21.0001C20.25 21.0001 20.25 21.0001 20.25 21.0001C20.25 21.0001 20.25 21.0001 20.25 21.0001C20.25 21.0002 20.25 21.0002 20.25 21.0002C20.25 21.0002 20.25 21.0002 20.25 21.0002C20.25 21.0002 20.25 21.0002 20.25 21.0003C20.25 21.0003 20.25 21.0003 20.25 21.0003C20.25 21.0003 20.25 21.0004 20.25 21.0004C20.25 21.0004 20.25 21.0004 20.25 21.0004C20.25 21.0005 20.25 21.0005 20.25 21.0005C20.25 21.0005 20.25 21.0006 20.25 21.0006C20.25 21.0006 20.25 21.0007 20.25 21.0007C20.25 21.0007 20.25 21.0008 20.25 21.0008C20.25 21.0008 20.25 21.0009 20.25 21.0009C20.25 21.0009 20.25 21.001 20.25 21.001C20.25 21.0011 20.25 21.0011 20.25 21.0011C20.25 21.0012 20.25 21.0012 20.25 21.0013C20.25 21.0013 20.25 21.0014 20.25 21.0014C20.25 21.0015 20.25 21.0015 20.25 21.0016C20.25 21.0016 20.25 21.0017 20.25 21.0018C20.25 21.0018 20.25 21.0019 20.25 21.0019C20.25 21.002 20.25 21.0021 20.25 21.0021C20.25 21.0022 20.25 21.0023 20.25 21.0023C20.25 21.0024 20.25 21.0025 20.25 21.0026C20.25 21.0026 20.25 21.0027 20.25 21.0028C20.25 21.0029 20.25 21.003 20.25 21.003C20.25 21.0031 20.25 21.0032 20.25 21.0033C20.25 21.0034 20.25 21.0035 20.25 21.0036C20.25 21.0037 20.25 21.0038 20.25 21.0039C20.25 21.004 20.25 21.0041 20.25 21.0042C20.25 21.0043 20.25 21.0044 20.25 21.0045C20.25 21.0046 20.25 21.0047 20.25 21.0048C20.25 21.0049 20.25 21.0051 20.25 21.0052C20.25 21.0053 20.25 21.0054 20.25 21.0056C20.25 21.0057 20.25 21.0058 20.25 21.0059C20.25 21.0061 20.25 21.0062 20.25 21.0063C20.25 21.0065 20.25 21.0066 20.25 21.0068C20.25 21.0069 20.25 21.0071 20.25 21.0072C20.25 21.0074 20.25 21.0075 20.25 21.0077C20.25 21.0078 20.25 21.008 20.25 21.0081C20.25 21.0083 20.25 21.0085 20.25 21.0086C20.25 21.0088 20.25 21.009 20.25 21.0092C20.25 21.0093 20.25 21.0095 20.25 21.0097C20.25 21.0099 20.25 21.0101 20.25 21.0103C20.25 21.0105 20.25 21.0106 20.25 21.0108C20.25 21.011 20.25 21.0112 20.25 21.0114C20.25 21.0117 20.25 21.0119 20.25 21.0121C20.25 21.0123 20.25 21.0125 20.25 21.0127C20.25 21.0129 20.25 21.0132 20.25 21.0134C20.25 21.0136 20.25 21.0138 20.25 21.0141C20.25 21.0143 20.25 21.0146 20.25 21.0148C20.25 21.015 20.25 21.0153 20.25 21.0155C20.25 21.0158 20.25 21.016 20.25 21.0163C20.25 21.0166 20.25 21.0168 20.25 21.0171C20.25 21.0174 20.25 21.0176 20.25 21.0179C20.25 21.0182 20.25 21.0185 20.25 21.0187C20.25 21.019 20.25 21.0193 20.25 21.0196C20.25 21.0199 20.25 21.0202 20.25 21.0205C20.25 21.0208 20.25 21.0211 20.25 21.0214C20.25 21.0217 20.25 21.022 20.25 21.0224C20.25 21.0227 20.25 21.023 20.25 21.0233C20.25 21.0237 20.25 21.024 20.25 21.0243C20.25 21.0247 20.25 21.025 20.25 21.0254C20.25 21.0257 20.25 21.0261 20.25 21.0264C20.25 21.0268 20.25 21.0271 20.25 21.0275C20.25 21.0279 20.25 21.0282 20.25 21.0286C20.25 21.029 20.25 21.0294 20.25 21.0298C20.25 21.0301 20.25 21.0305 20.25 21.0309C20.25 21.0313 20.25 21.0317 20.25 21.0321C20.25 21.0325 20.25 21.033 20.25 21.0334C20.25 21.0338 20.25 21.0342 20.25 21.0346C20.25 21.0351 20.25 21.0355 20.25 21.0359C20.25 21.0364 20.25 21.0368 20.25 21.0373C20.25 21.0377 20.25 21.0382 20.25 21.0386C20.25 21.0391 20.25 21.0396 20.25 21.04C20.25 21.0405 20.25 21.041 20.25 21.0415C20.25 21.0419 20.25 21.0424 20.25 21.0429C20.25 21.0434 20.25 21.0439 20.25 21.0444C20.25 21.0449 20.25 21.0454 20.25 21.046C20.25 21.0465 20.25 21.047 20.25 21.0475C20.25 21.0481 20.25 21.0486 20.25 21.0491C20.25 21.0497 20.25 21.0502 20.25 21.0508C20.25 21.0513 20.25 21.0519 20.25 21.0524C20.25 21.053 20.25 21.0536 20.25 21.0541C20.25 21.0547 20.25 21.0553 20.25 21.0559C20.25 21.0565 20.25 21.0571 20.25 21.0577C20.25 21.0583 20.25 21.0589 20.25 21.0595C20.25 21.0601 20.25 21.0607 20.25 21.0614C20.25 21.062 20.25 21.0626 20.25 21.0633C20.25 21.0639 20.25 21.0645 20.25 21.0652C20.25 21.0658 20.25 21.0665 20.25 21.0672C20.25 21.0678 20.25 21.0685 20.25 21.0692C20.25 21.0699 20.25 21.0705 20.25 21.0712C20.25 21.0719 20.25 21.0726 20.25 21.0733C20.25 21.074 20.25 21.0747 20.25 21.0755C20.25 21.0762 20.25 21.0769 20.25 21.0776C20.25 21.0784 20.25 21.0791 20.25 21.0799C20.25 21.0806 20.25 21.0814 20.25 21.0821C20.25 21.0829 20.25 21.0837 20.25 21.0844C20.25 21.0852 20.25 21.086 20.25 21.0868C20.25 21.0876 20.25 21.0884 20.25 21.0892C20.25 21.09 20.25 21.0908 20.25 21.0916C20.25 21.0924 20.25 21.0932 20.25 21.0941C20.25 21.0949 20.25 21.0957 20.25 21.0966C20.25 21.0974 20.25 21.0983 20.25 21.0991C20.25 21.1 20.25 21.1009 20.25 21.1018C20.25 21.1026 20.25 21.1035 20.25 21.1044C20.25 21.1053 20.25 21.1062 20.25 21.1071C20.25 21.108 20.25 21.1089 20.25 21.1099C20.25 21.1108 20.25 21.1117 20.25 21.1127C20.25 21.1136 20.25 21.1145 20.25 21.1155C20.25 21.1164 20.25 21.1174 20.25 21.1184C20.25 21.1194 20.25 21.1203 20.25 21.1213C20.25 21.1223 20.25 21.1233 20.25 21.1243C20.25 21.1253 20.25 21.1263 20.25 21.1273C20.25 21.1283 20.25 21.1294 20.25 21.1304C20.25 21.1314 20.25 21.1325 20.25 21.1335C20.25 21.1346 20.25 21.1357 20.25 21.1367C20.25 21.1378 20.25 21.1389 20.25 21.1399C20.25 21.141 20.25 21.1421 20.25 21.1432C20.25 21.1443 20.25 21.1454 20.25 21.1466C20.25 21.1477 20.25 21.1488 20.25 21.1499C20.25 21.1511 20.25 21.1522 20.25 21.1534C20.25 21.1545 20.25 21.1557 20.25 21.1569C20.25 21.158 20.25 21.1592 20.25 21.1604C20.25 21.1616 20.25 21.1628 20.25 21.164C20.25 21.1652 20.25 21.1664 20.25 21.1676C20.25 21.1689 20.25 21.1701 20.25 21.1713C20.25 21.1726 20.25 21.1738 20.25 21.1751C20.25 21.1763 20.25 21.1776 20.25 21.1789C20.25 21.1802 20.25 21.1815 20.25 21.1827C20.25 21.184 20.25 21.1854 20.25 21.1867C20.25 21.188 20.25 21.1893 20.25 21.1906C20.25 21.192 20.25 21.1933 20.25 21.1947C20.25 21.196 20.25 21.1974 20.25 21.1987C20.25 21.2001 20.25 21.2015 20.25 21.2029C20.25 21.2043 20.25 21.2057 20.25 21.2071C20.25 21.2085 20.25 21.2099 20.25 21.2113C20.25 21.2128 20.25 21.2142 20.25 21.2157C20.25 21.2171 20.25 21.2186 20.25 21.22C20.25 21.2215 20.25 21.223 20.25 21.2245C20.25 21.2259 20.25 21.2274 20.25 21.2289C20.25 21.2304 20.25 21.232 20.25 21.2335C20.25 21.235 20.25 21.2366 20.25 21.2381C20.25 21.2396 20.25 21.2412 20.25 21.2428C20.25 21.2443 20.25 21.2459 20.25 21.2475C20.25 21.2491 20.25 21.2507 20.25 21.2523C20.25 21.2539 20.25 21.2555 20.25 21.2571C20.25 21.2588 20.25 21.2604 20.25 21.2621C20.25 21.2637 20.25 21.2654 20.25 21.267C20.25 21.2687 20.25 21.2704 20.25 21.2721C20.25 21.2738 20.25 21.2755 20.25 21.2772C20.25 21.2789 20.25 21.2806 20.25 21.2823C20.25 21.2841 20.25 21.2858 20.25 21.2876C20.25 21.2893 20.25 21.2911 20.25 21.2929C20.25 21.2946 20.25 21.2964 20.25 21.2982C20.25 21.3 20.25 21.3018 20.25 21.3036C20.25 21.3055 20.25 21.3073 20.25 21.3091C20.25 21.311 20.25 21.3128 20.25 21.3147C20.25 21.3165 20.25 21.3184 20.25 21.3203C20.25 21.3222 20.25 21.3241 20.25 21.326C20.25 21.3279 20.25 21.3298 20.25 21.3317C20.25 21.3337 20.25 21.3356 20.25 21.3375C20.25 21.3395 20.25 21.3415 20.25 21.3434C20.25 21.3454 20.25 21.3474 20.25 21.3494C20.25 21.3514 20.25 21.3534 20.25 21.3554C20.25 21.3574 20.25 21.3595 20.25 21.3615C20.25 21.3636 20.25 21.3656 20.25 21.3677C20.25 21.3697 20.25 21.3718 20.25 21.3739C20.25 21.376 20.25 21.3781 20.25 21.3802C20.25 21.3823 20.25 21.3844 20.25 21.3866C20.25 21.3887 20.25 21.3909 20.25 21.393C20.25 21.3952 20.25 21.3973 20.25 21.3995C20.25 21.4017 20.25 21.4039 20.25 21.4061C20.25 21.4083 20.25 21.4105 20.25 21.4128C20.25 21.415 20.25 21.4172 20.25 21.4195C20.25 21.4218 20.25 21.424 20.25 21.4263C20.25 21.4286 20.25 21.4309 20.25 21.4332C20.25 21.4355 20.25 21.4378 20.25 21.4401C20.25 21.4425 20.25 21.4448 20.25 21.4472C20.25 21.4495 20.25 21.4519 20.25 21.4543C20.25 21.4566 20.25 21.459 20.25 21.4614C20.25 21.4638 20.25 21.4662 20.25 21.4687C20.25 21.4711 20.25 21.4735 20.25 21.476C20.25 21.4784 20.25 21.4809 20.25 21.4834C20.25 21.4859 20.25 21.4884 20.25 21.4909C20.25 21.4934 20.25 21.4959 20.25 21.4984C20.25 21.501 20.25 21.5035 20.25 21.5061C20.25 21.5086 20.25 21.5112 20.25 21.5138C20.25 21.5163 20.25 21.5189 20.25 21.5215C20.25 21.5241 20.25 21.5268 20.25 21.5294C20.25 21.532 20.25 21.5347 20.25 21.5373C20.25 21.54 20.25 21.5427 20.25 21.5454C20.25 21.548 20.25 21.5507 20.25 21.5535C20.25 21.5562 20.25 21.5589 20.25 21.5616C20.25 21.5644 20.25 21.5671 20.25 21.5699C20.25 21.5727 20.25 21.5754 20.25 21.5782C20.25 21.581 20.25 21.5838 20.25 21.5867C20.25 21.5895 20.25 21.5923 20.25 21.5952C20.25 21.598 20.25 21.6009 20.25 21.6037C20.25 21.6066 20.25 21.6095 20.25 21.6124C20.25 21.6153 20.25 21.6182 20.25 21.6212C20.25 21.6241 20.25 21.627 20.25 21.63C20.25 21.633 20.25 21.6359 20.25 21.6389C20.25 21.6419 20.25 21.6449 20.25 21.6479C20.25 21.6509 20.25 21.6539 20.25 21.657C20.25 21.66 20.25 21.6631 20.25 21.6662C20.25 21.6692 20.25 21.6723 20.25 21.6754C20.25 21.6785 20.25 21.6816 20.25 21.6847C20.25 21.6879 20.25 21.691 20.25 21.6942C20.25 21.6973 20.25 21.7005 20.25 21.7037C20.25 21.7069 20.25 21.7101 20.25 21.7133C20.25 21.7165 20.25 21.7197 20.25 21.723C20.25 21.7262 20.25 21.7295 20.25 21.7327C20.25 21.736 20.25 21.7393 20.25 21.7426C20.25 21.7459 20.25 21.7492 20.25 21.7525C20.25 21.7559 20.25 21.7592 20.25 21.7626C20.25 21.7659 20.25 21.7693 20.25 21.7727C20.25 21.7761 20.25 21.7795 20.25 21.7829C20.25 21.7863 20.25 21.7897 20.25 21.7932C20.25 21.7966 20.25 21.8001 20.25 21.8036C20.25 21.8071 20.25 21.8106 20.25 21.8141C20.25 21.8176 20.25 21.8211 20.25 21.8246C20.25 21.8282 20.25 21.8317 20.25 21.8353C20.25 21.8389 20.25 21.8425 20.25 21.8461C20.25 21.8497 20.25 21.8533 20.25 21.8569C20.25 21.8605 20.25 21.8642 20.25 21.8678C20.25 21.8715 20.25 21.8752 20.25 21.8789C20.25 21.8826 20.25 21.8863 20.25 21.89C20.25 21.8937 20.25 21.8975 20.25 21.9012C20.25 21.905 20.25 21.9087 20.25 21.9125C20.25 21.9163 20.25 21.9201 20.25 21.9239C20.25 21.9278 20.25 21.9316 20.25 21.9354C20.25 21.9393 20.25 21.9432 20.25 21.947C20.25 21.9509 20.25 21.9548 20.25 21.9587C20.25 21.9626 20.25 21.9666 20.25 21.9705C20.25 21.9745 20.25 21.9784 20.25 21.9824C20.25 21.9864 20.25 21.9904 20.25 21.9944C20.25 21.9984 20.25 22.0024 20.25 22.0065C20.25 22.0105 20.25 22.0146 20.25 22.0186C20.25 22.0227 20.25 22.0268 20.25 22.0309C20.25 22.035 20.25 22.0391 20.25 22.0433C20.25 22.0474 20.25 22.0516 20.25 22.0557C20.25 22.0599 20.25 22.0641 20.25 22.0683C20.25 22.0725 20.25 22.0767 20.25 22.081C20.25 22.0852 20.25 22.0895 20.25 22.0938C20.25 22.098 20.25 22.1023 20.25 22.1066C20.25 22.1109 20.25 22.1152 20.25 22.1196C20.25 22.1239 20.25 22.1283 20.25 22.1327C20.25 22.137 20.25 22.1414 20.25 22.1458C20.25 22.1502 20.25 22.1547 20.25 22.1591C20.25 22.1635 20.25 22.168 20.25 22.1725C20.25 22.1769 20.25 22.1814 20.25 22.1859C20.25 22.1905 20.25 22.195 20.25 22.1995C20.25 22.2041 20.25 22.2086 20.25 22.2132C20.25 22.2178 20.25 22.2224 20.25 22.227C20.25 22.2316 20.25 22.2362 20.25 22.2409C20.25 22.2455 20.25 22.2502 20.25 22.2549C20.25 22.2596 20.25 22.2643 20.25 22.269C20.25 22.2737 20.25 22.2784 20.25 22.2832C20.25 22.2879 20.25 22.2927 20.25 22.2975C20.25 22.3023 20.25 22.3071 20.25 22.3119C20.25 22.3167 20.25 22.3216 20.25 22.3264C20.25 22.3313 20.25 22.3362 20.25 22.3411C20.25 22.346 20.25 22.3509 20.25 22.3558C20.25 22.3607 20.25 22.3657 20.25 22.3706C20.25 22.3756 20.25 22.3806 20.25 22.3856C20.25 22.3906 20.25 22.3956 20.25 22.4007C20.25 22.4057 20.25 22.4108 20.25 22.4158C20.25 22.4209 20.25 22.426 20.25 22.4311C20.25 22.4362 20.25 22.4413 20.25 22.4465C20.25 22.4516 20.25 22.4568 20.25 22.462C20.25 22.4672 20.25 22.4724 20.25 22.4776C20.25 22.4828 20.25 22.4881 20.25 22.4933C20.25 22.4986 20.25 22.5039 20.25 22.5092C20.25 22.5144 20.25 22.5198 20.25 22.5251C20.25 22.5304 20.25 22.5358 20.25 22.5411C20.25 22.5465 20.25 22.5519 20.25 22.5573C20.25 22.5627 20.25 22.5681 20.25 22.5736C20.25 22.579 20.25 22.5845 20.25 22.59C20.25 22.5955 20.25 22.601 20.25 22.6065C20.25 22.612 20.25 22.6175 20.25 22.6231C20.25 22.6287 20.25 22.6342 20.25 22.6398C20.25 22.6454 20.25 22.6511 20.25 22.6567C20.25 22.6623 20.25 22.668 20.25 22.6736C20.25 22.6793 20.25 22.685 20.25 22.6907C20.25 22.6964 20.25 22.7022 20.25 22.7079C20.25 22.7137 20.25 22.7194 20.25 22.7252C20.25 22.731 20.25 22.7368 20.25 22.7427C20.25 22.7485 20.25 22.7543 20.25 22.7602C20.25 22.7661 20.25 22.772 20.25 22.7779C20.25 22.7838 20.25 22.7897 20.25 22.7956C20.25 22.8016 20.25 22.8076 20.25 22.8135C20.25 22.8195 20.25 22.8255 20.25 22.8316C20.25 22.8376 20.25 22.8436 20.25 22.8497C20.25 22.8557 20.25 22.8618 20.25 22.8679C20.25 22.874 20.25 22.8802 20.25 22.8863C20.25 22.8925 20.25 22.8986 20.25 22.9048C20.25 22.911 20.25 22.9172 20.25 22.9234C20.25 22.9296 20.25 22.9359 20.25 22.9422C20.25 22.9484 20.25 22.9547 20.25 22.961C20.25 22.9673 20.25 22.9736 20.25 22.98C20.25 22.9863 20.25 22.9927 20.25 22.9991C20.25 23.0055 20.25 23.0119 20.25 23.0183C20.25 23.0247 20.25 23.0312 20.25 23.0377C20.25 23.0441 20.25 23.0506 20.25 23.0571C20.25 23.0636 20.25 23.0702 20.25 23.0767C20.25 23.0833 20.25 23.0898 20.25 23.0964C20.25 23.103 20.25 23.1096 20.25 23.1163C20.25 23.1229 20.25 23.1296 20.25 23.1362C20.25 23.1429 20.25 23.1496 20.25 23.1563C20.25 23.163 20.25 23.1698 20.25 23.1765C20.25 23.1833 20.25 23.1901 20.25 23.1969C20.25 23.2037 20.25 23.2105 20.25 23.2173C20.25 23.2242 20.25 23.2311 20.25 23.2379C20.25 23.2448 20.25 23.2517 20.25 23.2587C20.25 23.2656 20.25 23.2725 20.25 23.2795C20.25 23.2865 20.25 23.2935 20.25 23.3005C20.25 23.3075 20.25 23.3145 20.25 23.3216C20.25 23.3286 20.25 23.3357 20.25 23.3428C20.25 23.3499 20.25 23.357 20.25 23.3642C20.25 23.3713 20.25 23.3785 20.25 23.3857C20.25 23.3929 20.25 23.4001 20.25 23.4073C20.25 23.4145 20.25 23.4218 20.25 23.4291C20.25 23.4363 20.25 23.4436 20.25 23.4509C20.25 23.4583 20.25 23.4656 20.25 23.473C20.25 23.4803 20.25 23.4877 20.25 23.4951C20.25 23.5025 20.25 23.5099 20.25 23.5174C20.25 23.5248 20.25 23.5323 20.25 23.5398C20.25 23.5473 20.25 23.5548 20.25 23.5623C20.25 23.5699 20.25 23.5774 20.25 23.585C20.25 23.5926 20.25 23.6002 20.25 23.6078C20.25 23.6154 20.25 23.6231 20.25 23.6308C20.25 23.6384 20.25 23.6461 20.25 23.6538C20.25 23.6615 20.25 23.6693 20.25 23.677C20.25 23.6848 20.25 23.6926 20.25 23.7004C20.25 23.7082 20.25 23.716 20.25 23.7239C20.25 23.7317 20.25 23.7396 20.25 23.7475C20.25 23.7554 20.25 23.7633 20.25 23.7712C20.25 23.7792 20.25 23.7871 20.25 23.7951C20.25 23.8031 20.25 23.8111 20.25 23.8192C20.25 23.8272 20.25 23.8352 20.25 23.8433C20.25 23.8514 20.25 23.8595 20.25 23.8676C20.25 23.8757 20.25 23.8839 20.25 23.8921C20.25 23.9002 20.25 23.9084 20.25 23.9166C20.25 23.9249 20.25 23.9331 20.25 23.9414C20.25 23.9496 20.25 23.9579 20.25 23.9662C20.25 23.9745 20.25 23.9829 20.25 23.9912C20.25 23.9996 20.25 24.0079 20.25 24.0163C20.25 24.0248 20.25 24.0332 20.25 24.0416C20.25 24.0501 20.25 24.0585 20.25 24.067C20.25 24.0755 20.25 24.0841 20.25 24.0926C20.25 24.1011 20.25 24.1097 20.25 24.1183C20.25 24.1269 20.25 24.1355 20.25 24.1441C20.25 24.1528 20.25 24.1614 20.25 24.1701C20.25 24.1788 20.25 24.1875 20.25 24.1963C20.25 24.205 20.25 24.2137 20.25 24.2225C20.25 24.2313 20.25 24.2401 20.25 24.2489C20.25 24.2578 20.25 24.2666 20.25 24.2755C20.25 24.2844 20.25 24.2933 20.25 24.3022C20.25 24.3111 20.25 24.3201 20.25 24.329C20.25 24.338 20.25 24.347 20.25 24.356C20.25 24.3651 20.25 24.3741 20.25 24.3832C20.25 24.3922 20.25 24.4013 20.25 24.4105C20.25 24.4196 20.25 24.4287 20.25 24.4379C20.25 24.4471 20.25 24.4563 20.25 24.4655C20.25 24.4747 20.25 24.4839 20.25 24.4932C20.25 24.5025 20.25 24.5117 20.25 24.5211C20.25 24.5304 20.25 24.5397 20.25 24.5491C20.25 24.5584 20.25 24.5678 20.25 24.5772C20.25 24.5867 20.25 24.5961 20.25 24.6056C20.25 24.615 20.25 24.6245 20.25 24.634C20.25 24.6435 20.25 24.6531 20.25 24.6626C20.25 24.6722 20.25 24.6818 20.25 24.6914C20.25 24.701 20.25 24.7107 20.25 24.7203C20.25 24.73 20.25 24.7397 20.25 24.7494C20.25 24.7591 20.25 24.7688 20.25 24.7786C20.25 24.7884 20.25 24.7982 20.25 24.808C20.25 24.8178 20.25 24.8276 20.25 24.8375C20.25 24.8474 20.25 24.8572 20.25 24.8672C20.25 24.8771 20.25 24.887 20.25 24.897C20.25 24.9069 20.25 24.9169 20.25 24.927C20.25 24.937 20.25 24.947 20.25 24.9571C20.25 24.9672 20.25 24.9773 20.25 24.9874C20.25 24.9975 20.25 25.0076 20.25 25.0178C20.25 25.028 20.25 25.0382 20.25 25.0484C20.25 25.0586 20.25 25.0689 20.25 25.0792C20.25 25.0894 20.25 25.0997 20.25 25.1101C20.25 25.1204 20.25 25.1307 20.25 25.1411C20.25 25.1515 20.25 25.1619 20.25 25.1723C20.25 25.1828 20.25 25.1932 20.25 25.2037C20.25 25.2142 20.25 25.2247 20.25 25.2352C20.25 25.2458 20.25 25.2563 20.25 25.2669C20.25 25.2775 20.25 25.2881 20.25 25.2988C20.25 25.3094 20.25 25.3201 20.25 25.3308C20.25 25.3414 20.25 25.3522 20.25 25.3629C20.25 25.3737 20.25 25.3844 20.25 25.3952C20.25 25.406 20.25 25.4169 20.25 25.4277C20.25 25.4386 20.25 25.4494 20.25 25.4603C20.25 25.4712 20.25 25.4822 20.25 25.4931C20.25 25.5041 20.25 25.5151 20.25 25.5261C20.25 25.5371 20.25 25.5481 20.25 25.5592C20.25 25.5703 20.25 25.5814 20.25 25.5925C20.25 25.6036 20.25 25.6148 20.25 25.6259C20.25 25.6371 20.25 25.6483 20.25 25.6595C20.25 25.6708 20.25 25.682 20.25 25.6933C20.25 25.7046 20.25 25.7159 20.25 25.7272C20.25 25.7386 20.25 25.7499 20.25 25.7613C20.25 25.7727 20.25 25.7841 20.25 25.7956C20.25 25.807 20.25 25.8185 20.25 25.83C20.25 25.8415 20.25 25.853 20.25 25.8646C20.25 25.8761 20.25 25.8877 20.25 25.8993C20.25 25.9109 20.25 25.9226 20.25 25.9342C20.25 25.9459 20.25 25.9576 20.25 25.9693C20.25 25.981 20.25 25.9928 20.25 26.0045C20.25 26.0163 20.25 26.0281 20.25 26.04C20.25 26.0518 20.25 26.0636 20.25 26.0755C20.25 26.0874 20.25 26.0993 20.25 26.1113C20.25 26.1232 20.25 26.1352 20.25 26.1472C20.25 26.1592 20.25 26.1712 20.25 26.1833C20.25 26.1953 20.25 26.2074 20.25 26.2195C20.25 26.2316 20.25 26.2438 20.25 26.2559C20.25 26.2681 20.25 26.2803 20.25 26.2925C20.25 26.3047 20.25 26.317 20.25 26.3293C20.25 26.3415 20.25 26.3539 20.25 26.3662C20.25 26.3785 20.25 26.3909 20.25 26.4033C20.25 26.4157 20.25 26.4281 20.25 26.4405C20.25 26.453 20.25 26.4655 20.25 26.478C20.25 26.4905 20.25 26.503 20.25 26.5156C20.25 26.5282 20.25 26.5407 20.25 26.5534C20.25 26.566 20.25 26.5786 20.25 26.5913C20.25 26.604 20.25 26.6167 20.25 26.6294C20.25 26.6422 20.25 26.6549 20.25 26.6677C20.25 26.6805 20.25 26.6933 20.25 26.7062C20.25 26.7191 20.25 26.7319 20.25 26.7448C20.25 26.7578 20.25 26.7707 20.25 26.7837C20.25 26.7966 20.25 26.8096 20.25 26.8227C20.25 26.8357 20.25 26.8487 20.25 26.8618C20.25 26.8749 20.25 26.888 20.25 26.9012C20.25 26.9143 20.25 26.9275 20.25 26.9407C20.25 26.9539 20.25 26.9671 20.25 26.9804C20.25 26.9936 20.25 27.0069 20.25 27.0202C20.25 27.0336 20.25 27.0469 20.25 27.0603C20.25 27.0737 20.25 27.0871 20.25 27.1005C20.25 27.1139 20.25 27.1274 20.25 27.1409C20.25 27.1544 20.25 27.1679 20.25 27.1815C20.25 27.195 20.25 27.2086 20.25 27.2222C20.25 27.2359 20.25 27.2495 20.25 27.2632C20.25 27.2769 20.25 27.2906 20.25 27.3043C20.25 27.318 20.25 27.3318 20.25 27.3456C20.25 27.3594 20.25 27.3732 20.25 27.3871C20.25 27.4009 20.25 27.4148 20.25 27.4287C20.25 27.4426 20.25 27.4566 20.25 27.4705C20.25 27.4845 20.25 27.4985 20.25 27.5126C20.25 27.5266 20.25 27.5407 20.25 27.5548C20.25 27.5689 20.25 27.583 20.25 27.5971C20.25 27.6113 20.25 27.6255 20.25 27.6397C20.25 27.6539 20.25 27.6682 20.25 27.6825C20.25 27.6967 20.25 27.711 20.25 27.7254C20.25 27.7397 20.25 27.7541 20.25 27.7685C20.25 27.7829 20.25 27.7973 20.25 27.8118C20.25 27.8262 20.25 27.8407 20.25 27.8553C20.25 27.8698 20.25 27.8843 20.25 27.8989C20.25 27.9135 20.25 27.9281 20.25 27.9428C20.25 27.9574 20.25 27.9721 20.25 27.9868C20.25 28.0015 20.25 28.0163 20.25 28.031C20.25 28.0458 20.25 28.0606 20.25 28.0754C20.25 28.0903 20.25 28.1051 20.25 28.12C20.25 28.1349 20.25 28.1499 20.25 28.1648C20.25 28.1798 20.25 28.1948 20.25 28.2098C20.25 28.2248 20.25 28.2399 20.25 28.2549C20.25 28.27 20.25 28.2851 20.25 28.3003C20.25 28.3154 20.25 28.3306 20.25 28.3458C20.25 28.361 20.25 28.3763 20.25 28.3915C20.25 28.4068 20.25 28.4221 20.25 28.4374C20.25 28.4528 20.25 28.4681 20.25 28.4835C20.25 28.4989 20.25 28.5144 20.25 28.5298C20.25 28.5453 20.25 28.5608 20.25 28.5763C20.25 28.5918 20.25 28.6074 20.25 28.623C20.25 28.6386 20.25 28.6542 20.25 28.6698C20.25 28.6855 20.25 28.7012 20.25 28.7169C20.25 28.7326 20.25 28.7484 20.25 28.7641C20.25 28.7799 20.25 28.7957 20.25 28.8116C20.25 28.8274 20.25 28.8433 20.25 28.8592C20.25 28.8751 20.25 28.8911 20.25 28.907C20.25 28.923 20.25 28.939 20.25 28.9551C20.25 28.9711 20.25 28.9872 20.25 29.0033C20.25 29.0194 20.25 29.0355 20.25 29.0517C20.25 29.0678 20.25 29.084 20.25 29.1003C20.25 29.1165 20.25 29.1328 20.25 29.1491C20.25 29.1654 20.25 29.1817 20.25 29.1981C20.25 29.2144 20.25 29.2308 20.25 29.2473C20.25 29.2637 20.25 29.2801 20.25 29.2966C20.25 29.3131 20.25 29.3297 20.25 29.3462C20.25 29.3628 20.25 29.3794 20.25 29.396C20.25 29.4126 20.25 29.4293 20.25 29.446C20.25 29.4627 20.25 29.4794 20.25 29.4961C20.25 29.5129 20.25 29.5297 20.25 29.5465C20.25 29.5633 20.25 29.5802 20.25 29.5971C20.25 29.614 20.25 29.6309 20.25 29.6479C20.25 29.6648 20.25 29.6818 20.25 29.6988C20.25 29.7159 20.25 29.7329 20.25 29.75H21.75C21.75 29.7329 21.75 29.7159 21.75 29.6988C21.75 29.6818 21.75 29.6648 21.75 29.6479C21.75 29.6309 21.75 29.614 21.75 29.5971C21.75 29.5802 21.75 29.5633 21.75 29.5465C21.75 29.5297 21.75 29.5129 21.75 29.4961C21.75 29.4794 21.75 29.4627 21.75 29.446C21.75 29.4293 21.75 29.4126 21.75 29.396C21.75 29.3794 21.75 29.3628 21.75 29.3462C21.75 29.3297 21.75 29.3131 21.75 29.2966C21.75 29.2801 21.75 29.2637 21.75 29.2473C21.75 29.2308 21.75 29.2144 21.75 29.1981C21.75 29.1817 21.75 29.1654 21.75 29.1491C21.75 29.1328 21.75 29.1165 21.75 29.1003C21.75 29.084 21.75 29.0678 21.75 29.0517C21.75 29.0355 21.75 29.0194 21.75 29.0033C21.75 28.9872 21.75 28.9711 21.75 28.9551C21.75 28.939 21.75 28.923 21.75 28.907C21.75 28.8911 21.75 28.8751 21.75 28.8592C21.75 28.8433 21.75 28.8274 21.75 28.8116C21.75 28.7957 21.75 28.7799 21.75 28.7641C21.75 28.7484 21.75 28.7326 21.75 28.7169C21.75 28.7012 21.75 28.6855 21.75 28.6698C21.75 28.6542 21.75 28.6386 21.75 28.623C21.75 28.6074 21.75 28.5918 21.75 28.5763C21.75 28.5608 21.75 28.5453 21.75 28.5298C21.75 28.5144 21.75 28.4989 21.75 28.4835C21.75 28.4681 21.75 28.4528 21.75 28.4374C21.75 28.4221 21.75 28.4068 21.75 28.3915C21.75 28.3763 21.75 28.361 21.75 28.3458C21.75 28.3306 21.75 28.3154 21.75 28.3003C21.75 28.2851 21.75 28.27 21.75 28.2549C21.75 28.2399 21.75 28.2248 21.75 28.2098C21.75 28.1948 21.75 28.1798 21.75 28.1648C21.75 28.1499 21.75 28.1349 21.75 28.12C21.75 28.1051 21.75 28.0903 21.75 28.0754C21.75 28.0606 21.75 28.0458 21.75 28.031C21.75 28.0163 21.75 28.0015 21.75 27.9868C21.75 27.9721 21.75 27.9574 21.75 27.9428C21.75 27.9281 21.75 27.9135 21.75 27.8989C21.75 27.8843 21.75 27.8698 21.75 27.8553C21.75 27.8407 21.75 27.8262 21.75 27.8118C21.75 27.7973 21.75 27.7829 21.75 27.7685C21.75 27.7541 21.75 27.7397 21.75 27.7254C21.75 27.711 21.75 27.6967 21.75 27.6825C21.75 27.6682 21.75 27.6539 21.75 27.6397C21.75 27.6255 21.75 27.6113 21.75 27.5971C21.75 27.583 21.75 27.5689 21.75 27.5548C21.75 27.5407 21.75 27.5266 21.75 27.5126C21.75 27.4985 21.75 27.4845 21.75 27.4705C21.75 27.4566 21.75 27.4426 21.75 27.4287C21.75 27.4148 21.75 27.4009 21.75 27.3871C21.75 27.3732 21.75 27.3594 21.75 27.3456C21.75 27.3318 21.75 27.318 21.75 27.3043C21.75 27.2906 21.75 27.2769 21.75 27.2632C21.75 27.2495 21.75 27.2359 21.75 27.2222C21.75 27.2086 21.75 27.195 21.75 27.1815C21.75 27.1679 21.75 27.1544 21.75 27.1409C21.75 27.1274 21.75 27.1139 21.75 27.1005C21.75 27.0871 21.75 27.0737 21.75 27.0603C21.75 27.0469 21.75 27.0336 21.75 27.0202C21.75 27.0069 21.75 26.9936 21.75 26.9804C21.75 26.9671 21.75 26.9539 21.75 26.9407C21.75 26.9275 21.75 26.9143 21.75 26.9012C21.75 26.888 21.75 26.8749 21.75 26.8618C21.75 26.8487 21.75 26.8357 21.75 26.8227C21.75 26.8096 21.75 26.7966 21.75 26.7837C21.75 26.7707 21.75 26.7578 21.75 26.7448C21.75 26.7319 21.75 26.7191 21.75 26.7062C21.75 26.6933 21.75 26.6805 21.75 26.6677C21.75 26.6549 21.75 26.6422 21.75 26.6294C21.75 26.6167 21.75 26.604 21.75 26.5913C21.75 26.5786 21.75 26.566 21.75 26.5534C21.75 26.5407 21.75 26.5282 21.75 26.5156C21.75 26.503 21.75 26.4905 21.75 26.478C21.75 26.4655 21.75 26.453 21.75 26.4405C21.75 26.4281 21.75 26.4157 21.75 26.4033C21.75 26.3909 21.75 26.3785 21.75 26.3662C21.75 26.3539 21.75 26.3415 21.75 26.3293C21.75 26.317 21.75 26.3047 21.75 26.2925C21.75 26.2803 21.75 26.2681 21.75 26.2559C21.75 26.2438 21.75 26.2316 21.75 26.2195C21.75 26.2074 21.75 26.1953 21.75 26.1833C21.75 26.1712 21.75 26.1592 21.75 26.1472C21.75 26.1352 21.75 26.1232 21.75 26.1113C21.75 26.0993 21.75 26.0874 21.75 26.0755C21.75 26.0636 21.75 26.0518 21.75 26.04C21.75 26.0281 21.75 26.0163 21.75 26.0045C21.75 25.9928 21.75 25.981 21.75 25.9693C21.75 25.9576 21.75 25.9459 21.75 25.9342C21.75 25.9226 21.75 25.9109 21.75 25.8993C21.75 25.8877 21.75 25.8761 21.75 25.8646C21.75 25.853 21.75 25.8415 21.75 25.83C21.75 25.8185 21.75 25.807 21.75 25.7956C21.75 25.7841 21.75 25.7727 21.75 25.7613C21.75 25.7499 21.75 25.7386 21.75 25.7272C21.75 25.7159 21.75 25.7046 21.75 25.6933C21.75 25.682 21.75 25.6708 21.75 25.6595C21.75 25.6483 21.75 25.6371 21.75 25.6259C21.75 25.6148 21.75 25.6036 21.75 25.5925C21.75 25.5814 21.75 25.5703 21.75 25.5592C21.75 25.5481 21.75 25.5371 21.75 25.5261C21.75 25.5151 21.75 25.5041 21.75 25.4931C21.75 25.4822 21.75 25.4712 21.75 25.4603C21.75 25.4494 21.75 25.4386 21.75 25.4277C21.75 25.4169 21.75 25.406 21.75 25.3952C21.75 25.3844 21.75 25.3737 21.75 25.3629C21.75 25.3522 21.75 25.3414 21.75 25.3308C21.75 25.3201 21.75 25.3094 21.75 25.2988C21.75 25.2881 21.75 25.2775 21.75 25.2669C21.75 25.2563 21.75 25.2458 21.75 25.2352C21.75 25.2247 21.75 25.2142 21.75 25.2037C21.75 25.1932 21.75 25.1828 21.75 25.1723C21.75 25.1619 21.75 25.1515 21.75 25.1411C21.75 25.1307 21.75 25.1204 21.75 25.1101C21.75 25.0997 21.75 25.0894 21.75 25.0792C21.75 25.0689 21.75 25.0586 21.75 25.0484C21.75 25.0382 21.75 25.028 21.75 25.0178C21.75 25.0076 21.75 24.9975 21.75 24.9874C21.75 24.9773 21.75 24.9672 21.75 24.9571C21.75 24.947 21.75 24.937 21.75 24.927C21.75 24.9169 21.75 24.9069 21.75 24.897C21.75 24.887 21.75 24.8771 21.75 24.8672C21.75 24.8572 21.75 24.8474 21.75 24.8375C21.75 24.8276 21.75 24.8178 21.75 24.808C21.75 24.7982 21.75 24.7884 21.75 24.7786C21.75 24.7688 21.75 24.7591 21.75 24.7494C21.75 24.7397 21.75 24.73 21.75 24.7203C21.75 24.7107 21.75 24.701 21.75 24.6914C21.75 24.6818 21.75 24.6722 21.75 24.6626C21.75 24.6531 21.75 24.6435 21.75 24.634C21.75 24.6245 21.75 24.615 21.75 24.6056C21.75 24.5961 21.75 24.5867 21.75 24.5772C21.75 24.5678 21.75 24.5584 21.75 24.5491C21.75 24.5397 21.75 24.5304 21.75 24.5211C21.75 24.5117 21.75 24.5025 21.75 24.4932C21.75 24.4839 21.75 24.4747 21.75 24.4655C21.75 24.4563 21.75 24.4471 21.75 24.4379C21.75 24.4287 21.75 24.4196 21.75 24.4105C21.75 24.4013 21.75 24.3922 21.75 24.3832C21.75 24.3741 21.75 24.3651 21.75 24.356C21.75 24.347 21.75 24.338 21.75 24.329C21.75 24.3201 21.75 24.3111 21.75 24.3022C21.75 24.2933 21.75 24.2844 21.75 24.2755C21.75 24.2666 21.75 24.2578 21.75 24.2489C21.75 24.2401 21.75 24.2313 21.75 24.2225C21.75 24.2137 21.75 24.205 21.75 24.1963C21.75 24.1875 21.75 24.1788 21.75 24.1701C21.75 24.1614 21.75 24.1528 21.75 24.1441C21.75 24.1355 21.75 24.1269 21.75 24.1183C21.75 24.1097 21.75 24.1011 21.75 24.0926C21.75 24.0841 21.75 24.0755 21.75 24.067C21.75 24.0585 21.75 24.0501 21.75 24.0416C21.75 24.0332 21.75 24.0248 21.75 24.0163C21.75 24.0079 21.75 23.9996 21.75 23.9912C21.75 23.9829 21.75 23.9745 21.75 23.9662C21.75 23.9579 21.75 23.9496 21.75 23.9414C21.75 23.9331 21.75 23.9249 21.75 23.9166C21.75 23.9084 21.75 23.9002 21.75 23.8921C21.75 23.8839 21.75 23.8757 21.75 23.8676C21.75 23.8595 21.75 23.8514 21.75 23.8433C21.75 23.8352 21.75 23.8272 21.75 23.8192C21.75 23.8111 21.75 23.8031 21.75 23.7951C21.75 23.7871 21.75 23.7792 21.75 23.7712C21.75 23.7633 21.75 23.7554 21.75 23.7475C21.75 23.7396 21.75 23.7317 21.75 23.7239C21.75 23.716 21.75 23.7082 21.75 23.7004C21.75 23.6926 21.75 23.6848 21.75 23.677C21.75 23.6693 21.75 23.6615 21.75 23.6538C21.75 23.6461 21.75 23.6384 21.75 23.6308C21.75 23.6231 21.75 23.6154 21.75 23.6078C21.75 23.6002 21.75 23.5926 21.75 23.585C21.75 23.5774 21.75 23.5699 21.75 23.5623C21.75 23.5548 21.75 23.5473 21.75 23.5398C21.75 23.5323 21.75 23.5248 21.75 23.5174C21.75 23.5099 21.75 23.5025 21.75 23.4951C21.75 23.4877 21.75 23.4803 21.75 23.473C21.75 23.4656 21.75 23.4583 21.75 23.4509C21.75 23.4436 21.75 23.4363 21.75 23.4291C21.75 23.4218 21.75 23.4145 21.75 23.4073C21.75 23.4001 21.75 23.3929 21.75 23.3857C21.75 23.3785 21.75 23.3713 21.75 23.3642C21.75 23.357 21.75 23.3499 21.75 23.3428C21.75 23.3357 21.75 23.3286 21.75 23.3216C21.75 23.3145 21.75 23.3075 21.75 23.3005C21.75 23.2935 21.75 23.2865 21.75 23.2795C21.75 23.2725 21.75 23.2656 21.75 23.2587C21.75 23.2517 21.75 23.2448 21.75 23.2379C21.75 23.2311 21.75 23.2242 21.75 23.2173C21.75 23.2105 21.75 23.2037 21.75 23.1969C21.75 23.1901 21.75 23.1833 21.75 23.1765C21.75 23.1698 21.75 23.163 21.75 23.1563C21.75 23.1496 21.75 23.1429 21.75 23.1362C21.75 23.1296 21.75 23.1229 21.75 23.1163C21.75 23.1096 21.75 23.103 21.75 23.0964C21.75 23.0898 21.75 23.0833 21.75 23.0767C21.75 23.0702 21.75 23.0636 21.75 23.0571C21.75 23.0506 21.75 23.0441 21.75 23.0377C21.75 23.0312 21.75 23.0247 21.75 23.0183C21.75 23.0119 21.75 23.0055 21.75 22.9991C21.75 22.9927 21.75 22.9863 21.75 22.98C21.75 22.9736 21.75 22.9673 21.75 22.961C21.75 22.9547 21.75 22.9484 21.75 22.9422C21.75 22.9359 21.75 22.9296 21.75 22.9234C21.75 22.9172 21.75 22.911 21.75 22.9048C21.75 22.8986 21.75 22.8925 21.75 22.8863C21.75 22.8802 21.75 22.874 21.75 22.8679C21.75 22.8618 21.75 22.8557 21.75 22.8497C21.75 22.8436 21.75 22.8376 21.75 22.8316C21.75 22.8255 21.75 22.8195 21.75 22.8135C21.75 22.8076 21.75 22.8016 21.75 22.7956C21.75 22.7897 21.75 22.7838 21.75 22.7779C21.75 22.772 21.75 22.7661 21.75 22.7602C21.75 22.7543 21.75 22.7485 21.75 22.7427C21.75 22.7368 21.75 22.731 21.75 22.7252C21.75 22.7194 21.75 22.7137 21.75 22.7079C21.75 22.7022 21.75 22.6964 21.75 22.6907C21.75 22.685 21.75 22.6793 21.75 22.6736C21.75 22.668 21.75 22.6623 21.75 22.6567C21.75 22.6511 21.75 22.6454 21.75 22.6398C21.75 22.6342 21.75 22.6287 21.75 22.6231C21.75 22.6175 21.75 22.612 21.75 22.6065C21.75 22.601 21.75 22.5955 21.75 22.59C21.75 22.5845 21.75 22.579 21.75 22.5736C21.75 22.5681 21.75 22.5627 21.75 22.5573C21.75 22.5519 21.75 22.5465 21.75 22.5411C21.75 22.5358 21.75 22.5304 21.75 22.5251C21.75 22.5198 21.75 22.5144 21.75 22.5092C21.75 22.5039 21.75 22.4986 21.75 22.4933C21.75 22.4881 21.75 22.4828 21.75 22.4776C21.75 22.4724 21.75 22.4672 21.75 22.462C21.75 22.4568 21.75 22.4516 21.75 22.4465C21.75 22.4413 21.75 22.4362 21.75 22.4311C21.75 22.426 21.75 22.4209 21.75 22.4158C21.75 22.4108 21.75 22.4057 21.75 22.4007C21.75 22.3956 21.75 22.3906 21.75 22.3856C21.75 22.3806 21.75 22.3756 21.75 22.3706C21.75 22.3657 21.75 22.3607 21.75 22.3558C21.75 22.3509 21.75 22.346 21.75 22.3411C21.75 22.3362 21.75 22.3313 21.75 22.3264C21.75 22.3216 21.75 22.3167 21.75 22.3119C21.75 22.3071 21.75 22.3023 21.75 22.2975C21.75 22.2927 21.75 22.2879 21.75 22.2832C21.75 22.2784 21.75 22.2737 21.75 22.269C21.75 22.2643 21.75 22.2596 21.75 22.2549C21.75 22.2502 21.75 22.2455 21.75 22.2409C21.75 22.2362 21.75 22.2316 21.75 22.227C21.75 22.2224 21.75 22.2178 21.75 22.2132C21.75 22.2086 21.75 22.2041 21.75 22.1995C21.75 22.195 21.75 22.1905 21.75 22.1859C21.75 22.1814 21.75 22.1769 21.75 22.1725C21.75 22.168 21.75 22.1635 21.75 22.1591C21.75 22.1547 21.75 22.1502 21.75 22.1458C21.75 22.1414 21.75 22.137 21.75 22.1327C21.75 22.1283 21.75 22.1239 21.75 22.1196C21.75 22.1152 21.75 22.1109 21.75 22.1066C21.75 22.1023 21.75 22.098 21.75 22.0938C21.75 22.0895 21.75 22.0852 21.75 22.081C21.75 22.0767 21.75 22.0725 21.75 22.0683C21.75 22.0641 21.75 22.0599 21.75 22.0557C21.75 22.0516 21.75 22.0474 21.75 22.0433C21.75 22.0391 21.75 22.035 21.75 22.0309C21.75 22.0268 21.75 22.0227 21.75 22.0186C21.75 22.0146 21.75 22.0105 21.75 22.0065C21.75 22.0024 21.75 21.9984 21.75 21.9944C21.75 21.9904 21.75 21.9864 21.75 21.9824C21.75 21.9784 21.75 21.9745 21.75 21.9705C21.75 21.9666 21.75 21.9626 21.75 21.9587C21.75 21.9548 21.75 21.9509 21.75 21.947C21.75 21.9432 21.75 21.9393 21.75 21.9354C21.75 21.9316 21.75 21.9278 21.75 21.9239C21.75 21.9201 21.75 21.9163 21.75 21.9125C21.75 21.9087 21.75 21.905 21.75 21.9012C21.75 21.8975 21.75 21.8937 21.75 21.89C21.75 21.8863 21.75 21.8826 21.75 21.8789C21.75 21.8752 21.75 21.8715 21.75 21.8678C21.75 21.8642 21.75 21.8605 21.75 21.8569C21.75 21.8533 21.75 21.8497 21.75 21.8461C21.75 21.8425 21.75 21.8389 21.75 21.8353C21.75 21.8317 21.75 21.8282 21.75 21.8246C21.75 21.8211 21.75 21.8176 21.75 21.8141C21.75 21.8106 21.75 21.8071 21.75 21.8036C21.75 21.8001 21.75 21.7966 21.75 21.7932C21.75 21.7897 21.75 21.7863 21.75 21.7829C21.75 21.7795 21.75 21.7761 21.75 21.7727C21.75 21.7693 21.75 21.7659 21.75 21.7626C21.75 21.7592 21.75 21.7559 21.75 21.7525C21.75 21.7492 21.75 21.7459 21.75 21.7426C21.75 21.7393 21.75 21.736 21.75 21.7327C21.75 21.7295 21.75 21.7262 21.75 21.723C21.75 21.7197 21.75 21.7165 21.75 21.7133C21.75 21.7101 21.75 21.7069 21.75 21.7037C21.75 21.7005 21.75 21.6973 21.75 21.6942C21.75 21.691 21.75 21.6879 21.75 21.6847C21.75 21.6816 21.75 21.6785 21.75 21.6754C21.75 21.6723 21.75 21.6692 21.75 21.6662C21.75 21.6631 21.75 21.66 21.75 21.657C21.75 21.6539 21.75 21.6509 21.75 21.6479C21.75 21.6449 21.75 21.6419 21.75 21.6389C21.75 21.6359 21.75 21.633 21.75 21.63C21.75 21.627 21.75 21.6241 21.75 21.6212C21.75 21.6182 21.75 21.6153 21.75 21.6124C21.75 21.6095 21.75 21.6066 21.75 21.6037C21.75 21.6009 21.75 21.598 21.75 21.5952C21.75 21.5923 21.75 21.5895 21.75 21.5867C21.75 21.5838 21.75 21.581 21.75 21.5782C21.75 21.5754 21.75 21.5727 21.75 21.5699C21.75 21.5671 21.75 21.5644 21.75 21.5616C21.75 21.5589 21.75 21.5562 21.75 21.5535C21.75 21.5507 21.75 21.548 21.75 21.5454C21.75 21.5427 21.75 21.54 21.75 21.5373C21.75 21.5347 21.75 21.532 21.75 21.5294C21.75 21.5268 21.75 21.5241 21.75 21.5215C21.75 21.5189 21.75 21.5163 21.75 21.5138C21.75 21.5112 21.75 21.5086 21.75 21.5061C21.75 21.5035 21.75 21.501 21.75 21.4984C21.75 21.4959 21.75 21.4934 21.75 21.4909C21.75 21.4884 21.75 21.4859 21.75 21.4834C21.75 21.4809 21.75 21.4784 21.75 21.476C21.75 21.4735 21.75 21.4711 21.75 21.4687C21.75 21.4662 21.75 21.4638 21.75 21.4614C21.75 21.459 21.75 21.4566 21.75 21.4543C21.75 21.4519 21.75 21.4495 21.75 21.4472C21.75 21.4448 21.75 21.4425 21.75 21.4401C21.75 21.4378 21.75 21.4355 21.75 21.4332C21.75 21.4309 21.75 21.4286 21.75 21.4263C21.75 21.424 21.75 21.4218 21.75 21.4195C21.75 21.4172 21.75 21.415 21.75 21.4128C21.75 21.4105 21.75 21.4083 21.75 21.4061C21.75 21.4039 21.75 21.4017 21.75 21.3995C21.75 21.3973 21.75 21.3952 21.75 21.393C21.75 21.3909 21.75 21.3887 21.75 21.3866C21.75 21.3844 21.75 21.3823 21.75 21.3802C21.75 21.3781 21.75 21.376 21.75 21.3739C21.75 21.3718 21.75 21.3697 21.75 21.3677C21.75 21.3656 21.75 21.3636 21.75 21.3615C21.75 21.3595 21.75 21.3574 21.75 21.3554C21.75 21.3534 21.75 21.3514 21.75 21.3494C21.75 21.3474 21.75 21.3454 21.75 21.3434C21.75 21.3415 21.75 21.3395 21.75 21.3375C21.75 21.3356 21.75 21.3337 21.75 21.3317C21.75 21.3298 21.75 21.3279 21.75 21.326C21.75 21.3241 21.75 21.3222 21.75 21.3203C21.75 21.3184 21.75 21.3165 21.75 21.3147C21.75 21.3128 21.75 21.311 21.75 21.3091C21.75 21.3073 21.75 21.3055 21.75 21.3036C21.75 21.3018 21.75 21.3 21.75 21.2982C21.75 21.2964 21.75 21.2946 21.75 21.2929C21.75 21.2911 21.75 21.2893 21.75 21.2876C21.75 21.2858 21.75 21.2841 21.75 21.2823C21.75 21.2806 21.75 21.2789 21.75 21.2772C21.75 21.2755 21.75 21.2738 21.75 21.2721C21.75 21.2704 21.75 21.2687 21.75 21.267C21.75 21.2654 21.75 21.2637 21.75 21.2621C21.75 21.2604 21.75 21.2588 21.75 21.2571C21.75 21.2555 21.75 21.2539 21.75 21.2523C21.75 21.2507 21.75 21.2491 21.75 21.2475C21.75 21.2459 21.75 21.2443 21.75 21.2428C21.75 21.2412 21.75 21.2396 21.75 21.2381C21.75 21.2366 21.75 21.235 21.75 21.2335C21.75 21.232 21.75 21.2304 21.75 21.2289C21.75 21.2274 21.75 21.2259 21.75 21.2245C21.75 21.223 21.75 21.2215 21.75 21.22C21.75 21.2186 21.75 21.2171 21.75 21.2157C21.75 21.2142 21.75 21.2128 21.75 21.2113C21.75 21.2099 21.75 21.2085 21.75 21.2071C21.75 21.2057 21.75 21.2043 21.75 21.2029C21.75 21.2015 21.75 21.2001 21.75 21.1987C21.75 21.1974 21.75 21.196 21.75 21.1947C21.75 21.1933 21.75 21.192 21.75 21.1906C21.75 21.1893 21.75 21.188 21.75 21.1867C21.75 21.1854 21.75 21.184 21.75 21.1827C21.75 21.1815 21.75 21.1802 21.75 21.1789C21.75 21.1776 21.75 21.1763 21.75 21.1751C21.75 21.1738 21.75 21.1726 21.75 21.1713C21.75 21.1701 21.75 21.1689 21.75 21.1676C21.75 21.1664 21.75 21.1652 21.75 21.164C21.75 21.1628 21.75 21.1616 21.75 21.1604C21.75 21.1592 21.75 21.158 21.75 21.1569C21.75 21.1557 21.75 21.1545 21.75 21.1534C21.75 21.1522 21.75 21.1511 21.75 21.1499C21.75 21.1488 21.75 21.1477 21.75 21.1466C21.75 21.1454 21.75 21.1443 21.75 21.1432C21.75 21.1421 21.75 21.141 21.75 21.1399C21.75 21.1389 21.75 21.1378 21.75 21.1367C21.75 21.1357 21.75 21.1346 21.75 21.1335C21.75 21.1325 21.75 21.1314 21.75 21.1304C21.75 21.1294 21.75 21.1283 21.75 21.1273C21.75 21.1263 21.75 21.1253 21.75 21.1243C21.75 21.1233 21.75 21.1223 21.75 21.1213C21.75 21.1203 21.75 21.1194 21.75 21.1184C21.75 21.1174 21.75 21.1164 21.75 21.1155C21.75 21.1145 21.75 21.1136 21.75 21.1127C21.75 21.1117 21.75 21.1108 21.75 21.1099C21.75 21.1089 21.75 21.108 21.75 21.1071C21.75 21.1062 21.75 21.1053 21.75 21.1044C21.75 21.1035 21.75 21.1026 21.75 21.1018C21.75 21.1009 21.75 21.1 21.75 21.0991C21.75 21.0983 21.75 21.0974 21.75 21.0966C21.75 21.0957 21.75 21.0949 21.75 21.0941C21.75 21.0932 21.75 21.0924 21.75 21.0916C21.75 21.0908 21.75 21.09 21.75 21.0892C21.75 21.0884 21.75 21.0876 21.75 21.0868C21.75 21.086 21.75 21.0852 21.75 21.0844C21.75 21.0837 21.75 21.0829 21.75 21.0821C21.75 21.0814 21.75 21.0806 21.75 21.0799C21.75 21.0791 21.75 21.0784 21.75 21.0776C21.75 21.0769 21.75 21.0762 21.75 21.0755C21.75 21.0747 21.75 21.074 21.75 21.0733C21.75 21.0726 21.75 21.0719 21.75 21.0712C21.75 21.0705 21.75 21.0699 21.75 21.0692C21.75 21.0685 21.75 21.0678 21.75 21.0672C21.75 21.0665 21.75 21.0658 21.75 21.0652C21.75 21.0645 21.75 21.0639 21.75 21.0633C21.75 21.0626 21.75 21.062 21.75 21.0614C21.75 21.0607 21.75 21.0601 21.75 21.0595C21.75 21.0589 21.75 21.0583 21.75 21.0577C21.75 21.0571 21.75 21.0565 21.75 21.0559C21.75 21.0553 21.75 21.0547 21.75 21.0541C21.75 21.0536 21.75 21.053 21.75 21.0524C21.75 21.0519 21.75 21.0513 21.75 21.0508C21.75 21.0502 21.75 21.0497 21.75 21.0491C21.75 21.0486 21.75 21.0481 21.75 21.0475C21.75 21.047 21.75 21.0465 21.75 21.046C21.75 21.0454 21.75 21.0449 21.75 21.0444C21.75 21.0439 21.75 21.0434 21.75 21.0429C21.75 21.0424 21.75 21.0419 21.75 21.0415C21.75 21.041 21.75 21.0405 21.75 21.04C21.75 21.0396 21.75 21.0391 21.75 21.0386C21.75 21.0382 21.75 21.0377 21.75 21.0373C21.75 21.0368 21.75 21.0364 21.75 21.0359C21.75 21.0355 21.75 21.0351 21.75 21.0346C21.75 21.0342 21.75 21.0338 21.75 21.0334C21.75 21.033 21.75 21.0325 21.75 21.0321C21.75 21.0317 21.75 21.0313 21.75 21.0309C21.75 21.0305 21.75 21.0301 21.75 21.0298C21.75 21.0294 21.75 21.029 21.75 21.0286C21.75 21.0282 21.75 21.0279 21.75 21.0275C21.75 21.0271 21.75 21.0268 21.75 21.0264C21.75 21.0261 21.75 21.0257 21.75 21.0254C21.75 21.025 21.75 21.0247 21.75 21.0243C21.75 21.024 21.75 21.0237 21.75 21.0233C21.75 21.023 21.75 21.0227 21.75 21.0224C21.75 21.022 21.75 21.0217 21.75 21.0214C21.75 21.0211 21.75 21.0208 21.75 21.0205C21.75 21.0202 21.75 21.0199 21.75 21.0196C21.75 21.0193 21.75 21.019 21.75 21.0187C21.75 21.0185 21.75 21.0182 21.75 21.0179C21.75 21.0176 21.75 21.0174 21.75 21.0171C21.75 21.0168 21.75 21.0166 21.75 21.0163C21.75 21.016 21.75 21.0158 21.75 21.0155C21.75 21.0153 21.75 21.015 21.75 21.0148C21.75 21.0146 21.75 21.0143 21.75 21.0141C21.75 21.0138 21.75 21.0136 21.75 21.0134C21.75 21.0132 21.75 21.0129 21.75 21.0127C21.75 21.0125 21.75 21.0123 21.75 21.0121C21.75 21.0119 21.75 21.0117 21.75 21.0114C21.75 21.0112 21.75 21.011 21.75 21.0108C21.75 21.0106 21.75 21.0105 21.75 21.0103C21.75 21.0101 21.75 21.0099 21.75 21.0097C21.75 21.0095 21.75 21.0093 21.75 21.0092C21.75 21.009 21.75 21.0088 21.75 21.0086C21.75 21.0085 21.75 21.0083 21.75 21.0081C21.75 21.008 21.75 21.0078 21.75 21.0077C21.75 21.0075 21.75 21.0074 21.75 21.0072C21.75 21.0071 21.75 21.0069 21.75 21.0068C21.75 21.0066 21.75 21.0065 21.75 21.0063C21.75 21.0062 21.75 21.0061 21.75 21.0059C21.75 21.0058 21.75 21.0057 21.75 21.0056C21.75 21.0054 21.75 21.0053 21.75 21.0052C21.75 21.0051 21.75 21.0049 21.75 21.0048C21.75 21.0047 21.75 21.0046 21.75 21.0045C21.75 21.0044 21.75 21.0043 21.75 21.0042C21.75 21.0041 21.75 21.004 21.75 21.0039C21.75 21.0038 21.75 21.0037 21.75 21.0036C21.75 21.0035 21.75 21.0034 21.75 21.0033C21.75 21.0032 21.75 21.0031 21.75 21.003C21.75 21.003 21.75 21.0029 21.75 21.0028C21.75 21.0027 21.75 21.0026 21.75 21.0026C21.75 21.0025 21.75 21.0024 21.75 21.0023C21.75 21.0023 21.75 21.0022 21.75 21.0021C21.75 21.0021 21.75 21.002 21.75 21.0019C21.75 21.0019 21.75 21.0018 21.75 21.0018C21.75 21.0017 21.75 21.0016 21.75 21.0016C21.75 21.0015 21.75 21.0015 21.75 21.0014C21.75 21.0014 21.75 21.0013 21.75 21.0013C21.75 21.0012 21.75 21.0012 21.75 21.0011C21.75 21.0011 21.75 21.0011 21.75 21.001C21.75 21.001 21.75 21.0009 21.75 21.0009C21.75 21.0009 21.75 21.0008 21.75 21.0008C21.75 21.0008 21.75 21.0007 21.75 21.0007C21.75 21.0007 21.75 21.0006 21.75 21.0006C21.75 21.0006 21.75 21.0005 21.75 21.0005C21.75 21.0005 21.75 21.0005 21.75 21.0004C21.75 21.0004 21.75 21.0004 21.75 21.0004C21.75 21.0004 21.75 21.0003 21.75 21.0003C21.75 21.0003 21.75 21.0003 21.75 21.0003C21.75 21.0002 21.75 21.0002 21.75 21.0002C21.75 21.0002 21.75 21.0002 21.75 21.0002C21.75 21.0002 21.75 21.0002 21.75 21.0001C21.75 21.0001 21.75 21.0001 21.75 21.0001C21.75 21.0001 21.75 21.0001 21.75 21.0001C21.75 21.0001 21.75 21.0001 21.75 21.0001C21.75 21.0001 21.75 21.0001 21.75 21C21.75 21 21.75 21 21.75 21C21.75 21 21.75 21 21.75 21C21.75 21 21.75 21 21.75 21C21.75 21 21.75 21 21.75 21C21.75 21 21.75 21 21.75 21C21.75 21 21.75 21 21.75 21C21.75 21 21.75 21 21.75 21C21.75 21 21.75 21 21.75 21H21ZM21.75 21V12.25H20.25V21H21.75Z" fill="#3D4C66"/>
</svg>
