<svg width="21" height="21" viewBox="0 0 21 21" fill="none" xmlns="http://www.w3.org/2000/svg">
<path fill-rule="evenodd" clip-rule="evenodd" d="M7.42289 8.50056H3.87789C3.35773 8.49623 2.85716 8.69872 2.4863 9.06348C2.11544 9.42824 1.90468 9.92539 1.90039 10.4456V17.8068C1.91001 18.8895 2.79519 19.7596 3.87789 19.7506H7.42289C7.94305 19.7549 8.44363 19.5524 8.81448 19.1876C9.18534 18.8229 9.3961 18.3257 9.40039 17.8056V10.4456C9.3961 9.92539 9.18534 9.42824 8.81448 9.06348C8.44363 8.69872 7.94305 8.49623 7.42289 8.50056Z" stroke="#243249" stroke-width="1.875" stroke-linecap="round" stroke-linejoin="round"/>
<path fill-rule="evenodd" clip-rule="evenodd" d="M7.42289 1.00075H3.87789C2.81696 0.971327 1.93237 1.80615 1.90039 2.867V4.1345C1.93237 5.19536 2.81696 6.03018 3.87789 6.00075H7.42289C8.48382 6.03018 9.36841 5.19536 9.40039 4.1345V2.867C9.36841 1.80615 8.48382 0.971327 7.42289 1.00075Z" stroke="#243249" stroke-width="1.875" stroke-linecap="round" stroke-linejoin="round"/>
<path fill-rule="evenodd" clip-rule="evenodd" d="M13.8779 12.251H17.4216C17.942 12.2557 18.4429 12.0534 18.814 11.6886C19.1852 11.3238 19.3961 10.8264 19.4004 10.306V2.94604C19.3961 2.42588 19.1853 1.92873 18.8145 1.56397C18.4436 1.19921 17.9431 0.996717 17.4229 1.00104H13.8779C13.3577 0.996717 12.8572 1.19921 12.4863 1.56397C12.1154 1.92873 11.9047 2.42588 11.9004 2.94604V10.306C11.9047 10.8262 12.1154 11.3234 12.4863 11.6881C12.8572 12.0529 13.3577 12.2554 13.8779 12.251Z" stroke="#243249" stroke-width="1.875" stroke-linecap="round" stroke-linejoin="round"/>
<path fill-rule="evenodd" clip-rule="evenodd" d="M13.8779 19.7508H17.4216C18.4831 19.7809 19.3684 18.9459 19.4004 17.8845V16.617C19.3684 15.5561 18.4838 14.7213 17.4229 14.7508H13.8779C12.817 14.7213 11.9324 15.5561 11.9004 16.617V17.8833C11.9317 18.9446 12.8165 19.7802 13.8779 19.7508Z" stroke="#243249" stroke-width="1.875" stroke-linecap="round" stroke-linejoin="round"/>
</svg>
