<svg width="165" height="93" viewBox="0 0 165 93" fill="none" xmlns="http://www.w3.org/2000/svg">
<path d="M10.9288 83.06C10.9288 77.98 3.56883 79.94 3.56883 76.8C3.56883 75.46 4.58883 74.82 5.90883 74.86C7.34883 74.9 8.16883 75.76 8.24883 76.7H10.7688C10.5688 74.32 8.68883 72.92 6.02883 72.92C3.18883 72.92 1.24883 74.44 1.24883 76.88C1.24883 82 8.62883 79.82 8.62883 83.18C8.62883 84.36 7.72883 85.22 6.12883 85.22C4.54883 85.22 3.74883 84.3 3.64883 83.16H1.20883C1.20883 85.62 3.34883 87.14 6.12883 87.14C9.22883 87.14 10.9288 85.14 10.9288 83.06ZM12.8591 81.44C12.8591 84.84 15.1591 87.18 18.0191 87.18C19.8591 87.18 21.1791 86.3 21.8791 85.36V87H24.1791V75.98H21.8791V77.58C21.1991 76.68 19.9191 75.8 18.0591 75.8C15.1591 75.8 12.8591 78.04 12.8591 81.44ZM21.8791 81.48C21.8791 83.86 20.2591 85.2 18.5391 85.2C16.8391 85.2 15.1991 83.82 15.1991 81.44C15.1991 79.06 16.8391 77.78 18.5391 77.78C20.2591 77.78 21.8791 79.12 21.8791 81.48ZM27.1738 87H29.4538V72.2H27.1738V87ZM37.0873 77.72C38.7873 77.72 40.1273 78.8 40.1673 80.5H34.0673C34.3073 78.76 35.5473 77.72 37.0873 77.72ZM42.2473 83.72H39.7873C39.3673 84.58 38.5873 85.26 37.1873 85.26C35.5073 85.26 34.2073 84.16 34.0473 82.34H42.4673C42.5273 81.96 42.5473 81.6 42.5473 81.22C42.5473 77.98 40.3273 75.8 37.1873 75.8C33.9273 75.8 31.6873 78.02 31.6873 81.48C31.6873 84.94 34.0273 87.18 37.1873 87.18C39.8873 87.18 41.6273 85.64 42.2473 83.72ZM49.2263 81.48C49.2263 84.94 51.4663 87.18 54.6263 87.18C57.3263 87.18 59.0863 85.68 59.7063 83.52H57.2463C56.8263 84.66 55.9863 85.26 54.6263 85.26C52.7863 85.26 51.5663 83.9 51.5663 81.48C51.5663 79.08 52.7863 77.72 54.6263 77.72C55.9863 77.72 56.8663 78.4 57.2463 79.46H59.7063C59.0863 77.14 57.3263 75.8 54.6263 75.8C51.4663 75.8 49.2263 78.04 49.2263 81.48ZM72.4785 81.48C72.4785 78.02 69.9985 75.8 66.8585 75.8C63.7185 75.8 61.2385 78.02 61.2385 81.48C61.2385 84.94 63.6185 87.18 66.7585 87.18C69.9185 87.18 72.4785 84.94 72.4785 81.48ZM63.5585 81.48C63.5585 78.98 65.0985 77.78 66.8185 77.78C68.5185 77.78 70.1385 78.98 70.1385 81.48C70.1385 83.98 68.4585 85.2 66.7585 85.2C65.0385 85.2 63.5585 83.98 63.5585 81.48ZM90.3524 87H92.6124V80.5C92.6124 77.42 90.6524 75.8 88.0724 75.8C86.4724 75.8 84.9124 76.64 84.2324 77.98C83.4724 76.54 82.0124 75.8 80.2724 75.8C78.9524 75.8 77.7524 76.34 77.0124 77.24V75.98H74.7324V87H77.0124V80.84C77.0124 78.82 78.1124 77.78 79.7924 77.78C81.4524 77.78 82.5524 78.82 82.5524 80.84V87H84.8124V80.84C84.8124 78.82 85.9124 77.78 87.5924 77.78C89.2524 77.78 90.3524 78.82 90.3524 80.84V87ZM97.7937 77.6V75.98H95.5137V92.24H97.7937V85.4C98.5137 86.26 99.8137 87.18 101.634 87.18C104.534 87.18 106.814 84.84 106.814 81.44C106.814 78.04 104.534 75.8 101.634 75.8C99.8337 75.8 98.4937 76.68 97.7937 77.6ZM104.494 81.44C104.494 83.82 102.854 85.2 101.134 85.2C99.4337 85.2 97.7937 83.86 97.7937 81.48C97.7937 79.12 99.4337 77.78 101.134 77.78C102.854 77.78 104.494 79.06 104.494 81.44ZM109.068 87H111.348V72.2H109.068V87ZM118.982 77.72C120.682 77.72 122.022 78.8 122.062 80.5H115.962C116.202 78.76 117.442 77.72 118.982 77.72ZM124.142 83.72H121.682C121.262 84.58 120.482 85.26 119.082 85.26C117.402 85.26 116.102 84.16 115.942 82.34H124.362C124.422 81.96 124.442 81.6 124.442 81.22C124.442 77.98 122.222 75.8 119.082 75.8C115.822 75.8 113.582 78.02 113.582 81.48C113.582 84.94 115.922 87.18 119.082 87.18C121.782 87.18 123.522 85.64 124.142 83.72ZM127.046 83.94C127.046 86.18 128.266 87 130.226 87H132.026V85.1H130.626C129.666 85.1 129.346 84.76 129.346 83.94V77.84H132.026V75.98H129.346V73.24H127.046V75.98H125.746V77.84H127.046V83.94ZM138.767 77.72C140.467 77.72 141.807 78.8 141.847 80.5H135.747C135.987 78.76 137.227 77.72 138.767 77.72ZM143.927 83.72H141.467C141.047 84.58 140.267 85.26 138.867 85.26C137.187 85.26 135.887 84.16 135.727 82.34H144.147C144.207 81.96 144.227 81.6 144.227 81.22C144.227 77.98 142.007 75.8 138.867 75.8C135.607 75.8 133.367 78.02 133.367 81.48C133.367 84.94 135.707 87.18 138.867 87.18C141.567 87.18 143.307 85.64 143.927 83.72ZM145.711 81.44C145.711 84.84 148.011 87.18 150.911 87.18C152.711 87.18 154.031 86.34 154.731 85.34V87H157.031V72.2H154.731V77.52C153.891 76.48 152.371 75.8 150.931 75.8C148.011 75.8 145.711 78.04 145.711 81.44ZM154.731 81.48C154.731 83.86 153.111 85.2 151.391 85.2C149.691 85.2 148.051 83.82 148.051 81.44C148.051 79.06 149.691 77.78 151.391 77.78C153.111 77.78 154.731 79.12 154.731 81.48ZM160.725 82.8H162.625L162.885 73.1H160.465L160.725 82.8ZM163.185 85.68C163.185 84.86 162.545 84.22 161.745 84.22C160.925 84.22 160.285 84.86 160.285 85.68C160.285 86.5 160.925 87.14 161.745 87.14C162.545 87.14 163.185 86.5 163.185 85.68Z" fill="white"/>
<g clip-path="url(#clip0_4311_178260)">
<path d="M83 46.875C77.1984 46.875 71.6344 44.5703 67.532 40.468C63.4297 36.3656 61.125 30.8016 61.125 25C61.125 19.1984 63.4297 13.6344 67.532 9.53204C71.6344 5.42968 77.1984 3.125 83 3.125C88.8016 3.125 94.3656 5.42968 98.468 9.53204C102.57 13.6344 104.875 19.1984 104.875 25C104.875 30.8016 102.57 36.3656 98.468 40.468C94.3656 44.5703 88.8016 46.875 83 46.875ZM83 50C89.6304 50 95.9893 47.3661 100.678 42.6777C105.366 37.9893 108 31.6304 108 25C108 18.3696 105.366 12.0107 100.678 7.32233C95.9893 2.63392 89.6304 0 83 0C76.3696 0 70.0107 2.63392 65.3223 7.32233C60.6339 12.0107 58 18.3696 58 25C58 31.6304 60.6339 37.9893 65.3223 42.6777C70.0107 47.3661 76.3696 50 83 50Z" fill="white"/>
<path d="M92.2814 15.5318C92.2591 15.5533 92.2383 15.5763 92.2189 15.6005L81.3658 29.4286L74.8251 22.8849C74.3808 22.4709 73.7932 22.2455 73.186 22.2562C72.5788 22.2669 71.9995 22.5129 71.5701 22.9423C71.1407 23.3717 70.8947 23.9511 70.884 24.5583C70.8733 25.1654 71.0986 25.7531 71.5126 26.1974L79.7814 34.4693C80.0041 34.6916 80.2694 34.8668 80.5613 34.9844C80.8533 35.102 81.1659 35.1596 81.4806 35.1538C81.7953 35.148 82.1056 35.0788 82.3929 34.9505C82.6803 34.8221 82.9389 34.6372 83.1533 34.4068L95.6283 18.813C96.053 18.3672 96.2853 17.7721 96.2748 17.1563C96.2643 16.5406 96.0119 15.9538 95.5722 15.5227C95.1325 15.0916 94.5407 14.8508 93.9249 14.8525C93.3091 14.8542 92.7187 15.0982 92.2814 15.5318Z" fill="white"/>
</g>
<defs>
<clipPath id="clip0_4311_178260">
<rect width="50" height="50" fill="white" transform="translate(58)"/>
</clipPath>
</defs>
</svg>
