<svg width="22" height="18" viewBox="0 0 22 18" fill="none" xmlns="http://www.w3.org/2000/svg">
<path d="M14.1886 6.883C14.1254 6.82414 14.0747 6.75317 14.0396 6.67431C14.0045 6.59546 13.9856 6.51033 13.9841 6.42402C13.9825 6.3377 13.9984 6.25196 14.0307 6.17191C14.0631 6.09187 14.1112 6.01915 14.1723 5.95811C14.2333 5.89706 14.306 5.84894 14.3861 5.81661C14.4661 5.78427 14.5518 5.76839 14.6382 5.76992C14.7245 5.77144 14.8096 5.79033 14.8885 5.82547C14.9673 5.86061 15.0383 5.91126 15.0971 5.97443L17.6686 8.54585C17.789 8.66639 17.8566 8.82978 17.8566 9.00014C17.8566 9.1705 17.789 9.33389 17.6686 9.45442L15.0971 12.0259C15.0383 12.089 14.9673 12.1397 14.8885 12.1748C14.8096 12.2099 14.7245 12.2288 14.6382 12.2304C14.5518 12.2319 14.4661 12.216 14.3861 12.1837C14.306 12.1513 14.2333 12.1032 14.1723 12.0422C14.1112 11.9811 14.0631 11.9084 14.0307 11.8284C13.9984 11.7483 13.9825 11.6626 13.9841 11.5763C13.9856 11.4899 14.0045 11.4048 14.0396 11.326C14.0747 11.2471 14.1254 11.1761 14.1886 11.1173L15.6629 9.643H10.7857C10.6152 9.643 10.4517 9.57527 10.3311 9.45471C10.2106 9.33415 10.1429 9.17064 10.1429 9.00014C10.1429 8.82964 10.2106 8.66613 10.3311 8.54557C10.4517 8.42501 10.6152 8.35728 10.7857 8.35728H15.6629L14.1886 6.883ZM21.2857 3.643C21.2857 2.79051 20.9471 1.97295 20.3443 1.37015C19.7415 0.767358 18.9239 0.428711 18.0714 0.428711H3.93285C3.08037 0.428711 2.26281 0.767358 1.66001 1.37015C1.05721 1.97295 0.718567 2.79051 0.718567 3.643V14.3573C0.718567 15.2096 1.0571 16.0271 1.65971 16.6298C2.26232 17.2326 3.07966 17.5713 3.932 17.5716H18.0714C18.9239 17.5716 19.7415 17.2329 20.3443 16.6301C20.9471 16.0273 21.2857 15.2098 21.2857 14.3573V3.643ZM18.0714 1.71443C18.5829 1.71443 19.0735 1.91761 19.4351 2.27929C19.7968 2.64097 20 3.13151 20 3.643V14.3573C20 14.8688 19.7968 15.3593 19.4351 15.721C19.0735 16.0827 18.5829 16.2859 18.0714 16.2859H8.43285V1.71443H18.0714ZM7.14714 1.71443V16.2859H3.932C3.42051 16.2859 2.92997 16.0827 2.56829 15.721C2.20661 15.3593 2.00342 14.8688 2.00342 14.3573V3.643C2.00342 3.13151 2.20661 2.64097 2.56829 2.27929C2.92997 1.91761 3.42051 1.71443 3.932 1.71443H7.14628H7.14714Z" fill="#3D4C66"/>
</svg>
