<svg width="17" height="20" viewBox="0 0 17 20" fill="none" xmlns="http://www.w3.org/2000/svg">
<path fill-rule="evenodd" clip-rule="evenodd" d="M4.3565 17.5029L2.14775 18.6279C2.0619 18.6706 1.95999 18.6655 1.87882 18.6145C1.79764 18.5634 1.74892 18.4738 1.75025 18.3779V2.46914C1.737 1.82339 2.24951 1.28906 2.89525 1.27539H14.354C14.9997 1.28906 15.5123 1.82339 15.499 2.46914V18.3779C15.5003 18.4738 15.4516 18.5634 15.3704 18.6145C15.2893 18.6655 15.1874 18.6706 15.1015 18.6279L12.8928 17.5029C12.8048 17.458 12.6993 17.4647 12.6178 17.5204L10.8403 18.7279C10.7482 18.7905 10.6273 18.7905 10.5353 18.7279L8.77775 17.5341C8.68571 17.4716 8.56479 17.4716 8.47275 17.5341L6.71525 18.7279C6.62321 18.7905 6.50229 18.7905 6.41025 18.7279L4.6315 17.5254C4.55088 17.4681 4.44537 17.4594 4.3565 17.5029Z" stroke="#243249" stroke-width="1.875" stroke-linecap="round" stroke-linejoin="round"/>
<path d="M5.49805 11.5879C4.98028 11.5879 4.56055 12.0076 4.56055 12.5254C4.56055 13.0432 4.98028 13.4629 5.49805 13.4629V11.5879ZM11.6405 13.4629C12.1583 13.4629 12.578 13.0432 12.578 12.5254C12.578 12.0076 12.1583 11.5879 11.6405 11.5879V13.4629ZM6.78596 7.48748C6.41984 7.12136 5.82625 7.12136 5.46013 7.48748C5.09402 7.85359 5.09402 8.44719 5.46013 8.8133L6.78596 7.48748ZM7.37305 9.40039L6.71013 10.0633C7.07625 10.4294 7.66984 10.4294 8.03596 10.0633L7.37305 9.40039ZM11.786 6.3133C12.1521 5.94719 12.1521 5.35359 11.786 4.98748C11.4198 4.62136 10.8263 4.62136 10.4601 4.98748L11.786 6.3133ZM5.49805 13.4629H11.6405V11.5879H5.49805V13.4629ZM5.46013 8.8133L6.71013 10.0633L8.03596 8.73748L6.78596 7.48748L5.46013 8.8133ZM8.03596 10.0633L11.786 6.3133L10.4601 4.98748L6.71013 8.73748L8.03596 10.0633Z" fill="#243249"/>
</svg>
