<svg width="20" height="21" viewBox="0 0 20 21" fill="none" xmlns="http://www.w3.org/2000/svg">
<path d="M19.3375 10.2875C18.6024 8.38603 17.3262 6.74164 15.6667 5.55755C14.0072 4.37347 12.0372 3.70161 9.99998 3.625C7.9628 3.70161 5.99272 4.37347 4.33323 5.55755C2.67374 6.74164 1.39758 8.38603 0.662478 10.2875C0.612833 10.4248 0.612833 10.5752 0.662478 10.7125C1.39758 12.614 2.67374 14.2584 4.33323 15.4424C5.99272 16.6265 7.9628 17.2984 9.99998 17.375C12.0372 17.2984 14.0072 16.6265 15.6667 15.4424C17.3262 14.2584 18.6024 12.614 19.3375 10.7125C19.3871 10.5752 19.3871 10.4248 19.3375 10.2875ZM9.99998 16.125C6.68748 16.125 3.18748 13.6687 1.91873 10.5C3.18748 7.33125 6.68748 4.875 9.99998 4.875C13.3125 4.875 16.8125 7.33125 18.0812 10.5C16.8125 13.6687 13.3125 16.125 9.99998 16.125Z" fill="white"/>
<path d="M10 6.75C9.25832 6.75 8.5333 6.96993 7.91661 7.38199C7.29993 7.79404 6.81928 8.37971 6.53545 9.06494C6.25162 9.75016 6.17736 10.5042 6.32206 11.2316C6.46675 11.959 6.8239 12.6272 7.34835 13.1517C7.8728 13.6761 8.54098 14.0333 9.26841 14.1779C9.99584 14.3226 10.7498 14.2484 11.4351 13.9645C12.1203 13.6807 12.706 13.2001 13.118 12.5834C13.5301 11.9667 13.75 11.2417 13.75 10.5C13.75 9.50544 13.3549 8.55161 12.6517 7.84835C11.9484 7.14509 10.9946 6.75 10 6.75ZM10 13C9.50555 13 9.0222 12.8534 8.61108 12.5787C8.19995 12.304 7.87952 11.9135 7.6903 11.4567C7.50108 10.9999 7.45158 10.4972 7.54804 10.0123C7.6445 9.52732 7.8826 9.08186 8.23223 8.73223C8.58187 8.3826 9.02732 8.1445 9.51228 8.04804C9.99723 7.95157 10.4999 8.00108 10.9567 8.1903C11.4135 8.37952 11.804 8.69995 12.0787 9.11107C12.3534 9.5222 12.5 10.0055 12.5 10.5C12.5 11.163 12.2366 11.7989 11.7678 12.2678C11.2989 12.7366 10.663 13 10 13Z" fill="white"/>
</svg>
